<svg width="365" height="436" viewBox="0 0 365 436" fill="none" xmlns="http://www.w3.org/2000/svg">
<path d="M109.945 0C116.227 6.33284 123.997 10.9892 132.543 13.5432C135.844 14.4976 139.469 15.0712 142.692 16.1873C151.131 19.1076 157.655 22.718 164.204 28.744C164.165 26.0728 163.558 22.6654 163.136 19.9487C167.458 24.2157 172.887 29.5812 176.286 34.8201C176.562 35.2432 177.03 38.0197 177.137 38.6665C184.083 40.7695 186.758 44.7263 190.684 50.4163C189.343 49.7804 187.037 48.1555 185.722 47.2839C191.885 54.3968 194.2 68.7311 196.931 77.671C195.759 75.6904 193.525 71.8476 191.746 70.5425L191.343 70.7133C192.713 76.6718 189.645 88.1724 188.495 94.9038C194.775 108.076 196.016 116.796 185.261 128.741C182.196 132.144 180.917 133.456 176.416 134.652L176.455 143.424C180.878 143.494 185.758 142.86 190.073 143.716C196.866 144.931 202.584 150.114 208.981 152.041C221.924 155.939 237.51 157.844 244.507 171.233C245.339 172.825 246.952 176.953 247.917 178.155C251.768 182.959 254.382 183.664 251.089 189.99C259.265 190.009 266.149 189.067 274.091 188.479C289.866 187.31 300.584 192.319 312.598 201.958C313.897 202.617 315.401 203.293 316.514 204.205C324.161 210.681 330.896 219.614 335.831 228.319C337.585 231.409 338.9 235.246 340.513 238.468C342.14 241.714 345.923 247.975 344.582 251.644L343.903 252.279C341.526 251.687 339.156 250.833 336.828 250.046C336.643 255.164 336.951 259.653 337.137 264.708C337.331 269.994 335.951 278.479 340.134 282.656C345.972 288.485 356.638 291.329 355.499 301.546C355.239 304.916 354.577 311.786 355.073 314.903C355.401 316.965 358.343 323.986 359.45 326.119C365.201 337.18 361.412 347.857 355.46 358.261C357.112 362.398 358.561 370.02 359.252 374.472C361.291 387.578 366.474 404.821 363.217 417.732C362.119 422.077 353.456 429.319 351.459 435.06H201.536H190.629H180.897H108.154H107.884H0.427308H0C0.863071 428.15 -1.95603 427.952 4.60078 422.668C-1.86804 416.485 0.514978 410.104 0.812085 402.093C1.20401 391.53 10.4377 392.241 17.7284 395.647C12.8178 390.426 8.73852 388.354 4.83846 383.113C6.18892 377.521 14.39 365.106 14.9567 359.745C15.5671 353.971 13.7552 342.463 13.7984 336.134C13.8225 332.663 14.2069 329.237 14.3832 325.788L15.4934 303.639C15.9282 295.833 15.7827 288.301 16.3214 280.339C17.29 266.099 20.5887 252.116 26.086 238.946C30.3387 235.847 34.6537 232.836 39.0288 229.913C39.8633 229.352 45.6113 225.584 45.8545 225.21C48.1583 221.67 49.9835 220.863 53.1377 218.58C55.3632 216.969 55.0499 209.99 58.082 208.11C58.531 209.46 60.115 212.685 61.3726 213.226C61.5037 211.226 59.4198 209.391 58.082 208.11C57.8414 207.018 54.7385 202.013 53.8546 200.04C53.914 199.302 54.0829 197.271 54.1881 196.622C55.7272 187.137 73.0951 182.882 79.9328 178.289C85.4028 174.614 89.5662 170.581 94.7057 166.628C91.933 164.408 89.623 161.501 87.2822 159.273C77.266 150.362 74.6255 138.71 73.9157 125.882C73.487 118.139 72.9048 116.107 69.0587 109.334L68.7421 109.415C68.5479 109.972 68.3236 110.518 68.0706 111.05C67.1166 113.041 63.2591 119.833 61.3547 120.529L60.8865 120.036C59.2496 114.238 58.3788 106.036 58.8713 100.006C56.0818 101.987 51.9927 105.885 50.2702 108.829C51.7677 101.502 52.8642 91.4211 54.0394 83.6876C51.2871 84.5705 48.4093 84.9709 45.6369 85.7772C42.4272 86.7111 39.3035 88.052 36.2048 89.2921C38.0953 87.9467 40.3072 86.2935 41.8496 84.5955C45.206 80.9004 45.935 79.0949 50.0601 76.1558C46.5153 77.442 43.0649 78.2467 39.4282 79.2102C44.1884 75.0627 44.732 71.2728 49.623 66.5161C43.6247 67.2932 36.9955 66.1391 31.2417 64.3258C28.4603 63.4494 26.222 62.2439 23.2299 61.5964L22.8256 61.512C38.2122 57.7786 45.5265 51.6704 57.2978 41.6407C51.958 40.1314 50.5965 38.0102 46.3006 34.6035C49.3337 35.2698 56.5107 36.094 59.4097 34.8743L59.487 34.421C57.3173 32.0946 46.6156 28.9083 42.9967 28.3781C51.856 28.052 66.1915 25.5945 74.3339 22.2475C68.8545 18.704 68.5408 18.3669 64.3634 13.3184C70.6157 13.4777 77.0211 14.3726 83.1743 14.0531C86.7361 13.8681 91.3862 12.474 95.1132 11.9715C102.014 11.0412 108.26 11.8671 115.082 12.6743C112.27 7.18955 111.391 5.95326 109.945 0Z" fill="#101215"/>
<path d="M163.029 248.294C165.983 243.813 170.604 239.084 173.932 234.767C180.335 226.466 186.398 218.998 193.639 211.383C189.356 222.59 185.079 232.027 183.196 244.142C182.657 247.613 182.414 251.718 182.125 255.257C177.702 258.955 178.829 263.054 178.865 268.415L181.637 271.048C181.459 278.825 181.998 286.327 182.871 294.066C183.164 296.654 184.449 301.421 184.56 303.684C184.885 310.211 184.466 314.458 187.934 320.612C188.865 322.265 191.155 322.865 192.947 323.223C194.908 327.814 196.866 332.487 199.22 336.884C202.104 342.268 205.309 346.918 207.491 352.669C209.712 358.527 211.579 364.437 213.686 370.318C217.021 379.628 220.758 388.935 223.804 398.336C226.268 405.948 228.233 412.982 231.269 420.447C226.73 415.433 219.92 407.071 214.722 403.272C208.598 398.794 200.38 394.15 194.58 389.068C191.901 386.337 190.031 382.242 187.885 379.177C181.066 369.442 175.764 358.894 169.604 348.837L169.224 349.448C173.562 358.229 177.381 367.818 181.504 376.735C183.878 381.866 186.836 386.896 189.041 392.033C190.457 395.336 191.479 399.596 192.794 403.019C196.899 413.702 200.292 423.535 204.942 434.021C201.497 434.04 194.512 433.888 191.343 434.303C194.226 434.816 199.906 433.975 201.536 435.06H190.629H180.897H108.154C108.985 434.443 110.52 434.485 111.796 434.297C112.607 434.164 112.595 434.141 113.288 433.784C114.154 429.527 113.015 419.768 113.118 414.956C113.302 406.425 113.558 397.32 114.68 388.883L115.781 388.61C116.25 384.538 116.392 380.327 117.095 376.29C118.693 367.123 120.941 357.784 122.473 348.62C125.425 331.448 127.305 313.179 132.209 296.481C135.679 284.666 141.908 272.928 148.543 262.685C150.212 260.104 152.128 258.177 153.742 255.357C152.924 260.173 153.554 266.354 153.437 271.263C153.226 279.858 153.135 288.06 150.829 296.41C149.368 301.713 148.826 306.895 148.816 312.399L146.173 314.403C146.657 316.855 147.511 320.164 147.676 322.57C147.813 324.58 146.631 327.084 147.42 329.321C147.93 329.532 147.988 329.548 148.521 329.581L148.946 329.604C149.998 331.367 149.216 339.141 156.58 334.325C157.931 333.442 160.535 328.282 160.535 326.84C160.528 321.622 158.635 315.533 158.801 310.172C159.6 300.809 161.908 291.433 162.769 282.043C163.814 270.671 162.454 259.61 163.029 248.294Z" fill="#C9C8C9"/>
<path d="M114.68 388.883L115.781 388.61C115.789 394.215 115.052 399.794 114.874 405.347C114.7 410.773 114.794 416.524 114.813 421.967C119.761 422.876 129.868 423.269 134.931 422.974C143.754 422.454 153.443 420.061 162.21 418.521C167.084 417.589 172.133 415.735 176.981 415.748C179.131 415.751 180.141 416.872 181.329 418.664C184.011 422.714 187.849 431.196 191.343 434.303C194.226 434.816 199.906 433.975 201.536 435.06H190.629H180.897H108.154C108.985 434.443 110.52 434.485 111.796 434.297C112.607 434.164 112.595 434.141 113.288 433.784C114.154 429.527 113.015 419.768 113.118 414.956C113.302 406.425 113.558 397.32 114.68 388.883Z" fill="#101215"/>
<path d="M177.881 417.989C180.745 424.285 183.105 428.176 186.567 434.011C183.005 434.414 182.881 434.053 180.745 431.222L180.3 432.186L181.072 433.492L180.868 433.933C175.608 434.735 164.941 433.596 159.34 434.141C149.118 433.781 138.268 434.222 128.004 434.066C125.974 434.037 116.33 434.3 114.957 433.894L114.584 432.966C114.24 431.332 114.29 428.809 114.515 427.137L114.64 423.5C121.661 423.467 129.709 425.503 136.697 424.542C150.544 422.639 163.912 419.398 177.881 417.989Z" fill="#C9C8C9"/>
<path d="M177.881 417.989C180.745 424.285 183.105 428.176 186.567 434.011C183.005 434.414 182.881 434.053 180.745 431.222C178.02 427.588 176.751 425.006 174.637 420.989C168.886 422.886 158.113 423.954 151.852 425.276C148.602 425.964 139.102 428.231 136.578 428.179C129.204 428.017 122.14 427.26 114.515 427.137L114.64 423.5C121.661 423.467 129.709 425.503 136.697 424.542C150.544 422.639 163.912 419.398 177.881 417.989Z" fill="#C9C8C9"/>
<path d="M114.515 427.137C122.139 427.26 129.204 428.017 136.578 428.179C139.102 428.231 148.602 425.964 151.852 425.276C158.112 423.954 168.886 422.886 174.637 420.989C176.751 425.006 178.02 427.588 180.745 431.222L180.3 432.186C178.049 429.043 175.572 425.782 173.877 422.324C165.964 423.591 158.064 424.935 150.177 426.354C146.566 427.023 139.827 428.757 136.529 428.802C129.098 428.903 122.296 427.825 114.675 427.971C114.685 429.527 114.754 431.459 114.584 432.966C114.24 431.332 114.29 428.809 114.515 427.137Z" fill="#313034"/>
<path d="M169.224 349.448C168.646 348.409 168.081 347.698 168.133 346.548C168.964 347.094 169.101 347.821 169.604 348.837L169.224 349.448Z" fill="#6E6E70"/>
<path d="M70.0529 244.824C68.6183 257.853 70.2526 271.389 70.4705 284.201C70.7533 300.828 70.4101 323.957 65.3144 339.521C63.438 345.856 61.7303 352.198 59.8902 358.544C59.7058 359.18 58.4674 363.639 58.3651 363.834C56.7253 371.341 53.9445 379.3 52.42 386.902C50.8377 394.793 50.6361 403.314 50.1698 411.358C49.8376 417.093 49.0638 423.912 49.4788 429.566C49.521 430.267 49.4032 429.952 49.9016 430.511C48.8752 431.527 48.7768 431.809 48.1917 433.086L47.916 433.544C46.2483 433.738 32.671 433.589 32.0349 433.128L32.0664 431.527L31.6232 429.039C31.5638 427.874 32.2762 425.451 32.8548 424.37L33.3344 424.425L34.1458 422.736L34.7199 424.337C35.1151 423.737 35.6642 423.37 36.2314 422.915C36.56 423.487 36.3376 423.272 36.9282 423.574L37.5617 421.97C41.4271 406.779 39.4139 406.136 35.4151 391.559C34.6027 388.598 33.9659 382.788 32.8837 379.986C34.3562 375.046 36.5402 364.772 36.6444 359.739C37.0013 359.745 37.3578 359.745 37.7147 359.742C40.6159 359.706 40.9147 359.414 42.8291 357.449C43.2068 349.588 47.7101 352.552 44.6819 342.81C43.1162 337.774 45.533 320.625 47.2844 315.471C50.0029 307.47 53.134 300.432 55.3027 292.349C59.4593 276.857 61.7251 258.686 70.0529 244.824Z" fill="#C9C8C9"/>
<path d="M58.3651 363.833L57.9699 363.298C58.2709 361.083 58.4352 360.505 59.2097 358.394L58.5969 358.138C56.0804 352.354 60.826 348.561 63.3221 344.061C64.1657 342.541 64.2072 340.261 64.9726 338.725L65.3145 339.521C63.438 345.856 61.7304 352.198 59.8902 358.544C59.7058 359.18 58.4674 363.639 58.3651 363.833Z" fill="#BCCAD4"/>
<path d="M36.2314 422.915C36.56 423.487 36.3376 423.272 36.9283 423.574L37.5618 421.97C37.4387 426.081 38.1144 428.435 39.0798 432.365C37.4215 429.9 36.0642 427.003 34.7199 424.337C35.1151 423.737 35.6642 423.37 36.2314 422.915Z" fill="#353334"/>
<path d="M31.6232 429.039C31.5638 427.874 32.2762 425.451 32.8548 424.37L33.3344 424.425C32.4022 427.432 32.4044 428.455 32.0664 431.527L31.6232 429.039Z" fill="#6E6E70"/>
<path d="M96.6883 169.653C97.919 171.799 98.6606 172.722 100.183 174.624C93.2581 179.68 86.3903 187.607 78.8866 192.874C82.776 193.571 85.1226 193.547 89.0999 193.529C89.2938 195.472 90.5011 204.605 90.4121 205.72C89.7341 214.229 86.1308 222.812 84.8119 231.533C84.2112 227.3 82.2629 215.792 80.8624 212.005C81.8353 222.321 83.0399 235.3 82.9188 245.683C82.7753 257.945 80.4082 272.009 78.6288 284.116C76.2714 300.155 74.9265 316.28 71.8249 332.211C67.7907 349.321 62.1665 365.684 58.5531 383.064L57.8992 382.772C59.3558 371.867 63.453 361.187 65.648 350.458C66.9484 344.103 67.9456 337.673 69.4545 331.344C72.2519 317.563 73.1997 303.59 74.5398 289.638C75.909 279.868 78.9606 269.529 79.3035 259.727C78.8272 254.35 76.8208 249.39 75.6827 244.114C72.8575 230.986 70.3316 216.589 63.375 204.965C61.4807 202.068 55.861 197.438 59.6363 193.97C62.2944 191.527 66.9845 188.217 70.3579 186.761C80.0036 182.599 87.9787 175.535 96.6883 169.653Z" fill="#C9C8C9"/>
<path d="M67.5179 422.775C66.4181 417.817 64.152 410.38 66.8211 405.678C67.488 404.503 69.7519 403.925 71.0601 403.714C83.6968 401.648 95.0154 394.741 106.719 390.172C106.612 393.166 106.54 396.147 106.267 399.132C96.4769 402.701 81.4722 410.257 72.4012 412.446C82.2986 417.242 95.0339 407.916 105.902 406.909C105.114 416.836 105.163 424.266 104.986 434.112L86.122 434.138C80.9147 434.141 76.1675 434.32 71.0033 433.56C74.1968 430.29 78.0702 427.835 80.7124 425.071C83.9598 422.792 85.3437 421.33 89.0349 419.138C82.9383 420.314 76.9081 421.603 70.7293 422.227C69.6909 422.331 68.5427 422.571 67.5179 422.775Z" fill="#5A6F99"/>
<path d="M140.149 260.823C139.944 262.703 137.617 268.204 136.845 270.386C127.948 295.533 126.129 322.19 120.727 348.133C120.076 351.26 119.918 354.793 119.383 357.975C117.676 368.146 115.219 378.57 114.68 388.883C113.558 397.32 113.302 406.425 113.119 414.956C113.015 419.768 114.154 429.527 113.288 433.784C112.595 434.141 112.607 434.164 111.796 434.297C110.755 434.248 109.937 434.294 108.978 433.901C108.709 433.605 108.184 432.985 108.198 432.595C108.514 427.114 108.09 421.493 108.43 416.015C109.453 399.531 109.45 382.707 112.126 366.396C113.506 361.265 114.267 354.76 115.987 349.805C119.301 340.264 120.722 331.334 122.59 321.433C125.064 308.308 126.053 294.655 129.684 281.786C131.634 274.874 136.519 267.118 140.149 260.823Z" fill="#C9C8C9"/>
<path d="M48.1917 433.086C48.2674 433.339 48.4625 433.716 48.5807 433.969C54.9635 432.842 63.9215 434.829 70.1624 433.485C71.1459 433.271 76.815 426.464 80.7124 425.071C78.0703 427.835 74.1969 430.29 71.0034 433.56C76.1675 434.32 80.9147 434.141 86.122 434.138L104.986 434.112C106.168 434.212 107.103 434.141 107.884 435.06H0.427307C3.51008 433.047 20.451 435.537 25.7931 433.995C26.4399 433.388 26.4081 432.891 26.536 432.066C27.0715 431.751 26.9068 431.8 27.2754 431.166C27.5943 431.407 29.9013 433.803 30.3289 434.232C30.8468 432.667 31.2469 430.676 31.6232 429.039L32.0664 431.527L32.035 433.128C32.6711 433.589 46.2484 433.738 47.916 433.543L48.1917 433.086Z" fill="#313034"/>
<path d="M30.9212 403.61C31.9697 407.831 33.7231 416.105 33.3198 420.262C33.5838 421.243 33.7085 421.811 34.1459 422.737L33.3345 424.425L32.8548 424.37C32.2762 425.451 31.5638 427.874 31.6232 429.04C31.2469 430.676 30.8469 432.667 30.329 434.232C29.9013 433.803 27.5943 431.407 27.2754 431.167C25.3327 427.15 28.1352 419.177 28.9077 414.725C29.5406 411.079 30.2741 407.273 30.9212 403.61Z" fill="#BDBBBC"/>
<path d="M57.8991 382.772L58.5531 383.064C57.6864 388.334 56.9214 393.488 56.1902 398.781C54.8043 408.806 58.8564 423.587 49.9016 430.511C49.4032 429.952 49.521 430.267 49.4788 429.566C56.1824 421.226 54.2816 413.855 54.9699 403.889C55.4765 396.553 56.6769 389.965 57.8991 382.772Z" fill="#C9C8C9"/>
<path d="M312.598 201.958C313.897 202.617 315.401 203.293 316.514 204.205C316.453 205.059 316.719 206.055 316.878 206.925C315.219 206.754 312.813 203.56 312.598 201.958Z" fill="#313034"/>
<path d="M33.3198 420.262C34.5183 420.213 34.743 420.171 35.8201 420.671C36.565 421.746 36.3737 421.249 36.2315 422.915C35.6642 423.37 35.1151 423.737 34.72 424.337L34.1459 422.736C33.7085 421.811 33.5838 421.243 33.3198 420.262Z" fill="#313034"/>
<path d="M246.809 207.491C247.654 207.58 248.969 208.205 249.868 208.424C256.866 210.127 277.825 215.86 282.534 220.362C284.771 222.5 286.3 225.789 287.638 228.56C291.739 237.07 294.34 246.324 298.194 254.983C301.188 261.714 306.517 268.1 308.354 275.224C309.062 277.967 308.9 280.81 309.02 283.619C309.309 290.242 309.264 297.109 309.92 303.686C310.202 306.517 313.001 311.549 314.05 314.601C317.326 324.151 320.063 333.874 323.359 343.418C324.522 346.775 325.557 350.542 327.226 353.682C329.246 357.478 338.5 366.204 341.955 370.192C341.491 380.476 343.543 390.413 345.514 400.427C347.193 408.965 340.689 417.917 336.237 424.811C331.769 421.847 325.687 419.392 320.469 418.164C320.112 426.334 320.576 426.682 324.343 434.066C322.914 434.076 318.765 434.186 317.803 433.647C306.689 427.426 295.921 422.762 283.352 420.239C279.55 419.476 260.122 420.415 259.028 419.791C260.519 414.943 283.349 410.208 288.015 408.552C291.142 407.442 298.983 409.718 302.273 406.659C303.968 402.239 294.73 397.589 291.515 396.154C283.82 397.122 270.354 402.46 263.636 406.549C263.253 404.636 263.175 404.058 262.272 402.36C264.905 400.83 268.039 399.232 270.536 397.703C277.897 393.196 281.186 390.773 289.476 388.182C292.895 389.646 297.928 390.659 301.617 392.062C310.819 395.56 320.411 399.012 329.389 403.016C334.032 401.359 336.812 399.963 340.458 396.703C339.604 392.981 336.831 387.211 333.808 384.853C329.337 381.369 300.974 379.44 293.635 379.229C288.862 379.093 283.992 379.145 279.241 379.654C270.016 380.638 270.994 383.223 265.73 389.555C264.36 391.202 259.905 395.67 257.843 395.862L256.953 394.969L256.418 394.072C256.447 392.556 258.067 392.786 259.317 391.296C262.067 388.019 264.487 383.902 266.074 379.992C270.578 377.764 276.689 377.073 280.699 373.728C289.534 366.353 293.366 357.716 304.887 353.51C303.688 352.104 302.441 350.987 301.094 349.734C299.039 350.578 282.492 361.859 279.511 363.866C274.591 363.444 269.666 363.106 264.75 362.648C261.152 362.31 257.681 361.719 254.057 361.596C254.388 351.74 255.177 341.826 255.573 331.987C255.755 327.545 256.366 320.017 255.635 315.913C254.797 311.214 251.161 304.508 248.323 300.589C245.452 296.631 241.325 292.883 238.016 288.95C239.825 293.039 246.28 313.766 246.18 318.043C246.027 324.509 245.076 330.146 245.848 338.076C245.757 337.848 245.666 337.618 245.576 337.391C239.955 316.682 231.11 296.574 227.499 275.398C226.093 267.167 227.288 266.99 229.665 259.729C234.743 244.215 241.988 228.969 256.32 220.022C257.099 219.537 259.538 218.036 259.827 217.388L259.281 217.276C251.989 219.893 235.805 237.484 231.918 244.436C228.496 250.931 223.252 262.258 222.622 269.595C221.07 287.717 221.028 312.5 225.866 330.094C219.372 322.067 215.67 302.66 213.098 292.351C212.251 288.957 211.79 277.108 212.153 273.347C212.738 267.29 213.144 260.918 213.41 254.76C215.222 245.99 219.336 234.316 223.421 226.453C227.817 217.992 237.672 210.163 246.809 207.491Z" fill="#C9C8C9"/>
<path d="M311.381 350.292C318.167 349.337 320.836 354.991 322.151 360.476C315.706 362.551 308.436 362.103 301.347 365.314C299.675 366.275 294.217 369.357 292.798 366.97C293.476 363.577 304.611 357.332 307.621 355.024C308.478 354.364 310.657 351.292 311.381 350.292Z" fill="#101215"/>
<path d="M295.772 276.539L296.12 276.95C296.538 279.343 295.029 283.804 294.567 286.362C290.872 306.788 282.42 324.447 273.004 342.833L272.747 342.635C274.949 337.183 278.144 331.243 280.605 325.752C286.382 312.857 294.671 290.518 295.772 276.539Z" fill="#313034"/>
<path d="M142.059 64.8658C145.072 66.6148 146.456 83.2313 147.456 85.7899L147.917 85.8097C149.537 83.8259 151.407 80.7046 152.826 78.4701C152.761 80.2516 152.791 87.8298 153.758 88.9628L154.687 88.6923C156.642 89.8773 157.788 91.4324 159.249 92.9005C166.081 99.7689 164.344 108.878 164.431 117.661C164.438 118.359 164.35 119.918 164.675 120.453C166.22 118.905 167.594 119.002 169.857 118.531C172.52 112.861 171.822 110.094 173.786 104.726C175.091 102.068 178.8 99.1899 181.465 98.3885C189.869 95.8634 190.119 106.38 191.564 111.922C191.233 112.925 190.885 113.924 190.525 114.916C188.781 119.553 181.537 128.602 176.939 131.108C174.494 132.44 170.611 130.478 168.026 129.458C166.935 132.016 165.974 134.627 165.146 137.282C164.048 140.812 162.227 149.627 159.402 151.962C149.268 160.331 136.386 170.398 124.203 175.533C121.922 176.494 115.24 176.523 112.879 176.57C102.492 175.42 105.642 172.469 99.9653 166.217C93.4338 159.723 87.8833 153.863 83.7433 145.575C77.5215 133.121 78.3291 120.549 74.6521 107.616C73.9001 104.972 73.5238 102.664 73.2536 99.9394L78.8593 100.754C79.0395 101.952 79.111 102.896 79.6468 103.997L80.2679 104.139C81.2154 103.079 80.441 103.026 81.1489 101.504C85.8068 103.145 90.4124 104.842 95.3314 105.471C96.8942 105.671 98.4161 106.036 99.9364 106.448C98.4622 102.287 97.6729 100.037 92.8107 98.9986C89.5704 98.3063 86.2464 97.7432 83.0292 96.9531C89.7831 86.7868 96.3981 77.9372 106.196 70.5905C105.291 72.6512 103.522 76.1632 103.693 78.2977C105.23 79.1027 121.314 67.7611 124.34 68.2105C124.529 69.4731 123.423 70.6295 123.038 72.3759C125.234 72.6295 139.385 66.0728 142.059 64.8658Z" fill="#EFBFAB"/>
<path d="M137.963 90.5683C141.805 90.0757 148.128 94.5953 150.953 97.0139C136.513 93.2694 138.844 96.3764 126.044 100.115C118.825 102.127 116.771 103.933 112.785 96.6992C119.069 96.7233 131.25 92.3472 137.963 90.5683Z" fill="#101215"/>
<path d="M131.169 103.527C134.225 103.067 138.714 102.954 141.698 104.17C143.082 104.734 144.316 106.789 145.939 107.016L146.767 106.582C146.709 107.402 144.462 109.319 143.689 109.861C143.098 108.992 144.202 108.589 143.462 107.422L142.754 107.578C142.27 108.482 142.338 110.554 142.312 110.581C136.533 117.288 130.639 115.125 130.213 106.763C125.502 108.445 125.194 110.094 121.488 113.35C122.4 111.103 123.216 108.994 124.862 107.149L124.406 106.191C123.843 106.687 123.696 106.89 122.961 107.092L122.856 106.57C124.534 103.838 128.26 103.338 131.169 103.527Z" fill="#101215"/>
<path d="M124.406 106.191C123.843 106.687 123.695 106.89 122.961 107.092L122.856 106.57C124.534 103.838 128.26 103.338 131.169 103.527L130.334 104.042C128.124 105.522 127.451 105.028 124.862 107.149L124.406 106.191Z" fill="#313034"/>
<path d="M124.406 106.191C125.626 104.862 128.548 103.783 130.334 104.042C128.124 105.522 127.451 105.028 124.862 107.149L124.406 106.191Z" fill="#C9C8C9"/>
<path d="M184.514 100.846L185.641 101.055C186.836 102.217 188.443 108.652 189.207 110.935C187.551 109.453 185.43 106.556 183.774 104.69C182.336 106.992 181.491 108.777 179.241 110.23C183.401 114.153 184.001 118.745 179.365 122.63C177.65 123.713 174.978 125.55 172.935 125.211C172.263 123.567 174.705 121.781 175.416 120.206C175.858 119.223 176.059 118.384 176.319 117.358C175.325 115.725 174.484 114.078 173.598 112.386C173.796 111.799 174.004 111.216 174.221 110.637C175.825 106.408 180.488 102.681 184.514 100.846Z" fill="#101215"/>
<path d="M91.3099 106.536C94.9317 107.338 99.5282 109.393 98.7837 114.059C98.6898 114.647 97.3014 116.352 96.8744 116.898C86.6864 120.932 89.5711 112.769 87.439 110.507C82.9159 109.662 83.7874 112.398 81.3391 113.287L81.0215 113.11C79.8542 112.469 79.5857 112.324 78.2112 112.5L78.1167 112.163C79.5824 110.765 81.7021 109.233 83.5766 108.368C84.6813 107.859 90.1958 108.017 90.5838 107.373L91.3099 106.536Z" fill="#101215"/>
<path d="M102.301 109.811C105.02 116.684 104.495 120.24 102.882 127.331C100.817 136.079 101.851 135.927 108.606 141.92L103.371 141.464C97.6089 136.491 100.18 132.835 102.412 126.725C103.488 119.919 103.744 116.755 102.301 109.811Z" fill="#101215"/>
<path d="M137.511 141.736C138.144 141.724 137.946 141.741 138.587 142.024L138.865 142.776C137.5 147.181 118.908 152.015 114.024 152.195C109.284 152.37 105.143 151.69 100.649 150.364L99.7468 149.817L99.9189 149.597C102.226 150.072 104.115 150.562 106.584 150.975C114.582 152.311 124.832 149.614 132.057 146.093C132.58 145.837 136.533 142.479 137.511 141.736Z" fill="#101215"/>
<path d="M90.5839 107.373C82.6834 105.372 80.9475 109.329 78.5664 109.325L78.5596 108.887C81.6726 105.996 87.3959 105.256 91.3099 106.536L90.5839 107.373Z" fill="#101215"/>
<path d="M117.245 136.745L117.443 136.981L115.493 138.721L110.624 139.627C110.203 138.991 110.361 139.347 110.322 138.451C111.266 137.292 115.39 137.286 117.245 136.745Z" fill="#101215"/>
<path d="M111.783 158.181C113.395 158.117 117.421 157.883 118.705 158.585L117.843 158.896C117.668 158.91 117.494 158.923 117.319 158.933C115.953 159.009 111.732 159.31 110.882 158.545L111.783 158.181Z" fill="#313034"/>
<path d="M97.8713 215.774C98.1398 217.029 98.6363 218.478 98.9948 219.705C100.708 225.219 111.791 230.217 117.189 229.744C127.007 228.884 139.745 221.46 149.121 217.891C147.176 221.567 146.189 225.185 144.248 228.836C142.16 229.975 140.925 230.682 138.656 231.487L138.629 231.713L138.717 232.431C140.196 231.86 140.963 231.482 142.553 231.401L143.157 231.687C143.04 233.921 140.56 237.229 139.776 239.465C135.518 251.609 131.783 263.973 127.644 276.172C123.194 292.374 121.697 308.097 119.286 324.658C118.43 330.536 115.245 337.329 114.656 343.262L113.691 347.409C113.054 350.964 111.075 355.689 110.776 358.969C109.899 368.581 108.639 377.855 107.188 387.386C100.56 387.152 93.264 388.344 87.5453 387.981C83.9706 386.039 72.6802 375.771 69.211 372.718C70.0715 369.425 70.3796 367.789 72.311 364.928C74.7762 364.882 79.6201 364.071 82.2509 363.739C89.0613 362.889 94.3141 363.109 101.01 364.291C87.2738 359.073 86.0075 355.481 75.3548 346.389C76.6315 341.469 77.5235 336.183 78.7213 331.188C80.3825 324.742 80.1059 317.738 81.1927 311.289C84.7892 289.946 82.562 268.102 86.614 246.917C87.5427 242.062 89.8166 233.906 92.0441 229.585C99.0341 235.808 102.522 238.344 111.945 239.229C103.369 235.198 98.6334 232.447 93.8861 223.598C95.3437 220.949 96.5556 218.499 97.8713 215.774Z" fill="#6482A2"/>
<path d="M123.82 274.549C124.697 274.947 127.457 275.817 127.644 276.172C123.194 292.374 121.697 308.097 119.286 324.658C118.43 330.536 115.245 337.329 114.656 343.262C114.579 342.957 114.485 342.499 114.239 342.304C111.347 340.018 111.681 333.468 110.617 332.166L110.094 332.169C109.355 330.665 109.551 325.177 110.106 323.544C110.59 319.634 112.811 313.539 113.836 309.551C116.407 299.547 119.276 289.65 122.263 279.763C122.503 278.405 123.372 275.947 123.82 274.549Z" fill="#6482A2"/>
<path d="M122.263 279.763L122.939 280.191C123.255 282.131 121.156 292.175 120.237 293.445C116.52 298.581 114.322 321.255 110.106 323.544C110.59 319.634 112.811 313.539 113.836 309.551C116.407 299.547 119.276 289.65 122.263 279.763Z" fill="#C9C8C9"/>
<path d="M138.717 232.431C140.196 231.86 140.963 231.482 142.552 231.401L143.156 231.687C143.04 233.921 140.56 237.229 139.776 239.465C135.518 251.609 131.783 263.973 127.644 276.172C127.457 275.817 124.697 274.947 123.82 274.549C123.372 275.947 122.503 278.405 122.263 279.763C119.276 289.65 116.406 299.547 113.836 309.551C112.811 313.539 110.59 319.634 110.106 323.544C109.551 325.177 109.354 330.665 110.093 332.169L109.969 333.672C109.645 333.13 107.898 329.35 107.967 328.996C109.873 319.261 112.458 307.392 115.879 298.085C113.687 293.489 122.862 272.928 123.59 268.682C124.37 264.138 134.345 236.699 134.046 234.663C129.416 236.273 119.432 238.878 114.628 239.11C116.017 237.697 133.09 235.03 137.687 231.526L138.628 231.713L138.717 232.431Z" fill="#101215"/>
<path d="M138.717 232.431C140.196 231.86 140.963 231.482 142.552 231.401L143.156 231.687C143.04 233.921 140.56 237.229 139.776 239.465C135.518 251.609 131.783 263.973 127.644 276.172C127.457 275.817 124.697 274.947 123.82 274.549C125.483 268.182 135.508 234.454 138.717 232.431Z" fill="#6482A2"/>
<path d="M134.046 234.663L136.821 233.336C131.969 244.608 128.692 254.122 125.261 265.918C122.137 276.659 119.535 287.53 115.879 298.085C113.687 293.489 122.862 272.928 123.59 268.682C124.37 264.138 134.345 236.699 134.046 234.663Z" fill="#BCCAD4"/>
<path d="M110.094 332.169L110.617 332.166C111.681 333.468 111.347 340.018 114.239 342.304C114.485 342.499 114.579 342.957 114.656 343.262L113.691 347.409C112.99 346.678 110.434 335.407 109.97 333.672L110.094 332.169Z" fill="#8DA0BA"/>
<path d="M137.687 231.526C138.008 229.75 139.203 226.366 139.792 224.533L140.091 224.635C140.211 226.961 138.572 229.26 138.656 231.487L138.628 231.713L137.687 231.526Z" fill="#384459"/>
<path d="M115.52 8.31677C120.91 10.2773 125.744 13.9891 130.534 15.8463C139.536 19.3366 148.371 21.6532 156.81 26.805C160.889 29.2954 162.938 32.6236 166.175 34.9776C166.996 33.1406 167.607 31.6845 168.279 29.7906L168.721 29.7948C170.604 32.3053 170.786 36.6187 171.676 39.9404C183.949 43.556 187.502 53.8129 190.379 65.2649C187.346 63.3279 184.219 60.858 181.105 59.3434C183.05 65.7436 182.953 69.8621 183.433 76.51C181.163 68.6632 178.553 66.5765 173.526 60.1371C175.906 70.7503 172.932 75.0526 173.056 84.9657C170.244 75.2783 166.123 71.414 161.136 63.3094C160.928 69.1747 160.97 72.1801 159.191 77.8028C158.866 74.4285 158.645 70.7594 158.132 67.4523C157.541 63.6637 156.525 59.7974 155.882 55.9997C154.609 62.6635 153.401 68.1946 150.599 74.4464C149.839 70.523 148.819 65.3789 148.651 61.359C148.121 48.7835 139.964 55.9922 134.212 60.2394C135.706 58.2679 136.795 57.2726 136.419 54.6553C135.846 50.6591 132.159 48.3711 128.723 47.0374C111.364 51.3271 97.1176 70.4158 86.1431 83.6489C91.5362 71.3134 96.2958 60.5557 105.996 50.9154C93.4124 57.1833 79.9166 74.5152 71.871 86.0311C71.0076 87.2667 68.3378 92.3803 67.7112 92.9213C67.5092 92.0224 69.4162 88.2552 69.7773 87.1031C70.7897 83.8714 71.3456 80.3224 72.3545 77.1221C76.7685 63.1197 87.2176 46.1015 100.024 38.5535C89.9422 40.3181 78.9674 46.5805 70.7049 52.6036C69.3139 53.6175 62.95 60.1293 62.6892 60.1517C63.2672 58.3222 64.8213 57.1707 65.9022 55.5584C70.238 49.091 74.7245 43.3686 80.6598 38.2492C82.3431 36.797 87.8193 33.9647 88.6593 32.0858C88.8596 31.6377 88.7064 31.5351 88.5246 31.0516L88.3099 32.018C88.1888 30.8317 88.0115 30.0397 87.0241 29.3146C85.9681 29.6848 85.573 29.9718 84.6187 29.347C81.3881 29.6708 78.5758 30.8811 75.6736 31.2493C70.9394 31.8501 65.6012 31.5909 60.8118 31.7604C67.8969 29.2223 86.0928 24.5079 91.5661 20.4358C84.2154 19.8457 80.2594 19.8301 73.1623 17.2904C84.3297 17.4064 91.7486 15.973 102.397 14.6819C109.899 13.7724 124.744 19.3067 132.123 21.5074C126.769 16.4289 120.716 12.8789 115.52 8.31677Z" fill="#384459"/>
<path d="M84.6187 29.3471C86.7159 28.785 90.853 28.457 92.1376 28.04C105.291 23.7705 115.424 22.6664 127.885 29.8189C129.682 30.8503 134.696 33.7848 136.068 35.2559L136.086 35.6202C134.964 35.4621 132.44 33.5049 131.203 32.8746C128.676 31.5874 126.387 31.2406 123.809 30.4911C114.73 27.8514 105.883 28.6778 96.6059 29.4188C94.6761 29.5731 90.1471 28.1316 88.4953 29.6643C88.4901 30.166 88.4694 30.5492 88.5246 31.0516L88.3099 32.018C88.1888 30.8317 88.0115 30.0397 87.0241 29.3146C85.9681 29.6848 85.573 29.9719 84.6187 29.3471Z" fill="#101215"/>
<path d="M146.011 27.1015C149.657 27.6851 164.613 39.4468 167.708 42.6659C167.497 42.7383 164.425 42.412 163.808 42.3223C160.489 41.8404 156.408 43.4459 153.56 43.5966C153.43 42.3483 153.375 41.883 153.024 40.6844C149.641 35.7751 146.082 32.9473 141.965 28.9158C148.897 32.4645 150.079 33.1906 155.687 38.521C152.131 32.7476 149.427 31.6841 146.011 27.1015Z" fill="#101215"/>
<path d="M116.74 191.285C122.086 190.113 128.039 188.899 132.787 186.077C139.63 182.009 161.811 156.868 165.724 149.319C167.133 146.601 168.617 139.051 170.828 137.516C172.309 138.392 172.481 141.964 172.51 143.579C172.653 151.624 173.757 159.757 173.377 167.785C172.523 185.895 159.48 198.793 151.014 213.758C147.264 215.024 135.63 218.1 133.69 219.362C123.827 225.777 120.75 229.986 109.158 222.876C103.617 219.478 97.4378 215.385 107.751 211.178C108.226 211.584 111.123 212.715 111.908 213.003C113.535 206.428 112.664 200.662 110.234 194.445C113.72 198.694 114.686 200.623 119.87 202.306C118.751 199.02 117.661 194.661 116.74 191.285Z" fill="#EFBFAB"/>
<path d="M107.751 211.178C108.226 211.584 111.123 212.715 111.908 213.003C111.417 214.401 110.456 216.466 108.788 215.895C107.45 214.343 107.692 213.209 107.751 211.178Z" fill="#313034"/>
<path d="M130.722 209.919C131.174 210.081 130.967 209.947 131.249 210.471C128.831 216.08 124.121 222.837 117.282 221.878L115.178 218.662C123.667 217.013 124.873 216 130.722 209.919Z" fill="#101215"/>
<path d="M138.642 204.03C143.387 194.829 148.076 185.948 151.807 176.276C152.326 174.932 153.015 173.255 153.69 171.99C151.498 181.385 144.082 195.463 139.169 204.216L138.642 204.03Z" fill="#313034"/>
<path d="M138.642 204.03L139.169 204.216C138.452 206.131 137.055 208.278 135.737 209.842C136.436 208.294 137.679 205.186 138.642 204.03Z" fill="#8B8B8E"/>
<path d="M287.248 204.239C292.311 203.655 300.318 206.247 304.581 209.157C313.608 215.521 328.814 226.96 332.1 238.041C335.016 250.465 333.406 263.307 333.737 275.857C333.824 279.135 336.331 286.421 337.179 290.07C333.932 290.663 328.626 290.801 325.272 290.821C322.213 290.694 319.157 290.526 316.105 290.318C314.436 284.266 313.949 277.43 312.115 271.505C310.816 267.598 308.89 263.821 307.335 260.012C302.718 248.699 298.961 237.393 293.239 226.557C288.473 217.536 283.206 214.426 274.085 210.682C278.378 207.028 281.868 205.692 287.248 204.239Z" fill="#384459"/>
<path d="M185.112 146.513C193.256 145.63 202.13 153.919 209.773 156.217C217.41 158.511 226.389 157.866 233.013 162.946C238.299 167.001 241.604 174.283 244.79 180.094C240.02 178.176 233.37 174.379 228.311 175.502C220.687 177.196 214.644 182.759 208.192 186.765C193.47 195.908 178.004 204.567 165.642 216.906C163.493 219.052 159.424 222.47 157.749 224.792C153.966 230.027 149.8 236.087 146.261 241.494L133.175 265.923C134.944 255.383 144.079 239.149 148.465 228.988C152.888 219.363 156.937 209.043 164.227 201.214C172.189 192.663 181.241 185.649 189.752 177.669C195.876 171.931 198.506 171.077 202.432 163.204C201.555 163.972 199.149 166.939 198.275 167.945C195.301 158.724 190.538 153.017 180.566 151.636L177.514 152.974C177.332 150.844 177.16 149.236 176.799 147.133C179.566 146.88 182.339 146.674 185.112 146.513Z" fill="#C9C8C9"/>
<path d="M233.824 195.161C236.493 194.905 250.125 200.325 253.68 201.651L253.466 201.636C243.39 200.944 237.494 203.62 229.639 210.123C227.304 212.058 222.995 216.713 221.554 219.172C216.625 227.569 209.4 246.214 208.799 255.5C207.5 254.799 205.857 254.212 204.461 253.668C196.158 250.778 193.424 251.66 185.144 253.764C186.839 237.561 191.009 224.341 199.289 210.328C200.298 208.619 201.094 206.769 202.208 205.122C204.737 201.376 228.058 196.329 233.824 195.161Z" fill="#384459"/>
<path d="M61.7548 217.122L62.6406 217.068C63.8128 217.586 64.3394 218.531 65.1356 219.583C64.5677 221.683 61.8278 227.028 60.7829 229.288C58.8688 233.523 57.2134 237.87 55.8269 242.306C54.1092 247.998 51.8989 257.029 50.6209 262.813C48.6918 271.544 48.8928 276.589 45.084 285.103C44.9567 283.043 44.9973 273.954 43.1156 273.345C41.3869 275.21 40.353 283.133 39.8961 285.846C39.2191 290.614 38.7561 294.273 37.2277 298.816C34.7265 275.469 37.4355 249.588 48.0343 228.477C50.6355 223.295 56.6952 219.666 61.7548 217.122Z" fill="#325568"/>
<path d="M215.475 321.398L215.813 321.489C216.024 321.703 218.579 328.061 218.969 329.146C220.969 334.705 226.808 342.554 227.853 348.039C229.87 358.602 231.272 367.711 235.328 377.602C232.013 373.196 229.415 370.815 225.476 367.013C216.225 358.281 210.14 351.049 204.247 339.803C201.545 334.647 198.905 328.931 195.934 323.999C203.435 325.444 208.582 323.849 215.475 321.398Z" fill="#384459"/>
<path d="M185.719 272.646C188.171 272.57 190.937 273.543 193.577 273.7C196.529 273.875 203.205 271.312 204.701 274.328C206.315 278.075 205.513 282.617 205.474 286.834C205.416 293.195 208.647 297.538 209.238 303.426C209.273 303.794 208.491 304.054 208.143 304.233C203.549 305.82 195.295 307.626 190.651 305.539C189.291 304.929 188.619 302.834 188.265 301.469C186.891 296.183 183.128 277.241 185.719 272.646Z" fill="#384459"/>
<path d="M250.329 193.019C254.219 192.679 258.359 192.655 262.295 192.321C269.922 191.674 277.621 190.576 285.258 191.556C295.259 192.838 301.825 198.428 309.267 204.515C311.329 206.203 314.894 208.969 316.501 211.065C316.034 211.514 315.845 211.6 315.654 212.216C315.112 211.971 311.819 209.882 311.098 209.448C304.214 205.304 298.97 201.975 290.599 201.505C282.894 201.071 275.936 203.68 270.231 208.895C268.743 207.737 266.552 206.579 264.961 205.452C259.879 201.851 257.216 199.58 251.29 197.393C251.06 196.009 250.651 194.406 250.329 193.019Z" fill="#384459"/>
<path d="M283.261 198.418L285.154 198.272L285.45 198.618L285.904 198.456C285.44 198.958 275.845 200.721 273.76 201.59C273.095 201.676 272.101 201.978 271.211 202.108L271.175 201.83C273.799 200.438 280.355 198.841 283.261 198.418Z" fill="#313034"/>
<path d="M263.967 423.152C266.253 422.798 270.377 423.094 272.744 423.094C286.645 423.1 292.843 429.202 305.124 434.138C300.12 433.67 296.081 433.894 291.106 434.07C277.254 434.125 263.214 433.852 249.43 434.151C254.054 426.555 254.804 424.48 263.967 423.152Z" fill="#C9C8C9"/>
<path d="M335.656 294.575C343.527 293.752 341.861 298.156 343.306 304.237C345.371 313.205 348.855 321.378 349.268 330.678C349.518 336.28 351.206 340.748 350.294 346.568C346.923 347.659 343.783 349.36 341.033 351.591C337.776 346.74 337.292 344.999 335.325 339.44C341.504 338.563 343.754 337.348 348.576 333.361C348.514 331.484 348.248 330.23 347.901 328.376C346.309 322.531 342.442 308.483 341.591 302.877C335.448 304.27 329.568 305.337 323.278 305.728L321.947 302.189C326.489 302.019 337.146 301.365 340.923 299.522L340.858 299.018C336.578 297.644 327.72 299.752 321.115 298.889L318.667 296.005C325.213 295.765 329.184 295.516 335.656 294.575Z" fill="#384459"/>
<path d="M67.127 223.873L67.7943 224.671C68.2135 226.839 63.4637 234.757 62.4769 238.395C60.1296 247.145 57.9894 255.948 56.0587 264.799C54.7368 270.858 54.1228 275.204 52.4752 281.464C49.6406 292.237 44.5241 303.176 42.1528 313.698C41.0183 318.725 40.4439 323.859 40.4403 329.013C40.414 332.416 40.6371 336.335 40.2669 339.654C39.4305 340.459 38.7995 340.394 37.5342 340.719L37.0815 340.3C36.7 338.81 37.0458 332.945 37.0111 331.123C36.7244 316.072 41.0793 303.504 45.9714 289.606C47.6329 284.887 49.0895 281.508 50.5877 276.537C53.3234 267.461 54.6738 258.804 56.8172 249.722C58.8762 240.999 63.1256 231.898 67.127 223.873Z" fill="#C9C8C9"/>
<path d="M192.376 254.862C197.181 254.347 215.465 258.419 207.312 266.171C206.189 267.241 199.233 269.785 197.314 270.536L193.798 271.826C190.992 270.736 184.855 267.252 181.482 265.685C181.732 263.413 181.605 260.472 181.573 258.137C185.047 257.273 188.745 255.847 192.376 254.862Z" fill="#384459"/>
<path d="M193.882 257.243C200.639 257.754 202.718 259.202 208.335 263.093C201.48 263.684 202.526 265.325 197.165 267.547L196.85 267.676C190.788 269.039 188.794 265.18 182.94 261.816C186.404 258.704 189.307 257.443 193.882 257.243Z" fill="#101215"/>
<path d="M191.788 259.711C195.743 259.656 197.392 260.074 200.886 261.912C200.032 262.767 199.13 263.469 198.194 264.232C193.752 266.824 187.778 264.938 191.788 259.711Z" fill="#384459"/>
<path d="M229.184 183.248C230.194 183.384 231.237 183.535 232.243 183.664C238.815 184.505 242.738 186.972 248.037 181.827C248.014 184.73 247.394 191.051 245.657 193.293C244.576 193.418 237.546 190.205 234.055 190.776C218.31 193.354 197.522 198.466 184.024 207.231L183.475 206.635C191.333 201.413 199.896 197.212 208.491 193.395C211.105 192.235 214.089 190.298 216.784 189.059C220.856 187.191 225.385 185.569 229.184 183.248Z" fill="#C9C8C9"/>
<path d="M164.34 223.254L164.873 223.557C164.902 225.093 162.321 230.166 161.778 232.022C161.285 233.722 161.207 234.451 160.947 236.176C158.496 252.599 160.291 269.357 158.778 285.928C158.22 292.076 156.307 297.345 155.174 303.378C154.612 306.365 154.755 310.09 154.161 313.13C154.037 313.766 153.476 313.851 152.852 314.133C152.456 313.802 152.297 313.581 151.959 313.198C150.209 301.407 155.833 287.019 156.187 274.978C156.599 260.943 155.879 246.611 158.2 232.718C158.924 228.387 160.804 225.716 164.34 223.254Z" fill="#C9C8C9"/>
<path d="M211.692 306.429C211.962 306.408 212.173 306.537 212.465 306.646C213.868 309.181 214.946 313.559 215.693 316.413C208.043 320.631 200.954 321.018 192.441 320.17C191.928 320.138 191.645 320.047 191.151 319.933C189.788 318.215 188.879 311.909 188.411 309.392C197.616 309.944 203.042 309.951 211.692 306.429Z" fill="#384459"/>
<path d="M42.8626 231.44L43.013 231.586C43.1175 232.49 40.7835 235.674 40.1487 236.917C39.0905 238.988 37.6754 247.232 35.909 248.004C35.421 247.417 35.0486 246.995 34.5167 246.447L33.9101 246.691C30.1429 252.493 28.9752 265.28 28.3511 272.28C28.1596 274.429 28.7288 278.882 27.9826 280.783C27.2212 277.678 26.9987 274.455 26.5922 271.293C25.193 260.409 24.9865 251.95 27.6368 241.306C29.7448 240.664 40.4173 233.174 42.8626 231.44Z" fill="#C9C8C9"/>
<path d="M349.55 316.049C351.485 317.079 352.612 319.602 353.781 321.346C360.535 331.419 361.061 336.189 356.671 347.587L355.077 351.26C355.138 348.308 355.288 342.327 354.551 339.725C352.063 330.948 348.336 325.892 349.55 316.049Z" fill="#384459"/>
<path d="M343.618 290.043C345.647 290.58 351.846 295.053 353.482 296.737C353.226 301.26 352.424 307.298 351.946 311.912C351.982 312.377 351.911 312.516 351.82 312.987C349.868 312.045 347.923 303.172 347.18 300.636C346.124 297.022 344.923 293.581 343.618 290.043Z" fill="#384459"/>
<path d="M147.764 316.523C151.342 317.423 152.515 317.631 156.31 317.53C156.317 319.985 156.213 322.654 156.703 325.038C156.843 325.989 156.908 326.775 156.979 327.733C156.177 328.159 149.719 328.136 149.011 327.584C149.147 325.548 149.242 323.512 149.29 321.472C148.813 319.414 148.612 318.436 147.764 316.523Z" fill="#C9C8C9"/>
<path d="M149.29 321.472C149.456 322.872 149.553 323.898 149.605 325.311C150.881 325.291 155.784 325.314 156.703 325.038C156.843 325.989 156.908 326.775 156.979 327.733C156.177 328.158 149.719 328.136 149.011 327.584C149.147 325.548 149.241 323.512 149.29 321.472Z" fill="#6E6E70"/>
<path d="M338.987 305.42C339.371 305.4 339.569 305.507 339.968 305.617C340.699 306.742 340.988 308.386 341.319 309.74C335.653 310.594 332.584 311.659 326.73 311.695C325.281 311.393 324.194 310.292 324.603 308.769C325.327 308.47 328.233 308.308 329.217 308.175C332.162 307.782 336.026 306.905 338.672 305.579L338.987 305.42Z" fill="#384459"/>
<path d="M340.89 312.049C341.29 311.977 341.627 312.026 342.043 312.045C342.829 313.143 342.838 313.688 342.41 314.87C339.822 317.611 331.522 317.592 327.856 317.709C326.98 317.001 326.327 315.452 325.772 314.387L326.025 314.396C332.035 314.533 335.146 313.494 340.89 312.049Z" fill="#384459"/>
<path d="M34.545 343.109C35.6655 343.457 40.6189 343.077 42.2363 343.005C42.2246 346.165 43.3367 347.675 41.5944 349.912C40.1062 350.809 36.2224 351.01 34.5612 350.539C34.1696 349.393 35.2804 346.652 34.6144 343.437L34.545 343.109Z" fill="#C9C8C9"/>
<path d="M210.994 419.652C213.569 420.148 220.583 431.111 222.694 434.073L216.141 434.096C215.31 429.894 213.271 423.207 210.994 419.652Z" fill="#C9C8C9"/>
<path d="M343.205 318.017C343.439 319.228 343.65 319.94 343.53 321.177C342.845 321.969 343.046 321.726 341.926 322.119C341.095 322.073 335.89 323.515 334.597 323.719C332.665 324.025 331.906 324.031 329.84 324.028L328.36 320.745C332.941 320.641 334.961 320.596 339.384 319.215L343.205 318.017Z" fill="#384459"/>
<path d="M343.205 318.017C343.439 319.228 343.65 319.94 343.53 321.177C342.845 321.969 343.046 321.726 341.926 322.119C340.897 320.839 340.192 320.709 339.383 319.215L343.205 318.017Z" fill="#384459"/>
<path d="M343.657 324.713C344.592 324.752 344.251 324.684 345.098 325.275C344.994 329.724 335.711 330.097 332.555 329.915C331.727 329.227 330.811 328.538 331.009 327.421C335.766 326.626 339.02 326.045 343.657 324.713Z" fill="#384459"/>
<path d="M318.472 213C324.083 218.569 333.523 228.473 336.156 235.845C337.971 240.928 338.728 244.596 341.108 249.963C335.711 244.516 337.604 240.501 334.627 234.345C331.902 228.715 322.671 217.987 317.946 214.099L318.472 213Z" fill="#C9C8C9"/>
<path d="M64.993 417.395C66.1811 418.638 65.811 421.895 65.7687 423.743C63.5215 425.094 60.426 426.887 58.0297 427.812L57.5822 427.546C57.2101 425.539 63.4373 419.116 64.993 417.395Z" fill="#C9C8C9"/>
<path d="M343.689 330.825C344.848 330.698 344.926 330.662 345.806 331.123C345.491 334.53 338.53 335.78 335.773 335.874C334.438 335.608 334.156 335.663 333.539 334.78C334.389 333.653 341.39 331.747 343.689 330.825Z" fill="#384459"/>
<path d="M80.889 85.2317C81.3621 87.4785 79.9672 93.3142 79.61 96.168C78.0819 95.8387 76.7766 95.7007 75.2281 95.5221L74.8832 95.285C75.4563 93.8419 79.7935 87.0083 80.889 85.2317Z" fill="#C9C8C9"/>
<path d="M183.475 206.635L184.024 207.231C180.767 209.075 177.861 210.881 174.91 213.173C172.247 215.24 169.429 218.083 166.581 219.743C171.357 213.1 176.624 210.585 183.475 206.635Z" fill="#BCCAD4"/>
<path d="M316.501 211.065C316.852 211.404 318.242 212.708 318.472 213L317.946 214.099C317.219 213.417 316.436 212.831 315.654 212.216C315.845 211.6 316.034 211.514 316.501 211.065Z" fill="#5A6F99"/>
<path d="M58.082 208.11C59.4198 209.391 61.5037 211.226 61.3726 213.226C60.115 212.685 58.531 209.46 58.082 208.11Z" fill="#C9C8C9" fill-opacity="0.988235"/>
</svg>
