<svg width="416" height="437" viewBox="0 0 416 437" fill="none" xmlns="http://www.w3.org/2000/svg">
<path d="M135.742 0C147.866 12.6848 156.898 11.8376 172.317 18.5101C177.173 20.6112 181.381 23.8779 186.025 26.4099C182.674 21.9879 181.475 19.1107 179.417 13.9907C181.13 15.6306 184.628 17.9613 186.709 19.4045C194.164 24.5658 197.665 30.6104 200.616 38.9555C210.898 42.233 214.884 45.1125 223.603 50.465C221.398 50.01 219.085 49.4732 216.854 49.2521C216.721 49.9546 218.388 52.1518 218.887 52.851C222.772 58.2935 224.114 63.7782 224.785 70.3228C222.446 66.2314 221.544 64.569 217.952 61.5999C219.033 65.2491 224.036 83.1983 223.635 85.4387C222.622 84.5313 221.554 82.3554 220.714 81.1255C221.388 83.181 221.763 84.4994 222.844 86.4044C224.902 90.7919 225.251 91.7742 228.683 95.2152C224.616 93.2024 220.789 92.9656 216.613 90.9971C221.209 102.964 223.059 108.934 217.203 120.637C215.845 123.351 209.015 128.448 206.175 131.323C226.872 129.608 249.065 135.047 269.521 137.904C273.426 138.449 285.176 140.184 288.313 141.177C294.269 143.064 317.315 161.161 318.947 166.633C321.682 175.802 320.604 198.975 319.324 208.686C325.854 211.295 335.876 224.002 341.34 228.609C342.555 233.159 343.685 240.171 344.294 244.916C345.548 254.661 348.978 265.23 350.254 274.688C353.622 276.08 364.275 283.631 365.161 286.852C366.913 293.216 366.708 304.143 367.411 311.14C367.854 315.563 368.196 319.742 368.77 324.073C373.655 327.91 375.443 331.522 379.195 335.815C389.131 347.185 386.213 348.748 382.08 361.962C385.754 367.036 384.197 368.587 386.796 373.886C388.545 377.455 397.873 382.246 397.775 387.128C397.746 388.581 394.411 391.187 393.173 392.213C397.348 396.088 406.881 406.706 408.842 411.878C409.718 414.184 411.538 422.558 412.704 426.176C408.679 423.779 405.598 421.74 401.169 420.07C405.523 425.105 408.376 427.723 410.317 434.198C401.537 434.28 392.753 434.247 383.973 434.11C385.575 434.615 392.01 434.632 394.069 434.684L394.134 434.827C392.935 434.908 391.737 434.983 390.538 435.048C391.851 435.241 392.404 435.188 393.372 436.074H175.046H0C2.07786 434.68 9.67052 435 12.5831 435.003C12.2864 423.333 10.9117 422.021 22.8184 418.77C22.0488 417.907 21.0743 416.49 20.2276 415.533C18.4327 413.497 13.8256 409.944 13.1492 407.514C11.9409 403.176 11.4973 401.081 9.67997 396.808C13.7657 395.496 19.7074 395.023 23.9664 393.59C27.4333 392.424 30.4654 390.656 33.6552 388.91C26.2315 372.804 29.2741 370.427 38.5137 356.448C31.6503 351.741 29.6669 347.55 31.4689 338.544C31.8252 336.766 41.0071 333.401 43.0879 332.522C41.1351 328.597 39.9966 321.315 38.2287 316.462C39.581 312.566 41.6276 310.544 44.3246 307.538C44.1226 300.003 46.5669 288.224 47.0864 280.218C47.6563 271.435 48.1751 262.635 48.721 253.845C48.9395 252.263 49.4486 247.876 50.2286 246.814C56.2807 238.574 70.1448 226.888 80.039 224.773C78.977 223.511 77.9035 222.255 76.8141 221.015C70.0265 213.294 64.2769 204.133 57.3617 196.584C60.6462 193.231 64.6612 190.174 68.1441 186.99C82.5439 173.824 100.272 160.667 119.264 154.896C118.56 154.427 117.883 153.919 117.236 153.373C109.406 146.679 105.464 136.336 104.656 126.248C101.467 123.024 102.741 123.19 100.963 119.549L100.665 119.611L99.9243 121.565L99.4543 121.665C97.6816 119.111 93.1797 105.645 92.7504 102.201C90.1828 103.596 88.4697 103.89 85.6672 104.482C87.5561 102.578 89.9307 98.523 91.9157 95.9936C85.8743 98.3706 79.274 100.185 73.8725 102.39C82.993 94.7205 81.6443 88.785 87.7144 81.8978C81.7971 85.3205 70.6033 85.2827 64.0773 83.9858C67.7165 82.4456 75.301 75.758 80.1022 72.8173C76.2849 73.1837 72.8502 74.4582 69.3009 74.6894C77.1219 70.8836 79.1284 67.4504 85.7382 63.12C80.5305 63.7909 71.3622 63.3769 66.331 61.8865C62.0639 60.6228 59.5604 59.1474 54.891 58.7361C66.826 53.537 78.1751 47.6089 90.2567 42.842C91.5357 42.3375 92.8146 41.7881 94.0854 41.2598C83.0825 42.0255 84.651 40.1351 75.5299 35.8333C81.6759 36.3222 84.5478 35.7242 90.727 34.7106C86.3397 32.6734 84.3162 29.6793 80.9005 26.3897C89.663 28.0234 97.7064 26.023 106.318 24.8446C102.446 22.6136 97.2335 17.5014 94.205 14.2741C105.357 17.3001 113.196 14.4405 124.41 13.5685C131.579 13.0112 135.39 13.0237 142.336 14.4317C139.716 10.0133 137.764 4.79365 135.742 0ZM84.5035 435.201C87.7561 435.068 104.075 435.508 105.672 434.801C103.448 434.371 100.976 434.814 98.4424 434.43C94.2763 434.172 89.1976 434.345 84.9741 434.433L84.5035 435.201Z" fill="#0A0606"/>
<path d="M194.695 309.082C196.066 302.846 198.375 297.663 198.958 291.217C199.427 285.987 199.153 278.835 199.199 274.16C199.241 269.631 197.121 248.815 198.522 246.511C204.544 236.611 216.913 220.654 224.345 212.163C219.291 221.346 215.327 230.322 211.985 240.357C210.992 243.34 211.858 247.38 211.334 250.483C210.601 254.802 209.67 258.99 208.927 263.333C207.507 271.624 207.634 278.988 207.859 287.376L203.961 289.37C203.755 296.949 202.371 305.935 203.667 313.267C204.941 320.484 213.363 327.786 215.991 334.023C220.802 345.442 225.267 355.243 231.484 365.984C236.177 374.088 240.124 382.722 245.046 390.881C243.121 390.584 240.545 390.083 239.059 391.512C233.79 396.587 230.784 402.948 225.443 408.628C219.704 402.462 213.002 396.828 206.742 391.21C202.967 387.822 199.932 383.302 196.401 379.722C194.092 377.38 190.888 375.941 188.308 374.078C191.728 384.653 207.149 417.314 214.057 425.16C212.161 427.821 208.97 431.091 209.979 434.417L209.588 434.892C205.149 435.211 200.459 434.892 196.167 435.185C195.297 435.14 195.092 435.091 194.242 434.876L193.786 434.107L193.562 433.742C189.885 427.86 184.602 422.33 180.58 416.653C178.981 414.393 178.16 410.136 176.414 407.794C172.975 403.179 168.726 398.362 166.323 393.099C164.94 390.066 164.394 383.139 164.104 379.429C162.238 355.575 160.911 326.962 165.597 303.415C168.548 288.585 175.988 271.484 185.341 259.723C184.749 264.2 185.67 268.226 185.651 272.878C185.612 283.73 185.507 296.525 183.058 307.127C182.658 308.86 181.029 311.329 180.127 312.772C180.847 317.589 180.215 322.79 180.84 327.809C182.42 328.991 183.127 329.438 184.866 330.376C182.534 337.59 186.569 342.358 193.298 337.909C193.822 334.225 193.835 333.102 193.448 329.281C198.825 325.682 197.935 323.347 197.58 317.393C197.499 316.032 197.525 314.488 197.58 313.12L194.695 309.082Z" fill="#3C1619"/>
<path d="M245 396.597C247.231 399.215 249.814 403.465 251.745 406.442C255.415 412.054 259.034 417.698 262.6 423.375C264.017 425.626 268.778 432.948 270.625 434.645C268.925 435.71 250.651 435.283 247.798 434.899L247.824 434.149C243.798 427.489 238.506 421.509 233.503 415.516C237.636 408.641 241.763 404.062 245 396.597Z" fill="#3C1619"/>
<path d="M319.722 420.6C333.032 419.78 345.483 425.561 357.198 431.033C359.357 432.042 361.262 432.723 363.197 434.208C361.116 434.921 358.155 434.329 355.967 434.765C351.697 435.175 298.093 435.371 296.719 434.658C297.197 432.267 297.744 429.889 298.363 427.531C306.411 424.854 312.456 425.287 319.722 420.6Z" fill="#4E1518"/>
<path d="M156.384 315.387C157.249 318.181 155.424 328.959 156.716 330.806C158.069 330.88 158.503 331.164 159.378 330.512C159.934 328.301 161.027 316.309 161.036 313.921L161.271 318.865C160.843 323.458 159.733 329.35 159.66 333.779C159.388 350.132 159.14 366.613 160.562 382.917C161.706 399.453 161.939 415.415 166.338 431.603C166.579 432.485 166.738 433.508 167.039 434.364L167.359 435.195C165.442 434.983 162.395 435.218 160.178 435.065C159.535 424.916 158.162 415.243 157.427 405.442C155.606 381.94 154.984 358.36 155.563 334.795C155.683 330.047 155.464 319.657 156.384 315.387Z" fill="#752F2D"/>
<path d="M156.384 315.387C156.367 308.831 158.287 302.905 159.661 296.481C163.956 276.391 167.44 252.144 182.426 237.07C182.703 236.792 182.987 236.517 183.276 236.249L183.605 236.458L183.397 236.692C179.31 241.37 178.622 245.411 176.307 250.861C167.884 270.688 164.888 292.394 161.921 313.583C161.718 315.035 161.642 317.592 161.271 318.865L161.036 313.921C161.027 316.309 159.934 328.301 159.377 330.512C158.503 331.164 158.069 330.88 156.716 330.806C155.424 328.959 157.249 318.181 156.384 315.387Z" fill="#A4433B"/>
<path d="M193.786 434.107L194.242 434.876C195.092 435.091 195.297 435.14 196.167 435.185C200.46 434.892 205.149 435.211 209.588 434.892L209.979 434.417L213.77 434.407C215.692 434.488 218.317 434.436 220.193 434.241L223.101 434.462C224.993 433.84 243.16 434.57 247.824 434.15L247.798 434.899C250.651 435.283 268.925 435.71 270.625 434.645C273.504 433.922 293.944 433.83 296.719 434.658C298.093 435.371 351.697 435.175 355.967 434.765C358.156 434.329 361.116 434.921 363.197 434.208C365.487 434.247 377.98 434.15 379.312 434.433C380.859 434.755 382.497 435.065 383.878 434.12L383.972 434.11C385.575 434.615 392.01 434.632 394.069 434.684L394.134 434.827C392.935 434.908 391.737 434.983 390.538 435.048C391.851 435.241 392.404 435.189 393.372 436.074H175.046C172.669 434.329 170.204 435.726 167.359 435.195L167.039 434.364C175.936 434.202 184.96 434.368 193.786 434.107Z" fill="#1A1717"/>
<path d="M383.878 434.12L383.972 434.11C385.575 434.615 392.01 434.632 394.069 434.684L394.134 434.827C392.935 434.908 391.737 434.983 390.538 435.048C380.449 435 365.604 435.55 355.967 434.765C358.156 434.329 361.116 434.921 363.197 434.208C365.487 434.247 377.98 434.149 379.312 434.433C380.859 434.755 382.497 435.065 383.878 434.12Z" fill="#2A2426"/>
<path d="M220.193 434.241L223.101 434.462C221.74 435.368 198.89 435.514 196.167 435.185C200.46 434.892 205.149 435.211 209.588 434.892L209.979 434.417L213.77 434.407C215.692 434.488 218.317 434.436 220.193 434.241Z" fill="#2A2426"/>
<path d="M383.061 413.78C384.683 415.467 386.897 418.702 388.164 420.698C386.184 425.268 384.259 429.085 383.878 434.12C382.497 435.065 380.859 434.755 379.312 434.433C380.175 427.978 382.891 424.072 383.963 417.907C384.077 417.246 383.289 414.598 383.061 413.78Z" fill="#4E1518"/>
<path d="M217.493 427.613C218.213 429.863 219.242 432.068 220.193 434.241C218.317 434.436 215.692 434.488 213.77 434.407C214.327 432.244 216.232 429.502 217.493 427.613Z" fill="#3C1619"/>
<path d="M290.983 203.03C299.975 207.861 311.225 210.23 320.269 216.598C325.597 220.352 327.896 223.636 332.488 227.38L332.83 227.656C332.896 239.04 336.449 252.566 338.501 263.955C339.367 268.759 341.308 282.053 342.927 285.955C346.561 289.221 354.325 292.247 359.025 294.316C357.165 300.937 355.625 321.028 355.648 328.307C359.51 334.375 367.923 344.114 372.714 350.478C370.079 353.324 366.399 358.314 363.972 361.506C369.61 371.277 374.704 375.543 376.778 387.487C375.387 391.473 373.629 395.017 371.017 398.349C364.786 395.072 352.117 390.457 345.389 388.835C336.625 386.725 316.234 397.059 308.951 402.257C314.53 407.553 318.523 408.498 326.04 406.853C332.088 405.53 337.774 403.677 343.624 401.697C350.759 403.948 364.21 410.403 371.258 413.93C372.075 414.341 373.231 416.138 373.779 416.966C371.476 418.093 367.32 418.233 366.135 420.467C366.158 422.024 369.405 427.971 370.33 429.808C364.308 424.235 354.886 417.399 348.261 412.442C345.451 410.344 333.794 412.735 329.635 412.894C323.021 413.148 315.217 413.412 308.609 414.477C305.975 414.868 303.128 416.044 300.497 416.689L300.461 416.35C302.548 414.823 306.496 415.077 307.033 411.849C306.857 410.696 306.434 410.377 305.646 409.494L305.356 409.172C302.05 408.976 298.031 409.058 294.67 409.045C300.22 407.283 306.362 402.596 311.058 399.059C311.869 398.453 312.032 397.818 312.088 396.847C309.964 392.959 298.699 397.613 295.615 399.013C300.2 394.828 311.808 384.598 318.129 383.702C325.121 383.158 341.722 382.468 347.952 385.256C366.164 393.405 375.446 393.346 361.451 371.283C358.426 366.512 344.529 362.62 339.354 367.424C339.52 368.388 339.921 368.443 340.813 369.212L340.621 369.446C335.156 369.257 329.994 367.183 324.434 367.714C315.866 368.531 291.915 377.423 284.926 374.537C284.102 374.198 283.786 373.801 283.44 373.006C283.297 370.3 285.824 366.694 287.391 364.587C294.693 365.29 294.631 366.733 302.232 364.007C313.436 359.991 327.587 359.545 338.82 356.575C343.028 355.461 357.068 345.429 360.973 342.475C360.084 339.678 359.221 336.87 358.384 334.053C357.169 334.483 356.039 334.942 354.889 335.541C347.929 339.156 340.432 343.224 333.198 346.224C337.126 342.918 340.51 340.163 344.718 337.228C343.685 336.111 342.148 334.522 340.673 334.251C333.234 332.9 304.063 345.156 298.897 348.761C297.155 348.325 293.055 347.804 291.895 346.771C295.119 344.332 301.415 341.573 305.352 339.055C317.139 331.522 326.698 321.575 337.576 313.276C337.041 312.847 336.478 312.449 335.895 312.088C325.981 306.022 307.649 316.866 298.36 316.296C295.312 316.11 278.233 309.625 275.598 307.997C278.37 300.025 281.141 292.322 285.095 284.845C290.876 273.912 296.123 262.312 302.265 251.575C295.211 258.773 286.193 265.785 279.835 273.613C280.418 272.241 281.193 270.442 281.571 269.02C285.02 256.003 290.137 240.515 298.894 230.155C290.224 233.415 280.786 237.938 275.165 245.737C273.888 248.261 272.27 252.722 272.156 255.546C271.524 262.662 270.182 274.601 269.964 281.249C267.993 284.013 264.811 287.974 263.232 290.665C262.479 277.151 261.535 275.757 256.353 263.226C255.389 273.584 254.451 288.17 257.513 298.256L256.78 298.245C255.572 293.235 252.266 283.904 248.859 279.866C250.41 275.737 250.872 268.058 251.413 263.489C251.911 259.28 257.334 242.256 256.05 239.337L255.595 239.478L254.826 241.019L254.526 241.106C253.969 238.893 254.705 235.624 255.126 233.312C263.089 224.46 272.182 216.61 281.809 209.657C284.844 207.464 287.775 204.962 290.983 203.03Z" fill="#4E1518"/>
<path d="M260.141 245.13C261.997 240.652 263.31 239.576 267.322 236.643C269.657 234.937 278.36 229.731 280.643 233.532C280.353 234.437 274.002 242.344 272.761 244.248C273.243 245.155 273.413 245.683 274.253 246.236L275.165 245.737C273.888 248.261 272.269 252.722 272.155 255.546C272.006 255.501 271.853 255.456 271.703 255.411C268.583 257.21 266.919 258.338 263.391 259.188C263.027 253.884 263.991 250.162 265.86 245.259L260.141 245.13Z" fill="#3C1619"/>
<path d="M329.593 283.565C329.909 283.875 329.772 283.747 329.919 284.268C325.545 290.056 316.051 302.13 311.091 306.759L311.016 306.67C310.993 305.956 313.625 303.314 314.286 302.508C319.467 296.257 324.568 289.942 329.593 283.565Z" fill="#3C1619"/>
<path d="M154.946 245.353L159.04 245.171C157.539 248.746 156.795 252.977 155.169 256.485C149.995 267.645 145.971 279.236 141.513 290.682C140.387 293.569 142.681 299.127 143.542 302.225C145.1 307.828 146.153 314.166 148.946 319.308C148.838 323.917 147.977 328.972 147.736 333.623C146.995 347.96 145.758 363.61 147.359 377.836C144.502 377.012 138.151 376.915 136.649 375.889C126.995 369.283 117.433 357.422 109.17 349.784L109.184 342.211C113.087 343.322 115.164 345.146 118.686 346.24C122.07 347.384 124.785 350.39 125.977 350.712C122.973 347.559 120.761 344.381 117.824 341.322C118.896 341.065 120.208 340.661 121.272 340.306C127.202 338.339 133.433 337.355 139.398 335.603C130.447 334.971 125.46 333.545 117.995 327.812C115.239 325.695 112.754 323.588 109.692 321.904C110.279 317.006 111.406 311.876 112.078 306.942C113.274 298.166 114.394 289.254 116.312 280.603C117.445 275.677 120.371 270.454 120.773 265.383C121.199 260.001 121.1 254.293 121.277 248.868C129.304 248.488 130.225 250.385 137.662 251.666C140.624 252.176 146.207 251.416 149.765 251.644L150.17 251.673C145.714 249.668 141.24 247.702 136.75 245.775C143.811 246.206 147.798 245.875 154.946 245.353Z" fill="#3B161A"/>
<path d="M141.514 88.4827C147.839 92.9011 156.081 95.8474 161.961 89.1986C164.237 91.4921 168.2 94.0355 171.19 95.692C171.366 95.7891 171.497 96.3581 171.493 96.616C164.899 99.0803 156.046 104.465 149.339 105.747C147.697 106.06 143.112 103.503 141.912 105.053C143.004 110.786 147.871 111.713 152.877 111.283L152.886 111.771C152.602 112.95 152.392 113.57 152.479 114.804L152.024 115.313L152.133 115.914C153.569 117.079 155.228 117.406 156.835 117.862C167.248 120.812 171.418 119.778 177.909 110.844C178.388 110.184 179.912 107.944 180.638 107.47C180.739 107.421 180.84 107.373 180.945 107.324C181.993 106.792 181.511 106.454 183.12 106.154C186.234 105.416 188.237 98.8275 190.015 96.0031C188.956 100.162 188.38 103.185 187.716 107.427C188.894 106.046 190.246 104.372 191.474 103.075C191.891 109.345 192.868 114.564 192.392 121.017C194.92 117.446 198.991 111.241 200.714 107.179C200.876 105.573 202.489 101.952 203.205 100.341C205.407 95.933 209.054 88.8843 213.962 95.1924C218.646 103.581 219.564 110.24 213.35 118.097C210.015 122.311 207.133 125.478 202.472 128.326C200.394 127.229 199.056 126.498 197.082 125.161C195.525 129.324 193.027 143.136 190.647 144.709C179.723 151.934 167.529 168.775 155.749 173.528C152.453 170.52 151.039 166.782 149.94 162.553C150.459 160.767 150.843 159.988 151.667 158.301L146.102 154.373C153.018 151.367 160.444 151.088 166.697 146.746C159.981 148.227 153.738 150.837 146.487 152.317C145.577 148.706 145.166 146.896 143.228 143.622C146.505 143.096 147.796 142.659 150.775 141.198C148.76 141.164 146.369 141.303 144.327 141.371L141.455 143.566C137.817 140.055 138.075 138.492 138.236 133.661C137.95 128.372 139.639 119.665 139 114.602C137.573 103.292 137.185 99.3828 141.514 88.4827Z" fill="#4E1518"/>
<path d="M203.205 100.341C205.407 95.9331 209.054 88.8843 213.962 95.1924L213.451 95.8279C214.891 98.9331 215.184 100.437 215.513 103.856C213.66 102.405 213.093 101.853 211.631 100.008C210.106 102.628 209.295 103.544 206.924 105.439C209.253 107.585 210.149 108.378 211.552 111.167C209.885 116.181 207.338 120.387 201.593 121.168C201.157 120.926 200.88 120.904 200.844 120.507C200.59 117.795 203.658 114.335 203.309 111.555C203.26 111.175 201.785 109.295 201.45 108.855C201.3 108.53 201.215 107.828 201.15 107.439L200.714 107.179C200.876 105.573 202.489 101.952 203.205 100.341Z" fill="#0A0606"/>
<path d="M203.205 100.341C205.407 95.9331 209.054 88.8843 213.962 95.1924L213.451 95.8279C210.357 95.6745 206.322 98.4764 204.283 100.633L203.205 100.341Z" fill="#4E1518"/>
<path d="M200.714 107.179C200.876 105.573 202.489 101.952 203.205 100.341L204.283 100.633C202.212 103.585 202.01 105.254 201.45 108.855C201.3 108.53 201.215 107.828 201.15 107.439L200.714 107.179Z" fill="#4E1518"/>
<path d="M150.839 13.736C157.024 17.3493 163.344 20.7281 169.783 23.8649C172.894 25.3856 176.206 26.6021 179.297 28.2322C182.827 30.0949 186.025 32.2376 189.533 34.17L189.363 26.7411C193.008 31.7497 195.692 36.0138 196.978 42.1867C205.14 44.6913 212.428 48.247 216.239 56.2028C213.5 54.8668 211.21 54.0506 208.367 53.0686C210.569 62.7884 210.679 67.1257 211.148 76.995C209.937 73.7481 208.527 70.483 207.185 67.2788C207.322 72.7772 206.117 80.2292 205.576 85.9869C205.175 84.0011 205.11 82.4951 204.495 80.4989L204.032 80.4178C201.779 83.0647 200.131 91.1225 199.241 94.8156C198.909 85.5107 197.379 81.3548 193.972 72.7538C192.891 70.0287 191.585 66.8085 190.897 63.9684C191.21 74.3471 189.644 76.6954 187.403 86.6601C186.178 80.3289 181.469 62.7353 181.41 57.6854C179.078 60.3258 176.779 62.6464 174.297 65.1484C174.792 60.7899 175.209 55.2677 173.213 51.2454C172.33 49.467 170.699 47.6304 168.738 47.0673C162.901 45.3913 144.857 69.3392 140.322 73.6127C138.951 74.9047 137.008 75.8258 135.391 76.7771C134.459 77.6044 131.429 80.5334 130.449 80.6673C130.66 79.9185 135.326 75.7606 136.605 73.3309C141.059 64.8693 141.815 57.8609 148.805 50.5845C139.375 52.7924 130.395 54.4343 121.73 58.8712C117.041 61.2716 112.287 62.8119 108.439 66.6222C107.551 67.5013 106.518 68.4526 105.529 69.1802L105.224 68.8011C108.56 63.1939 129.312 43.5318 134.825 38.7532C127.017 39.6414 117.999 41.7379 111.289 46.0554C110.086 46.8292 108.997 47.5471 107.753 48.2708L107.474 48.1278C108.785 45.3144 125.868 36.7837 129.311 35.746C138.225 33.06 150.049 32.8757 158.975 35.5894C146.787 26.2311 134.833 21.6283 119.8 18.4743C125.08 18.1984 130.326 17.76 135.605 18.2776C145.251 19.2237 154.045 21.9045 163.269 24.6775C162.002 23.4239 150.851 13.7686 150.839 13.736Z" fill="#4E1518"/>
<path d="M170.907 26.177C171.096 26.2376 171.285 26.2979 171.474 26.3584C177.017 31.2182 184.387 35.7854 187.188 42.7831C182.703 41.8164 173.109 30.204 170.907 26.177Z" fill="#0A0606"/>
<path d="M199.395 136.224L202.922 134.391C203.427 138.88 203.361 143.595 203.97 148.047C205.322 157.903 207.009 168.567 211.797 177.394C208.397 180.238 202.765 183.866 199.978 186.615C199.479 189.095 197.473 192.739 195.854 194.601C192.78 199.009 189.774 204.092 186.81 208.607C185.299 210.91 183.612 214.157 181.899 216.211C178.782 216.878 174.965 217.713 172.229 219.294C167.979 221.751 166.255 226.696 162.554 229.918C159.674 232.425 157.064 233.452 153.61 234.848C155.895 235.262 157.655 235.379 159.953 235.544C159.552 238.418 159.57 240.417 158.902 243.39C152.821 245.154 144.803 244.797 138.777 243.036C134.673 241.837 132.443 239.368 129.715 236.319C134.088 235.044 136.616 234.367 140.63 232.264C142.112 232.443 144.085 232.482 145.616 232.553C145.331 229.741 145.452 228.316 144.819 225.368C140.98 220.842 136.442 221.072 131.276 217.934C134.103 215.3 136.355 213.659 139.511 211.484C141.012 214.229 142.346 216.135 144.436 218.436C149.927 213.695 148.035 216.217 154.473 215.479C157.024 215.186 161.045 210.996 162.39 208.746C165.699 203.372 163.552 195.924 166.53 190.483C174.353 176.194 186.191 164.669 193.187 149.868C194.158 147.819 195.656 145.755 196.577 143.686C197.695 141.165 197.854 138.624 199.395 136.224Z" fill="#4A1719"/>
<path d="M195.854 194.601C194.936 191.027 197.486 188.652 199.978 186.616C199.479 189.095 197.473 192.739 195.854 194.601Z" fill="#4E1518"/>
<path d="M187.191 168.627L187.422 168.894C187.201 174.934 174.167 205.779 170.444 211.63L170.357 211.517C170.747 209.874 173.203 204.647 174.001 202.895C175.984 198.545 177.893 194.16 179.723 189.743C182.462 182.952 184.455 175.369 187.191 168.627Z" fill="#0A0606"/>
<path d="M282.516 142.521C284.88 143.027 286.209 143.456 288.169 144.937C291.495 148.391 295.119 151.242 298.839 154.244C304.607 158.897 309.87 164.205 315.162 169.389C313.993 172.873 312.71 176.863 311.694 180.413C305.519 174.666 282.558 161.853 274.816 168.096C274.689 169.071 274.715 169.162 274.872 170.145L274.149 171.593C275.885 175.738 283.121 179.693 287.173 181.356C289.879 182.465 292.661 183.385 295.494 184.108C296.728 188.976 298.425 194.408 300.363 199.029C299.438 198.179 298.503 197.337 297.718 196.381C296.106 194.42 293.677 189.363 291.387 188.384C283.193 184.954 273.898 185.448 265.205 183.732C253.419 181.406 242.313 175.288 230.149 175.486C223.919 175.588 218.76 180.627 215.737 185.644C221.704 184.133 224.495 181.177 231.09 179.548C230.308 181.737 229.875 183.039 229.357 185.324C236.138 185.275 238.747 184.922 244.977 187.741C230.488 189.57 223.603 187.72 209.979 194.986C216.868 194.096 221.603 194.192 228.494 194.457C220.401 197.681 214.242 200.5 206.954 205.613C200.16 210.377 194.936 216.873 189.012 222.657C185.563 226.022 182.4 230.134 178.707 233.153C180.358 230.279 182.257 227.524 184.022 224.697C187.064 219.83 190.106 214.619 193.431 209.961C203.84 195.245 215.858 181.736 229.26 169.684C233.503 165.902 236.907 162.122 242.961 161.321C251.172 158.662 269.026 154.572 275.478 148.594C275.585 147.958 275.5 146.081 275.715 145.689C277.735 142.034 279.246 144.555 282.327 143.336C282.574 142.817 282.512 143.089 282.516 142.521Z" fill="#4E1518"/>
<path d="M282.515 142.521C284.88 143.027 286.209 143.456 288.169 144.937C284.655 147.033 279.053 150.794 275.679 152.433C269.052 155.656 249.788 162.004 242.961 161.321C251.172 158.662 269.026 154.572 275.477 148.594C275.585 147.958 275.5 146.081 275.715 145.689C277.734 142.034 279.246 144.555 282.327 143.336C282.574 142.817 282.512 143.089 282.515 142.521Z" fill="#A4433B"/>
<path d="M237.532 313.228C238.288 313.664 238.245 315.885 238.369 316.895C240.18 331.936 248.674 344.436 254.621 358.001C255.914 360.942 256.562 364.186 257.653 367.186C260.45 374.869 262.548 382.005 266.642 389.118C262.945 384.858 259.239 382.077 254.914 378.497C248.622 373.381 233.559 358.19 229.26 351.575C224.98 344.99 218.789 325.353 217.255 317.768C227.253 318.497 229.312 320.1 237.532 313.228Z" fill="#4E1518"/>
<path d="M234.161 208.776C239.154 200.058 247.176 200.142 255.823 196.974C266.446 193.081 273.667 194.554 284.447 195.241C269.615 201.689 260.223 212.57 251.002 225.654C248.019 229.888 246.915 233.588 245.482 238.456C243.977 237.512 240.896 235.047 239.75 234.511C231.712 231.049 226.736 232.05 218.512 234.981C222.987 224.312 228.615 218.157 234.161 208.776Z" fill="#4E1518"/>
<path d="M234.161 208.776C235.822 211.715 232.666 219.859 234.65 225.331C236.05 229.19 239.763 231.802 239.75 234.511C231.712 231.049 226.736 232.05 218.512 234.981C222.987 224.312 228.615 218.157 234.161 208.776Z" fill="#3C1619"/>
<path d="M224.472 242.693C232.718 241.68 235.396 243.233 241.557 248.432C234.331 260.495 234.585 270.004 237.07 283.223C234.194 283.234 231.956 283.294 229.09 283.527C222.958 283.928 217.939 284.747 212.204 286.883C211.754 277.877 212.513 255.51 215.662 246.32C216.35 244.316 222.179 243.099 224.472 242.693Z" fill="#3C1619"/>
<path d="M74.0483 188.387C74.9472 187.948 75.1612 187.73 76.078 187.915C77.3941 189.229 78.2627 191.193 79.6055 192.429C85.5469 197.895 90.8689 203.722 96.2534 209.716C97.9594 211.615 100.42 213.336 102.381 215.032C103.395 226.016 109.453 235.524 111.979 245.824C112.401 247.546 110.401 257.487 109.986 259.894C109.732 257.196 109.165 249.91 108.14 247.832C105.422 242.324 99.8708 236.322 96.2456 231.237C94.2081 228.378 92.0479 224.423 89.7635 222.011C93.2685 219.945 97.7786 216.607 101.014 214.023C97.3783 215.368 93.0581 219.046 89.1278 220.981C87.0454 219.01 73.2722 206.436 72.5632 204.929C70.1776 202.163 65.8017 195.394 63.2526 193.546C65.8356 192.06 71.3347 189.402 74.0483 188.387Z" fill="#3C1619"/>
<path d="M74.0483 188.387L74.174 189.075C73.2283 190.293 69.4073 193.125 67.9668 194.446C69.1569 196.565 72.5922 202.26 72.7899 204.271L72.5632 204.929C70.1776 202.163 65.8017 195.394 63.2526 193.546C65.8356 192.06 71.3347 189.402 74.0483 188.387Z" fill="#4E1518"/>
<path d="M160.635 80.707C164.605 77.4875 168.622 74.3276 172.685 71.2282C172.555 73.9387 172.988 84.6776 174.561 86.5503C177.189 87.218 179.867 82.1798 180.853 80.1774C181.576 84.772 182.661 92.1663 182.856 96.7626C178.912 96.5538 175.45 96.4226 171.493 96.616C171.497 96.3581 171.366 95.7891 171.19 95.692C168.2 94.0355 164.237 91.4922 161.961 89.1986C156.081 95.8474 147.839 92.9011 141.514 88.4827C143.641 84.0721 144.546 81.9316 148.775 79.0515C149.754 78.3848 150.56 77.4982 151.717 76.927C152.556 78.5326 151.695 78.7707 152.773 79.824C154.57 80.0012 156.874 78.1258 158.23 77.0152C159.172 76.2378 160.104 75.4489 161.027 74.649C159.377 77.9555 158.44 78.7603 155.366 80.8979C156.979 80.7995 159.068 80.6109 160.635 80.707Z" fill="#3C1619"/>
<path d="M83.4108 424.909C82.8695 410.546 83.9811 395.825 85.8782 381.588C86.2772 378.592 87.0009 372.86 87.8424 370.117C92.4658 355.041 95.891 339.935 98.8645 324.464C99.4517 321.412 101.12 317.921 101.869 314.84C103.399 309.349 104.802 303.742 106.407 298.28C106.858 296.745 107.805 290.602 108.22 289.974C109.396 295.025 98.8652 354.112 96.6026 361.884C88.9716 388.083 83.2842 398.199 84.7077 426.818C84.5452 425.926 84.509 425.528 84.1537 424.701L83.4108 424.909Z" fill="#4E1518"/>
<path d="M196.095 216.118C197.271 216.288 198.124 216.485 198.844 217.381C199.561 220.908 194.881 239.889 194.561 245.478C193.496 264.136 197.499 282.551 192.796 300.78C192.22 303.014 192.526 306.359 191.705 308.411L191.073 308.583C189.604 308.225 188.197 308.117 186.699 307.958C187.302 300.776 189.175 293.951 189.549 286.496C190.288 273.062 189.008 258.947 189.683 245.568C189.966 239.893 193.083 219.862 196.095 216.118Z" fill="#A4433B"/>
<path d="M102.997 253.551L103.815 254.132C106.179 258.069 103.68 270.911 103.251 275.461C102.525 281.573 102.491 288.194 101.355 294.243C99.3305 305.02 97.4402 316.234 94.9051 326.874C92.9614 335.03 88.1957 343.514 87.3076 351.868L86.8522 352.181L85.5967 351.875L82.7073 350.217C83.755 336.632 90.9367 323.321 93.7564 310.225C96.983 295.241 98.3157 279.528 101.334 264.485C102.05 260.914 102.473 257.161 102.997 253.551Z" fill="#4E1518"/>
<path d="M208.546 291.723C218.542 289.624 227.13 289.902 236.946 288.501C236.9 291.596 237.027 294.484 237.014 297.515L237.151 302.751C232.732 302.573 213.448 303.932 209.865 305.694C209.448 302.788 209.123 299.678 208.764 296.748C208.536 294.759 208.51 293.734 208.546 291.723Z" fill="#4E1518"/>
<path d="M208.546 291.723C218.542 289.624 227.13 289.902 236.946 288.501C236.9 291.596 237.027 294.484 237.014 297.515C236.812 296.765 236.737 295.517 236.663 294.706L236.428 294.653C235.659 295.718 234.806 296.084 233.533 296.196C229.69 296.534 211.63 297.613 209.22 296.656L208.764 296.748C208.536 294.759 208.51 293.734 208.546 291.723Z" fill="#4E1518"/>
<path d="M209.22 296.656C210.22 294.568 230.898 292.902 234.252 292.982C235.933 293.022 236.057 293.296 236.428 294.653C235.659 295.718 234.806 296.085 233.533 296.196C229.69 296.534 211.631 297.613 209.22 296.656Z" fill="#0A0606"/>
<path d="M275.478 148.594C275.308 147.37 275.298 146.634 274.715 145.539C272.771 144.286 265.101 147.795 260.063 146.663C254.249 145.441 248.599 142.602 243.069 140.593C232.096 136.606 221.147 135.878 209.621 137.221C208.95 137.3 208.582 137.294 208.129 136.834L208.497 136.403C210.787 135.601 214.962 135.628 217.737 135.067C221.023 134.403 225.856 133.51 229.165 133.471C240.033 133.344 249.358 139.786 260.187 141.017C266.524 141.738 276.64 140.494 282.516 142.521C282.512 143.089 282.574 142.817 282.327 143.336C279.246 144.555 277.734 142.034 275.715 145.689C275.5 146.081 275.585 147.958 275.478 148.594Z" fill="#5F1A1C"/>
<path d="M161.424 106.633C164.967 105.5 176.958 101.138 180.016 99.674C177.255 103.093 174.069 108.8 171.536 111.406C167.142 112.386 164.199 113.136 159.707 113.333C156.731 113.821 155.369 113.704 152.478 114.804C152.392 113.57 152.602 112.95 152.886 111.771L152.877 111.283C153.899 109.319 159.323 107.463 161.424 106.633Z" fill="#CABFC0"/>
<path d="M152.877 111.283C153.899 109.319 159.323 107.463 161.424 106.633C160.5 109.216 158.677 109.458 156.549 111.265C156.76 112.663 156.503 112.594 157.314 113.277L159.707 113.333C156.731 113.821 155.369 113.704 152.478 114.804C152.392 113.57 152.602 112.95 152.886 111.771L152.877 111.283Z" fill="#A1A6B1"/>
<path d="M113.84 388.06C116.344 389.024 117.748 396.528 122.604 397.59C131.168 399.463 140.226 400.863 148.948 402.055L148.956 409.52C143.297 406.25 137.595 405.618 131.47 403.661C127.255 402.313 124.764 400.645 120.274 399.987C118.682 397.075 114.99 390.848 113.84 388.06Z" fill="#4E1518"/>
<path d="M79.3065 350.191C80.5471 350.693 81.2988 351.324 82.5002 351.82C84.9308 352.819 87.6532 353.318 90.228 353.839C88.809 357.871 87.858 362.173 84.3481 364.58C85.5226 365.3 85.4672 365.662 85.4636 366.932C82.9829 368.218 80.9711 366.45 79.0841 365.014C81.5476 358.275 80.1201 357.255 79.3065 350.191Z" fill="#A4433B"/>
<path d="M108.188 109.096C113.857 110.844 118.252 112.162 124.049 113.341C125.806 115.187 126.544 116.239 127.978 118.293C123.582 118.222 119.124 118.245 114.722 118.229C111.708 115.067 110.049 113.002 108.188 109.096Z" fill="#FEFADD"/>
<path d="M227.664 235.876C228.934 235.756 230.295 235.654 231.566 235.785C234.852 236.124 244.629 240.171 243.873 244.46C242.769 244.773 239.848 241.965 238.623 241.242C236.881 240.212 235.741 239.76 233.819 239.134C233.103 239.017 232.38 238.923 231.657 238.851C225.856 238.316 218.919 240.045 214.337 243.9C214.601 243.123 215.275 241.027 215.708 240.536C218.382 237.499 223.883 236.569 227.664 235.876Z" fill="#4E1518"/>
<path d="M233.086 307.228C234.559 307.01 236.943 306.854 238.04 308.01L237.841 308.619C233.005 312.14 226.078 311.567 220.632 310.785C218.265 310.407 215.76 309.906 213.389 309.466C218.639 308.541 227.674 307.665 233.086 307.228Z" fill="#4E1518"/>
<path d="M95.5464 418.969C98.898 424.04 102.251 430.055 105.672 434.801C103.448 434.371 100.976 434.814 98.4424 434.43C97.6106 429.372 96.9608 423.828 95.5464 418.969Z" fill="#3C1619"/>
<path d="M241.558 395.939C241.87 396.261 241.759 396.242 241.909 396.792C241.6 397.899 232.894 411.927 232.005 412.976L231.761 412.579C232.005 409.778 239.838 399.652 241.558 395.939Z" fill="#3C1619"/>
<path d="M84.974 434.433C89.1975 434.345 94.2762 434.172 98.4424 434.43C100.976 434.814 103.448 434.371 105.672 434.801C104.075 435.508 87.756 435.068 84.5034 435.202L84.974 434.433Z" fill="#2A2426" fill-opacity="0.984314"/>
<path d="M83.4108 424.909L84.1537 424.701C84.509 425.528 84.5452 425.926 84.7077 426.818L84.9741 434.433L84.5035 435.201L84.0169 435.052C83.1353 434.058 83.3948 426.535 83.4108 424.909Z" fill="#A4433B"/>
<path d="M180.945 107.324C181.176 106.817 181.782 102.547 182.355 100.837L182.58 100.765C182.71 102.707 182.847 104.232 183.12 106.154C181.511 106.454 181.993 106.792 180.945 107.324Z" fill="#4E1518"/>
<path d="M211.175 320.715C211.855 321.344 212.689 325.51 212.979 326.682C211.526 325.598 210.999 322.464 211.175 320.715Z" fill="#3C1619"/>
<path d="M256.78 298.245L257.513 298.256C257.786 299.377 258.187 300.51 258.011 301.615C257.311 300.863 257.06 299.319 256.78 298.245Z" fill="#3C1619"/>
<path d="M410.317 434.198C411.483 435.231 413.613 435.296 415.118 436.074H393.372C392.404 435.188 391.851 435.241 390.538 435.048C391.737 434.983 392.935 434.908 394.134 434.827L394.069 434.684C392.01 434.632 385.575 434.615 383.972 434.11C392.753 434.247 401.536 434.28 410.317 434.198Z" fill="#1A1717" fill-opacity="0.980392"/>
<path d="M220.714 81.1255C221.554 82.3554 222.622 84.5313 223.635 85.4387L222.844 86.4044C221.763 84.4994 221.388 83.181 220.714 81.1255Z" fill="#0A0606" fill-opacity="0.0705882"/>
</svg>
