<svg width="369" height="503" viewBox="0 0 369 503" fill="none" xmlns="http://www.w3.org/2000/svg">
<path d="M178.049 0.0352571C225.969 -0.891373 272.443 16.4772 308.006 48.6055C343.637 81.2097 365.102 126.454 367.816 174.671C369.068 199.057 364.747 222.714 356.965 245.748C347.808 272.858 334.002 298.247 319.517 322.827C282.211 386.139 236.994 444.178 187.731 498.583L183.836 502.58C170.832 489.782 156.273 471.337 144.444 457.252C133.14 443.791 120.411 428.532 109.749 414.574C86.268 384.014 64.8556 351.921 45.654 318.506C30.4786 292.382 17.1048 267.664 8.16353 238.551C3.44936 223.447 0.763625 207.782 0.177811 191.97C-4.29578 89.5652 76.208 4.37849 178.049 0.0352571Z" fill="#F90100"/>
<path d="M180.142 71.0776C241.477 69.0293 292.857 117.087 294.9 178.414C296.946 239.742 248.88 291.114 187.545 293.152C126.218 295.194 74.8476 247.138 72.8033 185.816C70.7595 124.495 118.816 73.1256 180.142 71.0776Z" fill="white"/>
</svg>
