<svg width="264" height="383" viewBox="0 0 264 383" fill="none" xmlns="http://www.w3.org/2000/svg">
<path d="M36.9385 52.0192C65.5893 24.7981 92.3693 2.46634 134.523 3.81794C158.259 4.57874 187.206 13.7867 205.827 28.6789L205.178 29.2883C202.826 27.8721 198.393 25.3121 195.811 24.8063C209.385 32.9814 218.082 41.6943 228.43 53.6929C232.307 58.1894 235.74 63.5373 239.471 68.0052C236.644 61.9883 234.704 58.2385 230.994 52.6322L231.481 51.9799C236.388 58.5465 243.364 67.416 247.616 74.0283C251.844 80.5943 256.876 96.1252 258.423 103.966C253.391 92.2069 250.967 84.0172 242.322 73.7126C249.657 90.1359 254.33 102.559 256.632 120.667C257.022 123.758 257.269 126.865 257.376 129.978C257.43 131.665 257.424 135.879 257.705 137.351C258.512 130.016 260.093 123.408 259.157 116.01C259.069 115.296 258.679 111.183 258.807 110.914C259.444 111.86 262.2 125.159 262.386 127.205C263.282 137.09 262.347 147.579 260.671 157.36C259.407 164.485 253.736 177.787 249.706 183.676C252.861 174.952 253.842 170.743 254.052 161.341C250.318 173.768 245.201 187.539 237.695 198.264C241.341 195.312 243.263 192.213 246.151 188.624C243.275 196.202 234.826 208.03 230.141 215.269C234.713 211.015 239.297 206.774 243.757 202.396C244.996 201.177 246.797 198.344 247.513 197.862C247.15 198.868 246.574 199.788 246.906 200.54C253.084 199.87 257.5 190.224 259.56 185.016C259.045 192.451 259.087 193.664 256.471 200.571C253.863 207.454 254.616 208.456 248.569 214.123L248.161 214.05L247.802 213.139C246.105 213.645 241.676 218.395 240.363 219.943C238.189 222.511 236.529 225.744 234.652 228.556C236.915 227.271 250.482 221.119 251.911 221.296C250.3 223.13 245.441 225.784 243.26 227.877C240.692 230.345 236.3 233.575 233.927 236.128C227.298 243.267 222.101 248.221 213.159 252.566C209.614 254.287 206.54 254.089 202.79 254.927C200.369 255.466 197.91 256.792 195.706 257.983C200.208 253.669 201.214 254.181 206.804 251.728C208.291 251.076 210.051 248.282 211.255 247.517C216.627 244.095 224.152 240.796 224.721 233.34L224.481 232.868C217.559 233.197 213.891 237.075 208.511 241.344C216.819 230.199 222.127 226.012 228.755 212.807C226.604 214.961 223.797 218.581 221.76 220.994L208.533 236.643C203.431 242.73 198.324 248.614 193.401 254.799C172.095 281.557 153.813 310.462 140.531 342.049C138.445 347.01 133.279 358.807 132.204 363.81C130.733 358.21 127.362 350.343 125.181 344.837C111.489 310.264 91.7543 280.661 70.0929 250.735L60.974 238.206C59.3776 236.024 57.151 232.761 55.3498 230.902L55.8722 232.328L55.6346 232.615C54.299 232.112 49.3391 228.035 47.9352 226.945C49.5033 233.37 53.3602 239.504 58.0903 244.083C52.4531 241.155 45.0494 238.273 40.2081 235.497C42.5151 238.919 44.0805 240.433 47.0318 243.325C43.5931 241.256 35.0411 236.466 33.4438 233.169C31.2628 228.666 27.5951 223.846 25.3127 219.559C26.8013 221.22 30.0469 225.059 31.8611 225.976C37.248 228.7 41.4917 232.618 46.3888 235.881C40.5209 228.715 35.2068 223.77 32.5674 214.882C31.9275 212.725 24.7407 205.272 22.2996 205.062C19.2356 208.118 25.4343 215.217 25.0727 216.043C21.2576 213.441 15.3215 200.297 13.9742 195.742C12.5073 190.781 11.3976 184.241 11.1256 179.097C11.6489 180.598 13.8399 188.466 17.0084 187.826C17.4574 187.734 18.1461 186.647 18.4531 186.2C19.1305 186.832 18.8217 189.523 20.2585 191.787C22.964 196.052 26.2601 197.344 30.0673 200.525C29.3006 198.944 26.4117 193.417 26.0743 192.113C27.7785 193.292 36.6982 205.132 38.8209 207.457C36.495 203.557 33.9534 199.794 31.6823 195.888C26.4096 186.884 21.8086 177.504 17.9173 167.822C18.9323 173.494 21.5451 179.668 23.2207 185.28C17.9895 177.052 6.29736 153.52 7.10272 144.088C7.58674 144.61 8.63152 149.297 9.19595 150.635C10.2645 153.168 11.0568 154.517 12.5761 156.813C10.3309 146.085 8.39942 135.478 4.85141 125.121C4.65982 126.861 3.73444 136.634 3.46091 137.327L3.71617 136.771L3.15935 136.562C2.42739 131.138 1.30737 124.91 1.71067 119.436C2.12036 113.874 2.11426 107.125 3.16301 101.693C4.07742 96.9569 6.34183 91.9832 7.68482 87.3163C9.02659 83.3091 11.4189 76.6377 14.0483 73.2925C12.3873 77.7001 10.8938 82.0684 10.3026 86.7542C9.8548 90.302 7.26355 97.7433 8.47221 100.955L8.81855 101.125C9.0994 100.506 9.48929 99.4459 9.96873 99.0352C10.1073 102.996 9.2255 106.556 9.48137 110.863C9.96416 108.485 13.1156 90.8739 13.6069 90.3879C13.429 91.5472 13.2435 92.7053 13.0504 93.8622L13.3797 93.8951C14.0242 92.8172 14.4656 91.6447 14.9322 90.482C16.6901 86.1019 18.4598 81.7235 20.6009 77.5133C22.5159 73.8041 24.5723 70.1694 26.7654 66.6177C27.7666 64.9964 29.6634 62.2926 30.4471 60.6985C27.7316 63.5678 22.7623 68.5296 20.4903 71.5268L19.5213 71.0975C24.8458 61.0431 34.8105 45.4166 44.2133 38.5965C50.6279 33.9436 57.1299 29.7127 63.5607 24.6872L63.7364 25.6052C58.9923 29.8526 55.504 31.9235 50.6306 35.542C45.9379 39.0261 40.4073 47.0952 36.9385 52.0192Z" fill="#FEFEFE"/>
<path d="M125.829 18.3086C137.74 16.9558 155.618 20.3573 166.778 24.4794C193.424 34.3007 214.993 54.4442 226.615 80.3625C237.653 104.506 238.643 132.047 229.374 156.923C214.707 196.333 174.629 222.95 137.776 239.812L132.263 242.283C112.342 234.089 91.776 220.513 75.0473 207.186C28.0689 169.764 13.1623 102.326 54.3447 54.7398C73.7049 32.3693 96.4343 20.9633 125.829 18.3086Z" fill="black"/>
<path d="M106.426 65.1832C106.238 56.4567 105.993 44.4035 112.642 37.8649C124.073 26.6256 142.921 27.1677 154.158 38.3799C164.135 48.068 160.362 61.3758 159.746 73.6398C159.63 75.9423 160.98 78.7991 159.795 81.1108C156.868 86.3045 155.642 84.6991 153.789 90.8504L150.942 88.1716C152.99 92.4522 152.885 93.9987 153.358 98.7817C151.254 93.8644 149.123 94.4536 145.563 91.224C145.142 90.8428 147.448 88.6874 145.71 87.3712L145.212 87.4041C144.919 90.539 139.594 91.9241 137.675 89.7736C136.527 88.487 137.93 85.5525 137.989 84.1424C137.977 82.0906 137.141 80.0544 137.507 77.917C138.219 76.7562 139.741 75.6218 141.128 76.13C142.545 77.8262 142.33 82.5111 142.437 84.9751C142.884 83.0888 143.551 80.5712 143.895 78.7168C144.647 79.4831 145.283 80.3009 146.262 80.6476C146.351 80.1525 146.43 79.6556 146.499 79.1571C147.676 78.7086 148.178 79.5629 149.76 79.4377C148.931 78.3655 148.236 78.7275 147.291 77.7114L146.895 77.2757L147.154 76.1928C148.693 76.8299 149.858 76.8454 151.521 76.9978L152.158 77.5087C153.549 77.6986 153.801 78.1583 154.965 78.8954C156.068 78.7552 157.946 76.9207 158.92 76.1014C157.789 70.4552 161.212 70.7788 156.297 66.9842C152.071 70.1146 149.161 71.4229 144.181 72.7529C144.16 72.4637 144.054 68.4565 144.067 68.415L144.019 68.8221C143.619 69.0719 142.883 71.9446 142.655 72.6633L142.226 73.3428L142.382 74.1901C141.295 75.2343 139.778 75.3894 138.484 74.5914L138.496 74.1828L139.898 73.1502C140.103 71.3772 139.786 69.1024 139.767 67.1859C139.056 70.0393 139.409 71.4897 137.255 73.4531L136.653 73.5539C136.452 72.8714 137.325 70.0086 137.343 68.0677C136.548 69.9574 136.093 71.1289 134.973 72.8769C130.976 71.0006 125.399 69.1228 122.57 65.87C122.439 65.7195 120.751 66.2463 120.55 66.3185C119.845 66.5759 119.143 66.8407 118.444 67.1128C119.437 65.1515 120.87 62.1418 121.991 60.3695L121.97 60.1205C121.707 56.7623 122.715 55.4786 119.57 52.7483C118.597 51.9037 117.477 51.0731 116.442 50.2822C117.452 46.5744 118.454 42.6187 119.537 38.9527C121.599 37.1989 122.961 36.5103 125.242 35.1337C121.701 36.2602 117.273 37.6495 115.702 41.2774C112.544 48.5698 113.661 52.7358 108.49 59.8015C109.824 63.487 109.729 65.4949 109.646 69.4202C108.53 67.7575 107.831 66.643 106.426 65.1832Z" fill="#FEFEFE"/>
<path d="M142.227 73.3428C141.382 72.2885 140.497 69.1545 141.771 68.3081C142.696 69.5366 141.848 70.9729 142.655 72.6633L142.227 73.3428Z" fill="#181819"/>
<path d="M147.154 76.1928C148.693 76.8299 149.858 76.8454 151.521 76.9978L152.159 77.5087C151.252 77.5526 147.668 77.4826 147.291 77.7114L146.895 77.2757L147.154 76.1928Z" fill="#5A595A"/>
<path d="M158.536 54.9484C159.075 57.1809 158.247 63.5071 158.979 66.2307C159.103 66.6905 159.079 66.94 158.846 67.3376L158.411 66.8593C157.837 65.111 157.345 64.0598 156.55 62.3868C157.258 59.7942 157.604 57.5672 158.536 54.9484Z" fill="#181819"/>
<path d="M133.425 59.4825C133.645 59.6062 137.145 62.5504 137.631 62.9389C137.64 64.4867 137.755 65.785 137.892 67.3273C136.999 66.7317 134.774 61.477 133.425 59.4825Z" fill="black"/>
<path d="M105.569 89.7669C97.4481 82.2594 94.0262 71.5887 97.9979 60.4459C98.5894 58.7866 101.494 60.3899 102.484 60.9892C102.936 58.7254 102.481 56.2665 102.657 53.9503C103.306 45.6211 106.014 36.3138 113.414 31.5777C123.525 25.1071 136.122 23.5035 147.057 28.6009C161.677 35.4162 166.673 48.0525 164.692 63.221C164.155 67.3337 168.269 66.547 168.177 70.8973C168.489 77.0727 166.951 83.1309 164.231 88.6579C163.542 90.0591 162.934 90.7291 161.691 91.6392L160.965 96.0249C174.108 98.151 176.38 103.262 183.142 113.101C184.187 113.568 185.436 113.903 186.005 114.705C184.228 117.104 184.617 115.366 183.49 118.863C189.224 118.02 191.894 118.521 197.389 120.486C201.068 121.802 204.411 122.815 207.577 125.325C210.354 127.421 213.528 129.115 216.365 131.129C219.206 133.13 221.48 136.02 224.716 137.416C225.533 137.774 227.151 138.716 227.722 139.436C227.787 140.507 227.658 141.293 227.217 142.292L226.466 142.421C226.349 143.01 226.448 143.124 226.633 143.697L226.345 143.301C224.825 141.959 223.571 141.264 221.742 140.449C220.661 139.953 219.171 140.177 217.95 140.278C217.092 139.553 216.56 139.504 215.478 139.212C216.284 139.115 217.24 139.072 218.063 139.013L218.511 139.018L218.79 138.7C217.95 137.135 215.891 135.883 214.401 135.011C212.906 135.036 211.68 135.115 210.188 135.244L210.179 133.921C211.13 134.026 212.233 134.241 212.977 133.809L212.861 133.217L213.504 132.544C211.605 131.172 209.15 130.062 207.242 128.474C205.989 127.43 205.621 126.731 204.384 125.665L204.159 125.473C202.037 124.063 192.303 121.386 189.314 121.069C187.475 120.873 185.612 122.17 183.005 121.505C181.125 120.598 181.564 120.41 181.508 118.458C180.518 119.032 180.811 121.518 179.28 122.425C175.8 121.658 174.215 106.838 171.858 103.72C169.069 100.028 162.817 99.2247 158.492 98.4581C158.902 95.8994 159.178 92.663 159.472 90.0405C163.209 87.0677 165.564 76.5118 165.8 71.7581C165.96 68.5193 164.368 67.5101 161.502 67.7725C161.724 66.2938 161.901 64.8085 162.032 63.3188C162.846 54.7638 162.377 45.8929 156.375 39.0033C143.557 25.8968 128.182 24.9745 113.518 35.2462C103.1 42.5431 105.875 63.5979 104.491 64.7719L102.476 64.4843C97.3628 66.441 99.3034 78.18 102.455 81.5903C104.861 84.1936 104.332 86.1296 108.211 88.3794C108.272 92.0256 107.774 96.2355 108.015 99.7077C102.634 101.605 99.502 102.823 94.7606 106.1C96.2601 106.738 96.7472 106.365 98.4204 105.82L99.5672 105.415C99.5227 106.352 95.569 108.944 94.5641 109.557C92.6981 111.162 87.6046 114.721 86.593 116.399L86.7788 116.632C86.3475 116.774 85.8979 116.898 85.4955 117.098L85.1141 118.115L85.6356 119.595L84.9241 120.419C83.7443 119.086 83.1421 118.421 81.7879 117.288L80.7812 116.672C80.4985 117.206 80.2938 117.307 80.4906 117.721C81.7985 120.475 84.4327 123.319 86.0069 125.908C80.0163 127.392 70.2575 129.307 67.0975 134.468C66.3513 135.676 65.6842 136.931 65.1009 138.225C57.0259 137.945 46.932 144.36 41.9496 150.445C41.6965 149.197 41.5387 148.155 41.019 146.987C48.6073 139.184 53.0761 137.875 63.5553 135.444C65.3899 131.616 66.7442 129.068 71.0464 127.649C74.6163 126.471 78.2219 125.402 81.836 124.362C79.7163 122.079 79.0919 121.227 76.1686 120.073C74.934 119.507 75.4461 120.359 74.0169 119.042L73.3486 118.768C73.7613 117.237 78.942 114.682 80.4281 113.525C85.6856 109.433 90.7895 105.131 96.5772 101.791C99.4228 100.172 102.375 98.7488 105.414 97.5319C105.427 94.922 105.423 92.3747 105.569 89.7669Z" fill="#FEFEFE"/>
<path d="M98.4204 105.82L99.5673 105.415C99.5228 106.352 95.5691 108.944 94.5642 109.557C92.6982 111.162 87.6046 114.721 86.5931 116.399L86.7789 116.632C86.3475 116.774 85.8979 116.898 85.4956 117.098L85.1142 118.115L85.6357 119.595L84.9241 120.419C83.7444 119.086 83.1422 118.421 81.788 117.288L80.7812 116.672C81.469 116.294 85.7094 112.687 86.5602 111.969C89.2955 109.658 91.2885 108.261 94.3013 106.334L94.7606 106.1C96.2602 106.738 96.7473 106.365 98.4204 105.82Z" fill="#383738"/>
<path d="M80.7812 116.672C81.469 116.294 85.7094 112.687 86.5602 111.969C89.2955 109.658 91.2885 108.261 94.3013 106.334L94.7869 107.02C94.1539 109.17 86.8843 112.048 84.6634 115.489C83.7654 116.014 82.5772 116.65 81.788 117.288L80.7812 116.672Z" fill="#181819"/>
<path d="M84.6635 115.489C85.7394 117.253 84.5003 116.541 85.1144 118.115L85.6358 119.595L84.9243 120.419C83.7446 119.086 83.1423 118.421 81.7881 117.288C82.5773 116.65 83.7656 116.014 84.6635 115.489Z" fill="#6E6E6D"/>
<path d="M98.4202 105.82L99.567 105.415C99.5226 106.352 95.5688 108.944 94.564 109.557C94.5743 107.93 97.0699 106.752 98.4202 105.82Z" fill="#3A3939"/>
<path d="M213.504 132.544C214.705 133.34 216.48 134.578 217.406 135.667C220.262 139.028 223.645 139.95 227.218 142.292L226.466 142.421C226.349 143.01 226.448 143.124 226.634 143.697L226.345 143.301C224.826 141.959 223.572 141.264 221.742 140.449C220.662 139.953 219.171 140.177 217.95 140.278C217.093 139.553 216.56 139.504 215.478 139.212C216.284 139.115 217.241 139.072 218.063 139.013L218.512 139.018L218.79 138.7C217.95 137.135 215.892 135.883 214.401 135.011C212.906 135.036 211.68 135.115 210.189 135.244L210.18 133.921C211.131 134.026 212.234 134.241 212.978 133.809L212.861 133.217L213.504 132.544Z" fill="#181819"/>
<path d="M122.66 175.566C126.762 172.998 133.152 165.539 136.795 161.759C142.71 155.621 140.99 156.468 149.75 154.47C149.429 156.34 149.117 158.006 148.7 159.858C149.053 160.469 149.146 160.764 149.762 161.114C148.876 166.094 147.654 171.009 146.882 176.011C146.641 177.575 146.385 179.138 145.937 180.659C145.941 181.906 145.939 182.222 145.693 183.453L145.907 183.891L146.837 184.175L146.882 184.383L146.119 184.281C144.724 185.862 145.196 192.649 144.424 195.738L144.345 195.501C143.356 194.773 133.882 195.547 131.759 195.607C130.385 194.882 127.949 193.176 127.346 191.671C127.105 191.068 127.361 191.314 126.702 190.723L126.788 189.928C128.487 188.563 127.295 183.068 128.376 181.668C129.061 181.921 129.245 182.039 129.99 181.998C129.371 181.219 123.856 176.659 122.66 175.566Z" fill="#4F4F4F"/>
<path d="M145.937 180.659L145.54 180.356C145.013 179.126 148.417 162.826 148.699 159.858C149.052 160.469 149.146 160.764 149.762 161.114C148.876 166.094 147.654 171.009 146.882 176.011C146.641 177.575 146.384 179.138 145.937 180.659Z" fill="#3A3939"/>
<path d="M171.265 132.698C174.927 133.201 178.618 133.244 182.293 133.558C182.739 133.596 183.355 134.265 183.661 134.601L183.937 134.474L184.833 134.841L184.492 135.522C180.865 142.95 178.291 148.226 176.444 156.425C176.157 157.697 175.179 161.338 175.143 162.513C175.899 163.558 176.086 165.228 175.629 166.431C174.87 166.824 174.66 166.726 173.764 166.64C173.65 167.835 173.627 168.688 173.615 169.878C173.253 171.786 173.497 175.823 172.963 176.605L172.139 176.367C169.14 176.131 169.51 174.679 168.067 174.335C167.845 174.851 167.62 175.366 167.392 175.879L166.774 176.08L166.441 175.83C166.684 174.503 167.289 174.902 167.517 173.606L166.614 173.054C164.13 174.202 164.536 174.423 161.72 174.062L161.054 174.361C160.92 175.041 160.798 175.81 160.591 176.462C158.609 175.155 159.017 171.991 158.84 169.759C158.674 167.668 159.592 168.165 160.167 166.092C159.309 166.785 159.653 166.704 158.687 166.792L158.387 166.409L158.574 165.747C158.804 163.958 158.862 163.341 159.491 161.674C160.253 156.993 162.798 149.139 164.585 144.803C165.632 142.499 168.785 135.053 170.59 133.664L171.234 133.298L171.265 132.698Z" fill="#181819"/>
<path d="M179.216 143.328C180.642 140.96 181.528 138.125 183.078 135.872C183.416 135.38 183.895 135.518 184.492 135.522C180.865 142.95 178.291 148.226 176.444 156.425C176.157 157.697 175.179 161.338 175.143 162.513C175.899 163.558 176.086 165.228 175.629 166.431C174.87 166.824 174.66 166.726 173.764 166.64C173.65 167.835 173.627 168.688 173.615 169.878C173.253 171.786 173.497 175.823 172.963 176.605L172.139 176.367C169.14 176.131 169.51 174.679 168.067 174.335C167.845 174.851 167.62 175.366 167.392 175.879L166.774 176.08L166.441 175.83C166.684 174.503 167.289 174.902 167.517 173.606L166.614 173.054C164.13 174.202 164.536 174.423 161.72 174.062L161.054 174.361C160.92 175.041 160.798 175.81 160.591 176.462C158.609 175.155 159.017 171.991 158.84 169.759C158.674 167.668 159.592 168.165 160.167 166.092C159.309 166.785 159.653 166.704 158.687 166.792L158.387 166.409L158.574 165.747C158.804 163.958 158.862 163.341 159.491 161.674C160.253 156.993 162.798 149.139 164.585 144.803C165.302 144.866 166.967 144.92 167.5 145.243C167.131 146.187 165.262 151.12 164.88 151.662C164.095 154.207 163.373 156.77 162.715 159.351L162.634 160.638C163.825 161.94 170.36 161.66 172.433 161.69L172.429 161.42L172.756 161.212C173.046 160.695 173.043 159.869 173.093 159.243L174.171 159.191L174.598 158.422C174.693 157.247 174.283 156.268 173.917 155.152C173.795 153.529 173.852 153.174 174.131 151.559C174.756 150.646 176.262 146.273 177.027 144.655L177.65 145.011C178.212 144.087 178.298 143.874 179.216 143.328Z" fill="#D5D3D6"/>
<path d="M158.574 165.747L158.785 166.046L159.327 165.984C160.546 164.771 159.642 164.434 160.679 163.136C163.107 162.166 168.602 162.503 171.233 162.868L171.974 162.995C172.934 162.857 173.083 162.769 173.927 163.141L173.929 163.535C173.255 163.698 173.033 163.637 172.359 163.567C171.428 164.407 172.123 174.189 172.092 176.103L172.139 176.367C169.14 176.131 169.51 174.679 168.067 174.335C167.845 174.851 167.62 175.366 167.392 175.879L166.774 176.08L166.441 175.831C166.684 174.503 167.289 174.902 167.517 173.606L166.614 173.054C164.13 174.202 164.536 174.423 161.72 174.062L161.054 174.361C160.92 175.041 160.798 175.81 160.591 176.462C158.609 175.155 159.017 171.991 158.84 169.759C158.674 167.668 159.592 168.165 160.167 166.092C159.309 166.785 159.653 166.705 158.687 166.792L158.387 166.409L158.574 165.747Z" fill="#757475"/>
<path d="M160.167 166.092L160.555 165.394L160.948 165.566C161.225 166.477 161.254 166.6 161.162 167.545L161.372 167.412L162.813 167.839L163.356 167.719C165.83 167.867 167.975 167.877 170.446 167.87L170.31 168.176C169.514 169.999 169.21 172.704 168.644 173.725C167.851 173.882 168.213 173.937 167.517 173.606L166.614 173.054C164.131 174.202 164.536 174.423 161.72 174.062L161.055 174.361C160.92 175.041 160.798 175.81 160.591 176.462C158.609 175.155 159.017 171.991 158.841 169.759C158.675 167.668 159.592 168.165 160.167 166.092Z" fill="#5A595A"/>
<path d="M160.167 166.092L160.555 165.394L160.948 165.566C161.225 166.477 161.254 166.6 161.162 167.545L161.372 167.412L162.813 167.839C160.794 168.803 162.01 172.151 161.72 174.062L161.055 174.361C160.92 175.041 160.798 175.81 160.591 176.462C158.609 175.155 159.017 171.991 158.841 169.759C158.675 167.668 159.592 168.165 160.167 166.092Z" fill="#D5D3D6"/>
<path d="M161.372 167.412L162.813 167.839C160.794 168.803 162.01 172.151 161.72 174.062L161.055 174.361C160.92 175.041 160.798 175.81 160.591 176.462C160.805 173.295 160.173 170.947 161.162 167.545L161.372 167.412Z" fill="#3A3939"/>
<path d="M167.064 166.298C168.711 166.272 170.118 166.244 171.758 166.358C171.728 168.379 171.482 174.608 172.093 176.103L172.139 176.367C169.14 176.131 169.51 174.679 168.068 174.335C167.846 174.851 167.62 175.366 167.392 175.879L166.774 176.08L166.441 175.83C166.684 174.503 167.289 174.902 167.517 173.606C168.213 173.937 167.851 173.882 168.644 173.725C169.21 172.704 169.514 169.999 170.31 168.176L170.446 167.87C167.975 167.877 165.829 167.867 163.356 167.719L162.813 167.839L161.372 167.412C161.583 166.622 161.385 166.944 161.955 166.395C163.486 166.013 165.453 166.219 167.064 166.298Z" fill="#3A3939"/>
<path d="M161.372 167.412C161.583 166.622 161.385 166.944 161.955 166.395C163.486 166.013 165.453 166.219 167.064 166.298C168.427 166.51 169.833 166.496 171.027 167.129C170.283 167.762 164.744 167.456 163.356 167.719L162.813 167.839L161.372 167.412Z" fill="black"/>
<path d="M171.233 162.868L171.974 162.995C170.527 164.09 164.377 163.415 162.372 163.237C163.301 162.807 169.912 162.861 171.233 162.868Z" fill="#3A3939"/>
<path d="M164.586 144.803C165.302 144.866 166.967 144.92 167.501 145.243C167.132 146.187 165.262 151.12 164.88 151.662L164.345 151.595C162.372 153.649 162.947 159.088 161.109 161.237C161.081 161.269 159.691 161.632 159.492 161.674C160.254 156.993 162.798 149.139 164.586 144.803Z" fill="#5A595A"/>
<path d="M177.028 144.655L177.65 145.011C178.212 144.087 178.298 143.874 179.216 143.328C177.394 147.85 176.145 152.408 174.962 157.178C174.746 158.05 175.278 159.365 174.768 160.369C173.893 160.038 173.798 159.662 173.093 159.243L174.171 159.191L174.599 158.422C174.694 157.247 174.283 156.268 173.918 155.152C173.796 153.529 173.852 153.174 174.132 151.559C174.757 150.646 176.262 146.273 177.028 144.655Z" fill="#5A595A"/>
<path d="M162.715 159.351C162.902 160.175 162.888 160.287 163.373 160.952L163.7 160.602C163.906 157.79 167.811 144.333 169.443 142.844C170.048 144.896 169.219 147.055 170.337 151.013C170.792 150.767 171.155 150.791 171.672 150.755C172.306 149.339 172.326 148.77 172.513 147.239C173.406 148.627 172.85 149.091 173.224 150.537L173.97 150.897L174.131 151.559C173.852 153.174 173.795 153.529 173.917 155.152C174.283 156.268 174.694 157.247 174.598 158.422L174.171 159.191L173.093 159.243C173.043 159.869 173.046 160.695 172.756 161.212L172.429 161.42L172.433 161.69C170.36 161.66 163.825 161.94 162.634 160.638L162.715 159.351Z" fill="#5A595A"/>
<path d="M172.513 147.239C173.406 148.627 172.85 149.091 173.225 150.537L173.97 150.897L174.131 151.559C173.852 153.174 173.795 153.529 173.917 155.152C174.283 156.268 174.694 157.247 174.598 158.422L174.171 159.191L173.093 159.243C173.043 159.869 173.046 160.695 172.756 161.212L172.429 161.42C171.788 161.436 171.817 161.473 171.292 161.117C171.173 160.105 171.495 156.795 171.505 155.341L170.337 151.013C170.792 150.767 171.155 150.791 171.672 150.755C172.306 149.339 172.326 148.77 172.513 147.239Z" fill="black"/>
<path d="M171.505 155.342C173.066 156.351 172.654 156.173 173.638 157.98C173.896 157.533 173.812 157.776 173.881 157.249L173.374 157.545C174.211 156.649 173.938 156.677 173.917 155.152C174.283 156.268 174.694 157.247 174.598 158.422L174.171 159.191L173.093 159.243C173.043 159.869 173.046 160.695 172.756 161.212L172.429 161.42C171.788 161.436 171.817 161.473 171.292 161.117C171.173 160.105 171.495 156.795 171.505 155.342Z" fill="#181819"/>
<path d="M171.266 132.698C174.927 133.201 178.618 133.244 182.293 133.558C182.739 133.596 183.356 134.265 183.661 134.601L183.937 134.474L184.833 134.841L184.492 135.522C183.895 135.518 183.417 135.38 183.078 135.872C181.528 138.125 180.642 140.96 179.216 143.328C178.298 143.874 178.212 144.087 177.65 145.011L177.027 144.655C177.637 142.946 178.503 140.723 178.941 139.006C176.467 138.755 171.871 137.444 170.442 138.409C169.633 139.422 168.14 143.706 167.5 145.243C166.967 144.92 165.302 144.866 164.585 144.803C165.632 142.499 168.785 135.053 170.591 133.664L171.234 133.298L171.266 132.698Z" fill="#5A595A"/>
<path d="M171.266 132.698C174.927 133.201 178.618 133.244 182.293 133.558C182.739 133.596 183.356 134.265 183.661 134.601C182.809 134.909 173.008 133.54 170.591 133.664L171.234 133.298L171.266 132.698Z" fill="#181819"/>
<path d="M171.672 150.755C169.45 148.701 170.089 143.172 172.553 141.372L173.012 141.479C173.235 143.168 172.405 145.35 172.513 147.239C172.326 148.77 172.306 149.339 171.672 150.755Z" fill="#5A595A"/>
<path d="M173.94 143.439C175.248 141.99 175.824 140.845 177.493 140.389C176.797 142.377 174.455 149.333 173.225 150.537C173.343 148.118 173.361 145.792 173.94 143.439Z" fill="#5A595A"/>
<path d="M138.439 126.195C139.416 125.771 142.483 124.505 143.114 123.933C147.895 119.599 153.116 113.989 155.916 108.148C156.296 107.354 157.181 106.251 157.72 105.542C157.646 107.572 157.494 111.127 157.822 113.089C159.718 124.421 150.123 132.136 145.992 141.303C143.25 140.57 137.582 141.549 135.64 140.896C138.139 138.115 141.068 133.876 142.802 130.535C141.187 132.445 128.674 144.873 127.373 145.4C126.889 145.596 126.415 145.813 125.93 146.007L125.792 146.47L126.843 147.839C126.812 147.951 124.363 150.584 123.641 151.969C119.724 152.801 107.799 154.521 108.941 147.179C109.097 146.183 107.207 142.862 106.739 141.664C107.966 141.987 109.734 142.461 110.973 142.565C116.803 143.058 118.113 141.945 122.108 146.921C120.844 144.608 119.951 142.468 117.218 141.673C117.002 141.609 116.784 141.549 116.565 141.494C116.836 135.36 116.454 132.426 115.602 126.296C117.103 129.612 118.934 132.768 120.777 135.906C122.052 138.078 122.783 142.171 125.029 143.127C125.997 143.003 126.032 143.004 126.712 142.35C127.521 140.582 126.717 137.779 126.341 135.816C128.859 135.699 130.032 135.465 132.467 134.972C134.707 132.225 136.706 129.288 138.439 126.195Z" fill="#FEFEFE"/>
<path d="M107.708 206.884C110.466 206.844 112.822 207.883 114.418 210.126C116.586 209.638 119.9 208.602 122.101 208.188C127.063 207.691 134.095 209.651 138.466 211.89C141.018 213.194 139.425 215.65 138.229 217.134C137.946 219.178 140.186 220.229 138.739 221.829C137.071 222.082 125.099 221.762 123.267 221.408C118.941 219.004 112.651 213.746 107.703 217.898C107.93 219.004 109.471 219.842 110.505 220.589C103.625 220.51 97.7914 215.662 92.2275 211.634C96.34 209.833 103.301 207.682 107.708 206.884Z" fill="#181819"/>
<path d="M72.8434 154.945C75.9065 151.801 78.1091 151.318 80.7268 148.391C81.2261 147.832 82.3625 145.332 82.8134 144.534C81.4341 152.309 80.5246 156.319 77.9373 163.92C76.9117 169.339 74.4795 175.33 73.5763 180.984C67.8001 178.016 65.2726 180.195 59.6258 179.556L59.4879 179.929L58.1333 180.683C59.4708 178.061 59.391 178.744 61.8714 177.158C62.5768 176.708 63.9932 175.257 64.6433 174.611C62.9046 174.383 61.2878 174.718 59.4437 174.234C58.1257 171.991 59.8869 161.736 61.3666 159.432L60.7724 157.815C60.3164 158.78 59.9746 159.925 59.126 160.308C59.0745 158.974 59.6377 157.808 60.105 156.525C62.769 155.969 66.819 155.501 69.7027 155.004L70.6424 152.036C71.1218 152.474 71.2693 153.723 71.7466 154.662L72.8434 154.945Z" fill="black"/>
<path d="M75.1998 162.993C76.269 163.297 76.8876 163.495 77.9373 163.92C76.9117 169.339 74.4795 175.33 73.5763 180.984C67.8001 178.016 65.2726 180.195 59.6258 179.556L59.4879 179.929L58.1333 180.683C59.4708 178.061 59.391 178.744 61.8714 177.158C62.5768 176.708 63.9932 175.257 64.6433 174.611C65.0045 174.335 64.911 174.143 65.0143 173.533L65.1513 173.432C66.0721 173.262 67.5141 172.737 68.4471 172.43C75.7292 172.011 74.2245 169.428 75.1998 162.993Z" fill="#515051"/>
<path d="M65.1514 173.432C66.0722 173.262 67.5142 172.737 68.4472 172.43L69.4606 172.795C69.3399 174.366 67.2102 174.694 65.94 174.729L65.3643 174.446L65.1514 173.432Z" fill="#5A595A"/>
<path d="M72.8438 154.945C75.9068 151.801 78.1094 151.318 80.7272 148.391C81.2264 147.832 82.3629 145.332 82.8137 144.534C81.4344 152.309 80.5249 156.319 77.9376 163.92C76.8879 163.495 76.2693 163.297 75.2001 162.993C74.4999 160.467 76.0204 160.255 73.1206 159.532L73.9945 159.397C74.997 157.891 74.8785 155.536 72.8438 154.945Z" fill="#707070"/>
<path d="M69.703 155.004L70.6427 152.036C71.1222 152.474 71.2696 153.723 71.7469 154.662L72.8438 154.945C74.8785 155.536 74.997 157.891 73.9946 159.397L73.1207 159.532L72.4776 159.547C70.9519 162.571 71.6555 170.696 70.205 171.545C68.1529 170.356 69.58 162.836 70.1953 160.669C70.3141 160.438 71.092 157.634 71.2178 157.195C68.5407 157.382 64.187 157.45 61.8793 158.692C61.7179 158.994 61.6152 159.191 61.367 159.432L60.7727 157.815C60.3167 158.78 59.975 159.925 59.1263 160.308C59.0749 158.974 59.6381 157.808 60.1053 156.525C62.7694 155.969 66.8194 155.501 69.703 155.004Z" fill="#FEFEFE"/>
<path d="M60.7725 157.815C61.8191 157.025 70.6257 155.91 71.6151 156.44L71.2176 157.195C68.5404 157.382 64.1867 157.45 61.8791 158.692C61.7176 158.994 61.615 159.191 61.3667 159.432L60.7725 157.815Z" fill="#3A3939"/>
<path d="M61.3666 159.432C61.6149 159.191 61.7175 158.994 61.879 158.692C64.1866 157.45 68.5403 157.382 71.2175 157.195C71.0917 157.634 70.3137 160.438 70.1949 160.669L69.8638 160.189C67.7423 160.154 63.5345 160.626 61.2765 160.816C60.593 162.994 59.4187 171.818 60.0087 173.711C61.2993 174.125 63.5436 173.692 65.0142 173.533C64.911 174.143 65.0045 174.335 64.6432 174.611C62.9046 174.383 61.2878 174.718 59.4437 174.234C58.1257 171.991 59.8869 161.736 61.3666 159.432Z" fill="#636265"/>
<path d="M67.2371 161.872C67.9127 161.952 67.9264 161.89 68.4208 162.333C68.3273 163.712 67.5916 167.43 67.1661 168.756C66.1807 168.846 62.4189 169.615 62.0116 169.566L61.7147 168.998L61.5151 163.841C62.2727 165.359 63.0263 167.123 63.7357 168.682C64.3275 165.559 64.1548 163.396 67.2371 161.872Z" fill="#5A595A"/>
<path d="M97.4135 151.456C98.3825 152.817 102.991 157.453 102.835 158.47C102.144 162.982 106.633 161.942 105.378 165.956C105.74 167.166 106.224 166.975 107.245 168.251C107.057 171.718 108.979 169.995 109.78 171.717C110.74 173.779 109.511 175.591 113.439 175.784C110.727 176.418 109.067 176.815 107.418 179.297L106.567 181.919C106.338 182.665 106.183 183.26 105.843 183.961C105.365 185.138 105.251 185.773 104.996 186.988C104.646 187.85 104.294 188.767 103.919 189.614C103.716 190.653 103.658 191.336 103.128 192.259L103.054 192.506C102.27 193.079 96.543 193.718 94.74 194.145C92.8786 193.133 91.521 192.076 89.8335 190.827C92.0595 182.307 97.4047 171.725 98.422 162.697C98.6989 160.238 97.7931 153.979 97.4135 151.456Z" fill="#3A3939"/>
<path d="M105.843 183.961C105.203 183.58 105.458 183.831 105.08 183.155C105.291 181.453 105.405 180.347 106.631 179.014L107.418 179.297L106.567 181.919C106.338 182.666 106.183 183.26 105.843 183.961Z" fill="#181819"/>
<path d="M103.128 192.259C102.713 190.242 102.791 188.301 104.402 186.772L104.996 186.988C104.646 187.85 104.294 188.767 103.919 189.614C103.716 190.653 103.658 191.336 103.128 192.259Z" fill="#181819"/>
<path d="M220.476 151.121C221.738 151.129 223.505 151.309 224.804 151.404C221.41 160.938 218.285 166.149 213.111 174.574C210.109 172.828 208.209 172.585 205.296 170.033C206 171.615 209.887 178.168 209.447 179.218C207.473 179.282 204.088 176.522 202.435 175.324C201.251 174.58 200.523 173.924 199.207 174.207L199.07 174.812C199.371 176.272 200.39 177.299 201.337 178.478C197.69 176.817 195.58 175.204 192.405 172.831C194.033 170.849 195.411 169.201 196.839 167.064C197.933 167.701 199.445 168.708 200.741 168.29C204.436 167.098 208.157 154.252 220.476 151.121Z" fill="#FEFEFE"/>
<path d="M114.863 175.653C122.764 175.035 127.588 179.264 126.349 187.381L125.685 188.49L126.788 189.928L126.702 190.723C125.981 191.613 125.65 192.177 124.626 192.689C122.318 192.533 121.724 189.757 118.635 192.338L118.7 192.753L119.873 192.512L120.16 192.786C120.011 193.033 119.865 193.283 119.722 193.533C118.579 195.492 119.566 196.397 118.722 197.56L118.188 197.624C117.871 197.137 117.949 196.854 117.974 196.269L117.583 196.156C117.228 196.652 117.193 196.945 117.036 197.524L116.348 197.774C115.723 197.353 115.923 197.506 115.648 196.601C114.313 196.957 113.565 196.915 112.549 197.362C112.22 197.027 112.224 197.149 112.127 196.787C111.958 195.985 111.866 194.757 111.373 194.313C111.049 194.824 110.889 195.26 110.659 195.815C110.109 194.072 111.321 193.176 110.811 191.969C109.519 191.092 107.12 190.464 105.572 190.345C105.1 191.29 106.051 191.15 105.699 192.42L105.029 192.262C104.277 191.333 104.224 190.766 103.918 189.614C104.294 188.767 104.646 187.85 104.996 186.988C105.251 185.773 105.365 185.138 105.843 183.961C106.183 183.26 106.338 182.666 106.566 181.919L107.418 179.297C109.067 176.815 110.727 176.418 113.438 175.784L114.863 175.653Z" fill="#FEFEFE"/>
<path d="M113.438 175.784L114.863 175.653L115.19 176.809L114.897 177.112C112.651 177.699 111.187 177.905 109.839 180.064C109.302 180.924 108.851 182.507 108.385 183.081C108.602 183.602 108.716 184.017 109.12 184.405C107.027 184.302 106.109 184.338 105.631 186.698C106.269 189.626 108.709 189.514 111.099 189.812C111.35 190.47 112.21 193.106 112.453 193.435C112 194.465 112.124 195.626 112.127 196.787C111.958 195.985 111.866 194.757 111.373 194.313C111.049 194.824 110.889 195.26 110.659 195.815C110.109 194.072 111.321 193.176 110.811 191.969C109.519 191.092 107.12 190.464 105.572 190.345C105.1 191.29 106.051 191.15 105.699 192.42L105.029 192.262C104.277 191.333 104.224 190.766 103.918 189.614C104.294 188.767 104.646 187.85 104.996 186.988C105.251 185.773 105.365 185.138 105.843 183.961C106.183 183.26 106.338 182.666 106.566 181.919L107.418 179.297C109.067 176.815 110.727 176.418 113.438 175.784Z" fill="#FEFEFE"/>
<path d="M108.089 180.208C110.053 177.809 111.706 176.625 114.897 177.112C112.652 177.699 111.187 177.905 109.839 180.064C109.302 180.924 108.851 182.507 108.386 183.081C108.044 182.131 108.107 181.227 108.089 180.208Z" fill="#181819"/>
<path d="M111.1 189.812C108.709 189.514 106.269 189.626 105.631 186.698C106.11 184.338 107.027 184.302 109.12 184.405C110.552 184.966 113.085 186.145 114.16 187.189L114.052 187.841C112.815 188.374 112.967 188.088 112.346 189.035C112.372 189.617 112.315 189.971 112.679 190.413C113.373 189.529 113.446 189.133 114.385 188.798C115.663 189.572 116.231 192.018 115.86 193.338C115.06 193.487 114.597 193.277 113.784 193.063L112.453 193.435C112.211 193.106 111.35 190.47 111.1 189.812Z" fill="black"/>
<path d="M125.685 188.49C125.07 187.865 123.289 182.926 123.482 182.202C124.686 182.65 125.213 186.047 126.349 187.381L125.685 188.49Z" fill="#3A3939"/>
<path d="M116.114 184.212C116.341 185.234 115.69 185.196 116.272 186.252C118.398 185.609 122.606 184.231 123.855 186.662C123.743 187.951 123.752 188.182 123.081 189.27C120.805 190.413 119.447 190.19 116.964 190.166C115.042 187.302 114.61 187.341 116.114 184.212Z" fill="black"/>
<path d="M93.7117 144.857C93.7565 143.507 94.5421 141.88 96.0477 141.849C95.0179 144.837 93.9414 147.718 93.0157 150.787C91.9067 154.384 90.9807 158.427 89.3946 161.831C85.9249 169.278 84.2971 177.574 82.4521 185.53C81.6912 188.813 81.1929 198.246 80.1636 200.482C80.2742 201.131 80.2371 200.921 80.0869 201.613L79.541 201.905C78.4926 201.576 78.8115 201.835 78.213 201.013L78.5508 200.123L78.064 199.751L76.651 200.028C75.3966 199.492 73.5111 197.557 72.4316 196.558C73.8657 190.891 80.5304 167.941 86.1448 166.48C86.217 166.359 86.7172 165.011 86.7988 164.797C87.2849 163.713 87.7751 162.424 88.231 161.309C88.3852 160.13 89.4312 157.897 90.0008 156.799C89.4568 155.697 89.1147 155.084 89.4784 154.004C89.7406 150.372 89.3611 146.673 92.5189 144.339L93.084 143.914C93.6983 144.389 93.4882 144.09 93.7117 144.857Z" fill="#202021"/>
<path d="M93.7118 144.857C93.7566 143.507 94.5421 141.88 96.0478 141.849C95.0179 144.837 93.9415 147.718 93.0158 150.787C91.9067 154.384 90.9807 158.427 89.3947 161.831C85.9249 169.278 84.2971 177.574 82.4522 185.53C81.6913 188.813 81.1929 198.246 80.1637 200.482C79.5484 200.056 79.4884 200.065 79.0635 199.419C80.9249 186.168 82.6678 179.015 86.1449 166.48C86.2171 166.359 86.7172 165.011 86.7988 164.797C87.285 163.713 87.7751 162.424 88.2311 161.309C88.3852 160.13 89.4312 157.897 90.0008 156.799C89.4568 155.697 89.1147 155.084 89.4784 154.004C89.7407 150.372 89.3611 146.673 92.519 144.339L93.084 143.914C93.6984 144.389 93.4882 144.09 93.7118 144.857Z" fill="#FEFEFE"/>
<path d="M92.5188 144.339L93.0839 143.914C93.6983 144.389 93.4881 144.09 93.7116 144.857C92.9468 147.095 90.3287 154.744 90.0007 156.799C89.4567 155.697 89.1146 155.084 89.4783 154.004C89.7405 150.372 89.361 146.673 92.5188 144.339Z" fill="#181819"/>
<path d="M92.5186 144.339C92.758 145.485 90.4881 151.98 90.0163 153.739C89.86 153.826 89.6322 153.98 89.478 154.004C89.7403 150.372 89.3608 146.673 92.5186 144.339Z" fill="#5A595A"/>
<path d="M206.149 129.34C206.497 129.917 206.403 129.893 206.91 130.29C209.476 131.077 210.56 131.945 212.861 133.217L212.977 133.809C212.233 134.241 211.13 134.026 210.179 133.921L210.188 135.244C211.68 135.115 212.906 135.037 214.401 135.011C215.891 135.883 217.95 137.135 218.79 138.7L218.512 139.018L218.063 139.013C217.24 139.072 216.284 139.115 215.478 139.212C211.16 139.344 208.186 141.049 205.346 144.124C204.587 144.773 203.696 145.579 202.912 146.167L202.569 146.687C200.515 146.751 196.966 144.387 197.053 142.14C196.601 141.669 196.673 141.809 195.917 141.629L195.21 141.956C194.153 141.746 193.029 140.111 192.282 139.208C192.965 138.652 193.986 137.065 194.624 136.309C198.014 132.295 199.398 131.815 204.074 130.281L204.22 129.754C205.202 129.758 205.235 129.74 206.149 129.34Z" fill="#484848"/>
<path d="M210.188 135.244C211.68 135.115 212.906 135.036 214.401 135.011C215.891 135.883 217.95 137.135 218.79 138.7L218.511 139.018L218.062 139.013C217.24 139.072 216.284 139.115 215.478 139.212C211.16 139.344 208.186 141.049 205.346 144.124C204.587 144.773 203.696 145.579 202.912 146.167L202.569 146.687C200.515 146.751 196.966 144.387 197.053 142.14L197.388 142.251C198.019 142.351 197.895 142.277 198.591 141.981C199.66 140.73 203.669 136.972 205.062 136.298L205.467 136.6C206.276 136.756 209.011 135.676 209.969 135.349L210.188 135.244Z" fill="#B0AFB0"/>
<path d="M204.769 141.409C204.563 140.802 204.28 140.653 203.791 140.16C203.938 139.155 205.276 138.12 206.186 137.763C210.961 135.891 214.194 135.688 218.063 139.013C217.241 139.072 216.284 139.115 215.478 139.212C211.16 139.344 208.186 141.049 205.347 144.124C205.13 143.996 204.057 143.643 203.753 143.537L202.863 143.545L202.684 143.122C203.352 142.173 203.786 142.007 204.769 141.409Z" fill="#5A595A"/>
<path d="M204.769 141.409C205.667 141.846 205.959 141.773 206.263 142.46C205.41 142.79 204.449 142.983 203.753 143.537L202.863 143.545L202.684 143.122C203.352 142.173 203.786 142.007 204.769 141.409Z" fill="#FEFEFE"/>
<path d="M198.591 141.981C199.959 142.103 199.745 141.869 200.587 142.603C200.871 143.568 200.964 143.952 201.708 144.641C202.509 144.606 202.128 144.739 202.8 144.022C203.39 145.44 202.258 144.463 202.912 146.167L202.569 146.687C200.515 146.751 196.966 144.387 197.053 142.14L197.388 142.251C198.019 142.351 197.895 142.277 198.591 141.981Z" fill="#3A3939"/>
<path d="M197.947 140.498C199.611 137.915 202.275 135.749 205.372 135.302L205.062 136.298C203.669 136.972 199.66 140.731 198.591 141.981C197.895 142.277 198.019 142.351 197.388 142.251L197.947 140.498Z" fill="#FEFEFE"/>
<path d="M206.91 130.29C209.476 131.077 210.56 131.945 212.861 133.217L212.978 133.809C212.233 134.241 211.13 134.026 210.179 133.921C208.603 132.651 206.546 132.267 205.507 131.17L205.719 130.68L206.91 130.29Z" fill="#FEFEFE"/>
<path d="M205.372 135.302C205.612 134.067 205.353 134.43 206.223 133.799C207.61 133.556 209.514 133.805 209.969 135.349C209.011 135.676 206.276 136.756 205.467 136.6L205.062 136.298L205.372 135.302Z" fill="#181819"/>
<path d="M195.917 141.629C196.424 140.826 196.106 140.291 196.582 139C197.329 139.273 197.517 139.798 197.947 140.498L197.388 142.251L197.053 142.14C196.601 141.669 196.673 141.809 195.917 141.629Z" fill="#3A3939"/>
<path d="M160.561 202.838C160.205 201.272 158.551 187.652 158.837 186.247L159.978 185.956C162.225 186.561 160.74 187.856 162.083 189.629C163.379 190.199 169.72 190.062 171.235 189.642C172.274 188.091 170.455 187.579 172.495 186.415L173.197 186.607C174.821 188.13 176.186 196.695 176.898 199.623C175.796 200.866 174.472 201.951 173.364 203.243C172.701 204.017 171.756 205.75 170.955 205.933C170.578 205.409 170.277 204.967 169.928 204.425C170.294 203.091 171.486 202.292 172.323 201.104C174.026 198.682 173.028 193.88 172.52 191.089L172.278 191.083C171.882 193.74 172.148 195.409 172.405 198.06C169.879 200.077 168.87 201.555 167.127 204.19C165.502 202.798 164.086 202.222 162.973 200.479L162.18 201.095C163.679 203.819 165.935 204.861 167.392 208.739C164.776 205.924 163.616 205.05 160.561 202.838Z" fill="#272727"/>
<path d="M161.517 189.861C161.917 194.185 162.439 196.543 162.973 200.479L162.18 201.095C160.933 196.037 160.855 194.864 161.517 189.861Z" fill="#181819"/>
<path d="M161.689 143.96C161.881 146.862 154.648 152.595 156.33 156.012L156.858 156.125C157.824 155.271 159.051 153.011 159.768 151.816C159.433 153.243 158.566 158.248 157.256 158.738C156.501 159.02 155.796 158.805 154.876 159.693C154.159 161.187 154.599 163.853 154.834 165.476C155.752 166.37 156.293 167.136 157.058 168.156L157.034 168.341C156.664 171.394 156.676 173.152 156.66 176.252C155.091 176.132 153.858 176.215 152.286 176.293C152.105 179.445 151.889 182.594 151.638 185.741C153.381 186.589 155.37 187.317 157.196 187.987C157.557 190.696 157.87 193.411 158.134 196.132C157.664 194.821 157.617 193.798 157.137 192.369C155.541 192.783 151.41 193.947 149.875 193.81C149.398 194.13 149.239 194.011 148.78 194.255C147.433 194.974 148.356 196.43 147.986 197.944L147.683 197.789C147.371 195.324 148.177 191.811 148.351 189.243C149.254 175.893 152.551 163.951 155.681 151.053C158.413 148.838 159.477 146.661 161.689 143.96Z" fill="#3A3939"/>
<path d="M179.197 123.798C180.491 122.587 180.89 122.117 182.618 121.791L183.08 123.162C182.778 123.667 182.759 123.702 182.353 124.125L182.568 124.228C189.539 121.115 189.299 121.759 197.072 123.977C196.531 125.03 196.515 124.698 196.597 125.725C196.783 125.855 197.096 126.096 197.286 126.181C191.711 127.841 188.99 129.843 185.305 134.393C185.058 134.698 185.199 134.551 184.833 134.841L183.937 134.474L183.661 134.601C183.356 134.265 182.739 133.596 182.293 133.558C178.618 133.244 174.927 133.201 171.266 132.698C171.502 130.012 177.014 125.334 179.197 123.798Z" fill="#5B5B5B"/>
<path d="M179.197 123.798C180.491 122.587 180.89 122.117 182.618 121.791L183.08 123.162C182.778 123.667 182.759 123.702 182.353 124.125L182.568 124.228C189.539 121.115 189.3 121.759 197.072 123.977C196.531 125.03 196.515 124.698 196.598 125.725C196.783 125.855 197.096 126.096 197.286 126.181C191.711 127.841 188.99 129.843 185.306 134.393C185.059 134.698 185.199 134.551 184.833 134.841L183.938 134.474C186.495 129.836 191.721 127.043 196.363 125.045C186.816 121.959 187.103 123.468 179.423 126.875L178.863 126.464C179.041 125.527 179.997 125.977 180.485 124.335C180.029 124.004 179.729 123.955 179.197 123.798Z" fill="#D5D3D6"/>
<path d="M196.813 144.819C198.334 145.87 199.863 146.908 201.4 147.934C201.282 150.228 201.205 152.333 202.761 154.178C204.889 154.935 205.617 155.02 207.274 156.652C205.574 158.711 204.6 160.12 203.129 162.34C201.883 161.567 200.339 160.671 199.231 159.754C198.05 159.387 197.728 158.393 195.602 158.236C192.876 159.265 189.411 160.015 186.547 160.537C183.962 156.441 182.212 153.579 179.091 149.869C181.831 150.702 182.801 150.905 184.877 152.823L185.585 152.516L187.376 151.982C187.632 152.947 188.518 153.609 189.515 153.58C188.866 154.5 188.515 154.677 188.445 155.685C190.008 155.978 191.04 154.743 192.898 154.96C195.171 151.789 195.17 148.315 196.813 144.819Z" fill="#3A3939"/>
<path d="M187.376 151.982C187.631 152.947 188.518 153.609 189.515 153.58C188.866 154.5 188.515 154.677 188.445 155.685C190.008 155.978 191.04 154.743 192.898 154.96C191.867 155.889 189.218 156.575 187.774 157.049C186.784 155.495 185.994 154.282 184.877 152.823L185.585 152.516L187.376 151.982Z" fill="#181819"/>
<path d="M195.603 158.236C196.886 157.652 196.78 157.965 197.906 156.896C199.139 156.618 198.727 156.538 199.806 156.91C200.308 157.789 200.205 158.036 200.151 159.102C199.858 159.244 199.345 159.422 199.231 159.754C198.05 159.387 197.728 158.393 195.603 158.236Z" fill="#181819"/>
<path d="M43.4583 154.155C43.2518 153.653 42.9049 152.632 43.1373 152.172C45.1339 148.216 50.2555 144.187 54.0652 142.493C53.0036 143.567 51.5534 144.776 50.4005 145.793L50.9342 146.224C52.9744 144.96 53.9278 144.547 56.2412 143.861L56.0956 144.144C54.7173 146.777 51.4151 151.382 49.5299 154.653L49.8641 154.921C51.3901 153.42 55.9857 151.808 58.1386 150.708C55.3573 156.544 56.3634 157.923 54.6217 162.914C52.4212 163.677 49.8583 164.143 48.2068 164.737C46.3703 161.304 44.7014 156.401 43.4583 154.155Z" fill="#FEFEFE"/>
<path d="M43.4583 154.155C43.2518 153.653 42.9049 152.632 43.1373 152.172C45.1339 148.216 50.2555 144.187 54.0652 142.493C53.0036 143.567 51.5534 144.776 50.4005 145.793C47.936 147.735 44.9886 150.809 44.2433 153.947L43.4583 154.155Z" fill="#FEFEFE"/>
<path d="M50.4004 145.793L50.9341 146.224C48.468 148.219 47.0019 149.619 45.4427 152.492C44.9928 153.321 44.9562 154.034 44.3461 154.072L44.2432 153.947C44.9885 150.809 47.9359 147.735 50.4004 145.793Z" fill="#757475"/>
<path d="M181.743 178.851L182.567 179.373C185.14 183.408 184.277 189.218 185.256 193.825C185.664 195.745 186.958 197.548 186.958 198.74C185.267 197.344 183.197 190.988 182.35 188.706C182.462 192.295 182.665 195.882 182.957 199.459C183.093 201.043 183.498 203.31 183.464 204.76L182.919 205.135C181.35 206.104 179.406 207.64 177.892 208.767C176.17 207.895 174.427 206.924 172.724 206.003C174.189 203.855 176.219 201.534 177.895 199.483C176.684 195.239 176.724 191.893 176.057 187.597C178.668 186.165 180.064 185.334 182.462 183.586C182.235 182.006 181.995 180.428 181.743 178.851Z" fill="#181819"/>
<path d="M171.654 106.786C172.755 112.74 173.088 115.744 176.158 121.003C173.531 125.941 165.811 136.845 161.726 141.013C164.54 134.943 168.135 126.462 167.581 119.683C167.144 120.223 167.138 120.238 166.846 120.87C166.437 120.718 163.843 120.259 163.253 120.146C165.987 116.033 169.473 111.116 171.654 106.786Z" fill="#3A3939"/>
<path d="M217.95 140.278C219.171 140.177 220.661 139.953 221.742 140.449C223.571 141.264 224.825 141.959 226.345 143.301L226.633 143.697L227.123 144.57C225.908 146.239 222.224 145.833 219.683 147.061C216.059 148.812 214.416 149.977 211.235 152.397C210.524 153.333 209.69 154.459 208.574 154.804C207.281 154.487 207.182 153.958 206.028 152.928C205.313 152.998 204.843 153.106 204.14 153.259L203.596 152.893C203.275 152.029 203.262 151.923 203.499 151.035C204.213 150.353 204.811 150.617 206.066 150.645C206.298 149.542 205.887 149.528 205.355 148.14C205.894 146.258 209.837 142.766 211.873 142.738C214.39 141.813 213.197 141.454 217.95 140.278Z" fill="#5A595A"/>
<path d="M211.235 152.397C210.524 153.333 209.69 154.459 208.574 154.804C207.281 154.487 207.182 153.958 206.028 152.928C205.313 152.998 204.843 153.106 204.14 153.259L203.596 152.893C203.275 152.03 203.262 151.924 203.499 151.035C204.213 150.353 204.811 150.617 206.066 150.645C206.298 149.542 205.887 149.528 205.355 148.14C205.894 146.258 209.837 142.766 211.873 142.738L212.008 143.041C212.154 144.45 212.143 145.051 212.91 146.293C214.057 147.022 213.825 147.137 214.49 148.606C213.203 149.598 211.398 150.68 211.235 152.397Z" fill="#3A3939"/>
<path d="M214.49 148.606C217.986 146.315 222.869 144.181 227.123 144.57C225.909 146.239 222.224 145.833 219.683 147.061C216.059 148.812 214.417 149.977 211.235 152.397C211.398 150.68 213.203 149.598 214.49 148.606Z" fill="#FEFEFE"/>
<path d="M212.008 143.041C213.574 142.355 216.949 143.153 218.712 143.504C216.506 145.275 215.727 145.927 212.911 146.293C212.143 145.051 212.155 144.45 212.008 143.041Z" fill="#FEFEFE"/>
<path d="M221.742 140.449C223.571 141.264 224.825 141.959 226.345 143.301L225.794 143.553C224.38 143.552 221.889 142.189 221.344 140.863L221.742 140.449Z" fill="#B0AFB0"/>
<path d="M163.253 120.146C163.843 120.259 166.437 120.718 166.846 120.87C165.467 124.815 164.114 129.104 162.332 132.853L161.68 134.841C161.515 136.473 161.008 139.866 160.105 141.195L159.553 141.471C159.104 141.21 159.071 141.249 158.857 140.789L159.032 140.678C158.76 140.687 158.541 140.674 158.282 140.732C153.069 150.388 150.172 165.847 147.847 176.584C147.306 179.079 148.002 180.817 146.837 184.175L145.907 183.891L145.693 183.453C145.939 182.222 145.941 181.906 145.937 180.659C146.385 179.138 146.641 177.575 146.883 176.011C147.654 171.009 148.876 166.094 149.762 161.114C150.921 157.787 151.484 154.084 152.705 150.55C154.518 145.121 157.53 140.177 158.56 134.499C159.239 130.76 158.46 126.936 158.739 123.281L159.07 123.203C159.582 124.187 159.605 124.361 159.763 125.464L160.58 125.349L159.951 122.717L160.242 121.462L160.632 121.241L161.166 121.731C162.275 121.231 161.942 121.56 162.457 120.531L163.253 120.146Z" fill="#D5D3D6"/>
<path d="M163.253 120.146C163.842 120.259 166.436 120.718 166.845 120.87C165.467 124.815 164.114 129.104 162.332 132.853L161.679 134.841L161.325 134.54C161.496 131.999 160.951 127.872 160.58 125.349L159.95 122.717L160.241 121.462L160.632 121.241L161.166 121.731C162.274 121.231 161.942 121.56 162.457 120.531L163.253 120.146Z" fill="#3A3939"/>
<path d="M159.95 122.717L160.241 121.462L160.632 121.241L161.166 121.731C161.75 125.433 162.311 129.094 162.332 132.853L161.679 134.841L161.325 134.54C161.496 131.999 160.951 127.872 160.58 125.349L159.95 122.717Z" fill="#D5D3D6"/>
<path d="M159.762 125.464L160.58 125.349C160.951 127.872 161.496 131.999 161.325 134.54L161.679 134.841C161.515 136.473 161.007 139.866 160.105 141.195L159.552 141.471C159.104 141.21 159.07 141.249 158.857 140.789L159.031 140.678C158.76 140.687 158.541 140.674 158.281 140.732C159.439 136.281 161.037 131.329 159.921 126.729C159.77 126.108 159.739 126.14 159.762 125.464Z" fill="#181819"/>
<path d="M114.678 78.2165C115.435 77.3308 115.641 76.7138 116.572 76.0149C117.914 76.4162 118.085 77.6763 119.369 78.6303C120.341 79.3518 121.249 79.6937 122.358 80.1367C125.707 79.3436 129.264 78.169 132.391 79.5081C131.901 80.5739 128.59 86.2173 128.56 86.4471C129.54 85.7649 131.142 85.1558 131.882 86.4072C131.834 86.6171 131.273 88.9477 131.262 88.8697C131.364 89.6043 131.925 90.1335 131.657 91.0415C129.848 91.5686 128.951 92.0951 127.271 92.9872L126.567 93.3659L125.995 93.9205C123.125 94.056 122.517 96.7562 121.507 99.0572C121.779 96.9743 122.057 92.663 123.369 91.1844C123.153 89.3514 122.153 84.1092 120.517 83.0839L120.043 83.8198L119.548 83.9133C117.998 83.0053 115.776 79.7915 114.678 78.2165Z" fill="#FEFEFE"/>
<path d="M126.566 93.3659C126.135 92.1664 126.985 90.4945 128.033 89.9391L128.441 90.2785C128.288 90.4903 128.137 90.7032 127.987 90.9174C127.193 92.0612 127.084 91.9455 127.271 92.9872L126.566 93.3659Z" fill="#B0AFB0"/>
<path d="M175.671 176.563C175.109 172.997 177.355 158.521 179.289 156.224L179.915 156.219C180.288 156.494 180.769 156.922 180.985 157.319C184.44 163.671 183.868 163.882 182.761 169.896C182.888 172.183 182.71 176.233 181.857 178.337L181.614 178.384C181.59 177.936 181.584 177.603 181.592 177.154L181.039 177.446C180.925 177.994 180.803 178.54 180.671 179.084C180.708 179.702 180.738 180.826 180.87 181.395C179 181.806 177.921 182.173 176.278 183.218C175.61 181.853 175.69 178.221 175.671 176.563Z" fill="#3A3939"/>
<path d="M176.007 176.696C177.383 177.026 178.598 176.673 179.916 176.245C180.769 177.068 180.431 177.65 180.671 179.084C180.707 179.702 180.737 180.826 180.869 181.395C179 181.806 177.92 182.173 176.278 183.218C175.61 181.853 175.69 178.221 175.67 176.563L176.007 176.696Z" fill="#3A3939"/>
<path d="M182.761 169.896C182.887 172.183 182.71 176.233 181.857 178.338L181.614 178.384C181.59 177.936 181.583 177.603 181.592 177.154L181.039 177.446C180.925 177.994 180.803 178.54 180.671 179.084C180.431 177.65 180.769 177.068 179.916 176.246C178.598 176.673 177.384 177.026 176.007 176.696C182.207 173.506 181.543 178.187 182.761 169.896Z" fill="#181819"/>
<path d="M127.634 154.052C125.781 154.407 123.926 154.749 122.069 155.078C118.265 155.72 113.295 155.833 109.992 153.49C110.626 153.293 116.682 155.045 119.612 154.49C128.047 152.892 136.044 149.54 143.951 146.297C142.803 148.748 139.297 150.986 139.88 152.756C139.025 153.792 137.679 155.576 136.647 156.279C136.434 156.178 136.221 156.077 136.007 155.975C130.855 157.435 126.09 159.124 120.672 159.262C119.839 159.241 119.025 159.255 118.193 159.266L117.963 158.854C120.174 158.308 125.354 155.299 127.634 154.052Z" fill="#4F4E4F"/>
<path d="M139.879 152.756C141.064 151.902 143.651 148.063 145.338 149.421C145.46 150.543 145.26 150.467 144.642 151.586C143.222 152.9 138.748 158.056 137.683 158.602C137.697 157.934 137.728 157.429 137.791 156.763L137.413 156.633C136.557 157.486 136.55 157.231 136.341 158.22L137.002 159.104C136.73 160.308 128.861 167.867 127.346 169.184C126.422 169.959 125.201 171.301 124.245 171.382C123.876 170.698 123.908 170.706 123.843 169.971C123.751 169.695 123.452 169.294 123.279 169.032C122.46 169.909 121.641 170.953 120.596 171.463C119.872 170.257 118.442 167.825 119.819 166.776C122.108 165.032 131.038 159.392 133.441 159.315C134.964 158.67 135.627 157.583 136.647 156.279C137.679 155.576 139.024 153.791 139.879 152.756Z" fill="#D5D3D6"/>
<path d="M120.596 171.463C119.872 170.257 118.442 167.825 119.819 166.776C122.108 165.032 131.038 159.392 133.441 159.315C129.434 164.742 127.431 164.928 124.046 168.611L123.279 169.032C122.46 169.909 121.641 170.953 120.596 171.463Z" fill="#3A3939"/>
<path d="M124.046 168.611L125.425 168.009C126.056 168.416 126.696 168.808 127.346 169.184C126.422 169.959 125.201 171.301 124.245 171.382C123.876 170.698 123.908 170.706 123.844 169.971C123.752 169.695 123.452 169.294 123.279 169.032L124.046 168.611Z" fill="#FEFEFE"/>
<path d="M173.615 169.878C173.667 174.654 173.691 179.431 173.686 184.207C167.629 183.957 161.974 183.34 155.967 184.027C155.911 181.69 155.842 179.429 155.915 177.088C158.14 177.126 171.965 177.861 173.008 177.164L172.964 176.605C173.498 175.823 173.253 171.786 173.615 169.878Z" fill="#3A3939"/>
<path d="M104.848 137.257C105.256 137.464 105.84 137.697 105.891 138.23C106.581 145.419 108.163 153.161 111.239 159.68C111.595 160.434 111.843 160.435 111.679 161.249C110.842 161.053 110.313 160.887 109.496 160.611L109.371 161.065C110.156 162.2 111.297 161.795 111.633 162.295C113.374 164.884 113.831 166.696 115.711 169.417C115.656 170.241 115.396 171.796 115.726 172.372L116.225 171.192C117.337 170.493 118.626 170.929 119.239 172.042C118.905 172.701 118.443 173.699 117.809 174.032C117.175 173.92 116.098 173.973 115.424 173.982C112.644 169.697 110.621 165.507 108.418 160.922C108.039 160.135 109.678 157.828 108.522 156.713L107.864 158.086C106.932 157.12 104.451 146.859 103.971 145.035C103.766 144.256 104.985 142.982 104.961 141.768L104.618 141.553C104.155 142.042 104.034 142.227 103.416 142.532C103.111 141.21 103.2 140.6 103.967 139.555C104.647 139.431 104.71 139.508 105.219 139.114L104.848 137.257Z" fill="#FEFEFE"/>
<path d="M134.485 142.333C134.924 141.6 134.982 141.408 135.64 140.896C137.582 141.549 143.25 140.57 145.992 141.303C146.811 142.087 147.252 141.899 148.559 142.034L149.081 141.886C148.904 142.144 148.493 142.789 148.29 142.962C145.457 145.174 131.64 149.613 127.265 151.232C128.06 149.833 129.384 148.456 130.431 147.146L130.318 146.701C129.604 146.653 129.008 146.712 128.457 146.299C128.973 145.609 130.818 145.913 131.324 145.484C132.662 144.35 132.897 143.46 134.485 142.333Z" fill="#FEFEFE"/>
<path d="M134.485 142.333C134.925 141.6 134.982 141.408 135.64 140.896C137.583 141.549 143.25 140.57 145.992 141.303C146.811 142.087 147.252 141.899 148.559 142.034C147.065 142.275 136.307 142.397 134.485 142.333Z" fill="#3A3939"/>
<path d="M130.462 225.113C132 225.059 137.431 226.545 139.251 227.005C137.366 227.45 135.167 227.594 133.217 227.779C134.863 229.056 136.536 230.223 138.237 231.42C135.988 232.024 134.093 233.069 131.867 233.596C127.775 231.89 123.69 229.943 119.553 228.2C122.944 227.38 126.892 226.046 130.462 225.113Z" fill="#181819"/>
<path d="M132.477 115.552C130.225 111.342 131.449 111.594 130.535 108.029L130.084 108.046L128.814 109.489L128.587 109.19C129.281 106.418 134.151 105.712 136.516 105.271C137.254 105.133 136.786 105.949 137.541 106.715L138.11 106.549L138.463 104.823C139.542 104.928 139.47 106.131 140.707 107.504L141.161 107.421C141.323 106.737 140.493 103.801 140.275 102.914C140.999 104.333 141.501 105.709 142.899 106.436C144.116 106.489 144.359 106.946 145.516 107.344L145.985 108.61L145.658 109.002C145.417 109.591 145.164 111.786 144.618 113.325C143.743 114.128 144.798 113.369 144.288 114.261L144.556 112.887L144.189 113.398C144.158 111.621 144.091 109.845 143.989 108.071C143.423 109.631 142.553 115.602 141.036 116.061C141.164 113.841 141.537 111.74 140.351 109.826L139.989 109.859L138.959 111.48L138.565 111.549C138.297 110.849 138.179 110.551 137.813 109.899L137.391 110.187C137.135 111.169 137.703 114.426 137.817 115.798C137.1 114.036 136.49 109.867 135.271 109.108C133.802 110.195 134.421 112.149 134.721 113.664L134.46 113.79C133.366 112.608 133.854 111.231 132.762 109.686L132.2 109.717C131.371 111.093 132.148 113.917 132.477 115.552Z" fill="#3A3939"/>
<path d="M181.505 149.059C182.074 147.698 182.179 146.298 183.445 145.499C183.857 146.183 183.737 148.292 183.802 149.346L184.244 149.424C186.725 146.895 185.592 136.458 188.736 134.866C189.107 135.416 189.315 135.707 189.736 136.216L190.165 136.075L191.655 136.355C190.527 138.929 188.979 140.819 188.012 143.095C189.335 143.899 194.061 146.444 194.761 147.193C192.669 147.392 190.729 145.575 188.457 146.845L188.113 147.48C188.451 148.431 189.091 148.963 190.04 149.364C191.06 149.654 191.717 150.645 191.585 151.697C191.454 152.75 190.575 153.55 189.515 153.58C188.518 153.609 187.632 152.947 187.376 151.982L185.585 152.516C184.163 150.941 183.194 150.293 181.505 149.059Z" fill="#2A2A2A"/>
<path d="M187.376 151.982C187.178 151.235 187.396 150.44 187.947 149.898C188.498 149.357 189.297 149.153 190.04 149.364C191.06 149.654 191.717 150.645 191.585 151.697C191.454 152.75 190.575 153.55 189.515 153.58C188.518 153.609 187.632 152.947 187.376 151.982Z" fill="#FEFEFE"/>
<path d="M133.545 98.0865C137.134 97.5572 145.177 97.8001 148.16 100.035C150.269 101.614 147.884 103.936 146.78 105.306C145.985 104.145 144.614 102.703 143.642 101.618L141.281 101.139C139.863 101.17 131.697 100.502 131.444 100.69C131.918 101.21 132.316 101.652 132.752 102.204C131.975 102.486 130.861 102.84 130.438 103.572C129.415 105.347 128.961 103.241 127.03 102.451L126.842 102.376C126.846 101.456 127.753 100.26 128.28 99.3991L133.545 98.0865Z" fill="#FEFEFE"/>
<path d="M149.563 141.978C150.802 141.6 152.071 141.118 153.353 141.126L153.485 141.453L152.739 142.08L152.619 142.278C151.607 143.913 150.275 144.555 149.696 146.623C149.761 146.74 149.927 147.081 150.013 147.15C151.024 147.474 151.133 147.544 151.919 148.259C152.437 150.355 149.793 150.818 148.277 151.063C148.067 151.096 147.858 151.128 147.648 151.158C146.311 151.52 146.059 151.596 144.642 151.587C145.26 150.467 145.46 150.543 145.338 149.421C143.651 148.063 141.064 151.902 139.88 152.756C139.298 150.986 142.803 148.748 143.951 146.297C144.45 146.134 145.041 146.154 145.558 146.169C146.743 145.396 147.846 144.603 148.73 143.49L148.29 142.962C148.494 142.789 148.904 142.144 149.082 141.886L149.563 141.978Z" fill="#3A3939"/>
<path d="M150.013 147.15C151.023 147.474 151.133 147.544 151.919 148.259C152.437 150.355 149.793 150.818 148.276 151.063C148.067 151.096 147.858 151.128 147.648 151.158C147.443 151.004 147.449 150.9 147.318 150.624C147.841 149.3 148.919 148.549 149.877 147.325L150.013 147.15Z" fill="#3A3939"/>
<path d="M149.563 141.978C150.802 141.6 152.071 141.118 153.353 141.126L153.485 141.453L152.739 142.08C152.562 142.127 152.385 142.173 152.207 142.216C150.707 142.581 150.612 142.615 149.563 141.978Z" fill="#B0AFB0"/>
<path d="M198.224 127.974C201.264 127.244 203.475 127.701 206.149 129.34C205.235 129.74 205.202 129.758 204.22 129.754L203.7 129.66C198.927 129.589 195.035 134.206 191.655 136.355L190.165 136.075C189.414 131.797 194.771 129.032 198.224 127.974Z" fill="#757475"/>
<path d="M198.224 127.974C201.265 127.244 203.475 127.701 206.149 129.34C205.235 129.74 205.202 129.758 204.22 129.754L203.701 129.66C202.165 129.48 199.269 129.059 198.224 127.974Z" fill="#D5D3D6"/>
<path d="M168.195 105.594C168.826 106.705 169.039 107.176 169.51 108.347C168.546 110.826 164.007 117.726 162.273 120.173L162.457 120.531C161.942 121.56 162.275 121.231 161.166 121.731L160.632 121.241L160.242 121.462L159.951 122.717C159.723 121.695 159.917 122.071 159.084 121.33C158.534 118.892 164.923 111.782 166.307 109.328C167.113 107.9 167.508 107.152 168.195 105.594Z" fill="#3A3939"/>
<path d="M144.424 195.738C145.196 192.649 144.723 185.862 146.119 184.281L146.882 184.383C146.769 188.517 146.021 194.544 145.677 198.673C145.459 201.287 145.577 218.368 144.761 219.516C143.836 216.006 144.231 199.931 144.424 195.738Z" fill="#FEFEFE"/>
<path d="M110.045 86.0598C111.718 90.8797 110.647 97.3305 110.347 102.292C110.157 106.026 110.021 109.762 109.939 113.5C110.158 116.896 109.947 123.4 109.744 126.737C109.206 122.25 108.531 117.685 108.763 113.173C108.684 105.528 109.335 98.0547 109.699 90.4287C109.769 88.9461 109.826 87.5327 110.045 86.0598Z" fill="#FEFEFE"/>
<path d="M108.763 113.173C108.988 115.161 109.167 117.154 109.298 119.151C109.726 118.445 109.665 114.816 109.939 113.5C110.158 116.896 109.947 123.4 109.744 126.737C109.206 122.25 108.531 117.685 108.763 113.173Z" fill="#757475"/>
<path d="M101.356 67.1381C102.31 66.9236 102.315 66.7435 103 67.0686L102.393 67.4193C100.75 70.1469 102.38 71.9902 101.535 74.691L101.791 74.9466C103.12 74.0542 103.326 72.3558 102.672 70.9656C103.355 71.4771 104.044 71.9786 104.741 72.4698C104.738 73.4817 104.243 73.7318 103.485 74.7013C102.968 77.1233 106.561 82.2317 108.874 81.1001C108.952 79.7019 108.566 79.711 107.842 78.1897C108.004 77.1928 108.035 77.0706 108.629 76.2577L109.008 76.2805C109.41 77.8661 110.516 82.1531 109.089 83.2131C107.37 82.9879 104.211 79.2092 102.158 77.6224C102.913 78.8859 103.95 80.3252 104.266 81.6942C99.7719 77.952 99.8551 72.2495 101.356 67.1381Z" fill="#FEFEFE"/>
<path d="M206.446 182.322C206.744 182.089 206.571 182.181 207.067 182.204C206.678 183.226 201.037 189.032 199.85 190.221C198.578 187.899 198.513 186.176 198.144 183.597C201.488 182.421 202.925 182.264 206.446 182.322Z" fill="#FEFEFE"/>
<path d="M93.4115 112.174L93.4745 113.271C94.5696 114.281 94.6037 114.336 96.1578 113.689C97.0338 113.324 97.9031 112.88 98.7615 112.471C94.466 115.56 93.4081 116.436 90.0179 120.432C88.5022 119.894 87.5747 117.991 86.7791 116.632L86.5933 116.399C88.0319 115.861 91.7904 113.22 93.4115 112.174Z" fill="#3A3939"/>
<path d="M100.48 143.527C102.923 145.425 102.17 150.847 102.721 153.478L102.495 153.682L101.106 152.474C99.637 151.228 98.1051 150.062 96.583 148.882C98.2958 146.383 97.3594 147.472 99.9988 145.884C100.536 145.561 100.431 144.309 100.48 143.527Z" fill="#3A3939"/>
<path d="M122.665 194.553L122.941 194.925C122.27 197.201 122.136 198.252 121.84 200.641C119.834 201.948 114.288 204.053 112.177 202.393C111.767 201.5 111.786 201.363 111.89 200.379L112.392 200.035C113.358 200.69 112.955 201.945 113.911 202.503L114.423 201.844C114.195 200.738 114.015 200.796 114.37 199.946C115.486 199.48 116.156 199.617 117.343 199.705L117.449 200.031L115.939 201L115.894 201.253C117.383 201.22 117.269 201.457 118.273 200.711L118.35 199.623C119.002 198.849 118.605 199.09 119.564 198.852L119.902 199.163C119.632 199.547 119.367 199.934 119.107 200.324L119.689 200.574C122.715 198.572 120.116 196.732 122.665 194.553Z" fill="#FEFEFE"/>
<path d="M91.5054 126.353L92.5724 126.557C93.1103 127.373 93.417 128.284 94.6089 127.925C94.4289 130.027 96.8597 136.681 97.6894 138.83L96.609 141.396C95.4966 137.001 93.2894 130.484 91.5054 126.353Z" fill="#D5D3D6"/>
<path d="M85.4956 117.098C85.898 116.898 86.3476 116.774 86.7789 116.632C87.5745 117.991 88.502 119.894 90.0177 120.432C92.4725 123.226 93.7521 124.245 94.609 127.925C93.4171 128.284 93.1104 127.373 92.5724 126.557L91.5054 126.353C90.231 124.627 89.2197 121.299 87.4813 119.573C86.8392 118.936 86.0302 117.834 85.4956 117.098Z" fill="#5A595A"/>
<path d="M123.424 72.468C125.33 72.6916 129.768 73.982 131.218 75.2211L131.198 75.6541L130.087 75.935L124.769 76.0554C123.573 75.3278 121.823 74.5197 121.464 73.2461C122.163 72.4969 122.262 72.6831 123.424 72.468Z" fill="#FEFEFE"/>
<path d="M185.445 169.354C185.585 167.756 185.728 164.776 186.521 163.456C186.853 163.656 186.933 163.714 187.248 163.967L187.512 164.183L188.54 164.028L188.831 164.307C188.955 166.449 188.233 168.872 188.039 171.039C187.884 172.787 187.952 174.313 187.721 176.07C186.984 173.889 187.438 170.352 186.571 169.048L185.445 169.354Z" fill="#3A3939"/>
<path d="M101.356 67.1381C101.941 65.9197 101.666 66.0485 102.636 65.377C106.465 65.3926 110.577 71.0543 108.343 73.2553C106.612 71.7243 107.004 70.1789 103 67.0686C102.315 66.7435 102.31 66.9236 101.356 67.1381Z" fill="#FEFEFE"/>
<path d="M185.445 169.354L186.571 169.048C185.142 172.356 186.743 187.884 188.038 191.878C188.318 192.743 190.693 195.912 190.601 196.704C185.378 195.093 185.216 173.921 185.445 169.354Z" fill="#3A3939"/>
<path d="M147.154 76.1928L146.864 75.9043L145.65 76.6252L145.414 76.2038C146.707 74.4847 152.316 73.4652 154.467 73.7785L154.815 74.1294C154.128 75.5755 152.906 76.3104 151.521 76.9978C149.858 76.8454 148.693 76.8299 147.154 76.1928Z" fill="#FEFEFE"/>
<path d="M79.0254 166.058C80.8953 161.1 79.9547 159.617 86.1007 159.129L85.9091 159.608C83.85 160.772 84.6483 162.4 83.3571 163.705L82.5378 163.3C81.3809 163.581 79.9288 165.179 79.0254 166.058Z" fill="#3A3939"/>
<path d="M162.251 79.1723C161.47 77.3741 160.83 74.9847 162.77 73.5079C166.849 75.754 161.489 81.9255 161.285 84.3938L160.692 83.8904C160.847 82.1046 161.534 80.7975 162.251 79.1723Z" fill="#F1F2F3"/>
<path d="M162.352 185.765C164.464 185.87 168.624 185.602 169.891 186.811L169.831 188.06C167.493 188.069 164.862 188.737 162.967 188.118C162.168 187.201 162.413 187.192 162.352 185.765Z" fill="#3A3939"/>
<path d="M115.437 108.286C116.364 108.977 117.509 110.493 118.284 111.437C118.258 114.21 118.725 118.121 119.054 120.872L118.651 120.685C117.418 116.802 116.173 112.276 115.437 108.286Z" fill="#FEFEFE"/>
<path d="M76.6995 141.586C76.663 142.342 75.553 143.823 75.14 144.776C74.1241 147.12 73.8183 149.775 72.5953 151.97C70.323 147.899 74.2246 144.2 76.6995 141.586Z" fill="#FEFEFE"/>
<path d="M85.6359 119.595C88.479 123.481 90.3033 125.63 91.5634 130.31L90.8318 130.569C88.8796 126.246 88.1236 124.046 84.9243 120.419L85.6359 119.595Z" fill="#B0AFB0"/>
<path d="M153.374 176.691L154.427 177.048C155.339 178.489 155.003 182.635 154.955 184.464C152.223 183.313 153.168 179.327 153.374 176.691Z" fill="#3A3939"/>
<path d="M168.195 105.594C168.234 104.152 167.985 103.642 168.716 102.67C169.781 102.48 169.309 102.374 170.184 102.972C171.501 105.419 170.804 106.166 169.51 108.347C169.039 107.176 168.826 106.705 168.195 105.594Z" fill="#5A595A"/>
<path d="M155.84 159.336C157.118 159.465 156.822 159.242 157.59 159.968C158.008 161.647 157.782 163.736 157.209 165.352C154.569 164.293 155.516 161.68 155.84 159.336Z" fill="#5A595A"/>
<path d="M71.2427 131.466C74.2049 131.006 83.7177 127.013 85.6172 127.481L85.8353 127.772C83.5611 128.515 81.0174 129.162 78.6835 129.908C77.1888 130.386 73.3051 131.793 71.9783 132.055L71.2427 131.466Z" fill="#5A595A"/>
<path d="M62.9155 185.933L67.1215 185.68C67.1574 187.098 67.0094 188.594 66.9022 190.016C66.0849 189.544 63.2564 186.839 62.9155 185.933Z" fill="#3A3939"/>
<path d="M162.242 68.5954C163.294 68.7608 163.827 68.7846 164.386 69.6978C164.195 70.5466 162.634 71.9046 161.831 72.8494L161.095 73.2739L160.703 73.0313C160.667 71.5039 161.329 69.8138 162.242 68.5954Z" fill="#FEFEFE"/>
<path d="M123.279 169.032C123.452 169.294 123.752 169.695 123.844 169.971L123.221 170.379C123.085 171.208 123.073 171.357 123.081 172.198C121.891 173.911 121.109 172.823 119.696 174.46L119.193 174.285C119.146 173.383 120.025 172.814 120.596 171.463C121.641 170.953 122.46 169.909 123.279 169.032Z" fill="#D5D3D6"/>
<path d="M67.0186 123.304C68.0837 122.361 71.5373 119.273 72.7673 119.158L74.0168 119.042C75.446 120.359 74.9339 119.507 76.1685 120.073C72.2096 120.81 70.6141 121.63 67.0186 123.304Z" fill="#FEFEFE"/>
<path d="M169.417 208.788C170.411 209.209 172.009 210.37 172.215 211.488C172.383 212.405 172.03 212.49 171.467 213.221L170.679 213.709L170.112 213.554C169.504 212.448 169.546 210.235 169.417 208.788Z" fill="#181819"/>
<path d="M69.3188 182.977C69.8804 183.836 69.1847 190.364 69.4357 192.625C67.5874 191.659 68.3864 184.534 69.3188 182.977Z" fill="#3A3939"/>
<path d="M91.5632 130.31C92.1578 131.671 94.3866 138.661 94.6272 140.161C93.488 138.859 91.4913 132.426 90.8315 130.569L91.5632 130.31Z" fill="#5A595A"/>
<path d="M156.417 89.3712L156.783 89.8181C156.681 92.1871 155.812 95.0246 155.138 97.318C154.781 97.1596 154.95 97.2601 154.704 96.8217C154.815 93.6356 154.907 92.1667 156.417 89.3712Z" fill="#FEFEFE"/>
<path d="M114.814 86.0129C117.696 87.3794 117.241 92.0624 117.2 94.7528C115.959 93.7449 116.355 89.1792 114.814 86.0129Z" fill="#FEFEFE"/>
<path d="M144.144 220.272L144.846 220.522C145.849 221.899 145.032 224.988 144.825 226.954H144.283L143.923 226.579C143.756 224.711 144.013 222.191 144.144 220.272Z" fill="#5A595A"/>
<path d="M52.4467 168.608C53.4866 168.728 53.3054 168.544 53.9228 169.127C54.1175 170.342 53.363 171.691 52.8525 172.901C52.1357 171.656 50.9024 170.406 51.3118 168.998L52.4467 168.608Z" fill="#FEFEFE"/>
<path d="M197.072 123.977C198.75 124.422 201.348 124.917 202.574 126.062C200.586 125.555 199.285 125.856 197.286 126.181C197.096 126.096 196.783 125.855 196.597 125.725C196.515 124.698 196.531 125.03 197.072 123.977Z" fill="#FEFEFE"/>
<path d="M71.2425 131.466L71.9781 132.055C69.8758 133.288 69.7079 134.805 68.2809 136.707L67.5029 136.522C68.5361 134.783 69.6406 132.65 71.2425 131.466Z" fill="#B0AFB0"/>
<path d="M145.516 107.344C146.712 108.063 147.286 108.091 147.258 109.745C147.232 111.301 146.805 112.78 146.637 114.338C146.501 113.067 146.367 109.876 145.658 109.002L145.985 108.61L145.516 107.344Z" fill="#3A3642"/>
<path d="M108.251 199.495C109.309 200.199 110.42 200.738 110.927 201.835L110.743 202.311C109.609 202.347 109.041 201.878 108.225 201.11C108.053 200.949 107.884 200.784 107.717 200.62L108.251 199.495Z" fill="#FEFEFE"/>
<path d="M93.4111 112.174C95.0438 111.221 96.7319 109.883 98.3116 109.203C96.483 111.41 94.6923 112.005 93.4742 113.271L93.4111 112.174Z" fill="#181819"/>
<path d="M107.717 200.62C107.373 199.358 107.13 196.223 107.305 194.949L107.557 194.894C108.252 196.726 108.195 197.512 108.251 199.495L107.717 200.62Z" fill="#B0AFB0"/>
<path d="M59.4879 179.929C61.0788 180.159 60.854 179.87 61.9625 180.762L61.7471 181.124C60.4571 181.436 59.4227 181.028 58.1333 180.683L59.4879 179.929Z" fill="#3A3939"/>
<path d="M68.2812 136.707C67.3498 138.079 65.4158 141.974 64.5103 143.645C65.3829 140.968 66.2648 139.018 67.5033 136.522L68.2812 136.707Z" fill="#5A595A"/>
<path d="M82.5484 165.028C82.8993 165.173 82.8737 165.233 83.1682 165.536L82.9763 165.96C81.7448 166.44 80.6431 166.74 79.3747 167.1L79.0244 167.097L79.1703 166.595C80.1627 165.924 81.4228 165.486 82.5484 165.028Z" fill="#3A3939"/>
<path d="M124.061 76.8196C125.865 76.8494 127.602 76.3592 128.966 77.2681C127.662 77.5639 125.439 77.9536 124.21 77.4445L124.061 76.8196Z" fill="#D5D3D6"/>
<path d="M120.672 159.262C118.995 159.702 115.288 159.794 113.64 159.16C114.859 158.829 116.654 158.876 117.963 158.854L118.193 159.266C119.025 159.255 119.839 159.241 120.672 159.262Z" fill="#3A3939"/>
<path d="M160.692 83.8904L161.285 84.3938C161.071 85.5723 161.067 86.2792 160.311 87.1933L160.004 87.0955C159.838 85.9081 160.282 85.0458 160.692 83.8904Z" fill="#FEFEFE"/>
<path d="M41.3599 212.496C44.6316 215.641 46.196 217.901 48.8695 221.591L48.3209 221.859C45.8177 218.879 43.4933 215.753 41.3599 212.496Z" fill="#3A3939"/>
<path d="M48.8694 221.591C50.139 222.996 51.2885 224.678 52.4031 226.222C50.58 224.906 49.7095 223.636 48.3208 221.859L48.8694 221.591Z" fill="#757475"/>
<path d="M110.731 340.639C111.452 340.526 111.594 340.453 112.274 340.751C113.252 342.01 113.997 344.53 114.572 346.102C107.367 346.492 94.255 349.566 88.1121 353.234C74.8345 361.162 97.1137 367.859 102.712 368.908C125.853 373.24 154.153 374.31 175.796 363.713C178.101 362.585 181.458 358.499 178.946 355.928C172.115 349.295 158.317 347.458 149.518 346.086C150.322 344.286 151.112 342.479 151.89 340.669C165.239 341.864 181.896 344.889 194.042 350.605C223.653 365.724 178.415 378.06 166.438 379.962C139.024 384.297 111.654 384.337 84.8809 376.893C50.0792 367.22 55.2672 353.079 86.1797 345.112C94.5508 342.954 102.123 341.681 110.731 340.639Z" fill="#FEFEFE"/>
<path d="M201.565 264.378L201.917 264.458L201.882 264.808C199.027 267.063 196.877 270.149 194.046 272.398C191.16 274.692 187.231 275.89 183.781 277.102L183.613 277.124L183.492 276.834C185.246 274.555 186.621 272.648 188.218 270.259C192.514 268.05 197.109 266.374 201.565 264.378Z" fill="#FEFEFE"/>
<path d="M0.0551502 135.1C1.31041 137.293 1.19314 141.72 2.10329 143.718C4.8575 149.765 5.75029 151.897 5.98545 158.544C5.35462 158.451 5.30618 158.254 4.86268 157.837C-0.483385 152.808 -0.0538973 142.293 0.0551502 135.1Z" fill="#FEFEFE"/>
<path d="M48.627 246.956C52.0504 247.502 51.9191 250.747 59.6401 250.686C61.8116 252.764 63.6944 255.506 65.8044 257.611C67.2726 259.077 69.5348 259.893 71.077 261.572C63.3103 259.305 54.5819 252.231 48.627 246.956Z" fill="#FEFEFE"/>
<path d="M238.122 49.809C239.779 50.3693 243.477 53.1124 244.817 54.3193C248.412 57.5545 250.2 62.952 251.263 67.5906C250.73 67.1613 245.146 60.3405 244.65 59.478C242.222 55.2553 241.607 53.3918 238.122 49.809Z" fill="#FEFEFE"/>
<path d="M56.7002 244.83C60.6003 245.872 65.4858 251.103 68.3655 254.016C63.7271 252.7 59.1023 249.104 56.7002 244.83Z" fill="#FEFEFE"/>
<path d="M196.261 277.83L196.504 278.12C196.178 278.79 195.985 279.47 195.757 280.177C194.833 280.442 192.212 280.899 191.627 281.234C188.765 282.879 186.978 284.47 183.84 285.728L183.591 285.685L183.508 285.304C185.328 283.147 193.579 279.052 196.261 277.83Z" fill="#FEFEFE"/>
<path d="M169.526 0.0313147C171.985 -0.245037 175.415 1.37346 177.739 2.29941L173.86 2.19064C169.712 2.31007 168.341 1.67967 164.283 0.830506C166.246 0.402724 167.537 0.246119 169.526 0.0313147Z" fill="#FEFEFE"/>
<path d="M263.264 169.21C264.37 170.262 262.801 174.397 262.228 175.551C261.311 177.392 260.644 178.114 259.094 179.413C258.993 179.311 258.878 179.001 258.811 178.85C259.724 175.889 261.826 172.054 263.264 169.21Z" fill="#FEFEFE"/>
<path d="M258.734 212.524L259.014 212.844C258.807 216.195 255.746 218.639 253.099 220.177C252.006 218.901 257.592 213.602 258.734 212.524Z" fill="#FEFEFE"/>
<path d="M192.064 12.4851C192.42 12.4302 193.717 12.2468 194.038 12.2928C196.869 12.6999 205.806 17.6769 207.5 19.4569C205.585 19.1629 198.726 14.9783 196.447 14.0219C194.813 13.336 193.816 13.0052 192.064 12.4851Z" fill="#D5D3D6"/>
<path d="M215.97 31.9092C219.474 32.3574 222.334 35.7928 224.817 38.329C223.458 38.0819 216.42 33.2593 215.97 31.9092Z" fill="#FEFEFE"/>
<path d="M75.4585 16.563C72.7932 19.1203 69.2601 21.1565 66.3512 23.4688C65.5364 24.1166 64.5425 25.0535 63.7368 25.6053L63.561 24.6872C66.3615 21.9837 72.0223 18.3988 75.4585 16.563Z" fill="#757475"/>
<path d="M225.609 45.2792C227.863 47.5821 229.438 49.4723 231.482 51.9799L230.994 52.6323C229.237 50.7575 227.193 48.1235 225.268 46.0211L225.609 45.2792Z" fill="#D5D3D6"/>
<path d="M252.572 185.318C253.014 185.71 252.84 185.473 252.971 186.12C252.316 188.395 251.107 189.788 249.642 191.646L249.358 191.354C249.425 190.598 252.018 186.288 252.572 185.318Z" fill="#FEFEFE"/>
<path d="M211.688 257.992L211.834 258.117L211.866 258.58C210.525 260.079 208.761 261.006 206.923 261.752L206.648 261.435C207.084 260.268 210.45 258.669 211.688 257.992Z" fill="#FEFEFE"/>
<path d="M20.4906 71.5268C19.6727 72.8327 18.3032 75.1435 17.1893 76.0688L16.9072 75.7721L17.4059 75.9393L17.6931 75.6977L17.1671 74.9799C17.6042 74.0743 18.9249 72.0795 19.5216 71.0975L20.4906 71.5268Z" fill="#D5D3D6"/>
<path d="M205.827 28.6789C206.925 29.4306 208.829 30.6533 209.777 31.482L209.653 31.9342L209.779 31.9933L210.03 31.7121L210.127 32.1313L210.289 31.9973L210.106 32.1469L210.197 31.9153L209.777 32.0271L210.011 31.7343L209.913 31.6469L209.47 31.8882C207.94 31.0341 206.655 30.2362 205.179 29.2883L205.827 28.6789Z" fill="#D5D3D6"/>
<path d="M225.267 46.0211C224.272 44.9435 223.64 44.3319 222.908 43.052L223.023 42.6857C224.174 43.3103 224.774 44.2454 225.609 45.2792L225.267 46.0211Z" fill="#757475"/>
<path d="M72.0679 266.752C73.9923 266.999 74.7066 267.611 75.9814 268.988C74.2711 268.598 73.2957 267.946 72.0679 266.752Z" fill="#B0AFB0"/>
</svg>
