<svg width="99" height="253" viewBox="0 0 99 253" fill="none" xmlns="http://www.w3.org/2000/svg">
<path d="M38.0101 20.1471C38.1472 16.5798 38.5841 13.5354 39.3562 9.92965C40.1955 6.01013 41.1494 -0.0803662 46.5262 0.0446582C48.1994 0.0836936 50.1623 1.31588 51.929 1.21642C55.6698 1.58121 60.5139 -1.84196 63.1026 1.42562C66.1425 5.26276 66.3419 15.38 66.4973 20.1025C70.6779 20.9071 77.3121 19.6427 80.5946 22.8538C80.9411 23.1928 80.9959 24.2491 80.8158 24.7403C78.8539 30.1 71.0384 31.8478 66.145 33.236C65.8133 33.33 64.9036 33.483 64.8604 33.831C64.6739 35.7057 67.0083 36.9326 68.1271 38.3717C68.8508 39.3026 70.0991 41.2478 70.8747 41.9985C72.7377 43.8021 74.538 46.5328 76.463 48.105C80.1401 51.1084 84.8984 53.0478 88.7818 55.672C91.5404 64.9854 90.8861 76.6405 92.8547 86.3025C93.2011 90.9057 93.5277 95.3297 94.7968 99.8007C95.0484 100.687 95.7721 102.817 95.8477 103.681C96.0984 106.845 96.5875 110.248 96.8553 113.364C97.4755 120.584 96.8834 127.928 97.2762 135.173C97.398 137.419 98.6071 150.779 98.2237 151.861C97.4541 152.455 96.4987 152.05 96.3612 152.283C95.5626 153.64 95.0805 156.552 94.5155 157.994C94.1976 158.811 93.758 159.575 93.2116 160.261C91.625 162.246 89.2343 162.968 87.3633 164.695C87.4341 167.093 87.987 169.767 88.3652 172.162L89.8564 182.215L94.8096 216.926C95.0508 218.547 95.6221 220.218 95.8266 221.804C96.388 226.278 97.0329 230.769 97.5625 235.245C97.6704 236.158 97.749 239.076 97.0584 239.61C93.7673 242.146 89.819 244.17 85.6364 244.258C84.9186 244.273 84.2005 244.273 83.4826 244.258C83.4637 244.04 83.4834 244.125 83.3559 243.929C82.7147 243.808 82.4119 243.923 81.7793 244.08C81.4786 243.844 81.4609 243.819 81.2157 243.522L81.4355 243.427C80.3629 243.788 80.0416 243.102 79.6551 243.144C78.4978 243.266 77.3033 243.106 76.1782 243.176L76.1909 243.281C76.9241 243.652 77.7537 243.29 78.3797 243.549C77.4827 244.133 74.0601 243.987 72.9284 243.936C73.6418 243.93 73.834 243.988 74.3111 243.601C74.0837 243.492 73.2408 243.622 72.7227 243.545L72.7565 243.374C73.3436 243.206 74.2675 243.412 75.0404 243.367L74.9801 243.217C74.0007 242.944 71.6732 243.148 70.6619 243.283C70.0536 243.455 69.1134 243.369 68.4609 243.337L68.3168 243.39C65.358 244.441 60.9608 244.465 57.818 245.622C56.3712 246.155 52.7659 246.097 51.6216 247.215C52.629 246.981 59.2887 245.501 60.0171 245.694C60.2812 245.907 60.8004 246.699 60.9184 246.745C61.5226 246.979 65.4489 246.868 65.7691 246.56C66.6566 246.487 70.4991 246.226 71.1225 246.613C70.509 247.001 68.7669 246.901 67.9316 246.92C67.2333 246.885 65.9469 246.961 65.1976 246.997C63.7797 247.064 61.0818 246.803 59.8432 247.046L59.6947 247.214C59.8214 247.777 60.0948 247.879 60.4947 248.343C59.7653 248.402 59.3518 248.26 58.7139 248.567L58.6048 248.767C58.7526 249.002 58.8979 249.094 58.8032 249.369C58.679 249.728 58.52 249.93 58.1472 250.049C57.5514 250.241 57.1972 250.977 56.9366 251.5C56.5204 251.79 55.7309 251.743 55.2051 251.74C54.1502 251.851 51.7443 251.572 51.1672 251.862L51.4805 252.007C51.1948 252.102 51.0468 252.14 50.7504 252.207H34.4571C33.1162 250.976 26.6362 252.303 24.6248 251.689C23.6834 251.401 23.4205 250.809 22.8694 250.53C22.2009 249.376 22.128 248.937 22.2771 247.586C22.3314 247.095 21.4933 247.274 21.2804 246.976C21.7676 246.938 22.1716 247.01 22.3007 246.499C22.1548 245.976 21.9391 245.8 21.5829 245.39C22.115 244.883 22.9237 245.625 23.4402 245.298C22.7511 244.866 21.3796 244.179 21.1048 243.473C20.8661 242.655 20.2582 241.336 19.4215 241.003C19.3257 241.609 19.9571 241.973 19.8769 242.681C19.2876 243.04 18.5861 242.413 17.888 242.955C17.6008 243.177 16.9948 243.479 16.6079 243.545C13.0093 244.989 2.37303 242.002 0.137753 238.778C-0.51683 237.834 1.35623 228.897 1.68289 227.145C2.25734 224.065 2.60136 220.846 3.0597 217.775L5.80386 198.957C6.05692 197.132 6.52136 195.278 6.74942 193.467C7.15109 189.928 7.71122 186.544 8.23275 183.018C8.58331 180.65 8.57373 178.171 8.91067 175.71C9.07234 174.529 10.6439 166.312 10.0718 165.586C8.3697 163.421 4.63498 160.878 2.98623 158.334C2.64053 157.798 1.92928 151.762 1.33803 150.66C1.26928 150.533 1.19372 148.76 1.18164 148.475C0.73178 148.238 0.329976 148.106 0.130671 147.668C-0.158218 144.811 1.36289 139.633 1.34012 136.463C1.32706 134.637 2.28886 131.612 2.31567 129.545C2.41067 122.195 2.36747 115.045 4.29414 107.881C4.619 106.674 5.10706 105.464 5.46317 104.243C6.4372 100.923 7.28053 97.5673 7.99123 94.1821C8.46762 91.8333 8.58831 89.4474 8.95206 87.0733C9.61664 82.7364 10.4426 78.4915 11.2661 74.1818C11.8512 71.1194 12.093 67.7626 12.8311 64.6753C13.505 61.856 14.0968 56.8277 15.2826 54.2979C16.5778 53.2908 17.7286 53.016 19.1012 52.1815C22.5498 50.0847 26.4487 48.0739 29.85 45.9696C31.4553 44.9763 33.3666 41.6267 35.0201 40.3767C35.9632 39.475 39.3109 36.19 39.825 35.3065C39.7083 34.5422 39.5984 33.7057 39.4423 32.9541C37.9383 32.5349 36.1357 32.3319 34.7019 31.865C31.0704 30.6291 27.5472 29.2804 24.5536 26.8091C23.2787 25.8522 21.9346 23.4138 24.0291 22.4935C25.9236 21.6612 28.2433 21.5057 30.3123 21.2542C32.8853 20.9415 35.4389 20.5077 38.0101 20.1471Z" fill="white"/>
<path d="M86.6202 150.961C86.7186 149.964 86.7925 149.721 87.1225 148.767C86.5487 148.443 86.152 148.62 85.717 148.175C85.8413 147.806 85.794 147.925 86.1368 147.64C87.362 147.532 87.7361 149.014 88.6323 149.812C87.5891 151.274 87.3715 151.297 87.2313 153.079C87.2916 151.958 87.5462 151.611 86.6202 150.961Z" fill="white"/>
<path d="M86.6202 150.961C87.5462 151.611 87.2916 151.958 87.2313 153.079C86.9487 153.775 87.339 154.131 86.8927 154.808C86.1105 155.998 85.4215 159.058 84.7076 159.968C84.237 158.751 87.2498 154.481 86.7036 152.968C86.5957 152.669 86.6183 151.349 86.6202 150.961Z" fill="white"/>
<path d="M12.9174 147.986L13.1937 147.932C14.5122 150.041 14.1555 151.199 14.7109 153.532C14.813 153.96 15.5047 154.84 15.6869 155.678C14.3311 155.363 13.8897 149.582 12.9174 147.986Z" fill="white"/>
<path d="M81.6734 150.558L81.9245 150.817C81.9476 152.165 80.3029 156.177 79.6018 157.378C79.5649 157.363 79.5031 157.241 79.4747 157.194C80.5852 154.379 80.9162 153.553 81.6734 150.558Z" fill="white"/>
<path d="M7.60913 146.801L8.06996 146.961C8.12315 147.338 8.03551 148.775 8.03204 149.287C7.23551 148.648 7.08802 147.678 7.60913 146.801Z" fill="white"/>
<path d="M9.2451 153.389C9.79913 153.879 9.86469 155.379 9.95552 156.162C9.55635 155.511 9.04997 154.129 9.2451 153.389Z" fill="white"/>
<path d="M6.65816 150.891L6.93149 151.052C7.14469 151.608 7.29122 151.927 7.36524 152.521C6.75108 151.965 6.4701 151.719 6.65816 150.891Z" fill="white"/>
<path d="M7.71106 153.086L7.9712 153.215C8.37981 153.757 8.4905 154.217 8.56898 154.87C8.0005 154.539 7.89953 153.753 7.71106 153.086Z" fill="white"/>
<path d="M70.6619 243.283C71.6732 243.148 74.0007 242.944 74.9801 243.217L75.0404 243.367C74.2675 243.412 73.3436 243.206 72.7565 243.374L72.7227 243.545C73.2408 243.622 74.0837 243.492 74.3111 243.601C73.834 243.988 73.6418 243.93 72.9284 243.936C74.0601 243.987 77.4827 244.133 78.3797 243.549C77.7537 243.29 76.9241 243.652 76.1909 243.281L76.1782 243.176C77.3033 243.106 78.4978 243.266 79.6551 243.144C80.0416 243.102 80.3629 243.788 81.4355 243.427L81.2157 243.522C81.4609 243.819 81.4786 243.844 81.7793 244.08C82.4119 243.923 82.7147 243.808 83.3559 243.929C83.4834 244.125 83.4637 244.04 83.4826 244.258C82.0196 244.311 79.6444 244.591 78.3723 245.332C78.0325 245.308 77.8098 245.332 77.5354 245.137L77.6487 244.7C76.8154 243.848 70.8153 244.83 69.9815 244.561C69.3757 244.493 68.7173 244.354 68.1576 244.551L68.0012 244.746C68.475 245.272 69.5708 245.294 70.2143 245.136C70.7412 244.977 75.3741 244.775 76.1857 244.832C76.5236 244.855 77.3857 245.097 77.7365 245.209C77.0482 245.325 75.0493 245.45 74.6866 245.55C73.8408 245.622 72.9965 245.711 72.1543 245.818C68.1497 245.683 65.714 245.408 61.7651 246.176C63.3093 246.471 64.1704 246.543 65.7691 246.56C65.4489 246.868 61.5226 246.979 60.9184 246.745C60.8004 246.699 60.2812 245.907 60.0171 245.694C59.2887 245.501 52.629 246.981 51.6216 247.215C52.7659 246.097 56.3712 246.156 57.818 245.622C60.9608 244.465 65.358 244.441 68.3168 243.39L68.4609 243.337L68.4361 243.584C69.0519 243.952 71.2287 243.737 71.9752 243.574C71.7075 243.417 71.003 243.338 70.6619 243.283ZM65.2209 244.801C65.7896 244.919 65.7572 245.015 66.1901 244.786L66.2665 244.548C65.9654 244.28 66.1157 244.348 65.6396 244.352C65.0511 244.354 64.7044 244.312 64.1661 244.573L64.2218 244.701C64.6598 244.809 64.7622 244.8 65.2209 244.801Z" fill="white"/>
<path d="M65.6395 244.352C66.1157 244.348 65.9654 244.28 66.2665 244.548L66.1901 244.786C65.7572 245.015 65.7895 244.919 65.2209 244.801C64.7622 244.8 64.6598 244.809 64.2218 244.701L64.1661 244.573C64.7044 244.312 65.0511 244.354 65.6395 244.352Z" fill="white"/>
<path d="M55.2051 251.74C57.7643 253.015 58.79 250.729 59.5191 248.888C59.6733 248.499 62.7105 248.541 63.2374 248.541C62.8233 248.757 62.7981 248.685 62.6083 249.023C63.2491 249.38 63.3918 249.187 63.7876 249.658C63.8199 250.604 62.6009 251.915 62.5774 252.207H50.7504C51.0468 252.14 51.1948 252.102 51.4805 252.007L51.1672 251.862C51.7443 251.572 54.1502 251.851 55.2051 251.74Z" fill="white"/>
<path d="M20.1541 244.254C20.5808 244.982 20.3398 246.792 20.5048 247.539C20.4963 248.089 20.4437 248.525 20.6952 249.02C21.2604 248.755 21.1991 248.57 21.6395 248.653C21.9486 249.131 21.9513 249.349 22.0338 249.897C22.3027 250.305 22.4145 250.33 22.8694 250.53C23.4205 250.809 23.6834 251.401 24.6248 251.689C26.6362 252.303 33.1162 250.976 34.457 252.207H21.7693C21.5083 251.544 20.7244 251.38 20.6458 251.181C20.3009 250.305 20.0782 244.902 20.1541 244.254Z" fill="white"/>
<path d="M55.2051 251.74C55.7309 251.743 56.5204 251.79 56.9366 251.5C57.1972 250.977 57.5513 250.241 58.1472 250.049C58.5199 249.93 58.679 249.728 58.8031 249.369C58.8979 249.094 58.7526 249.002 58.6048 248.767L58.7138 248.567C59.3517 248.26 59.7652 248.402 60.4947 248.343C60.0948 247.879 59.8213 247.777 59.6947 247.214L59.8431 247.046C61.0818 246.803 63.7797 247.064 65.1976 246.997C65.9469 246.961 67.2333 246.885 67.9316 246.92C66.5999 247.22 62.8767 247.186 62.4934 247.563C63.4972 248.054 65.4099 247.779 66.6937 248.127L66.6792 248.231C65.4467 248.45 64.4761 248.463 63.2374 248.541C62.7105 248.541 59.6733 248.499 59.5191 248.888C58.7899 250.729 57.7642 253.015 55.2051 251.74Z" fill="white"/>
<path d="M19.44 245.99C19.528 245.386 19.3925 244.739 19.7044 244.315L20.1541 244.254C20.0782 244.902 20.3009 250.305 20.6458 251.181C20.7244 251.38 21.5083 251.544 21.7693 252.207H19.3551C18.6266 251.208 18.813 246.893 18.8811 245.482L18.9829 246.308C18.8955 247.089 19.1955 248.587 19.3454 249.406C19.4094 248.436 19.5647 246.91 19.44 245.99Z" fill="white"/>
<path d="M16.6079 243.545C16.9948 243.479 17.6008 243.177 17.888 242.955C18.5861 242.413 19.2876 243.04 19.8769 242.681C19.957 241.973 19.3257 241.609 19.4215 241.003C20.2582 241.336 20.8661 242.655 21.1048 243.473L20.7264 243.142C20.3125 243.984 21.7048 246.492 20.5048 247.539C20.3398 246.792 20.5808 244.982 20.1541 244.254L19.7044 244.315C19.3925 244.739 19.528 245.386 19.44 245.99L18.9829 246.308L18.8811 245.482C18.8993 245.026 18.9487 244.732 18.7932 244.302C18.2977 243.723 17.4032 243.693 16.6079 243.545Z" fill="white"/>
<path d="M20.5048 247.539C21.7048 246.492 20.3124 243.984 20.7263 243.142L21.1048 243.473C21.3795 244.179 22.7511 244.866 23.4402 245.298C22.9237 245.625 22.1149 244.883 21.5829 245.39C21.9391 245.8 22.1548 245.976 22.3006 246.499C22.1716 247.01 21.7676 246.938 21.2804 246.976C21.4933 247.274 22.3313 247.095 22.277 247.586C22.128 248.937 22.2009 249.376 22.8694 250.53C22.4145 250.33 22.3027 250.305 22.0338 249.897C21.9513 249.349 21.9486 249.131 21.6395 248.653C21.1991 248.57 21.2604 248.755 20.6952 249.02C20.4437 248.525 20.4963 248.089 20.5048 247.539Z" fill="white"/>
<path d="M61.7651 246.176C65.714 245.408 68.1497 245.683 72.1542 245.818C71.8422 245.91 71.5655 245.986 71.2491 246.061C71.1365 246.335 71.1345 246.318 71.1224 246.613C70.4991 246.226 66.6566 246.488 65.7691 246.56C64.1704 246.543 63.3092 246.471 61.7651 246.176Z" fill="white"/>
<path d="M69.9815 244.561C70.8152 244.83 76.8154 243.848 77.6487 244.7L77.5354 245.137C77.8098 245.332 78.0324 245.308 78.3723 245.332C77.7168 245.715 75.5183 245.625 74.6866 245.55C75.0493 245.45 77.0481 245.325 77.7365 245.209C77.3856 245.097 76.5236 244.855 76.1856 244.832C75.3741 244.775 70.7412 244.977 70.2143 245.136C70.193 244.957 70.0648 244.736 69.9815 244.561Z" fill="white"/>
<path d="M70.2143 245.136C69.5708 245.294 68.475 245.272 68.0012 244.746L68.1576 244.551C68.7173 244.354 69.3757 244.493 69.9815 244.561C70.0648 244.736 70.193 244.957 70.2143 245.136Z" fill="white"/>
<path d="M70.6619 243.283C71.003 243.338 71.7075 243.417 71.9752 243.574C71.2287 243.737 69.0519 243.952 68.4361 243.584L68.4609 243.337C69.1134 243.369 70.0536 243.455 70.6619 243.283Z" fill="white"/>
<path d="M19.44 245.99C19.5647 246.91 19.4094 248.436 19.3454 249.406C19.1955 248.587 18.8955 247.089 18.9829 246.308L19.44 245.99Z" fill="white"/>
</svg>
