<svg width="360" height="426" viewBox="0 0 360 426" fill="none" xmlns="http://www.w3.org/2000/svg">
<path d="M126.146 39.6087C127.192 37.5133 128.949 31.7174 129.376 31.0615C136.673 19.8516 155.489 7.79178 167.804 3.86294C179.454 0.146379 192.086 -1.12608 203.88 1.09654C206.32 1.26103 210.981 3.42586 213.14 3.47283C224.347 3.71812 229.873 5.46286 239.834 10.6873C244.524 12.6835 249.084 16.8214 252.877 20.1113C257.587 24.2936 262.216 27.1901 264.887 33.1758C266.205 36.1248 264.985 40.0569 265.735 42.0567C268.85 50.3603 272.712 57.6047 273.583 66.6588C271.988 62.8432 270.37 58.2248 267.989 54.9646L268.064 55.3785C268.579 58.1638 269.594 60.2882 270.171 63.0007C271.391 68.7203 271.472 75.606 271.153 81.4328C283.238 88.2588 289.823 113.395 282.35 125.066C281.855 125.839 281.649 126.278 280.977 126.928L280.684 126.734C280.99 125.188 281.936 124.523 282.266 122.323C283.319 115.281 282.458 106.359 278.531 100.334C276.828 97.721 273.322 94.3473 271.071 92.0591C274.972 103.598 270.341 106.027 270.184 116.19C275.957 120.178 276.43 124.396 270.644 128.508L270.918 128.823C272.653 130.833 273.677 132.718 275.21 134.785C279.036 139.946 285.142 146.399 290.945 149.304C290.178 151.41 290.342 151.118 288.091 151.33C283.055 150.288 280.993 149.533 276.662 146.511C282.086 155.091 285.446 164.483 285.837 174.727C285.964 178.125 284.346 183.39 284.36 186.857C284.36 187.373 285.322 187.603 285.775 187.747C289.663 188.726 300.218 191.083 303.02 193.321L303.248 193.501C303.392 193.626 303.535 193.751 303.679 193.876L304.282 194.395C304.168 195.156 303.737 195.444 303.186 196.003L303.326 196.453C309.087 199.071 319.537 201.7 321.625 208.233C326.243 222.684 323.666 238.096 328.204 252.645C328.752 254.397 329.146 257.828 329.446 259.733C331.276 262.121 333.856 263.732 336.038 265.845C340.866 270.554 339.398 278.829 339.179 284.862C338.918 291.971 334.636 300.728 334.786 307.46C334.939 314.267 338.781 325.09 342.464 330.652C341.397 333.189 340.768 334.866 339.965 337.495C342.725 340.453 349.349 342.616 349.304 346.837C349.274 349.57 346.789 352.91 345.549 355.353C348.684 357.636 348.129 359.166 348.048 362.751C349.477 362.94 350.722 363.296 352.112 363.658C353.104 366.835 354.953 375.524 355.198 378.903C354.376 380.42 353.883 381.395 352.82 382.746C353.88 388.01 355.726 393.709 357.82 398.647C360.354 404.626 358.919 405.689 353.661 409.16C353.971 414.02 354.816 421.251 354.777 425.837H116.961C117.117 425.247 117.099 425.276 117.039 424.663C115.459 423.763 109.5 424.249 107.235 424.291C103.277 419.549 93.592 413.847 88.4225 410.083C83.6347 406.593 78.624 403.083 73.8022 399.642C62.5917 391.761 51.9141 383.154 41.8393 373.867C39.1768 374.363 28.5619 376.137 26.8364 374.81C20.3179 368.789 18.8537 355.027 13.5416 347.756C10.0082 342.916 -1.03172 342.407 7.34111 333.369C4.19388 327.706 -1.63677 318.638 0.435076 311.893C2.28577 305.865 6.55243 300.062 9.61942 294.569C12.036 290.24 14.2123 285.637 16.9028 281.494C18.339 279.319 23.4008 278.446 24.7789 275.888C27.0517 272.063 26.9026 267.759 29.92 264.309C32.1324 261.78 36.7383 261.612 38.5293 260.074C42.2301 256.897 45.9142 252.458 49.3579 248.855C52.4448 245.626 55.4684 242.427 58.6127 239.266C61.2612 236.604 61.2723 232.327 63.8559 229.602C66.5893 226.87 70.9737 226.225 73.3958 223.089C74.5322 221.579 75.3982 219.709 76.106 217.961C79.4942 209.598 83.7811 201.925 88.617 194.329C90.1774 191.878 91.1073 188.816 92.849 186.299C95.2343 182.851 99.3115 181.352 103.198 180.225C111.758 178.132 120.766 177.877 129.453 176.516C135.485 175.572 141.261 173.073 147.244 172.01C148.357 171.818 149.857 171.676 151.008 171.537C151.591 171.645 151.761 171.667 152.34 171.691C163.574 172.161 165.27 169.771 172.611 162.941C170.878 162.31 169.115 161.764 167.327 161.307C158.457 159.016 151.603 158.946 143.496 163.717C143.437 162.152 143.269 162.673 143.924 161.474C151.281 156.724 151.683 157.094 159.708 156.027L160.005 155.607L159.754 155.142C158.509 154.834 159.002 154.882 157.569 155.271C157.91 153.888 157.985 154.402 157.423 153.284C154.133 151.585 147.025 150.909 143.305 151.457C141.805 151.678 140.21 152.585 138.294 152.719C138.687 152.097 138.406 152.389 139.111 152.016C146.82 147.941 160.728 147.891 168.934 150.689C159.16 142.494 152.792 133.773 149.934 121.309C145.642 122.751 139.296 123.837 135.058 121.755C126.835 123.585 119.708 129.176 114.77 135.841C112.445 138.98 110.286 143.791 111.291 147.624C111.399 148.034 111.383 148.205 111.196 148.591C110.531 147.994 110.079 145.54 109.85 144.625C106.476 131.132 115.784 121.005 125.112 113.095C109.358 118.53 96.3864 118.263 88.0113 135.745L86.9316 134.446C90.3506 120.77 103.442 117.098 112.979 109.306C117.508 105.605 121.318 100.406 125.61 96.2525C112.514 101.979 100.124 101.486 86.4707 99.2788C91.7619 99.0674 96.3003 98.8241 101.3 96.731C109.718 93.2066 121.612 86.6994 125.403 78.096C120.87 78.8625 116.534 81.0401 112.175 82.6596C98.1249 87.8801 87.0066 86.6596 73.3736 80.9977C74.2093 81.059 75.0459 81.2199 75.8747 81.3493C92.6911 83.9784 104.326 76.7352 117.182 67.3996C103.445 71.7919 96.7057 69.7416 83.9726 64.463C109.617 68.1224 112.738 55.9787 126.005 39.779L126.146 39.6087ZM72.4062 314.267C76.573 318.426 79.6462 326.33 82.8623 331.656C85.4035 335.867 89.7067 341.464 90.8995 345.936C90.1154 349.029 89.7879 349.968 87.9287 352.532C100.57 368.616 109.405 381.503 125.512 394.922C127.042 396.227 128.404 397.378 129.829 398.813C136.051 396.843 141.394 395.444 146.644 391.406C141.053 387.296 116.226 369.96 120.388 361.802C123.514 355.673 130.651 346.788 134.148 340.15C131.255 329.843 133.53 329.627 140.081 322.194C138.569 315.774 133.114 307.131 130.173 301.23C128.614 298.102 127.92 294.65 126.614 291.651C124.752 287.375 121.973 282.777 119.844 278.562C119.41 277.702 117.007 272.934 116.619 272.398C110.328 279.177 99.7172 287.007 92.2635 292.724C90.0511 294.421 86.1941 295.859 84.1614 297.6C82.3828 299.123 82.8845 304.661 81.3492 306.788C78.8974 310.187 75.4259 311.152 72.4062 314.267ZM278.117 171.641C277.203 177.036 276.721 180.635 272.683 184.476C273.156 184.601 275.158 185.093 275.488 185.24C276.838 185.586 278.276 185.906 279.568 186.412C279.712 182.642 279.751 175.524 278.436 171.958L278.117 171.641ZM327.033 354.59C326.98 353.168 327.007 347.815 326.749 347.104L326.393 346.794C326.282 348.33 325.959 353.406 326.534 354.606L327.033 354.59Z" fill="#1B171C"/>
<path d="M154.2 83.4474C154.204 83.403 154.208 83.3583 154.211 83.3139C156.729 80.7055 162.149 76.8566 164.785 74.2732C170.603 68.5706 174.951 63.0575 179.542 56.5042C181.195 54.1446 186.475 45.162 187.793 44.1019C188.331 44.9985 188.609 45.9627 188.866 46.9683C190.641 53.9584 193.99 59.9784 198.394 65.6996C199.013 66.4488 199.245 66.7179 199.972 67.3579C201.101 69.2484 207.778 78.3723 207.778 79.041L208.485 79.4689C209.689 79.8274 215.508 85.0329 219.148 86.7408C217.631 84.7518 213.238 80.1419 212.794 78.2872L213.101 77.7346C215.648 77.5764 220.652 83.2168 223.046 84.4226C232.775 89.3271 237.267 92.0151 237.697 104.256L238.092 103.771L239.048 103.911C239.286 102.464 239.361 100.832 239.606 99.5209C240.741 104.422 241.024 105.068 240.431 110.043C242.039 105.976 243.989 101.985 244.961 97.737L245.402 97.4017C249.071 99.8435 245.633 106.351 243.898 109.018C250.748 106.434 258.778 101.723 249.948 94.7485C251.123 93.5224 252.486 94.0838 253.272 93.4252C254.202 92.6473 253.97 91.217 255.493 90.2453C258.015 90.6292 258.504 95.3412 259.303 97.5129C259.619 97.2604 259.743 95.9316 259.773 95.4674C260.122 89.9935 259.929 87.1952 255.131 84.2263C254.309 84.7364 253.093 85.6827 252.225 85.6018C252.476 84.7123 253.014 84.2501 253.885 83.8274C259.208 81.2509 260.536 87.3012 261.061 91.0721C262.408 100.753 256.713 107.302 250.467 113.899C249.56 114.951 248.967 115.878 247.698 116.339C246.918 116.307 246.697 116.348 245.982 115.995C243.754 115.503 243.161 112.702 240.375 112.294C237.896 113.669 237.029 128.892 233.666 132.457C224.432 142.245 212.696 150.313 201.342 157.239C185.79 166.729 180.431 156.827 169.875 146.796C152.832 131.677 151.926 119.484 148.706 98.373C150.085 99.3663 153.659 100.509 154.019 101.246C157.209 107.784 167.655 107.273 172.985 104.184C173.575 104.506 173.268 104.452 173.937 104.341C173.571 102.049 168.936 96.8155 166.846 95.5816C163.259 93.4624 157.295 92.3123 153.264 93.2647C152.894 93.9151 152.718 94.1983 152.28 94.8014C151.223 94.9436 150.902 94.5094 149.801 93.9093L149.38 94.0874L150.519 96.2682L150.337 96.671C147.415 95.8148 147.05 91.7193 145.271 88.8815L145.066 88.5586C149.693 87.2898 151.636 84.9426 154.116 84.3329L154.2 83.4474Z" fill="#EFBFAB"/>
<path d="M183.872 78.9408C188.328 78.6737 197.135 79.5266 201.789 79.8495C203.192 80.7547 204.111 79.5175 205.582 80.5371C202.298 82.0712 196.107 84.4135 192.562 84.28C188.426 84.1248 186.43 81.6801 183.872 78.9408Z" fill="#0C0A0B"/>
<path d="M154.2 83.4473C162.513 83.2771 163.262 82.5928 167.224 90.2844C160.527 88.4154 159.856 86.9016 154.115 84.3329L154.2 83.4473Z" fill="#0C0A0B"/>
<path d="M246.739 115.244C247.375 115.089 247.117 115.247 247.545 114.77C247.29 113.408 247.31 113.201 247.509 111.824L247.962 111.506C249.006 111.937 249.201 112.364 249.9 113.28L250.467 113.899C249.56 114.951 248.967 115.878 247.698 116.339C246.918 116.307 246.696 116.348 245.982 115.995L246.739 115.244Z" fill="#EFBFAB"/>
<path d="M246.739 115.244C245.969 113.798 245.584 113.185 246.051 111.616C247.381 110.1 248.304 110.205 249.789 111.432C250.235 112.606 250.216 112.116 249.899 113.28C249.201 112.364 249.006 111.937 247.962 111.506L247.509 111.824C247.31 113.201 247.29 113.408 247.544 114.77C247.117 115.247 247.375 115.089 246.739 115.244Z" fill="#0C0A0B"/>
<path d="M237.697 104.256L238.092 103.771L239.048 103.911C238.503 107.899 238.011 109.602 236.592 113.54C236.732 109.69 237.482 107.381 237.697 104.256Z" fill="#0C0A0B"/>
<path d="M201.789 79.8495C204.421 79.7403 205.247 79.813 207.778 79.041L208.486 79.4689C207.879 79.6966 206.111 80.4119 205.583 80.5371C204.112 79.5175 203.192 80.7547 201.789 79.8495Z" fill="#1D1C22"/>
<path d="M225.756 87.8589C226.128 88.236 225.971 88.0116 225.991 88.7576C222.322 95.7349 218.685 97.3916 211.411 100.538C209.337 101.436 203.205 102.661 201.088 101.488C199.747 100.745 199.568 99.4726 199.199 98.0749L198.818 97.8573C198.094 99.2315 197.506 100.782 196.221 101.452C196.564 98.7589 198.058 95.744 198.107 93.3972C197.65 93.6134 197.223 93.7863 196.756 93.9787L196.557 93.5456C198.765 86.9257 213.76 88.8613 219.236 89.2782C222.485 89.5257 220.557 89.7364 222.064 90.6595C223.747 90.3073 224.693 89.1141 225.756 87.8589Z" fill="#0C0A0B"/>
<path d="M207.484 92.9075C208.091 92.8971 207.787 92.8625 208.423 93.3342C208.981 94.9912 208.906 97.1364 208.945 98.922C206.731 99.314 204.519 99.3215 202.272 99.3923C201.815 99.3525 201.74 99.2595 201.297 99.0704C200.749 97.6635 200.256 96.5268 200.781 95.0965C202.207 93.328 205.132 93.2829 207.484 92.9075Z" fill="#008CC9"/>
<path d="M210.531 92.6573C213.049 93.3051 215.563 93.9842 218.068 94.6943C217.168 95.5639 216.059 96.4211 215.081 97.2203C213.946 97.903 211.933 98.7762 210.671 99.3675C210.791 96.9799 210.791 95.0489 210.531 92.6573Z" fill="#EEEEED"/>
<path d="M208.518 127.873C209.33 128.282 209.95 128.666 210.221 129.506C209.193 132.48 203.146 133.557 200.612 134.956C200.099 135.24 199.565 136.616 198.811 137.091C198.85 136.483 198.902 136.439 199.069 135.841C197.953 135.645 192.343 136.933 190.716 137.086C185.895 137.54 181.08 137.716 176.34 136.691C175.047 136.258 174.312 135.976 173.732 134.721L174.077 134.098C175.325 133.872 177.845 135.771 179.222 135.817C187.862 136.108 203.107 135.295 208.518 127.873Z" fill="#0C0A0B"/>
<path d="M177.436 120.128C178.086 120.782 179.131 123.818 180.733 124.603C181.369 124.914 183.12 126.377 183.6 126.92L183.31 127.535C179.195 126.745 174.388 125.128 177.436 120.128Z" fill="#0C0A0B"/>
<path d="M194.003 142.102C194.548 142.041 194.29 142.053 194.897 142.348C193.201 145.427 186.674 144.867 183.788 144.117C182.92 143.648 182.961 143.674 182.335 142.905C182.808 142.187 182.765 142.576 184.254 142.842C187.715 143.46 190.676 142.861 194.003 142.102Z" fill="#0C0A0B"/>
<path d="M187.503 123.223C188.886 123.422 191.022 123.111 191.847 123.72C191.534 124.436 191.469 124.775 190.823 125.215C189.192 124.698 188.905 125.154 187.134 125.531C186.818 124.728 187.19 124.223 187.503 123.223Z" fill="#0C0A0B"/>
<path d="M209.099 7.47406C217.68 3.86488 223.75 5.13926 232.41 8.1411C234.429 8.84173 236.696 10.3471 238.503 11.5357C242.375 14.7727 248.321 20.7923 251.615 24.7835L250.842 25.1204C246.354 20.4759 245.499 19.7678 239.54 17.4183C244.035 23.072 248.83 26.6906 253.272 32.8917C250.131 30.99 247.486 27.2236 244.733 24.7554C236.471 17.3459 227.857 11.6697 216.483 11.7477C229.152 16.1061 236.843 22.7807 244.048 34.0235C245.552 36.3684 247.496 39.1452 248.79 41.5824C246.853 39.7092 240.881 33.2465 238.464 33.5049C237.86 34.7261 241.836 40.235 242.544 41.9344C245.199 48.3167 249.006 54.7666 251.217 61.2879C249.29 59.1201 247.515 54.9209 245.835 52.3878C241.445 45.7598 236.311 40.7562 230.127 35.84C228.78 34.7692 227.798 33.2697 226.193 32.4562L226.014 32.6813C228.78 36.2989 232.955 40.2767 235.346 43.7248C238.565 48.3692 241.331 55.2859 244.172 60.523C241.197 58.0477 239.436 54.0705 236.869 51.5707C233.349 48.1435 229.051 40.9408 225.006 38.972C231.614 46.4578 242.032 70.6708 248.722 73.413L248.892 73.7855C247.916 73.8632 236.432 67.8742 234.008 66.8281C233.783 64.5328 222.759 57.8369 220.329 55.3371C217.54 52.4709 215.945 51.9419 213.717 47.7221C212.514 47.2938 212.214 47.2397 210.941 47.0929C210.051 45.9708 209.461 44.6315 208.812 43.3421C207.722 41.7458 205.726 38.0349 204.738 36.9852C211.134 55.4297 219.918 71.2641 238.03 81.0352C239.364 81.7538 241.576 82.3654 242.502 83.3025C240.904 83.7833 226.699 77.9802 224.243 76.5978C214.914 71.3483 207.621 62.8702 201.903 53.9443C199.597 50.3456 197.738 46.3195 195.416 42.7527C195.729 48.1843 195.941 51.7719 197.105 57.0642C197.689 59.7128 199.992 65.2996 199.972 67.3578C199.245 66.7178 199.013 66.4488 198.394 65.6995C198.394 64.6473 197.484 62.8758 197.053 61.8219C193.589 53.2822 191.352 44.2884 189.28 35.3279C189.166 34.8285 189.01 34.6954 188.638 34.3986C187.209 35.1159 184.368 42.3137 183.158 44.2473C174.919 57.4175 165.806 69.8916 153.283 79.3449C147.95 83.3707 141.28 86.7959 135.466 90.195C137.523 87.8247 145.272 82.1403 148.272 79.8557C161.096 70.0928 167.334 60.5524 175.085 46.6085L174.662 45.8413C170.74 52.1471 159.131 66.0319 153.176 69.9881C154.65 67.8898 156.894 65.7351 158.146 63.776C163.217 55.8381 169.758 47.2818 173.835 38.9012C169.983 42.1591 164.928 52.3369 161.159 57.0401C154.329 65.5635 147.31 71.452 138.878 78.2173C137.445 75.5273 138.873 75.3094 135.476 74.1244C144.015 63.4117 146.142 51.1183 153.964 40.7533C155.509 37.2047 157.544 33.8907 160.009 30.9078L160.598 31.6228C161.661 30.8648 162.217 30.1726 163.075 29.215L162.328 28.254C165.387 25.1106 172.615 18.0795 176.586 16.5888C180.297 15.1742 193.889 12.9633 190.667 20.6798C189.235 24.1125 188.677 26.0402 188.618 29.8442C193.338 24.8591 194.225 21.5748 200.612 16.6818C211.199 15.6269 218.62 19.6739 227.296 25.4247C220.202 17.6652 212.889 13.0198 201.946 14.6618C204.327 12.4053 206.613 10.1761 208.557 7.52918L209.099 7.47406Z" fill="#7C384B"/>
<path d="M160.009 30.9078L160.598 31.6228C159.709 34.2039 161.027 37.2012 159.042 39.1442C158.338 39.3171 157.968 39.3902 157.291 39.6912C156.376 43.4902 154.665 58.2561 152.348 59.7418C151.415 59.7722 151.62 59.9098 151.021 59.4626C150.064 53.6697 154.205 43.7042 153.964 40.7533C155.509 37.2047 157.544 33.8908 160.009 30.9078Z" fill="#AF6950"/>
<path d="M176.586 16.5889C173.967 20.2023 173.238 21.737 172.496 26.3175C172.29 27.5903 164.337 28.7662 163.075 29.215L162.328 28.2541C165.387 25.1107 172.615 18.0795 176.586 16.5889Z" fill="#AF6950"/>
<path d="M208.812 43.3422C209.197 41.3942 208.913 38.2016 209.529 36.739L210.198 36.3668C213.345 37.6376 213.414 44.855 213.717 47.7221C212.514 47.2939 212.214 47.2397 210.942 47.0929C210.051 45.9709 209.461 44.6316 208.812 43.3422Z" fill="#C98257"/>
<path d="M174.662 45.8414C175.298 44.5986 176.137 42.71 177.127 41.8245C177.133 42.9932 175.686 45.4637 175.085 46.6085L174.662 45.8414Z" fill="#2E1D1F"/>
<path d="M288.746 196.248L289.131 196.705C290.247 196.385 291.167 196.085 292.263 195.705L292.543 195.88C291.956 197.195 291.326 197.299 289.957 197.744L290.632 198.026C284.431 200.538 282.308 201.604 277.986 206.894C286.202 210.444 294.507 210.953 303.277 212.273C305.473 212.604 312.358 213.033 313.907 213.807C315.551 215.339 316.031 221.141 316.774 223.704C319.325 232.504 321.817 241.32 324.064 250.203C327.682 266.618 331.325 283.106 330.196 300.092C329.009 317.96 322.655 335.685 324.831 353.853C326.426 367.19 336.71 386.95 336.86 399.59C334.688 401.955 332.189 404.137 328.706 403.546C328.373 402.349 328.305 401.322 328.174 400.099C326.834 395.512 325.835 390.77 324.329 386.236C316.592 384.514 309.227 385.659 301.634 380.727C307.315 381.438 320.904 386.037 326.175 382.563C328.399 378.186 317.88 350.046 317.655 343.862C317.293 341.38 319.162 338.923 319.622 336.709C328.04 296.321 315.665 259.177 287.928 229.094C284.187 225.036 280.021 221.006 276.146 216.898C270.288 210.668 264.747 204.147 259.544 197.36C262.966 199.091 268.817 203.682 272.5 203.333L272.696 204.044L273.273 204.244C273.785 204.505 274.141 204.689 274.695 204.25C278.877 200.953 283.414 197.459 288.746 196.248Z" fill="#BEABD1"/>
<path d="M313.695 226.903C315.891 234.78 319.084 243.508 321.021 250.898C324.759 266.328 328.941 285.715 327.261 301.697C326.459 301.406 326.801 301.635 326.24 300.937C326.273 289.369 324.293 270.736 321.524 259.934C318.8 249.3 315.362 239.003 312.72 228.101C313.063 227.446 313.17 227.43 313.695 226.903Z" fill="#0C0A0B"/>
<path d="M306.148 216.788C307.664 217.033 308.764 217.313 310.251 217.703C312.668 221.646 312.74 222.329 313.695 226.903C313.17 227.43 313.063 227.446 312.72 228.101C312.671 227.442 312.779 227.743 312.267 227.239C308 228.893 298.007 227.045 301.271 220.335C301.725 219.402 303.47 218.42 304.047 217.143C304.696 217.208 305.492 216.947 306.148 216.788Z" fill="#0C0A0B"/>
<path d="M305.535 218.237C309.491 218.199 312.365 223.455 308.741 226.173C304.442 224.625 301.934 222.205 305.535 218.237Z" fill="#EEEEED"/>
<path d="M313.907 213.807C315.551 215.339 316.031 221.141 316.775 223.704C319.325 232.504 321.817 241.32 324.064 250.203L323.866 251.876C322.642 248.893 323.05 243.816 320.327 242.488L319.364 242.732L319.185 243.127C320.203 245.621 321.393 249.365 321.997 252.003L321.876 252.205C321.572 251.685 321.422 251.349 321.021 250.898C319.084 243.508 315.891 234.78 313.695 226.903C312.74 222.329 312.668 221.646 310.251 217.703L310.329 217.331C314.446 220.64 314.315 229.963 316.422 233.69L317.897 232.851C318.047 232.582 318.096 232.539 318.144 232.188C318.265 231.315 314.188 215.111 313.666 214.386C313.63 214.334 313.591 214.284 313.552 214.234L313.907 213.807Z" fill="#D4D0E1"/>
<path d="M304.047 217.143C300.009 217.952 283.743 214.982 280.198 212.559C280.475 212.466 303.976 216.341 306.148 216.788C305.492 216.947 304.696 217.208 304.047 217.143Z" fill="#0C0A0B"/>
<path d="M326.24 300.937C326.801 301.635 326.459 301.406 327.261 301.697C327.414 303.536 326.863 307.568 326.553 309.414C326.367 306.449 326.227 303.905 326.24 300.937Z" fill="#4B384B"/>
<path d="M161.927 10.4009C169.14 6.97832 175.015 4.06618 182.985 2.92813C188.341 2.16367 205.798 1.40125 209.924 4.591C210.185 5.53073 209.422 6.31454 209.099 7.47411L208.557 7.52923C207.566 7.45128 200.364 6.59147 200.145 6.68247L199.816 7.53902C196.365 8.11929 191.916 6.78522 188.788 5.93095C192.196 8.46635 193.547 9.23614 195.921 12.8186C179.03 5.75383 163.179 19.6142 151.922 30.6427C146.594 35.8622 143.453 44.8534 138.42 50.7374C136.782 52.6882 135.504 57.6671 133.814 59.2777C133.722 58.323 136.644 48.9228 137.196 47.2896C141.202 35.4265 146.993 25.5275 156.417 17.1551C157.379 16.3009 161.325 12.8567 161.462 11.704C161.764 11.3537 161.801 10.8961 161.927 10.4009Z" fill="#67304D"/>
<path d="M240.219 170.595C249.926 173.785 256.051 177.901 264.691 183.274C267.121 184.787 270.38 186.934 272.816 188.17C273.547 187.481 273.221 187.688 274.291 187.489C278.609 190.714 283.384 192.726 288.773 193.271C290.661 193.462 292.4 193.418 294.301 193.718C292.21 194.887 290.951 195.381 288.747 196.248C283.414 197.459 278.877 200.953 274.695 204.25C274.141 204.689 273.785 204.505 273.273 204.244L272.696 204.044L272.5 203.333C269.15 197.24 247.065 181.965 240.264 179.171C240.131 176.319 240.193 173.451 240.219 170.595Z" fill="#BDABCD"/>
<path d="M272.816 188.17C273.547 187.481 273.221 187.688 274.291 187.489C278.609 190.714 283.384 192.726 288.773 193.271C290.661 193.462 292.4 193.418 294.301 193.718C292.21 194.887 290.951 195.381 288.747 196.248C283.414 197.459 278.877 200.953 274.695 204.25C274.141 204.689 273.785 204.505 273.273 204.244C275.912 200.492 282.703 196.161 287.155 194.669C281.89 193.171 277.477 190.964 272.816 188.17Z" fill="#0C0A0B"/>
<path d="M126.146 39.6087C127.192 37.5133 128.949 31.7174 129.376 31.0615C136.673 19.8516 155.489 7.79178 167.804 3.86294C179.454 0.146379 192.086 -1.12608 203.88 1.09654C206.32 1.26103 210.981 3.42586 213.14 3.47283C224.347 3.71812 229.873 5.46286 239.834 10.6873L238.503 11.5357C236.696 10.3471 234.429 8.84176 232.41 8.14112C223.75 5.13929 217.68 3.8649 209.099 7.47408C209.422 6.31451 210.185 5.5307 209.924 4.59098C205.798 1.40123 188.341 2.16364 182.985 2.92811C175.015 4.06615 169.14 6.97829 161.927 10.4009C157.88 11.8488 154.162 14.7851 150.588 17.1965C142.516 22.6428 131.143 29.4025 128.005 39.0121L126.146 39.6087Z" fill="#0C0A0B"/>
<path d="M128.005 39.0121C131.143 29.4025 142.516 22.6427 150.588 17.1965C154.162 14.7851 157.88 11.8488 161.927 10.4009C161.801 10.896 161.764 11.3537 161.462 11.704C155.949 14.2426 151.224 19.3643 146.84 23.4119C142.087 27.8284 137.069 31.7539 134.68 38.0244C134.005 39.7969 132.376 45.84 131.536 46.935C125.182 55.2132 109.93 66.9726 99.73 68.3908C101.928 67.3741 105.339 65.8545 107.277 64.5217C115.507 58.8612 124.385 48.2844 128.005 39.0121Z" fill="#642C50"/>
<path d="M274.291 187.489C275.429 186.962 285.211 189.871 287.553 190.192L287.328 189.159C286.418 188.615 286.382 188.596 285.775 187.747C289.663 188.726 300.218 191.083 303.02 193.321L303.248 193.501C303.392 193.626 303.535 193.751 303.679 193.876C303.18 193.988 302.674 194.139 302.172 194.148C298.193 196.646 294.924 196.795 290.632 198.026L289.957 197.744C291.327 197.299 291.956 197.195 292.543 195.88L292.263 195.705C291.167 196.085 290.247 196.385 289.131 196.705L288.747 196.248C290.951 195.381 292.211 194.887 294.301 193.718C292.4 193.418 290.661 193.462 288.773 193.271C283.384 192.726 278.609 190.714 274.291 187.489Z" fill="#D4D0E1"/>
<path d="M285.775 187.747C289.663 188.726 300.218 191.083 303.02 193.321L303.248 193.501C303.392 193.626 303.535 193.751 303.679 193.876C303.18 193.988 302.674 194.139 302.172 194.148C297.136 191.822 292.781 191.742 287.553 190.192L287.328 189.159C286.418 188.615 286.382 188.596 285.775 187.747Z" fill="#0C0A0B"/>
<path d="M210.942 47.0929C212.214 47.2397 212.514 47.2938 213.717 47.7221C215.945 51.9419 217.54 52.471 220.329 55.3371C222.759 57.8369 233.783 64.5328 234.008 66.8281C233.754 66.7534 233.503 66.6768 233.248 66.5988C221.803 63.0689 216.32 57.3079 210.942 47.0929Z" fill="#CE9D70"/>
<path d="M116.665 91.7477C117.471 91.0124 118.422 90.2616 119.278 89.5802C125.189 84.875 130.415 79.7132 135.476 74.1245C138.872 75.3095 137.445 75.5274 138.878 78.2174C134.059 82.3086 122.639 89.2706 116.665 91.7477Z" fill="#692B41"/>
<path d="M328.706 403.546C325.946 403.034 312.541 403.028 311.008 401.928C310.541 400.921 310.395 400.784 310.515 399.73C313.777 398.947 323.487 401.544 328.174 400.099C328.305 401.322 328.373 402.349 328.706 403.546Z" fill="#907FBA"/>
<path d="M167.913 100.743L168.005 100.189C169.354 100.491 172.267 103.028 172.985 104.184C170.909 104.37 169.154 104.671 167.111 105.02L167.913 100.743Z" fill="#EEEEED"/>
<path d="M251.615 24.7835C253.549 26.8596 254.287 27.6539 255.842 30.095L255.666 30.1873C253.654 28.485 252.545 27.1128 250.842 25.1204L251.615 24.7835Z" fill="#692B41"/>
<path d="M162.328 28.254L163.075 29.215C162.217 30.1726 161.661 30.8648 160.598 31.6228L160.009 30.9078L162.328 28.254Z" fill="#A64B42"/>
<path d="M175.555 163.857C182.126 171.465 179.799 174.472 180.808 184.278C181.267 188.741 181.869 191.76 183.066 196.084C182.228 197.695 180.007 203.151 178.899 203.628C179.207 203.851 179.579 204.084 179.826 204.357C181.748 204.183 183.414 201.892 184.687 200.457C187.506 207.369 188.514 213.11 190.507 220.209C191.427 223.487 192.796 227.058 193.772 230.426C201.639 257.599 205.41 278.99 203.873 307.483C202.81 308.993 203.991 311.048 203.123 312.242C202.934 316.042 202.357 324.379 201.61 328.094C199.154 340.31 193.517 353.125 188.162 364.388C186.338 368.227 183.324 375.136 181.171 378.545C178.134 379.941 175.086 381.046 172.095 382.387C169.432 383.662 165.78 383.835 163.365 384.928C159.544 386.657 156.167 388.718 152.231 390.46C150.044 388.924 146.918 387.498 144.679 385.965C140.403 383.039 135.924 379.23 131.947 375.987C129.266 373.799 122.369 365.504 122.194 362.311L122.653 361.991C124.447 362.412 128.826 369.092 130.797 370.997C138.916 378.851 143.997 382.191 154.212 386.438C152.75 384.817 150.517 382.834 148.899 381.196C146.062 379.435 141.088 374.516 139.448 371.62C140.063 369.914 140.671 367.412 142.161 366.541C143.438 366.668 143.519 367.017 144.654 367.875C145.189 368.681 145.889 369.487 146.713 369.973C150.422 372.171 166.325 380.202 169.573 380.909C170.242 380.414 172.883 376.209 173.633 375.103L173.655 374.523C171.837 372.324 158.784 367.171 154.731 364.633C149.948 361.635 148.08 360.908 143.35 356.925C143.155 349.753 138.801 339.635 136.549 332.364C138.516 329.953 147.627 320.524 145.154 317.559C144.456 318.067 144.081 318.397 143.442 318.984C142.559 318.221 141.004 313.68 140.297 312.066C138.099 307.046 133.556 300.972 131.762 296.07L131.617 295.664C135.737 281.991 140.041 262.046 137.43 247.683C137.289 246.906 135.955 245.086 135.442 244.378C134.651 251.795 134.926 256.833 132.876 264.044C132.601 262.724 132.696 260.513 132.381 258.724C131.721 254.964 130.783 251.561 130.124 247.795C128.545 238.772 127.986 228.291 124.304 219.784C121.909 214.251 117.609 204.511 114.415 199.131C114.068 198.985 113.774 198.862 113.534 198.761L112.253 195.301C111.777 194.426 111.327 193.473 110.884 192.575L111.102 191.5C110.669 190.658 110.14 189.767 109.67 188.936C108.27 187.154 106.987 185.538 105.483 183.828L105.751 183.027C108.886 181.422 132.832 179.525 137.632 179.419C140.04 179.366 143.812 179.665 146.235 180.066L143.963 182.348C132.547 191.771 126.747 194.747 145.789 200.884C151.291 202.657 156.491 204.135 161.673 206.721C161.75 209.828 162.225 212.821 162.643 215.9C157.22 218.404 144.073 225.521 140.653 230.452C138.439 233.645 144.177 240.096 144.202 243.47C143.78 261.041 137.952 278.739 141.478 296.393C141.799 298.004 141.726 299.984 143.132 300.695L142.475 300.617L142.899 300.839C144.57 298.232 152.598 258.456 152.976 253.197C155.576 256.333 157.689 258.306 160.475 261.193C156.586 277.892 147.908 294.576 147.579 310.781C154.038 294.827 157.531 278.763 162.859 262.979C166.789 266.031 170.505 269.349 173.981 272.908C176.512 275.527 178.967 278.473 181.587 280.952C179.459 299.632 170.384 318.674 160.058 333.988C159.008 335.544 158.147 337.531 157.089 339.188L156.532 339.237C156.222 338.509 156.159 338.428 156.451 337.694C158.016 333.744 162.239 329.004 164.495 325.136C167.961 319.19 179.963 293.57 177.729 287.295C177.62 286.989 177.345 286.861 177.098 286.663C175.824 287.777 175.05 292.58 174.533 294.422C173.345 298.666 171.909 302.835 170.232 306.912C165.906 317.565 159.375 328.427 153.548 338.542C155.116 339.827 156.926 341.239 158.358 342.645C167.02 331.588 175.237 314.506 179.683 301.168C181.185 296.66 182.278 290.789 183.704 286.045C189.228 295.692 195.014 309.433 196.616 320.579C197.079 323.808 196.75 328.756 196.394 331.992C200.325 319.676 200.608 307.199 194.741 295.427C187.917 281.73 180.841 272.307 168.976 262.832C160.394 255.979 152.259 247.56 146.691 238.061C145.514 236.05 142.864 232.871 143.5 230.538C145.496 228.25 148.08 227.152 150.664 225.651C159.148 220.722 170.957 216.752 177.752 209.547C169.159 204.593 163.422 201.281 153.752 198.336C149.088 196.916 140.897 195.09 136.863 193.207C142.595 185.495 151.288 183.752 156.407 173.082C157.852 173.025 159.327 172.995 160.762 172.844C158.589 180.261 154.968 182.159 149.54 187.213C148.876 187.832 146.936 189.408 146.5 190.069C146.379 190.786 146.352 191.091 145.867 191.679L146.416 192.382C147.199 192.46 146.839 192.54 147.525 192.102C149.229 189.645 152.353 187.507 154.378 185.232C159.598 179.365 164.498 173.458 170.483 168.322C172.149 166.891 173.732 165.105 175.555 163.857Z" fill="#BDABCD"/>
<path d="M175.555 163.857C182.127 171.465 179.799 174.472 180.808 184.278C181.267 188.741 181.869 191.76 183.066 196.084C182.228 197.695 180.007 203.151 178.899 203.628C166.07 196.895 160.558 196.148 147.525 192.102C149.229 189.645 152.354 187.507 154.378 185.232C159.598 179.365 164.498 173.458 170.483 168.322C172.149 166.891 173.732 165.105 175.555 163.857Z" fill="#BDABCD"/>
<path d="M150.157 232.46C155.557 226.181 170.794 220.601 178.163 215.575C179.29 214.806 180.933 213.798 182.253 214.159L182.182 214.824C179.512 218.532 159.429 227.504 153.799 230.942L154.071 231.983C156.45 229.677 161.506 229.041 163.488 231.882C167.728 237.959 161.931 244.43 154.769 239.296C159.47 246.756 165.627 252.213 172.315 257.912C188.82 271.977 194.946 280.822 201.812 300.777L201.271 301.608C198.012 290.781 191.42 279.501 183.949 271.025C174.273 260.048 153.278 247.16 150.157 232.46Z" fill="#0C0A0B"/>
<path d="M154.369 238.477C153.309 236.688 151.877 234.787 151.88 232.777C152.509 231.477 152.416 231.815 153.799 230.942L154.071 231.983C154.182 234.147 154.281 236.312 154.369 238.477Z" fill="#D4D0E1"/>
<path d="M156.416 231.707C160.992 231.53 163.784 234.481 160.534 238.352C156.728 238.507 154.052 235.033 156.416 231.707Z" fill="#EEEEED"/>
<path d="M105.483 183.828L105.751 183.027C108.886 181.422 132.832 179.525 137.632 179.419C140.04 179.366 143.812 179.665 146.235 180.066L143.963 182.348C138.825 179.603 135.368 184.296 131.054 185.52C125.901 186.981 119.616 187.539 114.266 188.545L109.67 188.936C108.27 187.154 106.987 185.538 105.483 183.828Z" fill="#EEEEED"/>
<path d="M152.231 390.46C150.044 388.924 146.918 387.498 144.679 385.965C140.403 383.039 135.924 379.23 131.947 375.987C129.266 373.799 122.369 365.504 122.194 362.311L122.653 361.991C124.447 362.412 128.826 369.092 130.797 370.997C138.916 378.851 143.997 382.191 154.212 386.438C152.75 384.817 150.517 382.834 148.899 381.196C151.626 381.695 153.43 385.456 155.639 386.37L155.371 386.813C151.865 387.515 145.179 382.397 142.255 381.924C141.587 384.096 150.095 388.646 152.091 389.256C155.137 389.087 159.521 385.668 162.428 384.507C164.596 383.639 169.854 381.836 172.095 382.387C169.432 383.662 165.78 383.835 163.365 384.928C159.544 386.657 156.167 388.718 152.231 390.46Z" fill="#907FBA"/>
<path d="M146.5 190.069C146.379 190.786 146.352 191.091 145.867 191.679L146.416 192.382C147.199 192.46 146.839 192.54 147.525 192.102C160.558 196.148 166.07 196.895 178.899 203.628C179.207 203.851 179.579 204.084 179.826 204.357C177.662 204.894 170.398 200.969 167.693 199.842C160.108 196.682 152.098 195.584 144.749 192.255L144.697 192.049C144.98 191.201 145.795 190.669 146.5 190.069Z" fill="#0C0A0B"/>
<path d="M109.67 188.936L114.266 188.545C115.282 189.452 119.013 192.299 117.177 193.6C115.662 194.675 114.283 193.605 112.826 194.857C112.799 194.865 112.773 194.873 112.746 194.881L112.253 195.301C111.777 194.426 111.327 193.473 110.884 192.576L111.102 191.5C110.669 190.658 110.14 189.767 109.67 188.936Z" fill="#D4D0E1"/>
<path d="M111.102 191.5C111.744 192.673 112.311 193.608 112.746 194.881L112.253 195.301C111.777 194.426 111.327 193.473 110.884 192.576L111.102 191.5Z" fill="#997F83"/>
<path d="M201.812 300.777C202.288 302.727 202.901 305.836 203.873 307.483C202.81 308.993 203.991 311.048 203.123 312.242C203.254 307.92 202.393 305.793 201.271 301.608L201.812 300.777Z" fill="#4B384B"/>
<path d="M54.3389 368.57C48.1309 356.997 58.6679 351.883 68.1797 348.683C72.7164 347.156 76.8373 347.173 81.543 347.081C90.1634 361.671 100.593 375.11 112.584 387.084C116.882 391.38 121.603 395.066 126.405 398.771C127.05 399.267 126.538 399.769 126.177 400.451C126.612 401.563 126.966 401.498 128.146 402.242C137.086 400.245 145.762 395.972 154.241 392.567C156.219 391.771 162.581 387.88 164.012 387.606C173.176 385.848 180.661 380.802 189.209 377.315C195.533 380.73 201.088 382.387 206.757 385.264L206.705 383.806C202.132 381.271 194.613 377.246 189.89 375.296L186.286 376.177C189.365 371.127 194.105 362.311 199.183 359.006C201.349 357.601 209.777 356.485 212.585 356.501L213.587 357.307L213.825 357.082C213.871 357.043 214.754 356.244 214.784 356.244C241.801 355.174 269.848 356.335 295.955 364.043C295.391 369.004 293.871 376.959 295.495 381.464C296.33 379.357 297.074 377.484 297.765 375.315C298.052 383.708 303.274 392.746 304.432 400.343C288.923 409.682 257.232 410.194 239.358 409.153C231.021 408.667 219.618 406.143 211.32 404.212C207.05 403.217 201.675 401.583 197.458 400.242C195.83 399.723 194.03 398.008 191.877 397.447C184.896 395.627 177.006 396.948 170.202 395.248C167.338 394.531 165.248 391.967 161.922 393.911L161.717 394.456C163.065 395.069 163.986 394.664 165.421 394.237C167.816 396.122 169.783 397.727 172.899 398.164C178.869 399.003 185 399.084 190.983 399.87C193.201 402.137 194.79 403.677 197.311 405.595C199.93 407.588 203.57 409.845 205.909 412.069C201.969 415.618 205.354 416.832 208.101 419.386C200.621 417.826 192.568 412.898 187.398 407.31L187.085 407.34C183.656 407.64 176.492 406.515 172.818 405.983C171.12 405.738 167.723 404.799 166.209 404.952L165.936 405.373C167.904 409.535 177.223 408.406 180.402 409.868C185.823 412.366 189.078 415.419 194.992 417.409L194.613 417.598C193.508 418.156 193.093 418.264 192.438 419.307C192.014 421.183 193.224 421.199 192.63 422.98C190.8 423.995 179.841 418.433 177.801 417.037C174.004 416.9 169.911 416.724 166.18 415.957C162.811 417.246 151.203 421.395 149.082 423.303C139.013 423.339 127.851 423.639 117.871 423.43L117.552 423.195C113.074 419.966 107.771 420.113 104.184 417.696C100.107 414.731 96.2918 411.404 92.3181 408.273C87.7249 404.649 82.2309 401.677 77.6974 398.184C66.6601 389.687 51.6803 379.477 43.1672 368.433C44.2733 367.901 45.5711 367.327 46.609 366.704C48.1358 369.712 49.9457 370.974 52.8914 372.634L54.3389 368.57Z" fill="#EFBFAB"/>
<path d="M171.597 393.056C175.971 391.138 185.803 387.85 189.068 385.538C193.364 388.16 204.007 391.034 209.288 392.342L210.093 392.456C209.767 392.854 209.399 393.193 209.552 393.748C204.734 395.121 194.31 390.45 189.643 388.549C181.737 392.029 180.473 394.198 171.597 393.056Z" fill="#0C0A0B"/>
<path d="M206.704 383.806C210.866 386.148 219.35 391.132 209.552 393.748C209.399 393.193 209.767 392.854 210.093 392.456L209.288 392.342C208.847 392.006 207.993 391.494 207.497 391.174C204.695 388.94 203.909 387.811 206.757 385.264L206.704 383.806Z" fill="#0C0A0B"/>
<path d="M207.497 391.174C207.103 389.618 206.189 389.09 206.372 387.534C207.892 385.117 211.992 388.154 212.856 389.827C212.373 391.81 211.313 391.328 210.094 392.456L209.288 392.342C208.848 392.006 207.993 391.494 207.497 391.174Z" fill="#D40107"/>
<path d="M267.131 377.145C267.418 378.15 265.794 384.253 266.162 386.582C266.59 389.253 266.564 388.933 267.881 391.735C267.718 393.236 267.115 395.64 266.776 397.183L266.573 396.944C264.616 394.328 263.863 393.278 263.263 390C262.623 386.513 265.083 379.859 267.131 377.145Z" fill="#1D171B"/>
<path d="M193.641 220.183C211.268 235.342 229.572 247.13 252.783 251.279C268.23 254.041 292.53 254.11 284.549 231.09C296.578 246.586 309.501 260.248 312.583 280.883C314.876 291.688 311.331 302.786 303.444 310.409C302.42 311.4 299.859 310.963 298.453 311.208C281.098 314.228 263.641 318.991 246.37 322.722C243.053 323.44 232.73 324.813 230.809 325.69L231.236 325.87L231.689 325.279L231.644 325.906C233.946 325.837 236.977 325.188 238.989 325.292C254.808 326.134 270.181 323.864 285.912 322.944C294.745 322.425 299.791 324.314 305.332 331.209C305.225 339.23 304.749 345.571 303.033 353.419C302.534 355.712 302.485 359.414 302.195 361.867C289.373 357.871 272.917 355.895 259.46 354.322C248.073 352.995 235.47 353.249 223.891 353.132C220.642 353.706 213.006 353.243 209.304 353.442C204.725 353.686 200.377 354.163 195.836 354.508C199.682 345.232 204.78 331.633 205.733 321.505C210.198 321.887 214.555 321.838 219.034 321.871C227.25 321.196 237.293 318.847 245.561 317.298C257.401 314.982 269.297 312.65 281.016 309.773C285.243 308.732 289.546 306.935 293.835 305.764C280.896 303.292 264.235 300.646 251.064 300.875C231.536 301.211 224.915 305.64 206.783 294.559C207.37 291.363 207.207 287.962 207.145 284.716C206.832 282.868 206.626 278.323 206.466 276.319C206.13 272.275 205.651 268.243 205.028 264.233C202.803 249.182 198.547 234.537 193.641 220.183Z" fill="#DAD9E1"/>
<path d="M193.641 220.183C211.268 235.342 229.572 247.13 252.783 251.279C268.23 254.041 292.53 254.11 284.549 231.09C296.578 246.586 309.501 260.248 312.583 280.883L312.44 283.106C311.761 281.71 311.81 278.175 311.168 277.264C311.233 284.519 311.552 291.39 307.629 298.066C304.732 297.518 302.123 296.964 299.301 296.096C295.668 294.974 291.93 293.737 288.186 293.086C282.862 292.159 277.392 291.635 272.024 291.023C264.515 290.166 257.004 289.343 249.495 288.511C241.748 287.649 233.467 290.312 225.593 289.666C220.668 289.262 216.982 288.224 212.386 286.527C211.14 286.067 208.355 285 207.145 284.716C206.832 282.868 206.626 278.323 206.466 276.319C206.13 272.275 205.651 268.243 205.028 264.233C202.803 249.182 198.547 234.537 193.641 220.183Z" fill="#EEEEED"/>
<path d="M195.837 354.508C199.682 345.232 204.78 331.633 205.733 321.505C210.198 321.887 214.556 321.838 219.034 321.871C217.4 326.633 216.477 331.963 215.257 336.869C213.923 342.218 212.435 347.597 211.281 352.979C214.115 352.975 221.405 352.796 223.891 353.132C220.642 353.706 213.006 353.243 209.304 353.442C204.725 353.686 200.377 354.163 195.837 354.508Z" fill="#D4D0E1"/>
<path d="M248.422 292.879C252.502 291.875 293.062 296.279 295.433 298.542C287.582 298.252 254.224 295.791 248.422 292.879Z" fill="#0C0A0B"/>
<path d="M94.5744 187.539C103.282 195.541 109.968 204.967 117.069 214.348C118.1 215.709 120.771 217.001 121.297 218.377C122.872 222.874 124.533 228.022 125.323 232.72C126.209 237.989 129.55 247.05 126.738 251.76L126.277 251.849L126.295 251.265L124.956 251.252L125.252 252.186L124.942 252.779C122.945 252.402 119.014 245.707 117.143 244.215C109.999 238.523 101.226 228.017 91.2273 229.577C85.1014 230.534 75.6346 230.921 70.4543 234.188L70.4684 234.728C72.611 235.871 80.7046 235.134 83.8897 235.448C97.9882 236.837 113.479 245.638 124.518 254.054C121.305 256.064 115.144 259.827 111.836 261.482C101.436 266.686 89.4203 271.804 81.0801 280.165C79.0783 282.224 76.0371 285.749 76.2067 288.834C76.3665 291.734 83.236 290.264 85.1203 289.99C79.8096 295.074 80.5846 296.5 78.5418 302.923C77.8261 303.562 76.3708 304.57 75.541 305.177C74.3371 302.176 72.2127 295.389 68.6307 294.641C67.6829 295.764 68.9253 297.117 67.4982 298.311C66.0416 298.203 64.7558 297.472 63.3976 296.856C65.2281 300.881 67.3896 304.208 69.6993 307.949C67.7024 306.739 64.8908 304.26 62.9416 302.675C59.0983 299.547 56.8863 298.307 52.5009 296.334C56.4215 302.026 62.3904 306.804 67.0631 312.61L66.887 312.545C57.4698 309.244 41.9587 311.694 32.8033 315.155C29.5175 316.397 25.2407 318.544 21.9735 320.109C26.6201 313.879 29.5772 312.627 35.3253 307.679C26.6276 309.877 21.9209 312.663 14.9888 318.462C11.232 321.607 10.5548 324.415 10.291 329.001C7.88185 326.248 3.74959 320.55 3.88201 316.903C4.60644 296.957 26.4613 292.883 41.6051 292.166C36.7468 288.86 25.8631 284.005 20.6329 288.429C18.2544 290.441 20.4346 290.137 20.2063 291.847C19.309 292.632 14.0592 295.147 12.5184 295.956C14.7771 291.338 16.5058 289.139 18.9078 283.597C21.2432 281.795 23.4882 281.166 25.864 279.687C29.781 277.145 29.8851 271.654 31.5062 267.681C32.3506 265.283 36.2089 264.661 38.5772 264.168C50.5601 261.675 62.0221 257.367 74.0152 254.935C75.9451 254.544 78.7672 253.989 80.5497 253.3C77.8712 252.398 47.2792 258.125 43.2307 259.215C43.2927 259.169 43.3521 259.119 43.4163 259.076C46.2631 257.193 62.0874 240 63.8624 236.926C64.5529 235.73 64.7486 234.125 65.1801 232.81C66.5256 228.711 70.243 229.16 73.4082 227.403C74.6013 226.74 75.2693 225.868 75.9644 224.734C79.0177 219.753 81.0758 214.104 83.8492 208.949C86.3037 204.388 89.4633 200.227 91.7083 195.554C92.9442 192.982 93.7489 190.263 94.5744 187.539Z" fill="#BDABCD"/>
<path d="M93.6787 217.158C97.7986 219.721 103.82 223.392 107.62 226.617C113.838 231.896 121.626 240.483 125.563 247.749C125.996 248.548 126.198 250.359 126.295 251.265L124.956 251.252C123.895 250.304 121.153 246.433 120.294 245.174C112.884 234.313 102.244 226.829 93.6787 217.158Z" fill="#0F080B"/>
<path d="M33.9658 280.775C41.7287 280.206 48.3119 280.899 55.2564 284.786C58.3697 286.529 63.018 289.232 64.0699 292.791C63.8628 293.943 64.1393 293.485 63.1987 294.202C61.8927 294.431 61.3049 294.149 60.0658 293.758C50.7131 289.996 42.0174 285.216 31.8901 283.357C30.8333 283.163 29.8404 283.008 28.981 282.347L29.0573 281.827C30.3222 281.149 32.4638 280.985 33.9658 280.775Z" fill="#1B171C"/>
<path d="M29.1761 298.409C32.868 298.275 45.5717 298.562 47.8041 301.224C47.1997 302.046 30.3751 303.23 27.2741 303.869C23.8996 304.378 15.4902 308.762 13.4507 307.77C12.9741 305.51 16.9195 303.409 18.4949 302.29C21.7527 299.974 25.3334 299.123 29.1761 298.409Z" fill="#1B171C"/>
<path d="M240.959 122.574C239.57 131.688 238.477 141.747 238.399 150.955C238.317 160.772 235.062 183.767 240.675 191.368C241.152 192.013 241.638 192.653 242.133 193.286C241.52 190.816 241.145 189.059 240.737 186.535C243.601 189.544 250.32 195.735 252.114 198.735C249.913 198.761 246.286 198.652 244.335 199.404C245.721 201.326 254.371 200.981 256.922 200.25C262.532 211.075 273.919 217.601 280.504 227.444C282.37 230.229 283.782 239.291 282.787 242.548C282.112 244.765 280.162 246.092 278.126 247.082C273.146 249.595 266.113 250.685 260.637 249.416C255.046 246.887 253.285 242.782 246.06 240.193C248.38 243.203 250.584 245.802 253.073 248.68C234.432 243.158 220.665 238.145 205.129 226.012C201.799 223.409 195.804 219.5 193.292 215.501C190.663 208.479 188.494 199.704 185.562 192.648C196.75 195.251 213.277 199.196 224.455 197.524C218.806 195.553 216.464 195.671 210.72 194.806C202.784 193.611 191.404 191.866 184.228 188.152C184.168 185.953 184.39 176.866 186.211 175.738C187.353 175.823 188.729 177.367 188.866 177.35C196.652 176.394 201.874 175.11 206.408 168.434C207.109 169.972 207.836 171.686 208.73 173.103C208.365 170.921 208.169 171.505 208.883 169.605C215.55 167.114 229.546 143.587 233.333 136.445C235.075 133.165 238.976 125.335 240.959 122.574Z" fill="#EFBFAB"/>
<path d="M208.73 173.103C208.365 170.921 208.169 171.505 208.883 169.605C211.763 175.212 212.902 180.962 216.78 186.087C217.325 186.809 219.265 189.21 219.132 189.676C216.646 188.985 209.392 176.068 208.73 173.103Z" fill="#0C0A0B"/>
<path d="M228.173 200.308C233.49 201.675 232.42 205.937 239.762 201.442L240.15 201.544L240.039 202.567C239.449 203.647 238.996 204.539 237.903 205.203C236.725 205.913 235.307 206.099 233.989 205.715C231.132 204.906 229.566 202.719 228.173 200.308Z" fill="#0C0A0B"/>
<path d="M51.0807 315.099C58.0866 314.414 64.7584 315.399 71.5738 316.844C74.3016 326.349 82.9099 337.668 87.8569 346.559C86.5963 345.669 85.3425 344.769 84.0955 343.859L83.8206 343.845C66.327 343.076 49.1351 350.359 35.8893 361.384C33.0323 363.762 30.5678 366.362 27.8407 368.87C26.6253 366.518 25.6074 363.86 24.5982 361.397C22.4905 356.032 19.9447 351.543 17.2554 346.481C23.3219 337.087 27.7343 335.574 36.7696 330.7C27.3886 332.971 18.4195 336.226 9.36075 339.484C8.27916 339.873 7.24944 339.716 6.79541 338.623C7.56061 335.678 12.5354 332.367 14.7957 330.508C22.6434 324.053 31.4582 319.747 41.2744 317.174C44.6578 316.287 47.5385 315.357 51.0807 315.099Z" fill="#BDABCD"/>
<path d="M198.906 403.034C205.609 404.665 212.507 406.997 219.252 408.338C230.988 410.667 242.44 411.241 254.329 411.57C253.631 415.948 254.022 419.007 254.368 423.394C246.253 423.16 234.09 424.22 226.526 422.993C224.739 422.703 213.27 419.578 212.719 418.391C212.341 417.572 213.554 415.644 212.827 414.682C211.48 412.901 207.615 409.541 205.746 408.191C203.635 406.671 200.432 405.118 198.906 403.034Z" fill="#5C6EB5"/>
<path d="M210.915 409.894C215.671 410.311 232.443 414.323 234.791 417.738C229.07 418.1 218.042 415.97 212.781 413.547L212.217 412.751C211.418 411.639 211 411.309 210.915 409.894Z" fill="#0C0A0B"/>
<path d="M349.418 385.704C349.522 385.792 354.894 400.578 356.199 402.848C343.472 411.133 330.702 412.568 315.78 412.888C315.215 412.888 314.468 412.826 313.888 412.794C312.427 411.923 312.159 407.862 311.588 405.735C313.647 406.012 315.848 406.26 317.923 406.374C326.393 406.844 333.328 408.801 339.525 401.674C340.301 398.148 339.766 395.101 338.504 391.752C342.911 389.899 345.39 388.317 349.418 385.704Z" fill="#8172A9"/>
<path d="M271.652 410.699C286.065 409.036 289.115 408.599 302.381 404.137C302.504 404.724 302.733 405.624 302.746 406.185C301.2 406.727 300.799 407.421 299.898 408.808C295.107 409.975 289.242 410.523 286.166 414.212L286.555 415.135C290.987 415.475 300.091 412.115 302.195 414.493C302.227 415.436 302.253 415.484 301.761 416.241C292.882 421.346 283.234 423.512 273.097 423.241C273.084 420.951 273.159 416.421 272.836 414.372C272.826 413.368 272.937 412.989 272.347 412.262L271.58 412.216L271.652 410.699Z" fill="#5069B8"/>
<path d="M348.299 366.091L348.925 366.143C350.171 367.474 351.717 376.434 351.981 378.594C349.095 381.066 341.665 386.719 338.038 387.299L337.548 386.924C336.501 383.594 334.058 375.169 332.427 372.67C338.191 371.176 342.947 368.648 348.299 366.091Z" fill="#907FBA"/>
<path d="M349.493 410.226L349.998 410.693C350.833 415.325 350.752 418.622 350.752 423.316H325.898L325.425 423.189C324.361 422.057 324.629 418.544 324.622 416.89C336.488 414.858 338.005 414.222 349.493 410.226Z" fill="#EFBFAB"/>
<path d="M338.749 340.587C340.001 341.135 340.667 341.696 341.792 342.374C347.591 345.868 345.83 347.91 342.77 352.568C341.531 354.456 343.615 359.633 344.267 361.557C342.111 363.064 333.305 369.255 331.152 367.683C331.299 364.835 336.368 360.872 338.475 358.964L338.729 358.227L338.38 357.842C336.11 357.855 332.085 361.179 330.017 362.669C329.678 361.329 329.391 359.903 329.091 358.546C331.818 354.916 335.493 352.391 338.282 348.947C338.745 348.379 338.563 348.079 338.403 347.525C336.488 346.197 331.853 346.814 329.335 346.918L327.355 343.77C332.496 344.765 335.304 344.88 338.749 340.587Z" fill="#A694C8"/>
<path d="M256.064 132.359C261.077 135.818 263.116 139.442 267.92 133.841C268.426 137.239 270.592 141.277 272.34 144.326C278.009 154.199 282.735 162.867 282.999 174.574C283.035 176.253 282.924 180.01 282.468 181.503L282.119 181.876L281.789 181.703C281.793 180.739 281.841 176.599 281.734 175.964C280.837 170.656 277.327 160.769 274.48 156.375L273.609 156.114C273.018 155.442 272.598 154.326 271.949 153.474L271.218 153.86C271.075 153.655 269.832 151.118 269.47 150.493C267.102 146.391 263.638 140.584 260.056 137.487C262.715 144.574 264.45 142.873 265.807 152.721L264.607 152.501C263.25 146.019 259.264 138.296 256.064 132.359Z" fill="#7C384B"/>
<path d="M255.761 122.96C254.619 122.602 253.151 121.953 252.44 120.972C252.903 119.244 266.665 109.359 268.945 113.883C268.86 115.185 268.886 115.462 268.227 116.57L267.911 117.444C269.333 119.082 271.375 118.3 271.12 122.483C271.042 123.754 270.797 125.173 270.602 126.459C266.518 129.424 265.921 130.022 261.12 131.502C259.192 130.808 258.377 130.589 256.752 129.385C255.705 127.152 255.32 126.067 256.919 124.126C256.455 123.664 255.989 123.518 255.389 123.253L255.761 122.96Z" fill="#99BAFE"/>
<path d="M255.761 122.96C254.619 122.602 253.151 121.953 252.44 120.972C252.903 119.244 266.665 109.359 268.945 113.883C268.86 115.185 268.886 115.462 268.227 116.57C268.11 115.949 268.204 116.152 267.793 115.68L266.903 116.36C266.156 116.493 265.569 116.526 264.933 116.929C263.86 120.06 259.623 122.448 256.919 124.126C256.455 123.664 255.989 123.518 255.389 123.253L255.761 122.96Z" fill="#99BAFE"/>
<path d="M264.933 116.929C263.86 120.06 259.623 122.448 256.919 124.126C256.456 123.664 255.989 123.518 255.389 123.253L255.761 122.96C259.809 121.817 261.948 119.497 264.933 116.929Z" fill="#1D1C22"/>
<path d="M264.933 116.929C265.569 116.526 266.156 116.493 266.903 116.36C267.51 118.574 267.901 118.368 265.843 119.808C263.579 122.7 257.773 126.967 257.004 129.129L256.752 129.385C255.705 127.152 255.321 126.067 256.919 124.126C259.623 122.448 263.86 120.06 264.933 116.929Z" fill="#AFCCFE"/>
<path d="M265.843 119.808C265.833 120.807 265.797 122.24 264.894 122.83C263.24 123.908 258.899 129.466 257.004 129.129C257.773 126.967 263.579 122.7 265.843 119.808Z" fill="#0C0A0B"/>
<path d="M305.857 200.208C307.501 201.068 317.88 207.137 318.963 208.028C320.437 214.905 320.18 219.219 320.848 225.901C318.689 222.273 317.857 214.496 316.768 213.34C313.917 210.312 297.315 210.174 293.222 208.045C293.062 206.986 295.006 205.007 295.727 203.361C299.905 203.12 305.27 204.515 310.675 204.437C308.555 203.354 307.028 202.599 304.781 201.719L305.857 200.208Z" fill="#BDABCD"/>
<path d="M144.654 367.875C148.257 370.103 165.713 379.321 169.44 379.941L170.171 379.748C170.195 379.36 170.281 378.861 169.9 378.548C167.403 376.64 163.833 375.87 160.975 374.513C150.976 369.77 141.21 363.795 135.098 354.287C134.04 352.643 131.849 349.544 132.3 347.522L132.684 347.332C133.529 347.959 139.059 355.418 141.139 357.633C145.705 362.493 167.332 374.709 172.945 374.947L173.655 374.523L173.633 375.103C172.883 376.209 170.242 380.414 169.573 380.909C166.325 380.202 150.422 372.171 146.713 369.973C145.889 369.487 145.19 368.681 144.654 367.875Z" fill="#A694C8"/>
<path d="M255.908 411.172C261.051 411.234 266.502 410.967 271.652 410.699L271.58 412.216L272.347 412.262C272.937 412.989 272.826 413.368 272.836 414.372C272.679 416.456 272.657 418.038 272.679 420.129C272.728 421.16 272.96 422.612 272.458 423.42L272.19 423.456C271.019 423.244 271.368 423.473 270.608 422.713C270.318 421.476 270.488 421.075 270.739 419.842C269.851 417.295 268.038 414.601 265.001 414.627C263.732 414.649 262.526 415.184 261.655 416.107C259.597 418.299 259.838 420.697 259.972 423.466L256.152 423.388C256.097 419.317 256.015 415.243 255.908 411.172Z" fill="#697BC6"/>
<path d="M271.58 412.216L272.347 412.262C272.937 412.989 272.826 413.368 272.836 414.372C272.679 416.457 272.657 418.039 272.679 420.129C272.728 421.16 272.96 422.612 272.458 423.42L272.19 423.456C271.019 423.244 271.368 423.473 270.608 422.713C270.318 421.476 270.488 421.075 270.739 419.842C271.649 418.042 270.569 415.396 271.398 413.423L271.58 412.216Z" fill="#5069B8"/>
<path d="M271.58 412.216L272.347 412.262C272.937 412.989 272.826 413.368 272.836 414.372C272.679 416.457 272.656 418.039 272.679 420.129L271.671 419.996C271.417 417.99 271.437 415.478 271.397 413.423L271.58 412.216Z" fill="#0C0A0B"/>
<path d="M271.672 419.996L272.679 420.129C272.728 421.16 272.96 422.612 272.458 423.42L272.19 423.456L271.672 419.996Z" fill="#1D1C22"/>
<path d="M97.0974 185.137C99.2325 184.358 100.491 183.211 102.509 182.813C103.12 182.693 103.689 183.563 104.197 184.115L105.483 183.828C106.987 185.538 108.27 187.154 109.67 188.936C110.14 189.767 110.669 190.658 111.102 191.5L110.884 192.576C111.327 193.473 111.777 194.426 112.253 195.301L113.534 198.761C114.17 200.895 115.676 203.648 116.667 205.723C118.612 209.795 120.032 213.227 121.031 217.618C118.082 212.463 115.817 206.602 112.355 201.731C108.184 195.864 103.576 188.64 97.0974 185.137Z" fill="#D4D0E1"/>
<path d="M104.197 184.115L105.483 183.828C106.987 185.538 108.27 187.154 109.67 188.936C110.14 189.767 110.669 190.658 111.102 191.5L110.884 192.576C108.921 189.33 106.732 186.893 104.197 184.115Z" fill="#2E1D1F"/>
<path d="M329.251 264.589C330.956 265.181 334.766 268.892 335.993 270.444C336.89 281.167 336.084 286.338 333.174 296.546C332.852 297.691 332.183 299.156 331.713 300.284C333.158 288.999 331.508 275.714 329.251 264.589Z" fill="#D4D0E1"/>
<path d="M116.713 71.0055C117.567 71.2038 125.289 74.0008 125.732 74.4284C125.262 75.4393 123.974 75.4797 122.896 75.6441C118.743 76.2769 114.4 78.3856 110.457 80.0198C107.395 81.1497 105.174 81.4922 102.016 81.9544C110.541 77.8184 110.269 74.2937 116.713 71.0055Z" fill="#692B41"/>
<path d="M302.38 404.137C304.236 403.187 306.076 402.209 307.899 401.198C308.287 405.187 308.666 410.582 309.426 414.402C308.219 415.605 306.732 417.181 305.473 418.277C303.9 413.302 303.388 411.316 302.746 406.185C302.733 405.624 302.504 404.724 302.38 404.137Z" fill="#697BC6"/>
<path d="M332.587 313.185C333.667 316.949 334.867 323.149 336.12 326.362C333.98 328.707 330.999 332.752 329.958 335.825L329.084 335.779C329.319 332.964 329.583 329.487 330.089 326.728C330.934 322.083 332.046 317.911 332.587 313.185Z" fill="#A694C8"/>
<path d="M159.113 97.2487C161.448 97.3341 163.274 97.4453 165.617 97.6949C165.833 99.8806 166.019 102.069 166.174 104.26L165.747 104.295C159.51 104.747 158.985 103.064 159.113 97.2487Z" fill="#008CC9"/>
<path d="M264.456 416.303C267.428 416.943 270.044 419.722 267.845 422.82C267.31 423.574 265.51 423.319 264.571 423.31C263.087 423.332 262.522 423.469 261.423 422.693C260.027 420.146 262.464 417.644 264.456 416.303Z" fill="#697BC6"/>
<path d="M157.306 30.2036L157.465 30.5229C157.246 31.5905 150.258 37.4804 148.694 39.9721C146.365 43.6824 146.326 43.0584 144.785 47.5861L144.345 47.0997C144.172 46.0185 144.516 45.4137 144.828 44.3869C147.362 36.055 149.987 33.9951 157.306 30.2036Z" fill="#7C384B"/>
<path d="M269.026 94.651L269.587 95.0522C271.048 98.6493 270.354 108.331 266.299 110.643C266.045 110.518 265.634 110.24 265.376 110.079C265.243 109.301 267.927 102.6 268.253 100.812C268.671 98.51 268.837 97.0673 269.026 94.651Z" fill="#7C384B"/>
<path d="M169.659 420.312C170.065 420.292 170.471 420.286 170.878 420.289C173.176 420.289 177.068 420.54 178.787 422.279L178.702 422.827C177.706 423.437 176.766 423.297 175.56 423.297C172.145 423.326 168.73 423.378 165.316 423.453C166.924 422.122 167.895 421.444 169.659 420.312Z" fill="#5069B8"/>
<path d="M201.137 420.619C208.469 422.194 212.08 419.908 218.284 423.16C217.07 423.606 203.306 423.359 201.669 423.042C201.01 421.995 201.205 421.94 201.137 420.619Z" fill="#5069B8"/>
<path d="M301.431 419.01C302.433 418.864 302.553 419.118 303.154 419.757C303.17 423.73 295.713 423.394 292.931 423.391C292.126 423.407 291.858 423.489 291.173 423.058C291.923 421.744 299.553 419.614 301.431 419.01Z" fill="#5069B8"/>
<path d="M271.042 85.4282C273.912 86.3148 281.359 95.1376 280.38 98.1962C278.488 96.5037 275.589 92.0096 273.423 90.0306C272.839 89.4999 270.911 87.5745 270.575 86.9029C270.432 86.6142 270.869 85.8363 271.042 85.4282Z" fill="#692B41"/>
<path d="M271.218 153.86L271.949 153.474C272.598 154.326 273.018 155.442 273.609 156.114C274.904 160.125 276.714 177.252 273.296 179.703C273.247 179.625 274.372 172.836 274.421 171.537C274.656 165.44 273.769 159.425 271.218 153.86Z" fill="#7C384B"/>
<path d="M270.403 134.13C272.389 134.81 280.194 144.03 282.419 146.343C278.456 145.727 271.988 137.674 270.403 134.13Z" fill="#A64B42"/>
<path d="M193.961 418.988C195.944 419.304 198.524 419.627 199.522 421.538C199.447 422.38 199.499 422.39 198.987 423.107C196.825 423.104 194.372 423.548 193.227 421.509C193.25 420.224 193.286 420.077 193.961 418.988Z" fill="#D40107"/>
<path d="M205.609 413.599C208.234 413.554 211.604 415.031 211.421 418.084C207.983 418.818 205.178 417.526 205.609 413.599Z" fill="#D40107"/>
<path d="M309.661 417.947C310.867 418.779 311.82 421.806 310.848 423.27L309.025 423.391C307.42 423.254 307.854 423.495 306.764 422.716C305.828 420.397 307.991 419.118 309.661 417.947Z" fill="#697BC6"/>
<path d="M205.393 66.0825C207.905 69.8352 209.836 71.9322 212.781 75.3342L212.611 76.0176C211.463 76.3229 211.894 76.2707 210.635 75.8783C208.378 73.9111 206.913 69.9474 205.263 67.6628L205.393 66.0825Z" fill="#EFBFAB"/>
<path d="M264.607 152.501L265.807 152.721C266.443 160.2 266.127 163.174 262.164 169.277C264.796 162.156 265.05 159.881 264.607 152.501Z" fill="#7C384B"/>
<path d="M298.359 198.487C301.203 198.825 303.196 199.162 305.857 200.208L304.781 201.719C302.508 200.651 300.551 199.729 298.359 198.487Z" fill="#D4D0E1"/>
<path d="M155.817 98.1392L156.443 98.4438C156.663 99.0404 157.808 102.792 157.693 103.312C155.49 102.201 154.583 100.354 155.817 98.1392Z" fill="#A8DAE0"/>
<path d="M326.393 346.794L326.749 347.104C327.006 347.815 326.98 353.168 327.033 354.59L326.534 354.606C325.959 353.406 326.282 348.33 326.393 346.794Z" fill="#65586E" fill-opacity="0.988235"/>
<path d="M202.605 61.7678C203.906 63.4584 204.385 64.202 205.393 66.0825L205.263 67.6628C204.059 65.3554 203.537 64.1962 202.605 61.7678Z" fill="#997F83"/>
<path d="M329.958 335.825C329.707 337.022 329.57 338.183 328.66 338.94C328.341 338.066 328.833 336.751 329.084 335.779L329.958 335.825Z" fill="#65586E"/>
<path d="M142.135 159.473C142.383 159.706 143.093 160.406 143.324 160.566L142.78 161.363L142.966 161.766L143.924 161.474C143.269 162.673 143.437 162.152 143.496 163.717C140.907 165.408 138.315 168.089 136.698 170.738C136.059 171.786 136.067 172.301 135.14 173.662L134.976 173.897C135.879 167.318 137.556 164.254 142.135 159.473Z" fill="#2E1D1F"/>
<path d="M157.423 153.284C157.985 154.402 157.91 153.888 157.569 155.271C151.779 155.809 148.031 156.831 143.324 160.566C143.093 160.406 142.383 159.706 142.135 159.473C146.858 155.408 151.356 153.931 157.423 153.284Z" fill="#0C0A0B"/>
<path d="M157.569 155.271C159.002 154.882 158.509 154.834 159.754 155.142L160.005 155.607L159.708 156.027C151.683 157.094 151.281 156.724 143.924 161.474L142.966 161.766L142.78 161.363L143.324 160.566C148.031 156.831 151.779 155.809 157.569 155.271Z" fill="#7C384B" fill-opacity="0.988235"/>
<path d="M290.945 149.304C292.931 150.381 297.145 151.671 298.346 152.471C296.183 152.614 290.606 151.573 288.091 151.33C290.342 151.118 290.178 151.41 290.945 149.304Z" fill="#0C0A0B" fill-opacity="0.972549"/>
<path d="M88.0113 135.745C87.1812 138.766 87.566 142.763 86.7457 144.135C85.7095 142.377 86.474 136.478 86.9316 134.446L88.0113 135.745Z" fill="#0C0A0B" fill-opacity="0.988235"/>
</svg>
