<svg width="399" height="438" viewBox="0 0 399 438" fill="none" xmlns="http://www.w3.org/2000/svg">
<path d="M180.012 6.86289C188.219 2.92798 196.83 1.13999 205.523 4.4376C211.314 6.63478 216.023 8.90228 220.679 13.108C225.418 9.90716 232.686 7.36905 238.263 9.47134C239.209 13.0697 239.086 15.8431 239.099 19.5145C246.38 14.2037 252.822 11.6357 262.031 13.1187C269.625 14.3412 276.089 17.8894 283.172 20.6085C289.393 22.9962 296.154 23.7657 302.294 26.4158C308.541 29.1125 327.467 48.2241 331.812 54.3225C336.176 60.4502 341.184 66.2583 343.398 73.5538C344.927 78.5982 346.189 84.1148 346.426 89.396C346.66 94.6924 345.519 100.005 345.789 105.206C346.286 114.799 352.104 123.926 362.1 125.527C364.588 125.925 366.465 125.142 368.877 124.911C366.842 128.334 351.938 129.783 348.179 129.235C349.083 136.616 350.354 148.807 348.039 155.858C347.346 156.929 346.634 158.003 346 159.108C344.927 162.076 344.504 164.065 342.803 166.779C338.335 173.085 332.917 175.242 325.467 176.917C325.09 177.002 324.713 177.034 324.326 177.021C322.108 177.577 317.786 177.705 316.163 175.88C316.593 175.163 328.472 174.406 334.013 160.51C331.526 159.172 330.898 158.627 329.207 156.356C328.43 160.154 321.926 169.837 318.134 170.27C314.732 170.659 307.003 174.236 304.297 174.393C304.811 173.391 309.448 172.056 310.791 170.327C312.811 167.728 314.407 163.505 315.516 160.421C316.843 156.488 317.051 151.32 316.934 147.168C311.939 159.44 302.726 165.474 292.089 172.386C290.388 173.493 288.44 174.43 286.593 175.266C294.418 176.13 300.951 184.228 303.767 183.809L303.786 183.579C303.855 182.842 303.838 182.677 304.144 181.979C306.742 181.223 310.976 182.809 312.853 184.761C315.487 187.573 316.986 190.599 317.997 194.316C318.196 196.212 318.911 198.298 319.464 200.147C314.869 208.538 312.827 210.519 310.45 219.997C313.37 223.281 314.889 225.663 319.249 226.612C320.667 228.746 322.378 231.574 324.251 233.244L324.44 233.414C325.796 234.625 327.776 235.381 329.467 236.084C331.945 236.865 332.472 237.45 334.199 239.34C335.256 241.259 336.043 242.669 336.885 244.713C337.587 246.225 342.673 259.636 342.29 259.368C351.223 265.632 360.055 274.077 365.626 283.525C370.497 291.785 368.247 304.521 365.226 313.151C361.307 323.847 354.888 329.62 346.302 336.303L344.881 336.397L344.608 336.875L345.353 337.669C344.924 338.478 345.239 338.228 344.41 338.488C343.795 338.241 343.255 338.02 342.65 337.74C342.582 338.306 342.517 338.056 342.712 338.537C343.054 342.238 344.241 343.493 342.982 346.475C343.33 347.698 347.574 351.923 349.337 355.738L350.484 356.046C353.938 351.978 362.848 344.3 368.585 349.025C370.38 350.502 372.035 353.207 373.716 354.973C365.235 355.682 363.791 363.874 361.642 370.74C365.72 375.078 367.164 378.925 368.461 384.597C369.879 384.708 373.138 384.818 373.908 385.904C375.472 388.106 379.82 399.098 380.178 401.391C380.871 405.827 379.781 409.795 381.853 414.81C384.458 421.115 388.776 427.939 392.249 433.831L392.519 434.02C392.477 432.765 392.207 431.051 392.535 429.952C393.667 430.573 395.163 434.856 395.137 436.043C393.053 435.012 391.501 435.438 389.199 435.685C390.135 436.518 393.901 436.586 395.202 436.511C396.373 436.697 397.111 436.784 398.239 437.197H203.824H151.706C152.74 436.872 152.794 436.81 153.679 436.153L153.99 435.955C157.38 436.01 160.871 435.926 164.269 435.88C170.183 431.142 176.742 431.087 181.853 425.955C181.827 425.581 181.81 425.203 181.802 424.826C181.607 417.284 189.065 409.174 193.982 404.074C197.203 402.803 202.856 403.977 206.235 404.588C209.378 399.586 215.697 392.379 219.515 387.026C220.777 384.594 219.827 382.971 219.733 380.301C219.694 379.189 220.029 375.228 219.678 374.6C217.629 370.941 216.13 369.11 215.271 364.896C208.467 368.61 198.433 368.847 191.159 366.658C186.493 365.253 182.205 363.139 177.429 362.073C180.426 349.217 182.681 353.581 189.028 344.095C189.587 343.259 190.402 338.595 190.661 337.213C191.617 329.002 191.507 322.423 196.373 315.59C194.081 312.185 191.257 309.274 189.367 305.85C189.162 305.479 188.789 302.723 188.704 302.112C187.952 302.081 187.245 302.658 186.485 303.066C181.07 305.968 183.376 319.961 183.735 324.39C180.614 329.441 177.72 331.558 173.15 335.239C170.546 337.337 169.9 338.693 166.705 340.342C164.127 345.845 163.206 346.492 159.005 350.29C157.448 350.095 155.324 349.734 154.097 350.518C153.535 351.666 153.73 355.575 153.707 357.188C149.145 350.95 147.243 347.968 147.032 339.913C147.004 338.849 147.132 338.504 146.531 337.968C145.937 338.878 146.008 342.101 145.966 343.357C145.754 342.134 145.869 341.705 145.51 340.29L145.052 340.378L144.36 341.425L143.724 342.183C137.842 335.548 132.521 327.431 124.082 323.736C120.953 322.364 117.995 322.673 114.67 322.777C111.766 323.375 106.294 323.252 103.565 321.775C103.128 317.726 103.337 317.492 106.12 314.617C103.129 312.334 92.4504 296.857 90.9818 293.408C94.0201 288.607 96.064 288.821 99.8737 284.887C101.065 283.657 102.646 280.941 103.586 279.387C107.693 278.461 110.852 277.256 114.834 276.179C115.74 271.295 116.599 262.431 117.581 258.569C119.91 256.747 124.467 254.336 127.088 252.929C124.878 242.324 127.467 226.974 131.017 216.809C133.704 209.115 136.624 203.669 144.016 199.438C145.415 198.637 147.473 198.605 149.069 197.712C156.305 193.665 164.171 190.439 171.551 186.87C168.768 187.093 166.867 187.994 164.266 187.294C160.668 186.327 151.519 181.669 149.733 178.597C145.852 173.759 142.357 163.794 141.774 157.636C141.146 150.995 141.234 134.482 143.994 128.516L143.559 127.75C138.042 136.365 134.12 144.12 134.256 154.694C134.325 160.031 134.994 162.572 139.117 166.043C130.173 163.215 126.466 160.671 121.478 151.951C118.647 147.003 118.529 141.762 119.624 136.228C115.202 142.053 107.849 151.145 109.126 158.789C110.43 166.595 114.967 174.353 123.111 176.064C125.459 177.252 126.418 175.946 127.135 176.983C100.085 188.097 73.4073 144.006 88.4912 121.485C90.096 119.089 91.6592 114.199 93.2936 111.297C99.9816 99.4269 102.379 91.0107 115.784 85.6144C117.931 84.75 130.962 76.9302 132.485 75.5932L132.782 75.3272C121.66 75.4514 112.13 70.6987 105.634 61.6457C106.635 62.234 109.24 63.7684 110.268 63.9528C113.97 64.6169 125.705 66.3467 128.649 66.1044C144.639 64.7896 157.915 42.2174 168.01 31.6502C163.121 34.0106 158.24 37.3297 153.307 39.6449C145.701 43.2148 138.36 46.7187 131.178 51.0925C129.988 51.8177 127.648 52.3927 126.247 52.7612C131.253 48.4127 137.075 43.6256 142.401 39.6937C147.006 36.2943 151.352 34.0249 155.785 30.1409C160.558 25.9466 165.083 21.4781 169.338 16.7583C171.346 14.55 174.905 10.1873 176.968 8.40916C178.002 8.01734 179.035 7.39995 180.012 6.86289ZM162.626 132.412C161.806 133.77 161.737 133.977 161.352 135.483C158.348 147.958 153.578 177.155 167.943 184.344C169.051 184.899 171.591 185.45 172.957 185.971C172.54 184.078 172.037 181.248 172.083 179.302C171.695 175.32 172.865 172.895 175.421 169.976C180.049 168.271 192.641 167.863 194.463 166.198C200.474 160.705 191.759 146.084 208.158 148.653L208.348 148.319C204.187 145.248 202.272 141.963 200.505 137.101C197.814 129.697 201.051 123.718 204.397 117.129C200.648 114.236 197.301 112.046 194.793 107.981C192.134 103.14 190.678 96.8372 189.952 91.3691C191.56 94.3539 195.234 102.637 199.589 101.883C197.047 91.732 196.101 82.0904 198.249 71.7846C189.559 80.6838 183.969 88.3325 178.444 99.7073C173.791 109.286 171.872 115.888 171.984 126.702C172.113 139.076 175.009 148.654 184.98 156.566C176.32 153.405 161.189 142.927 162.626 132.412ZM386.669 434.853C385.423 435.51 368.656 435.825 366.149 435.682C370.269 436.775 383.671 435.558 388.314 436.179L388.962 435.695C387.911 434.895 385.274 428.059 384.669 426.472C383.706 423.668 382.162 420.114 381.037 417.304C379.811 414.884 377.576 410.832 377.537 408.211C377.511 406.406 378.055 406.367 377.095 405.938C376.006 406.146 375.853 406.169 375.037 406.907C374.185 409.138 377.469 415.863 378.487 418.133C379.924 421.268 381.388 424.394 382.877 427.506C383.671 429.695 385.43 432.859 386.669 434.853ZM168.773 335.844C167.449 336.072 166.927 335.922 166.076 336.709L166.342 337.272C167.211 336.94 168.516 336.631 168.96 336.003L168.773 335.844ZM366.386 389.54C371.099 392.832 372.481 394.627 375.817 399.3C376.484 400.201 376.318 400.315 377.124 400.474C377.479 398.702 372.666 390.279 371.619 387.508L370.981 387.056L366.386 389.54ZM275.888 249.731C277.433 250.57 280.324 251.811 281.445 252.491L282.333 251.674C280.818 251.079 278.538 250.289 277.247 249.408L277.325 248.829L276.844 248.775C276.483 249.222 276.369 249.473 275.888 249.731Z" fill="#1E0304"/>
<path d="M384.669 426.472C385.274 428.059 387.911 434.895 388.962 435.695L388.314 436.179C387.56 435.936 387.222 435.441 386.669 434.853C385.43 432.859 383.671 429.695 382.877 427.506C383.885 427.223 384.064 427.252 384.669 426.472Z" fill="#97483C" fill-opacity="0.298039"/>
<path d="M386.669 434.853C387.222 435.441 387.56 435.936 388.314 436.179C383.671 435.558 370.269 436.775 366.149 435.682C368.656 435.825 385.423 435.51 386.669 434.853Z" fill="#40383D" fill-opacity="0.972549"/>
<path d="M180.012 6.86289C188.219 2.92798 196.83 1.13999 205.523 4.4376C211.314 6.63478 216.023 8.90228 220.679 13.108C225.418 9.90716 232.686 7.36905 238.263 9.47134C239.209 13.0697 239.086 15.8431 239.099 19.5145C246.38 14.2037 252.822 11.6357 262.031 13.1187C269.625 14.3412 276.089 17.8894 283.172 20.6085C289.393 22.9962 296.154 23.7657 302.294 26.4158C308.541 29.1125 327.467 48.2241 331.812 54.3225C336.176 60.4502 341.184 66.2583 343.398 73.5538C344.927 78.5982 346.189 84.1148 346.426 89.396C346.66 94.6924 345.519 100.005 345.789 105.206C346.286 114.799 352.104 123.926 362.1 125.527C364.588 125.925 366.465 125.142 368.877 124.911C366.842 128.334 351.938 129.783 348.179 129.235C349.083 136.616 350.354 148.807 348.039 155.858C347.346 156.929 346.634 158.003 346 159.108C344.927 162.076 344.504 164.065 342.803 166.779C338.335 173.085 332.917 175.242 325.467 176.917C325.09 177.002 324.713 177.034 324.326 177.021C322.108 177.577 317.786 177.705 316.163 175.88C316.593 175.163 328.472 174.406 334.013 160.51C331.526 159.172 330.898 158.627 329.207 156.356C328.43 160.154 321.926 169.837 318.134 170.27C314.732 170.659 307.003 174.236 304.297 174.393C304.811 173.391 309.448 172.056 310.791 170.327C312.811 167.728 314.407 163.505 315.516 160.421C316.843 156.488 317.051 151.32 316.934 147.168C311.939 159.44 302.726 165.474 292.089 172.386C290.388 173.493 288.44 174.43 286.593 175.266C294.418 176.13 300.951 184.228 303.767 183.809L303.786 183.579C303.855 182.842 303.838 182.677 304.144 181.979C306.742 181.223 310.976 182.809 312.853 184.761C315.487 187.573 316.986 190.599 317.997 194.316C318.196 196.212 318.911 198.298 319.464 200.147C314.869 208.538 312.827 210.519 310.45 219.997C313.37 223.281 314.889 225.663 319.249 226.612C320.667 228.746 322.378 231.574 324.251 233.244L324.44 233.414C325.796 234.625 327.776 235.381 329.467 236.084C331.945 236.865 332.472 237.45 334.199 239.34C335.256 241.259 336.043 242.669 336.885 244.713C337.587 246.225 342.673 259.636 342.29 259.368C351.223 265.632 360.055 274.077 365.626 283.525C370.497 291.785 368.247 304.521 365.226 313.151C361.307 323.847 354.888 329.62 346.302 336.303L344.881 336.397L344.608 336.875L345.353 337.669C344.924 338.478 345.239 338.228 344.41 338.488C343.795 338.241 343.255 338.02 342.65 337.74C342.582 338.306 342.517 338.056 342.712 338.537C342.66 339.571 342.644 339.688 342.345 340.674L341.844 340.761C340.956 339.76 339.333 337.392 340.673 336.329C346.221 332.049 351.447 326.384 355.385 320.637C357.915 316.949 362.178 304.144 361.229 300.073C360.686 299.606 360.383 299.506 359.746 299.213C362.221 294.277 362.087 290.203 358.839 285.633C350.904 274.468 340.41 265.483 329.262 257.682C328.387 256.409 323.444 253.258 322.996 252.155L323.314 251.438L323.971 251.293C325.721 251.627 330.355 255.181 331.955 256.437C330.898 253.329 329.942 250.587 328.57 247.613C327.854 246.06 324.94 240.863 324.856 239.567C322.966 242.062 321.409 241.096 319.236 239.781L318.901 240.4L318.101 240.582C316.258 240.228 315.116 239.16 314.063 237.699L313.36 238.251C314.719 242.656 319.399 246.234 318.004 248.879C317.438 248.371 316.745 247.628 316.196 247.073C316.29 243.487 305.686 235.373 305.994 227.401C305.838 228.108 305.669 228.813 305.494 229.516C304.32 228.246 305.92 212.955 305.673 210.168C304.944 202.003 298.008 197.856 292.089 193.414C289.901 191.771 287.907 189.94 285.94 188.127L286.284 187.239C285.914 186.86 285.078 186.323 284.603 185.996L284.145 184.57L284.567 184.485C284.096 183.199 283.006 181.751 283.237 180.907C286.831 181.138 291.998 185.046 295.686 185.815C290.239 182.979 288.011 181.236 282.076 179.955C281.663 178.653 281.312 178.29 281.075 176.824C279.371 178.077 276.197 180.925 274.571 181.363L274.668 180.125C262.584 182.299 240.139 155.326 234.705 146.375C239.183 145.538 240.077 149.249 244.051 149.339C244.38 149.346 244.763 148.578 245.017 148.2C246.305 147.39 246.376 148.006 247.706 147.653C247.895 146.884 247.859 147.159 247.378 146.254C244.24 144.922 237.765 142.369 235.411 140.235C228.156 135.707 222.621 127.001 222.367 118.369C221.993 117.5 221.688 115.179 221.518 114.143C225.2 110.406 227.024 100.787 226.64 95.6125C226.188 89.5472 223.044 89.0987 225.671 82.3216L225.411 81.4087C222.881 81.8839 219.538 92.8208 219.336 95.3855C218.091 93.7662 207.721 92.9379 206.449 94.0612L207.237 94.885C207.462 96.2554 207.679 96.1113 207.138 97.022C206.872 98.3693 207.284 105.09 207.704 106.18C208.196 109.527 208.663 111.262 210.032 114.362C207.96 115.531 206.082 115.715 204.397 117.129C200.648 114.236 197.301 112.046 194.793 107.981C192.134 103.14 190.678 96.8372 189.952 91.3691C191.56 94.3539 195.234 102.637 199.589 101.883C197.047 91.732 196.101 82.0904 198.249 71.7846C189.559 80.6838 183.969 88.3325 178.444 99.7073C173.791 109.286 171.872 115.888 171.984 126.702C172.113 139.076 175.009 148.654 184.98 156.566C176.32 153.405 161.189 142.927 162.626 132.412C161.806 133.77 161.737 133.977 161.352 135.483C158.348 147.958 153.578 177.155 167.943 184.344C169.051 184.899 171.591 185.45 172.957 185.971C172.54 184.078 172.037 181.248 172.083 179.302L172.74 179.855C173.018 181.655 173.647 184.703 173.011 186.315L172.361 186.502C169.154 184.915 168.921 186.457 165.553 183.507C161.059 179.57 154.288 179.565 150.59 174.065C146.277 167.649 144.473 160.415 142.333 153.126C140.148 160.919 149.725 176.09 149.733 178.597C145.852 173.759 142.357 163.794 141.774 157.636C141.146 150.995 141.234 134.482 143.994 128.516L143.559 127.75C138.042 136.365 134.12 144.12 134.256 154.694C134.325 160.031 134.994 162.572 139.117 166.043C130.173 163.215 126.466 160.671 121.478 151.951C118.647 147.003 118.529 141.762 119.624 136.228C115.202 142.053 107.849 151.145 109.126 158.789C110.43 166.595 114.967 174.353 123.111 176.064C125.459 177.252 126.418 175.946 127.135 176.983C100.085 188.097 73.4073 144.006 88.4912 121.485C90.096 119.089 91.6592 114.199 93.2936 111.297C99.9816 99.4269 102.379 91.0107 115.784 85.6144C117.931 84.75 130.962 76.9302 132.485 75.5932L132.782 75.3272C121.66 75.4514 112.13 70.6987 105.634 61.6457C106.635 62.234 109.24 63.7684 110.268 63.9528C113.97 64.6169 125.705 66.3467 128.649 66.1044C144.639 64.7896 157.915 42.2174 168.01 31.6502C163.121 34.0106 158.24 37.3297 153.307 39.6449C145.701 43.2148 138.36 46.7187 131.178 51.0925C129.988 51.8177 127.648 52.3927 126.247 52.7612C131.253 48.4127 137.075 43.6256 142.401 39.6937C147.006 36.2943 151.352 34.0249 155.785 30.1409C160.558 25.9466 165.083 21.4781 169.338 16.7583C171.346 14.55 174.905 10.1873 176.968 8.40916C178.002 8.01734 179.035 7.39995 180.012 6.86289Z" fill="#4F1F2F"/>
<path d="M180.012 6.86289C188.219 2.92798 196.83 1.13999 205.523 4.4376C211.314 6.63478 216.023 8.90228 220.679 13.108C225.418 9.90716 232.686 7.36905 238.263 9.47134C239.209 13.0697 239.086 15.8431 239.099 19.5145C246.38 14.2037 252.822 11.6357 262.031 13.1187C269.625 14.3412 276.089 17.8894 283.172 20.6085C289.393 22.9962 296.154 23.7657 302.294 26.4158C308.541 29.1125 327.467 48.2241 331.812 54.3225C336.176 60.4502 341.184 66.2583 343.398 73.5538C344.927 78.5982 346.189 84.1148 346.426 89.396C346.66 94.6924 345.519 100.005 345.789 105.206C346.286 114.799 352.104 123.926 362.1 125.527C364.588 125.925 366.465 125.142 368.877 124.911C366.842 128.334 351.938 129.783 348.179 129.235C349.083 136.616 350.354 148.807 348.039 155.858C347.346 156.929 346.634 158.003 346 159.108C346.078 157.907 346.198 157.204 345.841 156.032L345.181 155.873C347.886 142.095 346.82 140.308 344.748 126.792C341.122 103.151 337.551 79.7573 325.766 58.5094C333.018 66.0426 334.563 67.9699 340.485 76.684C335.467 61.2636 324.898 50.0573 311.107 42.018C313.243 42.2099 314.71 42.4971 316.788 42.9156C314.596 40.7637 310.863 36.3037 308.281 34.6574C293.016 24.9234 272.828 20.5412 254.932 19.4361C251.749 19.2393 246.311 20.1425 243.362 20.7148C247.811 21.1259 252.539 20.8306 256.796 22.1302L256.988 22.5019C253.209 24.2616 235.573 23.9481 233.489 26.2321C233.886 26.3313 237.964 25.6909 238.718 25.5839C249.7 24.0275 257.046 28.8969 265.878 34.7228C262.636 35.73 259.612 36.7788 256.272 37.4234L252.558 35.4236L252.305 36.852C249.869 37.5229 244.952 38.6553 242.656 39.7809C229.112 46.4175 219.021 62.2562 216.335 76.8144C215.899 79.1894 216.348 84.7926 216.338 87.3449C218.458 80.5641 220.8 72.6702 224.527 66.5994C226.52 63.3528 236.952 48.9581 239.557 48.711C239.443 49.2427 238.224 50.6281 237.71 51.0502C233.814 54.2409 222.91 71.4045 224.709 75.9233C226.179 75.3308 228.175 71.689 229.307 70.2262C231.466 67.4346 233.921 64.7821 236.045 61.9924L236.546 62.6113C234.347 65.6368 226.575 79.2483 225.671 82.3216L225.411 81.4087C222.881 81.8839 219.538 92.8208 219.336 95.3855C218.091 93.7662 207.721 92.9379 206.449 94.0612L207.237 94.885C207.462 96.2554 207.679 96.1113 207.138 97.022C206.872 98.3693 207.284 105.09 207.704 106.18C208.196 109.527 208.663 111.262 210.032 114.362C207.96 115.531 206.082 115.715 204.397 117.129C200.648 114.236 197.301 112.046 194.793 107.981C192.134 103.14 190.678 96.8372 189.952 91.3691C191.56 94.3539 195.234 102.637 199.589 101.883C197.047 91.732 196.101 82.0904 198.249 71.7846C189.559 80.6838 183.969 88.3325 178.444 99.7073C173.791 109.286 171.872 115.888 171.984 126.702C172.113 139.076 175.009 148.654 184.98 156.566C176.32 153.405 161.189 142.927 162.626 132.412C161.806 133.77 161.737 133.977 161.352 135.483C158.348 147.958 153.578 177.155 167.943 184.344C169.051 184.899 171.591 185.45 172.957 185.971C172.54 184.078 172.037 181.248 172.083 179.302L172.74 179.855C173.018 181.655 173.647 184.703 173.011 186.315L172.361 186.502C169.154 184.915 168.921 186.457 165.553 183.507C161.059 179.57 154.288 179.565 150.59 174.065C146.277 167.649 144.473 160.415 142.333 153.126C140.148 160.919 149.725 176.09 149.733 178.597C145.852 173.759 142.357 163.794 141.774 157.636C141.146 150.995 141.234 134.482 143.994 128.516L143.559 127.75C138.042 136.365 134.12 144.12 134.256 154.694C134.325 160.031 134.994 162.572 139.117 166.043C130.173 163.215 126.466 160.671 121.478 151.951C118.647 147.003 118.529 141.762 119.624 136.228C115.202 142.053 107.849 151.145 109.126 158.789C110.43 166.595 114.967 174.353 123.111 176.064C125.459 177.252 126.418 175.946 127.135 176.983C100.085 188.097 73.4073 144.006 88.4912 121.485C90.096 119.089 91.6592 114.199 93.2936 111.297C99.9816 99.4269 102.379 91.0107 115.784 85.6144C117.931 84.75 130.962 76.9302 132.485 75.5932L132.782 75.3272C121.66 75.4514 112.13 70.6987 105.634 61.6457C106.635 62.234 109.24 63.7684 110.268 63.9528C113.97 64.6169 125.705 66.3467 128.649 66.1044C144.639 64.7896 157.915 42.2174 168.01 31.6502C163.121 34.0106 158.24 37.3297 153.307 39.6449C145.701 43.2148 138.36 46.7187 131.178 51.0925C129.988 51.8177 127.648 52.3927 126.247 52.7612C131.253 48.4127 137.075 43.6256 142.401 39.6937C147.006 36.2943 151.352 34.0249 155.785 30.1409C160.558 25.9466 165.083 21.4781 169.338 16.7583C171.346 14.55 174.905 10.1873 176.968 8.40916C178.002 8.01734 179.035 7.39995 180.012 6.86289Z" fill="#180404"/>
<path d="M189.952 91.3691C191.56 94.3539 195.234 102.637 199.589 101.883C200.526 102.782 202.226 104.051 202.481 105.069C200.811 106.321 197.747 102.821 195.767 103.215C195.008 103.911 194.76 104.009 194.579 104.958L194.816 105.858L194.791 105.051C195.223 106.319 195.073 106.691 194.793 107.981C192.134 103.14 190.678 96.8372 189.952 91.3691Z" fill="#020000"/>
<path d="M161.353 135.483C160.445 133.612 160.299 128.34 163.124 127.979L163.645 128.55C163.899 129.717 163.293 131.46 162.626 132.412C161.806 133.77 161.737 133.977 161.353 135.483Z" fill="#020000"/>
<path d="M143.559 127.75C143.292 125.505 146.735 122.154 148.257 120.67C147.36 122.673 145.571 127.232 143.994 128.516L143.559 127.75Z" fill="#020000"/>
<path d="M252.305 36.852C250.337 34.502 248.045 34.6682 245.918 33.4512C243.859 32.2736 242.279 33.1767 241.242 32.552C243.544 31.6225 250.451 34.1566 252.558 35.4236L252.305 36.852Z" fill="#24060A"/>
<path d="M122.404 70.7586C135.224 69.033 143.67 64.0907 153.131 55.2787C155.892 52.7069 158.227 49.1132 160.937 46.5889C166.682 41.2769 172.303 35.7368 177.243 29.6491C187.421 17.1053 203.067 14.4811 215.964 24.7251C208.943 22.1572 203.16 23.0515 196.298 25.5179C186.943 28.88 178.497 36.7053 172.365 44.33C170.919 46.1291 169.101 48.1789 168.126 50.2505C172.14 46.3408 173.775 44.5911 178.605 41.5992C181.007 37.1483 201.446 26.6672 203.823 31.335C203.383 31.7829 203.761 31.6128 203.136 31.6713C194.451 32.4808 186.235 36.4656 179.236 41.5205C179.168 41.5933 179.101 41.6665 179.033 41.7393C179.768 41.6635 184.165 40.3162 185.06 40.0697C195.835 37.1008 198.746 35.0471 209.581 38.4449C199.241 55.678 185.989 62.6796 167.828 70.807C161.139 73.7018 153.3 76.4108 147.155 80.3244C132.797 89.4675 121.732 101.036 114.883 116.764C114.444 117.773 112.595 122.832 112.193 123.355C102.53 135.922 96.3239 145.13 96.2692 161.472C90.8495 154.158 85.0724 139.512 88.0775 130.893C92.2355 119.285 98.6181 105.985 105.733 95.9601C111.302 88.113 150.079 73.5896 152.018 66.2368L151.986 66.8069L152.081 66.2904C150.399 65.6322 148.413 66.7617 146.848 67.5484C137.536 72.2315 132.467 72.1108 122.404 70.7586Z" fill="#7E1824"/>
<path d="M193.627 6.10042C204.211 4.73991 212.741 11.0175 221.678 16.1293C225.567 14.9554 229.271 14.5902 233.3 14.445C233.668 15.9134 233.967 17.969 234.234 19.5047L230.146 21.6879C228.094 22.8453 226.182 24.2132 224.24 25.5508C220.065 18.3756 208.101 11.2739 200.367 8.26498C197.715 7.23314 194.068 7.29441 191.263 6.61969L191.363 6.45818L193.627 6.10042Z" fill="#4A2031"/>
<path d="M127.054 102.728C127.508 103.129 127.336 102.892 127.483 103.501C122.934 109.337 119.472 117.151 115.623 121.77L115.424 121.629C115.306 119.759 125.4 104.905 127.054 102.728Z" fill="#46070B"/>
<path d="M347.06 120.057C347.792 120.494 352.562 125.957 352.992 126.772C350.241 125.589 347.987 122.883 347.06 120.057Z" fill="#24060A"/>
<path d="M284.714 55.3561L284.652 55.6523C283.998 58.7942 282.463 62.4435 281.712 65.6078C278.112 80.7758 275.133 91.1626 282.857 105.536C280.652 94.7724 280.011 80.6357 284.759 70.5257L285.091 70.3218C284.528 76.7442 282.486 80.5924 282.577 87.9368C282.714 99.0936 292.105 112.463 286.073 122.676L285.374 122.497C282.824 126.065 280.548 131.145 277.992 135.041C275 139.608 273.407 140.663 270.07 144.257C277.407 140.518 284.867 134.941 289.79 128.307C289.471 133.59 289.065 139.195 288.788 144.449C288.398 151.854 285.497 150.641 281.751 155.164C297.035 149.271 286.349 135.516 293.517 131.444C295.279 131.938 296.769 132.397 298.495 133C304.677 134.661 311.308 133.552 316.368 129.544C315.015 144.58 306.157 156.564 295.696 166.68C291.891 170.359 287.715 172.671 283.039 174.989L281.075 176.824C279.371 178.077 276.197 180.925 274.571 181.363L274.668 180.125C262.584 182.299 240.139 155.326 234.705 146.375C239.183 145.538 240.077 149.249 244.051 149.339C244.38 149.346 244.763 148.578 245.017 148.2C246.305 147.39 246.376 148.006 247.706 147.653C247.895 146.884 247.859 147.159 247.378 146.254C244.24 144.922 237.765 142.369 235.411 140.235C236.627 138.808 235.479 137.98 236.803 136.089C235.154 133.312 233.281 130.144 232.185 127.109C229.723 120.29 229.749 109.841 231.466 102.828C233.534 93.9308 236.995 86.3019 242.803 79.2642C244.845 76.791 249.941 70.6256 253.079 70.2733C253.765 73.2988 253.992 71.9079 256.113 73.4796C258.253 72.3498 260.353 71.1547 262.422 69.8955C262.383 70.3508 253.885 79.2938 252.292 81.7047C257.866 78.6473 262.431 74.7646 267.735 71.6132C265.94 74.4192 262.796 79.7722 260.496 81.8299C250.041 91.1834 237.255 98.0187 234.66 113.338L234.081 119.076C239.125 108.401 246.728 99.1365 256.21 92.1041L257.537 91.0341C266.145 83.5707 273.205 76.8694 278.837 66.7483C280.971 62.9102 282.701 59.1468 284.714 55.3561Z" fill="#1E0304"/>
<path d="M276.613 77.6613C276.538 83.5899 275.735 87.6967 276.558 93.9347C276.86 96.2128 278.291 103.814 278.057 105.073L277.494 105.389C276.698 102.526 276.62 89.9554 274.597 88.3625C273.582 88.182 274.031 88.0948 273.195 88.4877C272.733 90.5551 273.426 96.4993 274.054 98.6279L273.69 99.4094C272.356 93.1477 272.47 94.8492 272.376 87.94C269.293 90.1567 265.608 93.9484 262.142 96.5842C261.508 95.4821 257.622 93.2065 256.21 92.1041L257.537 91.0341C262.532 90.6269 272.942 81.3798 276.613 77.6613Z" fill="#300607"/>
<path d="M272.376 87.94C272.47 94.8492 272.356 93.1477 273.69 99.4093C273.725 101.341 275.95 106.475 276.824 108.196C274.285 107.85 270.142 103.975 268.145 102.261C266.278 100.159 264.034 98.6929 262.142 96.5842C265.608 93.9483 269.293 90.1567 272.376 87.94Z" fill="#4E1518"/>
<path d="M256.21 92.1041C257.622 93.2065 261.508 95.4821 262.142 96.5842C264.035 98.6929 266.278 100.159 268.145 102.261L267.901 102.905C264.467 99.8533 259.927 94.7598 255.84 93.1408C248.76 98.8734 242.588 105.594 237.603 113.376C236.201 115.562 235.258 120.07 234.029 121.886C232.247 120.986 232.962 113.356 234.162 111.978C234.601 112.346 234.51 112.62 234.66 113.338L234.081 119.076C239.125 108.401 246.728 99.1365 256.21 92.1041Z" fill="#180404"/>
<path d="M236.803 136.089C237.674 137.194 238.39 138.043 239.333 139.042C240.757 140.557 246.994 144.772 247.378 146.254C244.24 144.922 237.765 142.369 235.411 140.235C236.627 138.808 235.479 137.98 236.803 136.089Z" fill="#46070B"/>
<path d="M276.825 108.196C280.08 108.552 284.028 120.242 282.558 122.895L282.115 122.71L282.041 122.477C281.576 119.346 281.367 116.845 280.063 113.936C278.096 112.758 275.244 111.694 274.613 109.786C275.215 108.699 275.602 108.496 276.825 108.196Z" fill="#020000"/>
<path d="M253.079 70.2733C253.765 73.2988 253.992 71.9079 256.113 73.4796C253.576 74.9395 251.365 76.1728 248.747 77.4752C251.043 74.7864 253.105 74.1798 253.079 70.2733Z" fill="#4A2031"/>
<path d="M274.668 180.125C276.34 179.145 281.933 174.934 283.039 174.989L281.075 176.824C279.371 178.077 276.197 180.925 274.571 181.363L274.668 180.125Z" fill="#7A4335"/>
<path d="M272.408 125.998C264.594 123.842 261.453 125.641 253.918 125.019C251.254 124.63 249.68 122.955 248.087 121.169C246.269 119.136 244.721 110.316 246.741 109.016C248.715 110.16 249.411 114.133 251.173 116.495L251.193 116.263C251.485 111.848 249.846 112.114 255.215 111.162C254.884 112.488 254.386 113.958 254.604 115.28L255.277 115.682C257.192 114.099 258.594 111.647 260.675 111.782C263.293 113.092 262.519 115.988 261.729 118.183C263.365 116.537 264.226 114.705 265.176 112.629C269.553 117.043 270.47 120.102 272.408 125.998Z" fill="#FCEDD0"/>
<path d="M251.173 116.495L251.193 116.263C251.485 111.848 249.846 112.114 255.215 111.162C254.884 112.488 254.386 113.958 254.604 115.28L255.277 115.682C257.192 114.099 258.594 111.647 260.675 111.782C263.293 113.092 262.519 115.988 261.729 118.183C259.339 122.44 252.705 121.904 251.173 116.495Z" fill="#FEC84B"/>
<path d="M266.155 157.881C266.438 157.871 286.044 162.056 286.632 162.365C283.439 163.4 269.108 159.665 266.155 157.881Z" fill="#020000"/>
<path d="M257.505 99.7447C255.531 99.3297 253.228 97.6256 254.568 95.5009C256.295 95.3351 258.028 96.9367 258.643 98.4435L259.566 98.7817C258.679 99.4152 258.568 99.4207 257.505 99.7447Z" fill="#300607"/>
<path d="M259.566 98.7817C259.853 98.7914 260.197 98.8032 260.607 98.8171C262.464 100.456 264.662 102.216 266.623 103.645C264.913 102.995 258.402 100.742 257.505 99.7447C258.568 99.4207 258.679 99.4152 259.566 98.7817Z" fill="#4A2031"/>
<path d="M308.899 66.9682C309.79 72.4087 311.825 77.4424 313.028 82.6718C315.718 94.3467 322.365 103.528 327.516 114.116C330.878 121.032 332.316 128.501 335.008 135.636C334.056 112.038 321.591 99.9918 315.776 77.7718C321.643 87.9036 327.405 101.33 331.779 112.268C334.238 118.415 337.425 130.174 338.475 136.59C340.026 146.108 338.28 158.586 334.579 167.432C334 168.809 331.171 172.442 331.48 173.334C330.94 173.791 330.784 173.896 330.209 174.255C330.543 174.442 330.368 174.395 330.732 174.408C328.131 175.843 327.135 175.815 324.397 176.583L324.326 177.021C322.108 177.577 317.786 177.705 316.163 175.88C316.593 175.163 328.472 174.406 334.013 160.51C331.526 159.172 330.898 158.627 329.207 156.356C328.43 160.154 321.926 169.837 318.134 170.27C314.732 170.659 307.003 174.236 304.297 174.393C304.811 173.391 309.448 172.056 310.791 170.327C312.811 167.728 314.407 163.505 315.516 160.421C316.843 156.488 317.051 151.32 316.934 147.168C311.939 159.44 302.726 165.474 292.089 172.386C290.388 173.493 288.44 174.43 286.593 175.266C294.418 176.13 300.951 184.228 303.767 183.809L303.786 183.579C303.855 182.842 303.838 182.677 304.144 181.979C306.742 181.223 310.976 182.809 312.853 184.761C315.487 187.573 316.986 190.599 317.997 194.316C318.196 196.212 318.911 198.298 319.464 200.147C314.869 208.538 312.827 210.519 310.45 219.997C313.37 223.281 314.889 225.663 319.249 226.612C320.667 228.746 322.378 231.574 324.251 233.244L324.44 233.414C325.796 234.625 327.776 235.381 329.467 236.084C331.945 236.865 332.472 237.45 334.199 239.34C335.256 241.259 336.043 242.669 336.885 244.713C337.587 246.225 342.673 259.636 342.29 259.368C351.223 265.632 360.055 274.077 365.626 283.525C370.497 291.785 368.247 304.521 365.226 313.151C361.307 323.847 354.888 329.62 346.302 336.303L344.881 336.397L344.608 336.875L345.353 337.669C344.924 338.478 345.239 338.228 344.41 338.488C343.795 338.241 343.255 338.02 342.651 337.74C342.582 338.306 342.517 338.056 342.712 338.537C342.66 339.571 342.644 339.688 342.345 340.674L341.844 340.761C340.956 339.76 339.334 337.392 340.673 336.329C346.221 332.049 351.447 326.384 355.385 320.637C357.915 316.949 362.178 304.144 361.229 300.073C360.686 299.606 360.383 299.506 359.746 299.213C362.221 294.277 362.087 290.203 358.839 285.633C350.904 274.468 340.41 265.483 329.262 257.682C328.387 256.409 323.444 253.258 322.996 252.155L323.314 251.438L323.971 251.293C325.721 251.627 330.355 255.181 331.955 256.437C330.898 253.329 329.942 250.587 328.57 247.613C327.854 246.06 324.94 240.863 324.856 239.567C322.966 242.062 321.409 241.096 319.236 239.781L318.902 240.4L318.102 240.582C316.258 240.228 315.116 239.16 314.063 237.699L313.36 238.251C314.72 242.656 319.399 246.234 318.004 248.879C317.438 248.371 316.745 247.628 316.196 247.073C316.29 243.487 305.686 235.373 305.995 227.401C305.838 228.108 305.669 228.813 305.494 229.516C304.32 228.246 305.92 212.955 305.673 210.168C304.944 202.003 298.008 197.856 292.089 193.414C289.901 191.771 287.907 189.94 285.94 188.127L286.284 187.239C285.914 186.86 285.078 186.323 284.603 185.996L284.145 184.57L284.567 184.485C284.096 183.199 283.006 181.751 283.237 180.907C286.831 181.138 291.998 185.046 295.686 185.815C290.239 182.979 288.011 181.236 282.076 179.955C281.663 178.653 281.312 178.29 281.075 176.824L283.039 174.989C287.715 172.671 291.891 170.359 295.696 166.68C306.157 156.564 315.015 144.58 316.368 129.544C311.308 133.552 304.677 134.661 298.496 133C296.769 132.397 295.279 131.938 293.517 131.444C286.349 135.516 297.035 149.271 281.751 155.164C285.497 150.641 288.398 151.854 288.788 144.449C289.065 139.195 289.471 133.59 289.79 128.307C284.867 134.941 277.407 140.518 270.07 144.257C273.407 140.663 275 139.608 277.992 135.041C280.548 131.145 282.824 126.065 285.374 122.497L286.073 122.676C284.896 126.519 282.919 129.702 281.289 133.328C286.98 126.818 293.114 120.322 297.904 113.095C306.801 99.6598 307.09 82.5883 308.899 66.9682Z" fill="#0B0101"/>
<path d="M286.284 187.239C292.499 191.431 303.705 196.754 311.165 197.375C308.941 194.068 307.133 192.555 304.173 190.017L305.055 189.635C308.892 192.411 312.45 195.158 314.349 199.628C311.611 209.541 306.977 215.95 305.995 227.401C305.838 228.108 305.669 228.813 305.494 229.516C304.32 228.246 305.92 212.955 305.673 210.168C304.944 202.003 298.008 197.856 292.089 193.414C289.901 191.771 287.907 189.94 285.94 188.127L286.284 187.239Z" fill="#4A2031"/>
<path d="M310.954 119.758C313.942 119.728 314.876 119.787 317.773 120.341C317.721 122.235 317.692 123.49 317.389 125.37C317.253 126.216 316.371 129.182 316.368 129.544C311.308 133.552 304.677 134.661 298.495 133C298.417 131.371 298.239 130.324 299.276 129.094L301.773 129.382C304.082 129.371 305.217 129.505 307.116 128.086C307.474 127.726 307.812 127.237 308.128 126.826C309.799 124.288 310.193 122.711 310.954 119.758Z" fill="#FCEDD0"/>
<path d="M315.516 160.421C316.121 161.502 316.199 162.509 316.68 163.8C320.235 165.514 326.267 155.274 328.261 152.551L328.524 152.622C328.817 153.56 329.041 155.326 329.207 156.356C328.43 160.154 321.926 169.837 318.134 170.27C314.732 170.659 307.003 174.236 304.297 174.393C304.811 173.391 309.448 172.056 310.791 170.327C312.811 167.728 314.407 163.505 315.516 160.421Z" fill="#020000"/>
<path d="M329.467 236.084C331.945 236.865 332.472 237.45 334.199 239.34C335.256 241.259 336.042 242.669 336.885 244.713L336.621 245.281C336.338 245.439 335.164 246.164 335.158 246.502C335.116 250.02 334.93 251.704 333.623 255.038C332.241 252.605 325.412 237.974 326.339 236.332L327.012 236.591C328.726 236.653 328.121 236.832 329.467 236.084Z" fill="#24060A"/>
<path d="M329.467 236.084C331.945 236.865 332.472 237.45 334.199 239.34C330.121 239.001 330.524 238.457 327.012 236.591C328.726 236.653 328.121 236.832 329.467 236.084Z" fill="#020000"/>
<path d="M317.997 194.316L317.633 194.746C314.98 194.786 309.038 190.153 308.242 187.573C308.407 185.862 309.708 184.766 311.435 184.818L311.279 184.695L311.35 184.574C312.306 184.94 311.972 184.964 312.853 184.761C315.487 187.573 316.986 190.599 317.997 194.316Z" fill="#24060A"/>
<path d="M298.762 126.728L300.017 126.788L300.437 126.309C300.3 125.552 300.19 124.79 300.105 124.026C300.671 123.315 300.401 123.535 301.517 123.342C302.248 123.986 301.757 124.504 302.001 126.018L302.554 126.095C303.822 126.006 306.437 125.613 307.37 126.34C307.37 127.18 307.487 126.788 306.879 127.508L307.116 128.086C305.217 129.505 304.082 129.371 301.773 129.382L299.276 129.094C298.648 128.421 298.632 128.455 298.304 127.615L298.762 126.728Z" fill="#FEC84B"/>
<path d="M302.554 126.095C304.027 123.806 302.983 122.907 305.523 120.791C307.581 120.512 308.011 121.738 308.899 123.431C308.674 124.295 308.151 126.022 308.128 126.826C307.812 127.237 307.474 127.726 307.116 128.086L306.879 127.508C307.487 126.788 307.37 127.18 307.37 126.34C306.437 125.613 303.822 126.006 302.554 126.095Z" fill="#F18544"/>
<path d="M296.512 124.904C297.653 125.601 297.842 125.757 298.762 126.728L298.304 127.615C298.632 128.455 298.648 128.421 299.276 129.094C298.239 130.324 298.417 131.371 298.495 133C296.769 132.397 295.279 131.938 293.517 131.444C294.818 129.333 295.595 127.195 296.512 124.904Z" fill="#F9E7B7"/>
<path d="M304.173 190.017C300.2 187.134 296.19 184.266 291.852 181.94C290.606 181.272 286.681 179.665 286.067 178.791C290.021 179.066 301.777 186.879 305.055 189.635L304.173 190.017Z" fill="#24060A"/>
<path d="M319.236 239.781L318.573 238.168L318.823 237.632C320.423 237.314 323.731 238.422 324.856 239.567C322.966 242.062 321.409 241.096 319.236 239.781Z" fill="#46070B"/>
<path d="M311.243 229.242C315.23 233.657 313.978 232.19 314.056 237.393L314.063 237.699L313.36 238.251C312.843 235.467 311.929 232.034 311.243 229.242Z" fill="#4A2031"/>
<path d="M309.224 84.3064C312.154 88.6047 313.041 91.3717 315.354 95.9201C317.113 99.3733 319.119 102.144 320.755 105.913C319.75 106.139 316.462 106.942 315.584 106.959C315.389 105.898 313.409 103.901 312.469 103.287C313.028 102.255 312.866 102.622 312.823 101.315C310.843 97.379 307.848 101.055 307.692 95.7725C307.565 91.3235 307.965 88.5498 309.224 84.3064Z" fill="#300607"/>
<path d="M301.5 113.215C302.664 111.007 305.92 104.452 307.474 102.786C308.833 104.197 307.903 104.084 309.51 104.717C310.716 104.656 311.165 104.234 312.124 103.539L312.469 103.287C313.409 103.901 315.389 105.898 315.584 106.959C313.754 107.469 303.975 112.134 301.5 113.215Z" fill="#4E1518"/>
<path d="M316.394 109.41C316.667 107.841 319.015 107.173 320.114 107.493C324.355 108.73 320.55 115.637 319.448 117.999C319.116 116.765 318.713 114.28 317.5 113.725C318.345 112.493 317.467 110.223 316.394 109.41Z" fill="#300607"/>
<path d="M316.394 109.41C317.467 110.223 318.345 112.493 317.5 113.725C313.832 113.154 311.448 114.048 307.933 115.017C310.183 113.16 313.802 111.197 316.394 109.41Z" fill="#D13A23"/>
<path d="M315.23 227.434C317.419 228.12 321.093 231.207 321.783 233.461C320.017 232.739 315.682 229.274 315.23 227.434Z" fill="#180404"/>
<path d="M304.58 184.014L305.321 184.37C306.18 185.749 306.313 186.045 306.827 187.572C305.204 186.298 304.398 186.111 304.58 184.014Z" fill="#300607"/>
<path d="M225.967 129.544C228.354 129.628 231.476 129.568 231.291 128.522C230.195 122.402 228.13 107.351 231.226 101.836C231.606 102.39 231.476 102.081 231.466 102.828C229.749 109.841 229.723 120.29 232.185 127.109C233.281 130.144 235.154 133.312 236.803 136.089C235.479 137.98 236.627 138.808 235.411 140.235C228.156 135.707 222.621 127.001 222.367 118.369C223.84 121.838 223.678 124.808 225.967 129.544Z" fill="#7E1824"/>
<path d="M345.18 155.873L345.841 156.032C346.198 157.204 346.078 157.907 346 159.108C344.927 162.076 344.504 164.065 342.803 166.779C338.335 173.085 332.917 175.242 325.467 176.917C325.09 177.002 324.713 177.034 324.326 177.021L324.397 176.583C327.135 175.815 328.13 175.843 330.732 174.408C330.368 174.395 330.543 174.442 330.208 174.255C330.784 173.896 330.94 173.791 331.48 173.334C338.651 167.679 342.299 165.167 345.18 155.873Z" fill="#020000"/>
<path d="M236.045 61.9924C236.981 60.755 238.406 58.6843 239.82 58.2381C239.681 59.1936 237.277 61.8148 236.546 62.6113L236.045 61.9924Z" fill="#24060A"/>
<path d="M301.331 74.2237L301.634 74.6143C302.921 85.5962 300.772 102.802 296.401 112.957C295.133 115.906 292.648 119.345 290.71 121.984C291.553 118.55 293.276 114.102 294.463 110.621C291.777 113.608 291.361 114.664 289.881 118.284C290.04 117.118 290.193 115.959 290.232 114.783C290.44 108.643 292.008 102.658 293.24 96.6372C294.391 89.6067 294.606 84.9376 298.599 78.9374C296.622 90.2978 300.199 100.819 294.174 111.522L294.801 111.174C300.694 102.698 300.882 84.3818 301.331 74.2237Z" fill="#020000"/>
<path d="M277.098 24.6685C278.86 24.9029 293.393 35.3459 295.361 37.3701C295.601 37.6192 294.749 39.2478 294.577 39.6261C295.53 39.8765 300.186 39.4313 302.118 39.5968C302.069 39.6349 295.328 41.1972 294.622 41.3774C300.304 46.8608 303.107 51.0697 304.697 58.8203L304.365 59.0837C299.539 49.6941 293.868 39.7724 284.258 34.8057C280.59 32.9094 277.459 31.8528 273.732 30.2316C277.504 30.8059 280.089 31.6492 283.699 32.7868C281.621 30.8632 278.486 27.1603 277.098 24.6685Z" fill="#020000"/>
<path d="M219.336 95.3855C219.538 92.8208 222.881 81.8839 225.411 81.4087L225.671 82.3216C223.044 89.0987 226.188 89.5472 226.64 95.6125C227.024 100.787 225.2 110.406 221.518 114.143C221.688 115.179 221.993 117.5 222.367 118.369C222.621 127.001 228.156 135.707 235.411 140.235C237.765 142.369 244.24 144.922 247.378 146.254C247.859 147.159 247.895 146.884 247.706 147.653C246.376 148.006 246.305 147.39 245.017 148.2C244.763 148.578 244.38 149.346 244.051 149.339C240.077 149.249 239.183 145.538 234.705 146.375C240.139 155.326 262.584 182.299 274.668 180.125L274.571 181.363C276.197 180.925 279.371 178.077 281.075 176.824C281.312 178.29 281.663 178.653 282.076 179.955C288.011 181.236 290.239 182.979 295.686 185.815C291.998 185.046 286.831 181.138 283.237 180.907C283.006 181.751 284.096 183.199 284.567 184.485L284.145 184.57L284.603 185.996C285.078 186.323 285.914 186.86 286.284 187.239L285.94 188.127C287.907 189.94 289.901 191.771 292.089 193.414C298.008 197.856 304.944 202.003 305.673 210.168C305.92 212.955 304.32 228.246 305.494 229.516C305.669 228.813 305.838 228.108 305.994 227.401C305.686 235.373 316.29 243.487 316.196 247.073C315.919 248.432 316.475 248.852 317.236 250.006C319.045 252.743 321.542 256.332 322.83 259.338C326.023 266.797 324.456 285.129 319.916 291.86L319.617 291.223C319.402 291.593 319.184 291.961 318.966 292.328L318.81 291.123L318.18 290.973C317.344 290.221 316.29 288.594 315.601 287.629C312.495 283.264 310.505 280.829 305.659 278.421C304.544 279.108 304.274 278.486 303.51 277.773L302.986 277.87C303.064 277.909 300.024 275.273 299.65 274.974C296.118 272.148 293.458 270.143 289.374 268.147C282.587 264.829 275.663 261.78 268.922 258.35C266.747 257.242 264.21 256.02 262.174 254.64C261.391 254.106 261.391 253.836 261.296 253.105L261.683 252.718C262.743 252.618 263.026 252.557 263.904 251.951C261.091 250.84 260.103 249.619 261.244 246.358C260.792 245.869 260.61 245.841 260.012 245.555C258.409 242.771 258.282 240.574 257.417 237.599C256.415 234.037 257.228 223.175 257.693 219.225C257.784 215.788 258.327 216.771 259.218 214.139C260.353 210.735 261.68 206.911 263.039 203.603C265.638 197.276 268.659 193.61 269.208 186.542C268.948 186.195 268.392 185.493 267.96 185.411C261.804 184.257 256.149 182.378 250.425 179.813C248.9 179.13 246.471 177.827 244.893 178.47C243.817 178.205 239.661 176.18 238.62 175.574C235.079 174.119 229.938 172.185 226.793 170.211C222.77 167.685 218.237 164.148 214.299 161.278C211.141 159.094 209.019 157.103 207.189 153.727L209.495 151.669L209.4 151.153C210.81 150.518 211.031 150.594 211.974 149.276C210.959 148.514 210.602 147.817 209.901 146.768C209.268 147.522 209.105 147.695 208.348 148.319C204.187 145.248 202.272 141.963 200.505 137.101C197.814 129.697 201.051 123.718 204.397 117.129C206.082 115.715 207.96 115.531 210.032 114.362C208.663 111.262 208.196 109.527 207.704 106.18C207.284 105.09 206.872 98.3693 207.138 97.0219C207.679 96.1113 207.462 96.2554 207.237 94.885L206.449 94.0612C207.721 92.9379 218.091 93.7662 219.336 95.3855ZM281.445 252.491L282.333 251.674C280.818 251.079 278.538 250.289 277.247 249.408L277.325 248.829L276.844 248.775C276.483 249.222 276.369 249.473 275.888 249.731C277.433 250.57 280.324 251.811 281.445 252.491Z" fill="#1E0303"/>
<path d="M275.888 249.731C276.369 249.473 276.483 249.222 276.844 248.775L277.325 248.829L277.247 249.408C278.538 250.289 280.818 251.079 282.333 251.674L281.446 252.491C280.324 251.811 277.433 250.57 275.888 249.731Z" fill="#97483C" fill-opacity="0.984314"/>
<path d="M259.218 214.139L259.599 215.35C259.973 215.512 260.064 215.602 260.451 215.643C267.338 214.514 270.317 218.94 274.867 220.404C281.683 217.577 278.837 216.825 286.834 219.122L287.257 219.702C285.462 221.638 283.133 221.637 282.837 224.06C285.097 227.717 288.265 223.196 291.904 228.953C294.639 233.276 297.79 238.648 301.071 242.601C303.487 245.28 307.468 246.996 310.3 249.135C318.485 255.315 321.47 265.156 319.844 275.013C319.383 276.677 318.911 278.339 318.43 279.998C316.882 277.287 315.171 274.253 313.1 271.93L312.534 272.447C311.598 272.15 311.389 271.896 310.606 271.263L310.011 271.361C309.832 271.645 309.523 272.1 309.389 272.386C306.58 270.089 298.196 262.639 295.9 261.468C290.918 257.891 286.733 255.566 281.445 252.491L282.333 251.674C280.818 251.079 278.538 250.289 277.247 249.408L277.325 248.829L276.844 248.775C276.483 249.222 276.369 249.473 275.888 249.731C269.745 247.25 268.769 248.021 262.548 243.409C261.15 245.106 261.83 244.914 260.012 245.555C258.409 242.771 258.282 240.574 257.417 237.599C256.415 234.037 257.228 223.175 257.693 219.225C257.784 215.788 258.327 216.771 259.218 214.139Z" fill="#4E1518"/>
<path d="M257.693 219.225L258.37 219.194C262.298 220.158 261.648 219.697 263.937 222.579C263.53 223.866 262.779 225.903 262.522 227.083C261.865 230.117 261.329 240.305 262.21 243.032L262.548 243.409C261.15 245.106 261.83 244.914 260.012 245.555C258.409 242.771 258.282 240.574 257.417 237.599C256.415 234.037 257.228 223.175 257.693 219.225Z" fill="#46070B"/>
<path d="M282.333 251.674C286.102 252.019 293.458 258.909 296.17 257.183C300.17 259.409 310.398 268.315 313.1 271.93L312.534 272.447C311.598 272.15 311.389 271.896 310.606 271.263L310.011 271.361C309.832 271.645 309.523 272.1 309.389 272.386C306.58 270.089 298.196 262.639 295.9 261.468C290.918 257.891 286.733 255.567 281.445 252.491L282.333 251.674Z" fill="#300607"/>
<path d="M259.218 214.139L259.599 215.35C259.973 215.512 260.064 215.602 260.451 215.643C264.018 216.608 265.156 216.618 267.96 219.034C267.205 219.102 266.321 219.082 265.719 219.435L264.815 221.066L263.937 222.579C261.648 219.697 262.298 220.158 258.37 219.194L257.693 219.225C257.784 215.788 258.327 216.771 259.218 214.139Z" fill="#180404"/>
<path d="M258.37 219.194L258.682 218.514C260.23 217.991 264.298 218.524 265.719 219.435L264.815 221.066L263.937 222.579C261.648 219.697 262.298 220.158 258.37 219.194Z" fill="#020000"/>
<path d="M277.325 248.829C282.106 249.772 286.06 251.67 290.512 253.538C291.013 253.748 292.476 252.159 293.676 252.012L294.418 252.401L294.57 252.942C293.962 253.964 293.783 254.221 292.977 255.093C293.949 255.698 295.309 256.483 296.17 257.183C293.458 258.909 286.102 252.019 282.333 251.674C280.818 251.079 278.538 250.289 277.247 249.408L277.325 248.829Z" fill="#020000"/>
<path d="M267.96 219.034C269.755 220.988 271.559 223.039 273.114 225.192C270.665 223.945 267.267 222.097 264.815 221.066L265.719 219.435C266.321 219.082 267.205 219.102 267.96 219.034Z" fill="#24060A"/>
<path d="M269.208 186.542C270.34 188.908 270.2 186.693 271.202 189.411L271.335 191.718C271.699 192.581 271.452 192.336 271.527 192.982C272.106 198.006 271.934 204.052 275.322 208.132C280.59 214.791 286.619 212.468 291.351 217.51C293.335 219.623 296.014 225.388 297.663 228.126C299.016 230.373 301.985 232.678 302.521 234.005L302.17 234.392C297.201 234.36 292.219 218.112 288.343 217.88C287.436 218.263 287.419 218.298 286.834 219.122C278.837 216.825 281.683 217.577 274.867 220.404C270.317 218.94 267.338 214.514 260.451 215.643C260.064 215.602 259.973 215.512 259.599 215.35L259.218 214.139C260.353 210.735 261.68 206.911 263.039 203.603C265.638 197.276 268.659 193.61 269.208 186.542Z" fill="#1E0304"/>
<path d="M262.548 243.409C268.769 248.021 269.745 247.25 275.888 249.731C277.433 250.57 280.324 251.811 281.445 252.491C286.733 255.567 290.918 257.891 295.9 261.468C295.705 262.203 295.79 262.252 295.309 262.778C301.533 267.469 305.477 270.802 308.928 277.953C303.533 274.395 297.614 268.679 292.128 265.894C288.714 262.928 268.688 253.082 263.904 251.951C261.091 250.84 260.103 249.619 261.244 246.358C260.792 245.869 260.61 245.841 260.012 245.555C261.83 244.914 261.15 245.106 262.548 243.409Z" fill="#4E1518"/>
<path d="M262.548 243.409C268.769 248.021 269.745 247.25 275.888 249.731C277.433 250.57 280.324 251.811 281.445 252.491C286.733 255.567 290.918 257.891 295.9 261.468C295.705 262.203 295.79 262.252 295.309 262.778C281.309 253.767 275.862 252.604 261.244 246.358C260.792 245.869 260.61 245.841 260.012 245.555C261.83 244.914 261.15 245.106 262.548 243.409Z" fill="#090000"/>
<path d="M208.179 142.866C207.482 138.547 208.597 131.009 212.273 128.291L212.689 128.491L212.676 129.527C212.715 130.176 212.764 130.954 212.816 131.863C214.576 134.436 214.367 133.178 214.579 136.053C214.985 134.53 215.258 133.413 215.88 131.957C218.403 133.214 221.567 135.535 223.616 136.349C223.801 141.305 223.44 145.707 222.286 150.502C219.408 150.093 216.937 149.736 214.036 149.558C213.141 149.306 212.914 149.317 211.974 149.276C210.959 148.514 210.602 147.817 209.901 146.768C209.009 145.2 208.782 144.581 208.179 142.866Z" fill="#FEAB47"/>
<path d="M208.179 142.866C207.482 138.547 208.597 131.009 212.273 128.291L212.689 128.491L212.676 129.527C212.254 131.944 212.146 139.745 212.602 142.133C211.207 141.82 209.822 141.811 208.513 142.447L208.179 142.866Z" fill="#F18544"/>
<path d="M212.676 129.527C212.715 130.176 212.764 130.954 212.816 131.863C214.576 134.436 214.367 133.178 214.579 136.053C214.211 138.516 213.743 140.311 213.883 142.853C213.961 144.311 214.963 146.858 214.517 147.759L213.964 147.449C213.659 145.902 213.015 143.709 212.602 142.133C212.146 139.745 212.254 131.945 212.676 129.527Z" fill="#2D2325"/>
<path d="M274.571 181.363C268.028 183.078 254.627 172.226 250.37 167.542C247.749 164.659 232.104 148.769 232.139 145.637C232.975 145.437 233.869 146 234.705 146.375C240.139 155.326 262.584 182.299 274.668 180.125L274.571 181.363Z" fill="#D13A23"/>
<path d="M209.097 106.342C210.42 104.652 211.808 102.409 213.87 101.967C216 102.45 216.006 103.506 216.862 105.367L216.969 105.61C214.094 108.568 213.424 110.019 212.455 113.981C213.314 116.182 214.143 117.529 214.241 119.835L213.961 120.4C212.335 119.73 210.787 116.017 210.032 114.362C208.663 111.262 208.196 109.527 207.704 106.18C208.106 106.054 208.626 106.243 209.097 106.342Z" fill="#4E1518"/>
<path d="M309.39 272.386C309.523 272.1 309.832 271.645 310.011 271.361L310.606 271.263C311.389 271.896 311.598 272.15 312.534 272.447L313.1 271.93C315.171 274.253 316.882 277.287 318.43 279.998C318.911 278.339 319.383 276.677 319.845 275.013C322.342 277.657 320.856 280.751 319.406 283.585C318.42 283.692 317.61 283.748 316.648 284.007C314.775 279.659 312.394 276.012 309.39 272.386Z" fill="#7E1824"/>
<path d="M295.9 261.468C298.196 262.639 306.58 270.089 309.39 272.386C312.394 276.012 314.775 279.659 316.648 284.007L318.232 287.532C318.232 287.98 318.176 288 318.043 288.445C317.783 288.229 316.209 284.601 315.988 283.936C315.178 281.53 307.425 269.27 304.996 270.16C305.224 271.944 310.58 276.153 308.274 277.782C306.645 277.602 295.117 268.207 291.962 266.576L292.128 265.894C297.614 268.679 303.533 274.395 308.928 277.953C305.477 270.802 301.533 267.469 295.309 262.778C295.79 262.252 295.705 262.203 295.9 261.468Z" fill="#1E0304"/>
<path d="M207.237 94.885L206.449 94.0612C207.721 92.9379 218.091 93.7662 219.336 95.3855C218.836 96.9019 218.904 98.6965 218.875 100.311C214.533 97.5403 210.436 97.2503 207.237 94.885Z" fill="#4E1518"/>
<path d="M214.299 161.278L214.592 160.43C214.819 160.482 221.027 164.499 221.33 164.811C223.909 167.49 237.466 173.633 238.621 175.574C235.079 174.119 229.938 172.185 226.793 170.211C222.771 167.685 218.237 164.148 214.299 161.278Z" fill="#020000"/>
<path d="M207.138 97.0219C208.529 97.5605 208.785 97.688 210.039 98.4923C209.933 100.008 208.997 105.482 209.097 106.342C208.626 106.243 208.106 106.054 207.704 106.18C207.284 105.09 206.872 98.3693 207.138 97.0219Z" fill="#4E1518"/>
<path d="M271.228 185.29C271.306 183.947 271.072 184.078 271.781 183.344C274.454 183.447 273.101 186.708 272.421 188.113C271.442 187.183 271.608 186.785 271.228 185.29Z" fill="#A61817"/>
<path d="M282.619 184.645C281.846 183.375 281.472 183.017 281.66 181.575L282.112 181.421C283.546 182.54 283.374 183.319 284.145 184.57L284.603 185.996L282.619 184.645Z" fill="#020000"/>
<path d="M316.648 284.007C317.61 283.748 318.42 283.692 319.405 283.585L319.324 283.861C318.96 285.119 318.888 286.917 318.28 287.518L318.232 287.532L316.648 284.007Z" fill="#46070B"/>
<path d="M271.228 185.29C271.608 186.785 271.442 187.183 272.421 188.113C272.421 189.865 272.327 190.269 271.335 191.718L271.202 189.411C271.286 188.234 271.234 186.517 271.228 185.29Z" fill="#7E1824"/>
<path d="M282.619 184.645L284.603 185.996C285.078 186.323 285.914 186.86 286.284 187.239L285.94 188.127C284.483 187.154 282.837 186.415 282.619 184.645Z" fill="#24060A"/>
<path d="M227.109 148.876L228.218 148.03C230.299 153.738 232.048 158.596 230.754 164.766C228.598 163.808 226.244 162.814 224.127 161.809C224.77 159.273 226.657 149.999 227.109 148.876Z" fill="#4E1518"/>
<path d="M217.928 124.311C219.177 124.323 219.467 124.224 220.471 124.855C221.184 125.798 221.102 126.308 221.193 127.497C219.102 127.064 218.175 126.412 217.928 124.311Z" fill="#24060A"/>
<path d="M227.109 148.876C227.092 147.693 227.005 147.357 227.457 146.307C228.097 146.728 227.957 147.014 228.218 148.03L227.109 148.876Z" fill="#97483C"/>
<path d="M249.797 404.588L249.791 404.162C249.677 396.783 246.419 387.963 240.936 382.89C239.606 381.657 236.503 379.979 235.73 379.003C239.225 372.057 236.445 372.255 236.851 367.442C237.521 359.442 252.568 348.632 258.711 344.323C259.872 350.628 261.404 357.591 261.878 364.018C263.02 379.498 262.789 395.807 258.721 410.884C257.254 416.319 255.566 421.525 253.885 426.878C253.072 429.493 251.713 432.966 251.121 435.49L248.926 436.105C246.776 436.573 244.923 436.293 242.741 436.127L242.256 435.575C241.196 430.67 230.478 420.803 226.24 418.159C223.46 416.426 220.927 414.273 218.01 412.692C225.544 403.323 224.114 397.42 237.245 394.347C237.434 394.435 237.619 394.526 237.804 394.624C242.308 396.978 247.941 405.193 249.528 410.052C249.732 408.605 249.749 406.081 249.797 404.588Z" fill="#4A2031"/>
<path d="M249.797 404.588C250.045 406.435 250.675 413.512 250.617 415.34C250.256 413.925 249.501 411.405 249.528 410.052C249.732 408.604 249.749 406.081 249.797 404.588Z" fill="#24060A"/>
<path d="M312.58 352.713C315.184 354.541 316.641 355.211 319.701 356.095L322.677 353.637C325.409 354.531 328.013 355.276 330.781 356.05C328.732 365.514 325.597 377.231 325.431 386.896C325.366 390.848 328.787 396.334 328.368 400.539C328.293 402.38 325.604 406.624 324.472 408.185C322.986 405.177 322.027 403.287 319.796 400.695C319.682 405.024 324.153 407.06 321.9 410.969L320.365 411.258L319.864 410.465C319.204 408.813 318.596 407.014 317.994 405.33C317.331 406.367 316.986 406.565 316.046 407.33C314.895 409.001 314.524 409.713 313.663 411.564C313.289 411.33 312.726 410.868 312.359 410.585L312.957 408.328C313.412 407.369 313.38 407.19 313.477 406.104C311.972 404.009 313.321 402.764 311.929 400.835L312.872 399.918C304.944 398.724 299.66 402.718 294.391 407.889C292.557 407.089 292.157 406.611 290.704 405.193C287.123 399.98 283.169 394.949 281.911 388.779C286.629 390.396 292.961 391.628 297.985 391.797C300.515 391.882 302.912 391.661 305.51 391.882C296.144 387.163 289.127 380.73 282.138 372.99C288.645 376.847 290.476 376.158 296.704 378.779C292.001 374.73 285.458 369.075 282.623 363.51C281.764 361.826 281.367 359.861 280.808 358.06L281.071 357.669C291.631 355.721 301.442 355.464 312.58 352.713Z" fill="#4E1518"/>
<path d="M317.145 386.744L317.672 387.023C317.76 388.461 317.715 391.17 318.072 392.34C318.342 394.887 318.508 398.546 319.796 400.695C319.682 405.024 324.153 407.06 321.9 410.969L320.365 411.258L319.864 410.465C319.204 408.813 318.596 407.014 317.994 405.33C315.536 398.409 315.159 393.736 317.145 386.744Z" fill="#310503"/>
<path d="M318.755 377.055L319.409 376.958C318.466 383.205 318.046 386.139 318.072 392.34C317.714 391.17 317.76 388.461 317.672 387.023L317.145 386.744C317.21 385.404 318.472 378.792 318.755 377.055Z" fill="#300607"/>
<path d="M312.872 399.918C314.261 402.5 313.985 403.17 313.477 406.104C311.972 404.009 313.321 402.764 311.929 400.835L312.872 399.918Z" fill="#1E0304"/>
<path d="M318.755 377.055C318.846 376.151 318.888 374.197 319.601 373.732C319.845 375.016 319.633 375.68 319.409 376.958L318.755 377.055Z" fill="#310503"/>
<path d="M272.522 383.599C273.472 384.161 274.844 384.9 275.566 385.768C278.639 389.44 285.696 404.572 290.704 405.193C292.157 406.611 292.557 407.089 294.391 407.889C299.66 402.718 304.944 398.724 312.872 399.918L311.929 400.835C313.321 402.764 311.972 404.009 313.477 406.104C313.38 407.19 313.412 407.369 312.957 408.328L312.359 410.585C312.726 410.868 313.289 411.33 313.663 411.564C314.524 409.713 314.895 409.001 316.046 407.33C316.986 406.565 317.331 406.367 317.994 405.33C318.596 407.014 319.204 408.813 319.864 410.465L320.365 411.258C324.436 419.216 319.032 427.939 316.511 435.363L315.952 435.662C314.928 436.15 313.045 436.101 312.05 435.532C310.931 435.483 309.789 435.418 308.671 435.383L307.546 436.157C300.102 436.088 290.71 436.905 283.293 436.293L283.549 435.718C283.491 433.724 269.963 419.47 267.735 417.379C268.295 415.658 268.977 411.304 269.351 409.346C271.039 400.49 272.551 392.623 272.522 383.599Z" fill="#4E2130"/>
<path d="M317.994 405.33C318.596 407.014 319.204 408.813 319.864 410.465L320.365 411.258C324.436 419.216 319.032 427.939 316.511 435.363L315.952 435.662C314.928 436.15 313.045 436.101 312.05 435.532C310.622 432.774 309.377 429.926 308.323 427.002L309.074 427.217C310.563 425.721 313.185 414.032 313.663 411.564C314.524 409.714 314.895 409.001 316.046 407.33C316.986 406.565 317.331 406.367 317.994 405.33Z" fill="#7A4335"/>
<path d="M319.864 410.465L320.365 411.258C324.436 419.216 319.032 427.939 316.511 435.363L315.952 435.662C314.658 435.471 314.378 435.884 313.389 435.181C313.354 433.861 315.175 431.926 315.692 430.335C316.121 429.012 316.329 428.208 316.625 426.82C317.919 423.59 320.189 416.016 319.38 412.748C319.461 412.136 319.724 411.102 319.864 410.465Z" fill="#4E1518"/>
<path d="M319.379 412.748C320.189 416.016 317.919 423.59 316.625 426.82C316.391 425.825 316.479 414.663 316.472 413.138L317.266 413.47C318.358 413.398 318.485 413.372 319.379 412.748Z" fill="#4E1518"/>
<path d="M317.994 405.33C318.596 407.014 319.204 408.813 319.864 410.465C319.724 411.102 319.461 412.136 319.38 412.748C318.485 413.372 318.358 413.398 317.266 413.47L316.472 413.138C316.469 411.632 316.661 408.51 316.046 407.33C316.986 406.565 317.331 406.367 317.994 405.33Z" fill="#7A4335"/>
<path d="M294.391 407.889C299.66 402.718 304.944 398.724 312.872 399.918L311.929 400.835C306.785 405.853 298.134 413.106 298.183 420.423C298.203 423.522 298.817 425.906 299.399 428.869L299.016 428.849C298.148 427.623 298.037 426.394 297.65 424.999C296.209 419.824 297.224 415.766 298.931 410.78C297.78 410.257 295.097 409.167 294.304 408.403L294.391 407.889Z" fill="#180404"/>
<path d="M308.671 435.383C306.417 432.573 306.154 422.842 307.5 419.415C308.495 416.875 310.632 409.619 312.957 408.328L312.358 410.585C312.726 410.868 313.289 411.33 313.663 411.564C313.184 414.032 310.563 425.721 309.074 427.217L308.323 427.002C309.376 429.926 310.622 432.774 312.05 435.532C310.931 435.484 309.789 435.418 308.671 435.383Z" fill="#020000"/>
<path d="M308.323 427.002C307.175 421.294 309.747 415.655 312.359 410.585C312.726 410.868 313.289 411.33 313.663 411.564C313.185 414.032 310.563 425.721 309.074 427.217L308.323 427.002Z" fill="#4E1518"/>
<path d="M262.087 257.287C284.945 266.903 304.781 278.976 318.472 300.145C320.449 297.606 322.615 295.216 324.423 292.55C329.422 285.168 332.163 275.363 331.2 266.476C331.022 264.806 329.607 261.092 328.973 259.279C329.409 259.539 331.571 265.315 331.672 266.17C331.968 268.651 331.792 272.988 331.467 275.453C330.283 284.414 326.075 292.453 319.984 299.056C319.367 299.726 318.479 301.453 317.867 301.805C317.822 301.734 318.635 303.071 318.628 303.006C318.895 306.077 319.097 309.798 317.887 312.728C318.001 312.904 318.114 313.079 318.228 313.255L318.352 313.645C317.945 313.837 317.409 313.908 316.95 314.003C316.775 314.861 316.254 315.333 315.477 315.583C314.622 313.408 317.223 308.721 314.986 305.621C313.383 307.399 312.378 308.487 310.547 310.084C305.237 304.775 298.746 301.685 292.138 298.209C289.767 296.961 286.766 295.894 284.509 294.503C279.527 283.026 276.135 280.108 267.023 271.621C268.272 273.967 269.586 275.41 270.968 277.506C274.187 282.394 279.452 290.11 281.111 295.764C274.877 300.756 266.802 303.288 259.176 305.308C258.516 304.402 257.742 303.28 257.059 302.419C260.548 291.789 263.212 268.399 262.087 257.287Z" fill="#4A2031"/>
<path d="M317.685 301.802C318.758 306.167 318.524 309.746 316.95 314.003C316.775 314.861 316.254 315.333 315.477 315.583C314.622 313.408 317.223 308.721 314.986 305.621L317.685 301.802Z" fill="#020000"/>
<path d="M200.757 151.347L209.4 151.153L209.495 151.669L207.189 153.727C209.019 157.103 211.142 159.094 214.299 161.278C218.237 164.148 222.771 167.685 226.793 170.211C229.938 172.185 235.079 174.119 238.621 175.574C239.661 176.18 243.817 178.205 244.894 178.47C246.471 177.827 248.9 179.13 250.425 179.813C256.149 182.378 261.804 184.257 267.96 185.411C268.392 185.493 268.948 186.195 269.208 186.542C268.659 193.61 265.638 197.276 263.039 203.603C261.68 206.911 260.353 210.735 259.218 214.139C258.327 216.771 257.784 215.788 257.693 219.225C257.228 223.175 256.415 234.037 257.417 237.599C257.326 237.757 257.17 237.855 257.014 237.985L256.523 236.085C242.386 223.726 260.753 201.035 259.586 190.924C258.922 189.461 250.715 185.705 248.624 184.495L249.102 184.254C245.515 182.239 240.403 180.938 237.073 179.143C225.024 172.643 212.641 165.905 202.178 157.094C201.312 154.747 201.157 153.817 200.757 151.347Z" fill="#4A2031"/>
<path d="M244.894 178.47C246.471 177.827 248.9 179.13 250.425 179.813C256.149 182.378 261.804 184.257 267.96 185.411C268.392 185.493 268.948 186.195 269.208 186.542C268.659 193.61 265.638 197.276 263.039 203.603C261.68 206.911 260.353 210.735 259.218 214.139C258.327 216.771 257.784 215.788 257.693 219.225C257.228 223.175 256.415 234.037 257.417 237.599C257.326 237.757 257.17 237.855 257.014 237.985L256.523 236.085C242.386 223.726 260.753 201.035 259.586 190.924C258.922 189.461 250.715 185.705 248.624 184.495L249.102 184.254C253.323 186.105 256.773 188.074 260.623 190.584C257.745 203.477 249.931 216.329 252.493 229.727C252.571 230.125 255.576 234.23 256.035 234.894C255.645 225.382 256.054 214.296 260.22 205.717C263.127 199.735 265.81 194.49 267.94 188.148C261.905 185.744 250.334 181.289 244.894 178.47Z" fill="#020000"/>
<path d="M264.568 346.862L265.108 346.69C266.815 347.815 269.351 355.845 269.729 358.034C270.483 362.382 270.896 377.046 270.242 381.098C274.652 382.031 279.462 382.86 282.083 386.844C282.281 387.801 282.255 387.833 281.91 388.779C283.169 394.949 287.123 399.98 290.704 405.193C285.696 404.572 278.639 389.44 275.566 385.768C274.844 384.9 273.472 384.161 272.522 383.599C272.551 392.623 271.039 400.49 269.351 409.346C268.977 411.304 268.295 415.658 267.735 417.379C269.963 419.47 283.491 433.724 283.549 435.718L281.628 435.236L279.397 435.285L277.185 435.334C274.366 435.627 263.241 434.895 262.103 435.308C260.838 435.168 257.696 435.236 256.288 435.227C256.893 432.465 259.628 423.87 260.987 421.473C263.075 414.891 266.031 404.227 266.932 397.492C268.964 382.314 269.553 361.465 264.568 346.862Z" fill="#020000"/>
<path d="M256.288 435.227C256.893 432.465 259.628 423.87 260.987 421.473C262.408 421.363 262.054 421.168 262.877 421.86C262.948 422.807 262.578 424.468 263.212 425.028C267.212 428.534 270.379 430.202 272.808 435.214L277.185 435.334C274.366 435.627 263.241 434.895 262.103 435.308C260.838 435.168 257.696 435.236 256.288 435.227Z" fill="#24060A"/>
<path d="M267.472 418.524C271.934 422.92 276.542 429.831 281.628 435.236L279.397 435.285C276.72 433.152 273.803 431.044 271.062 428.956C269.456 427.734 266.155 424.895 264.6 423.951C265.55 422.247 266.708 420.286 267.472 418.524Z" fill="#4A2031"/>
<path d="M181.853 425.955C183.865 428.27 186.555 429.607 187.763 431.064C189.348 432.391 190.945 433.705 192.556 435.002L192.518 435.175C194.42 435.35 196.155 435.496 198.063 435.565C201.155 435.314 206.187 435.831 209.554 435.89C213.376 435.955 218.527 435.422 222.133 435.591C225.242 435.552 231.112 435.305 234.003 435.539L234.51 436.186C235.697 436.166 237.076 436.114 238.24 436.153L238.79 435.516C239.957 435.516 241.092 435.513 242.256 435.575L242.741 436.127C244.923 436.293 246.776 436.573 248.926 436.105L251.121 435.49L254.929 435.464C256.461 435.529 260.828 435.802 262.103 435.308C263.241 434.895 274.366 435.627 277.185 435.334L279.397 435.285L281.628 435.236L283.549 435.718L283.293 436.293C290.71 436.905 300.102 436.088 307.546 436.157L308.671 435.383C309.789 435.418 310.931 435.483 312.05 435.532C313.045 436.101 314.928 436.15 315.952 435.662L316.511 435.363L320.986 435.51C323.152 435.61 326.849 435.718 329.005 435.503C332 435.516 336.244 435.666 339.135 435.493L340.143 436.14C341.883 436.173 345.772 436.462 347.119 435.584C350.829 435.142 362.035 435.591 366.149 435.682C370.269 436.775 383.671 435.558 388.314 436.179L388.962 435.695L389.199 435.685C390.135 436.518 393.901 436.586 395.202 436.511C396.373 436.697 397.111 436.784 398.239 437.197H203.824H151.706C152.74 436.872 152.794 436.81 153.679 436.153L153.99 435.955C157.38 436.01 160.871 435.926 164.269 435.88C170.183 431.142 176.742 431.087 181.853 425.955Z" fill="#2D2325"/>
<path d="M181.853 425.955C183.865 428.27 186.555 429.607 187.763 431.064C186.948 432.095 186.114 434.072 185.845 435.353C183.092 435.506 167.19 435.181 166.185 436.017C167.774 436.173 169.311 436.202 170.906 436.199C178.967 436.176 187.083 436.472 195.139 436.274C198.461 436.453 200.933 435.919 203.824 437.197H151.706C152.74 436.872 152.794 436.81 153.679 436.153L153.99 435.955C157.38 436.01 160.871 435.926 164.269 435.88C170.183 431.142 176.742 431.087 181.853 425.955Z" fill="#1E0304"/>
<path d="M262.103 435.308C263.241 434.895 274.366 435.627 277.185 435.334L279.397 435.285L281.628 435.236L283.549 435.718L283.293 436.293C273.527 435.503 259.052 436.271 248.926 436.105L251.121 435.49L254.929 435.464C256.461 435.529 260.828 435.802 262.103 435.308Z" fill="#40383D"/>
<path d="M308.671 435.383C309.789 435.418 310.931 435.483 312.05 435.532C313.045 436.101 314.928 436.15 315.952 435.662L316.511 435.363L320.986 435.51C323.152 435.61 326.849 435.718 329.005 435.503C332 435.516 336.244 435.666 339.135 435.493L340.143 436.14C329.76 435.857 318.092 436.202 307.546 436.157L308.671 435.383Z" fill="#40383D"/>
<path d="M187.763 431.064C189.348 432.391 190.945 433.705 192.556 435.002L192.518 435.175C190.042 435.34 188.332 435.392 185.845 435.353C186.114 434.072 186.948 432.095 187.763 431.064Z" fill="#24060A"/>
<path d="M238.79 435.516C239.957 435.516 241.092 435.513 242.256 435.575L242.741 436.127L238.24 436.153L238.79 435.516Z" fill="#563A37"/>
<path d="M116.816 315.817C125.422 311.674 133.401 309.964 140.803 317.401C143.647 321.642 145.284 325.141 146.653 330.146C147.052 331.603 147.746 332.267 147.543 333.756L147.157 333.61L147.033 333.21C144.715 325.818 139.433 321.558 132.116 319.733C134.941 323.33 137.177 327.646 139.352 331.629C140.174 333.135 143.638 340.648 144.36 341.425L143.724 342.183C137.842 335.548 132.521 327.431 124.082 323.736C120.953 322.364 117.996 322.673 114.67 322.777L110.107 322.771C112.931 318.757 113.695 318.933 116.561 316.074L116.816 315.817Z" fill="#4A2031"/>
<path d="M261.836 342.01C262.958 343.617 263.687 345.132 264.568 346.862C269.553 361.465 268.965 382.314 266.932 397.492C266.031 404.227 263.075 414.891 260.987 421.473C259.628 423.87 256.893 432.465 256.288 435.227C257.697 435.236 260.838 435.168 262.103 435.308C260.828 435.802 256.461 435.529 254.929 435.464C256.958 426.28 260.353 416.335 262.077 407.115C264.5 394.145 266.324 380.038 265.241 366.834C264.584 358.84 262.997 350.027 261.836 342.01Z" fill="#4A2031"/>
<path d="M329.262 257.682C340.41 265.483 350.904 274.468 358.839 285.633C362.087 290.203 362.221 294.277 359.746 299.213C357.915 302.115 348.481 316.891 346.26 318.009C346.267 318.052 354.842 305.034 355.453 299.266C354.744 299.074 354.849 298.973 354.25 298.314C352.732 298.028 341.876 301.764 339.971 302.697C332.797 306.207 325.454 309.97 318.352 313.645L318.228 313.255C320.55 310.676 338.12 303.359 341.942 301.256C344.276 299.97 353.645 298.885 354.377 296.257C356.13 289.952 352.943 282.461 350.735 276.592C349.255 273.298 329.737 259.053 329.262 257.682Z" fill="#4A2031"/>
<path d="M354.25 298.314C356.006 293.655 355.772 288.404 353.945 283.804C353.395 282.418 352.527 280.976 352.371 279.514L352.806 279.553C357.122 286.466 357.196 291.141 355.453 299.266C354.745 299.074 354.849 298.973 354.25 298.314Z" fill="#020000"/>
<path d="M190.661 337.213C191.411 338.96 190.664 342.641 189.785 344.349C187.391 349.002 182.04 351.334 179.79 356.219C178.667 358.534 179.015 359.084 178.216 361.24L178.514 361.738C182.498 362.717 184.931 363.513 188.619 365.465C189.39 365.871 191.924 365.94 192.843 366.288C199.096 367.917 202.697 368.112 208.906 366.206C210.966 365.572 211.184 366.089 213.405 364.805L213.054 364.87C208.106 365.728 192.217 364.632 188.852 360.804L188.958 360.557L189.386 360.749L188.756 360.6C195.11 363.133 199.562 364.639 206.522 364.707C211.528 364.756 214.436 365.003 217.831 360.801C222.084 368.463 224.793 372.906 223.772 382.051C223.583 383.722 223.938 386.441 223.183 387.849C220.507 386.991 221.905 386.542 219.515 387.026C220.777 384.594 219.827 382.971 219.733 380.301C219.694 379.189 220.029 375.228 219.678 374.6C217.629 370.941 216.13 369.11 215.271 364.896C208.467 368.61 198.433 368.847 191.159 366.658C186.493 365.253 182.205 363.139 177.429 362.073C180.426 349.217 182.681 353.581 189.028 344.095C189.587 343.259 190.402 338.596 190.661 337.213Z" fill="#020000"/>
<path d="M320.986 435.51C322.557 430.511 324.254 425.171 325.435 420.068C326.384 415.974 325.028 411.073 328.157 407.567L328.644 407.632C330.082 411.092 329.087 415.883 329.682 419.646C330.556 425.168 329.298 430.078 329.005 435.503C326.849 435.718 323.152 435.61 320.986 435.51Z" fill="#4A2031"/>
<path d="M316.196 247.073C316.745 247.628 317.438 248.371 318.004 248.879C318.885 249.831 322.277 252.95 322.687 253.566C326.033 258.908 328.241 266.744 328.121 272.996C327.997 279.347 325.227 284.787 322.014 290.034C321.493 290.885 320.228 293.46 319.389 293.801C319.516 292.87 319.571 292.743 319.916 291.86C324.456 285.129 326.023 266.797 322.83 259.338C321.542 256.332 319.045 252.743 317.237 250.006C316.476 248.852 315.92 248.432 316.196 247.073Z" fill="#571B2F"/>
<path d="M193.982 404.074C194.305 410.481 187.743 420.946 183.814 426.033C185.911 428.205 192.983 433.035 193.577 434.654C193.084 434.947 193.122 434.95 192.556 435.002C190.945 433.705 189.348 432.391 187.763 431.064C186.555 429.607 183.865 428.27 181.853 425.955C181.827 425.581 181.81 425.203 181.802 424.826C181.607 417.284 189.065 409.174 193.982 404.074Z" fill="#020000"/>
<path d="M343.314 355.042C345.151 357.292 346.28 358.886 347.889 361.308C345.789 363.744 342.641 366.847 342.192 370.054C340.716 369.614 338.329 369.572 337.454 368.71L337.441 367.286C339.005 362.564 340.332 359.169 343.314 355.042Z" fill="#4A2031"/>
<path d="M337.441 367.286C334.553 364.818 341.051 356.027 343.041 353.803C345.73 355.607 346.185 357.806 349.337 355.738L350.484 356.047C350.78 357.89 347.424 364.008 346.524 365.93C345.174 368.818 343.74 374.145 341.964 376.571C341.633 377.026 341.281 377.468 340.917 377.898C341.444 375.403 342.247 372.541 342.192 370.054C342.641 366.847 345.789 363.744 347.889 361.309C346.28 358.886 345.151 357.292 343.314 355.042C340.332 359.169 339.005 362.564 337.441 367.286Z" fill="#020000"/>
<path d="M116.816 315.817L116.56 315.082C119.739 309.947 133.054 309.232 138.341 312.481C139.665 313.281 140.763 314.403 141.529 315.746C141.541 316.517 141.591 316.93 140.803 317.401C133.401 309.964 125.422 311.674 116.816 315.817Z" fill="#020000"/>
<path d="M302.986 277.87L303.51 277.773C304.274 278.486 304.544 279.108 305.66 278.421C310.505 280.829 312.495 283.264 315.601 287.629C316.29 288.594 317.344 290.221 318.18 290.973C318.332 291.955 318.375 291.919 317.997 292.813C316.775 292.469 315.129 286.746 312.489 285.681L312.007 286.049C311.848 286.848 311.842 287.053 311.442 287.791C308.365 284.872 305.965 280.777 303.208 278.081L302.986 277.87Z" fill="#300607"/>
<path d="M339.135 435.493C339.665 432.313 340.397 428.787 340.517 425.62C341.285 428.199 342.537 433.815 344.868 435.422C345.154 435.617 346.641 435.588 347.119 435.584C345.772 436.462 341.883 436.173 340.143 436.14L339.135 435.493Z" fill="#4A2031"/>
<path d="M381.036 417.304C384.62 419.398 386.373 435.5 391.316 435.028C392.161 434.365 391.885 434.768 392.249 433.831L392.519 434.02C392.477 432.765 392.207 431.051 392.535 429.952C393.667 430.573 395.163 434.856 395.137 436.043C393.052 435.012 391.501 435.438 389.199 435.685L388.962 435.695C387.911 434.895 385.274 428.059 384.669 426.472C383.706 423.668 382.162 420.114 381.036 417.304Z" fill="#020000"/>
<path d="M227.98 424.95C231.131 427.552 236.406 434.023 238.79 435.516L238.24 436.153C237.076 436.114 235.697 436.166 234.51 436.186L234.003 435.539C233.554 431.997 230.234 428.4 227.905 425.906L227.98 424.95Z" fill="#A61817"/>
<path d="M227.905 425.906C226.956 425.161 226.367 424.816 226.029 423.776C226.965 423.857 227.141 424.254 227.98 424.95L227.905 425.906Z" fill="#46070B"/>
<path d="M164.93 195.661C171.176 193.565 178.263 191.018 184.115 188.053C191.598 192.32 200.273 196.567 200.2 206.419C200.118 217.4 209.968 220.453 214.38 228.739C214.943 229.791 215.72 230.909 216.374 231.912C217.32 244.763 210.673 243.88 214.595 256.434C213.467 258.49 210.341 262.901 207.914 263.145C206.227 264.878 204.09 265.992 202.003 267.194C200.318 268.164 200.482 269.577 198.915 270.359L198.4 270.497C198.266 269.836 201.521 262.032 201.993 260.141C204.366 250.645 206.057 246.042 205.891 236.18C197.833 232.861 193.014 236.528 185.046 238.43C179.002 239.873 173.104 241.193 167.199 243.225C150.901 235.288 149.057 229.894 140.966 214.599C143.39 206.202 146.21 206.234 152.359 200.946C152.393 202.831 152.65 204.468 152.906 206.326C155.689 204.207 161.758 200.017 165.186 200.023C172.138 200.084 178.018 203.935 183.296 207.86C190.548 213.252 197.099 218.075 201.823 225.909C202.722 227.401 204.02 230.055 205.238 231.2L205.711 231.111C204.976 227.923 195.459 213.627 192.828 211.013C185.189 203.42 175.962 196.272 164.93 195.661Z" fill="#4A2031"/>
<path d="M198.915 270.359C199.28 269.369 199.927 268.459 200.465 267.554C203.725 262.079 206.666 256.42 209.878 250.918C209.954 255.466 209.562 258.905 207.914 263.145C206.227 264.878 204.09 265.992 202.003 267.194C200.318 268.164 200.482 269.577 198.915 270.359Z" fill="#180404"/>
<path d="M209.306 233.914C210.081 234.796 210.218 247.577 210.221 249.715L209.66 249.084C208.662 244.259 208.871 238.782 209.306 233.914Z" fill="#180404"/>
<path d="M252.988 250.142L256.825 247.931C256.848 257.445 256.591 265.155 256.35 274.502C257.531 278.331 256.269 291.416 255.069 295.474C253.612 300.392 251.632 307.549 249.684 312.308C252.708 318.097 256.789 323.401 260.561 328.715C262.044 330.8 266.483 336.137 267.332 338.059L267.059 338.195C262.73 334.895 251.375 318.37 248.91 312.91C247.391 315.912 244.37 324.523 242.877 325.876L241.411 324.845C241.151 325.167 240.933 325.447 240.689 325.782L240.237 325.606C235.749 330.885 231.261 336.221 226.172 340.911C225.609 341.431 224.419 342.394 224 342.918L222.14 344.41C220.172 339.386 218.777 336.14 212.985 335.867C221.174 332.342 224.543 326.543 230.344 320.088C244.887 303.905 254.672 271.673 252.988 250.142Z" fill="#4A2031"/>
<path d="M256.35 274.502C257.531 278.331 256.269 291.416 255.069 295.474C253.612 300.392 251.632 307.549 249.684 312.308C252.708 318.097 256.789 323.401 260.561 328.715C262.044 330.8 266.483 336.137 267.332 338.059L267.059 338.195C262.73 334.895 251.375 318.37 248.91 312.91C247.391 315.912 244.37 324.523 242.877 325.876L241.411 324.845C241.15 325.167 240.933 325.447 240.689 325.782L240.237 325.606C249.703 308.442 253.833 293.609 256.35 274.502Z" fill="#020000"/>
<path d="M197.848 184.65C200.38 184.498 202.384 184.382 204.622 185.698C217.961 193.54 218.589 212.19 231.053 220.584C228.754 219.886 226.39 219.118 224.045 218.616C224.754 219.325 228.631 220.914 229.837 221.506C234.279 223.687 252.126 232.606 254.201 235.964L253.983 236.242L252.536 235.679C248.65 235.544 250.132 235.649 247.235 236.875C236.165 229.763 224.416 224.122 212.995 217.633C211.45 216.56 206.162 213.184 205.675 211.614C203.263 203.832 202.946 199.211 196.511 193.245C193.112 190.094 192.492 188.927 187.729 187.53C191.325 186.79 194.334 185.387 197.848 184.65Z" fill="#4A2031"/>
<path d="M199.199 192.625C203.783 195.171 205.72 199.364 207.796 203.789C214.966 202.893 216.143 210.67 218.26 215.777C203.503 215.937 207.545 209.094 203.975 199.542C203.283 197.693 199.568 194.546 199.199 192.625Z" fill="#020000"/>
<path d="M209.716 206.517C212.537 207.193 216.254 209.426 214.247 212.689C211.151 212.401 206.597 209.914 209.716 206.517Z" fill="#A61817"/>
<path d="M172.44 255.849C176.867 256.779 179 256.893 181.738 260.538C179.429 266.985 177.97 266.197 171.769 267.232C165.255 268.319 154.97 269.918 149.143 273.037C148.963 273.634 148.968 273.867 149.039 274.486C145.789 275.545 138.376 274.423 134.976 273.394C132.525 272.271 130.823 271.548 128.271 270.647C127.631 267.646 127.242 263.69 126.602 260.362C127.857 259.029 130.343 256.207 132.21 256.413C133.992 256.609 138.709 259.205 140.597 259.202C151.05 259.184 162.382 257.934 172.44 255.849Z" fill="#4A2031"/>
<path d="M200.727 168.437C200.295 166.777 199.185 158.561 199.494 157.071L200.021 157.021C202.553 159.283 204.608 161.192 207.348 163.274C208.183 163.91 212.241 166.911 212.676 167.434L215.912 169.777C219.031 171.136 222.123 173.09 225.118 174.764L240.929 183.557C247.869 187.392 251.209 188.019 258.516 192.91C253.427 202.491 249.511 212.119 249.323 223.205C243.964 214.708 248.822 206.643 249.742 195.985C244.988 193.504 241.05 193.288 236.539 190.885C237.261 192.659 237.791 194.901 238.295 196.78C235.635 192.593 233.665 190.356 230.253 186.825C222.64 178.946 205.529 172.652 194.635 172.797C197.666 171.521 198.791 171.136 200.727 168.437Z" fill="#4A2031"/>
<path d="M200.727 168.437C200.295 166.777 199.185 158.561 199.494 157.071L200.021 157.021C202.552 159.283 204.608 161.192 207.348 163.274C208.183 163.91 212.241 166.911 212.676 167.434L215.912 169.777C214.075 169.919 212.26 169.567 210.498 169.095C208.808 168.897 202.115 168.162 200.727 168.437Z" fill="#24060A"/>
<path d="M210.498 169.095C210.878 167.651 209.041 167.263 209.052 165.781C210.342 165.816 211.512 166.73 212.676 167.434L215.912 169.777C214.075 169.919 212.26 169.567 210.498 169.095Z" fill="#300607"/>
<path d="M151.851 281.799C148.365 281.356 132.342 282.036 131.162 279.652C131.052 279.691 141.366 279.723 142.567 279.718C147.968 279.696 148.322 276.453 150.995 275.761C157.354 277.822 162.668 275.78 168.071 279.083C172.253 281.641 176.487 287.568 173.285 292.463C174.051 295.571 167.252 305.133 163.397 305.478C161.764 305.624 159.544 306.304 157.883 306.659C159.339 305.345 160.764 304.425 161.511 302.718C161.476 301.866 161.454 301.631 161.297 300.796C153.005 296.681 146.779 291.247 137.795 288.739C135.565 288.117 133.918 287.448 131.508 287.096C129.771 286.843 126.589 286.824 125.125 286.347C129.587 285.847 139.133 286.751 144.001 286.782C146.566 286.798 154.356 290.284 156.453 289.137L156.665 288.362C156.145 285.714 153.97 283.356 151.851 281.799Z" fill="#4A2031"/>
<path d="M173.284 292.463C174.051 295.571 167.251 305.133 163.397 305.478C161.764 305.624 159.544 306.304 157.883 306.659C159.339 305.346 160.764 304.425 161.511 302.718C161.476 301.866 161.454 301.631 161.297 300.796C165.683 298.051 169.384 295.892 173.284 292.463Z" fill="#020000"/>
<path d="M249.736 263.587L249.908 263.816C250.812 272.426 246.084 289.58 241.671 297.236C239.619 300.79 235.986 305.633 233.437 309.037C232.25 307.147 231.57 306.244 230.133 304.531C228.159 302.507 226.439 301 224.305 299.145C231.06 292.654 236.074 286.457 239.603 277.624C242.679 269.911 241.98 268.05 249.736 263.587Z" fill="#4A2031"/>
<path d="M326.788 335.74C328.228 335.571 329.464 337.204 330.732 337.815C331.965 338.41 335.269 339.074 335.015 340.771C334.582 343.643 336.01 350.882 333.711 352.746C331.805 352.248 330.667 351.601 328.908 351.015C328.222 350.788 326.719 350.775 325.581 350.453C317.623 348.212 313.087 347.77 304.934 349.513L304.473 348.989C289.432 351.035 285.475 351.165 270.386 349.812C270.49 348.427 270.49 347.123 270.977 345.838C279.429 346.57 284.837 344.918 293.117 344.261C302.011 343.555 311.107 342.667 320.004 342.791L320.632 341.981C323.874 342.667 331.031 343.509 334.348 343.669C334.378 342.443 334.472 341.103 334.534 339.864C331.825 339.064 328.781 337.786 326.788 335.74Z" fill="#49223A"/>
<path d="M326.787 335.74C328.228 335.571 329.464 337.204 330.732 337.815C331.965 338.41 335.269 339.074 335.015 340.771C334.582 343.643 336.01 350.882 333.711 352.746C331.805 352.248 330.667 351.601 328.908 351.015C328.222 350.788 326.719 350.775 325.581 350.453C317.623 348.212 313.087 347.77 304.934 349.513L304.473 348.989C312.05 346.29 326.472 349.298 333.873 352.193C334.257 349.5 334.312 347.607 334.394 344.895C330.355 344.657 324.498 343.243 320.004 342.791L320.632 341.981C323.874 342.667 331.031 343.509 334.348 343.669C334.378 342.443 334.472 341.103 334.534 339.864C331.825 339.064 328.781 337.786 326.787 335.74Z" fill="#020000"/>
<path d="M320.632 341.981C315.172 341.022 310.576 342.127 305.289 342.414C299.065 342.748 292.863 343.061 286.639 343.529C285.637 343.604 281.472 344.114 280.818 343.867C281.976 343.249 285.163 342.755 286.655 342.381C289.071 341.776 291.423 340.937 293.676 339.874C296.613 338.524 298.443 337.431 301.022 335.48C304.619 332.755 307.588 328.859 312.072 327.73C314.134 327.213 316.837 327.086 318.993 326.93C320.235 328.332 321.074 329.828 322.036 331.421C320.697 331.294 319.649 331.093 318.362 331.529L318.42 331.88C319.832 332.335 321.246 332.046 322.736 331.886C324.072 333.184 325.425 334.469 326.788 335.74C328.781 337.786 331.825 339.064 334.534 339.864C334.472 341.103 334.378 342.443 334.348 343.669C331.031 343.509 323.874 342.667 320.632 341.981Z" fill="#4A2031"/>
<path d="M228.539 250.143C227.622 247.993 226.855 246.328 227.736 243.957C229.635 238.854 238.318 237.339 242.77 239.121C243.973 239.315 243.827 239.116 244.672 239.77C244.536 240.529 244.711 240.211 244.09 240.729C245.352 241.772 247.706 247.501 248.497 249.258C248.067 250.557 247.68 251.834 247.124 253.084C244.981 256.974 245.238 256.934 240.858 259.152C235.277 258.406 230.305 255.723 228.539 250.143Z" fill="#020000"/>
<path d="M229.089 248.828C231.938 255.03 235.564 256.402 242.016 256.087C245.45 253.26 245.183 252.649 245.599 248.512C245.941 250.708 245.554 251.912 247.124 253.084C244.981 256.974 245.238 256.934 240.858 259.152C235.277 258.406 230.305 255.723 228.539 250.143L229.089 248.828Z" fill="#300607"/>
<path d="M228.539 250.143C227.622 247.993 226.855 246.328 227.736 243.957C229.635 238.854 238.318 237.339 242.77 239.121C237.323 240.624 228.406 241.418 229.089 248.828L228.539 250.143Z" fill="#4A2031"/>
<path d="M244.09 240.729C245.352 241.772 247.707 247.501 248.497 249.258C248.067 250.557 247.68 251.834 247.124 253.084C245.554 251.912 245.941 250.708 245.599 248.512C245.082 246.334 243.668 242.756 244.09 240.729Z" fill="#4A2031"/>
<path d="M234.861 245.178C237.06 247.503 236.881 248.964 239.658 249.129L240.084 248.733C239.629 246.761 238.448 246.217 238.373 244.39C238.864 243.691 239.047 243.48 240.019 243.385C244.116 242.987 245.011 250.222 242.513 252.322C241.814 252.911 239.69 253.621 238.728 253.945C237.424 253.483 236.156 253.083 234.93 252.445C231.06 249.53 231.239 248.075 234.861 245.178Z" fill="#A61817"/>
<path d="M224.566 234.717C226.926 235.498 230.123 235.683 233.069 236.538C230.991 238.255 228.998 239.589 227.33 241.737C223.014 247.289 224.377 252.65 229.658 256.713C226.387 258.887 222.718 261.219 219.922 263.968L212.738 270.688C214.309 267.971 218.611 262.521 219.479 259.83C220.637 256.239 221.096 249.912 222.039 245.822C222.754 242.714 224.318 237.448 224.566 234.717Z" fill="#4A2031"/>
<path d="M193.878 338.459C197.74 340.839 199.415 348.846 200.59 353.159C197.172 355.455 195.291 356.554 191.325 358.001C190.395 358.434 187.363 359.143 186.223 359.439C190.985 351.474 191.132 347.223 193.878 338.459Z" fill="#4A2031"/>
<path d="M337.733 415.691C337.018 413.691 337.285 409.655 336.449 407.369C332.683 397.05 330.046 388.867 331.587 377.699C332.104 373.937 335.838 357.292 333.987 354.762C331.756 354.014 331.503 356.063 330.01 353.52C329.343 352.381 328.472 352.495 327.516 351.789C329.295 351.633 332.651 354.996 335.259 354.606C335.958 353.734 336.735 340.882 336.517 338.973C335.044 338.498 334.524 339.122 334.108 338.397C335.353 338.218 336.003 338.137 337.285 338.114C337.077 353.376 333.031 369.166 332.979 384.441C332.95 393.905 337.659 403.369 339.226 412.562C339.603 414.588 338.875 419.746 338.894 422.472L338.722 422.611L338.433 421.379C338.605 418.875 338.68 417.997 337.733 415.691Z" fill="#020000"/>
<path d="M249.495 242.267C250.126 239.778 250.389 239.574 252.432 237.96C253.258 239.491 254.344 240.981 254.123 242.636L253.29 243.779C252.718 244.562 251.147 246.182 250.422 246.966C249.677 245.853 247.733 243.33 247.677 242.139L248.093 241.851L249.495 242.267Z" fill="#D13A23"/>
<path d="M250.422 246.966C249.677 245.853 247.733 243.33 247.677 242.139L248.093 241.851L249.495 242.267C250.88 243.516 251.726 243.031 253.29 243.779C252.718 244.562 251.147 246.182 250.422 246.966Z" fill="#A61817"/>
<path d="M346.455 301.333L346.514 301.758C345.45 302.591 342.924 303.92 341.607 304.808C338.221 307.088 334.898 309.557 331.412 311.651L331.464 311.196C333.613 308.692 343.073 302.705 346.455 301.333Z" fill="#300607"/>
<path d="M338.433 421.379C338.264 423.317 337.064 426.381 335.763 427.701C335.805 426.212 337.008 423.616 337.246 422.094C337.545 420.153 336.79 417.363 337.733 415.691C338.68 417.997 338.605 418.875 338.433 421.379Z" fill="#24060A"/>
<path d="M222.14 344.41L224 342.918C225.678 346.248 228.644 344.114 229.512 345.588C228.611 346.196 222.845 345.649 221.951 345.018C222.013 344.713 221.98 344.56 222.14 344.41Z" fill="#180404"/>
<path d="M325.987 246.735L326.508 246.958L326.352 247.414C325.246 248.211 324.664 248.283 323.373 248.604C322.719 248.32 322.999 248.527 322.55 247.907C323.116 247.225 325.005 246.963 325.987 246.735Z" fill="#020000"/>
<path d="M278.307 371.097C280.782 371.299 281.179 371.637 282.096 373.78C280.359 373.351 279.351 372.483 278.307 371.097Z" fill="#180404"/>
<path d="M276.122 368.203C277.969 368.45 278.984 368.853 279.92 370.509C277.998 370.678 277.046 369.79 276.122 368.203Z" fill="#020000"/>
<path d="M168.773 335.844L168.96 336.003C168.516 336.631 167.211 336.94 166.342 337.272L166.076 336.709C166.927 335.922 167.449 336.072 168.773 335.844Z" fill="#563A37" fill-opacity="0.952941"/>
<path d="M60.3419 309.609C64.5399 311.612 72.6896 316.198 77.2788 315.83C86.54 315.089 87.3127 318.335 94.7548 320.465C96.0721 320.647 101.49 321.366 102.426 321.798L103.565 321.775C106.294 323.252 111.766 323.375 114.67 322.777C117.995 322.673 120.953 322.364 124.082 323.736C132.521 327.431 137.842 335.548 143.724 342.183L144.36 341.425L145.052 340.378L145.51 340.29C145.869 341.705 145.754 342.134 145.966 343.357C146.008 342.101 145.937 338.878 146.531 337.968C147.132 338.504 147.004 338.849 147.032 339.913C147.243 347.968 149.145 350.95 153.707 357.188C153.73 355.575 153.535 351.666 154.097 350.518C155.324 349.734 157.448 350.095 159.005 350.29C156.818 353.412 156.338 354.863 154.772 358.359C155.393 359.172 156.173 360.134 156.733 360.97C158.726 363.855 159.806 365.647 161.065 369.039C159.406 371.985 154.616 379.839 153.894 382.672C151.413 392.396 146.631 400.962 143.486 410.253C149.787 410.035 153.483 413.613 156.556 418.845C155.554 424.231 155.164 426.712 151.95 431.311L153.598 435.672L94.2546 435.49C92.936 434.67 94.1759 432.046 93.3954 430.586L92.7356 435.386L91.0342 435.396C84.9508 435.334 69.9326 435.178 64.3353 436.056C63.9835 435.923 63.7936 435.858 63.5074 435.571C56.8815 428.023 48.91 427.883 39.5529 428.68C30.581 429.444 28.9895 426.482 21.3078 422.312C13.1863 423.239 7.42486 423.418 0 426.989C4.79013 419.268 9.26969 414.764 18.8278 412.728C21.019 412.263 23.9149 412.331 25.8241 411.33C26.5002 410.972 28.3639 410.019 29.0178 409.967C36.4069 409.398 41.9541 410.852 49.4908 409.577C59.5374 407.876 68.2643 404.077 77.7379 400.679C80.1489 400.289 83.6828 400.292 86.1225 400.295C86.1423 398.747 86.2815 397.378 86.4262 395.843C83.6123 393.095 79.4764 391.079 75.8814 387.28C69.9202 380.977 63.4368 369.51 56.5817 364.886C53.9564 364.697 48.886 365.357 46.8623 364.798C41.3096 363.27 39.7763 361.058 33.6528 360.83L33.421 360.824L33.3735 360.398C35.3396 358.476 43.6588 354.44 46.3101 354.05C54.6966 352.814 65.854 355.468 72.8128 360.336C80.4449 365.676 84.5605 363.029 93.0416 362.417C93.2524 355.581 95.0019 346.166 98.2308 340.124C95.4728 338.212 94.0123 335.916 90.5074 334.843C75.5175 334.234 74.9195 326.149 66.7271 315.743C64.8384 313.346 62.6768 311.538 60.3419 309.609ZM131.59 368.245C133.887 371.254 134.466 372.896 134.077 376.737C133.748 378.09 133.2 379.42 133.732 380.59C139.354 377.498 138.36 370.886 134.396 366.723C133.58 366.346 132.01 365.917 131.094 365.631L130.521 366.19C130.715 367.11 131.046 367.452 131.59 368.245ZM127.973 429.347C129.217 426.267 130.49 422.868 129.088 419.548C128.326 417.72 126.854 416.283 125.009 415.561C124.043 415.184 122.542 415.001 121.506 414.884C121.663 415.893 125.307 419.815 125.907 422.228C126.378 424.124 126.217 429.444 126.9 430.413C127.633 430.117 127.439 430.14 127.973 429.347Z" fill="#1E0304"/>
<path d="M103.565 321.775C106.294 323.252 111.766 323.375 114.67 322.777C117.995 322.673 120.953 322.364 124.081 323.736C132.521 327.431 137.842 335.548 143.724 342.183L144.36 341.425L145.052 340.378L145.51 340.29C145.869 341.705 145.754 342.134 145.966 343.357C146.008 342.101 145.937 338.878 146.531 337.968C147.132 338.504 147.004 338.849 147.031 339.913C147.243 347.968 149.145 350.95 153.707 357.188C153.73 355.575 153.535 351.666 154.097 350.518C155.324 349.734 157.447 350.095 159.005 350.29C156.818 353.412 156.338 354.863 154.772 358.359C155.393 359.172 156.173 360.134 156.733 360.97C152.502 361.91 143.408 346.521 141.326 342.888C140.816 342.215 139.886 340.488 139.226 340.004C134.203 336.338 130.529 331.483 126.326 326.937C120.901 321.07 107.012 326.995 102.426 321.798L103.565 321.775Z" fill="#020000"/>
<path d="M144.36 341.425L145.052 340.378L145.51 340.29C145.869 341.705 145.754 342.134 145.966 343.357L146.76 346.693L143.724 342.183L144.36 341.425Z" fill="#4A2031"/>
<path d="M60.3419 309.609C64.5399 311.612 72.6896 316.198 77.2788 315.83C86.54 315.089 87.3126 318.335 94.7547 320.465C90.9415 321.2 85.9446 316.269 84.8675 316.985C85.1686 318.357 85.9361 319.827 87.0245 320.738C89.283 321.362 91.3477 321.294 92.3259 321.59C85.6002 323.099 86.7806 318.354 81.4819 317.008L83.7579 316.624C81.9889 316.149 77.4856 316.904 75.619 317.323C78.3015 323.476 80.2198 327.128 85.8844 331.363C87.5143 332.579 89.4446 333.233 90.5074 334.843C75.5175 334.234 74.9195 326.149 66.7271 315.743C64.8384 313.346 62.6768 311.538 60.3419 309.609Z" fill="#020000"/>
<path d="M77.7379 400.679C80.1489 400.289 83.6828 400.292 86.1224 400.295C86.2593 402.51 86.3969 404.533 86.6522 406.748L86.1982 407.183C85.2086 407.063 82.1911 405.476 81.3082 404.822C79.174 403.245 78.2696 403.229 77.7379 400.679Z" fill="#300607"/>
<path d="M91.0342 435.396C91.2556 432.436 92.9551 425.343 96.4825 424.882C97.8821 426.504 95.226 433.718 94.2546 435.49C92.9359 434.67 94.1759 432.046 93.3954 430.586L92.7356 435.386L91.0342 435.396Z" fill="#020000"/>
<path d="M86.4262 395.843L86.4359 396.266C86.5345 399.294 87.9819 400.461 88.0047 401.58C88.0746 405.017 89.1841 414.032 88.9955 416.777C87.6606 416.289 87.4843 408.426 86.6522 406.748C86.3969 404.533 86.2593 402.51 86.1224 400.295C86.1423 398.747 86.2815 397.378 86.4262 395.843Z" fill="#020000"/>
<path d="M130.428 346.127L130.519 345.805C131.965 340.589 126.799 333.786 126.375 330.546L126.683 330.374C128.097 331.951 128.819 333.886 130.004 335.503C136.571 344.459 135.714 356.222 134.396 366.723C133.58 366.346 132.01 365.917 131.094 365.631L131.179 365.107L130.249 364.086C124.822 361.686 117.806 365.426 113.854 365.744C114.129 364.879 114.558 364.844 115.478 364.245C114.781 362.118 115.625 349.903 115.199 346.196C118.238 342.67 120.817 341.909 125.247 341.217C128.12 342.739 128.457 343.47 130.428 346.127Z" fill="#4A2031"/>
<path d="M130.428 346.127L130.519 345.805C131.965 340.589 126.799 333.786 126.375 330.546L126.683 330.374C128.097 331.951 128.819 333.886 130.004 335.503C136.571 344.459 135.714 356.222 134.396 366.723C133.58 366.346 132.01 365.917 131.094 365.631L131.179 365.107L130.249 364.086C124.822 361.686 117.806 365.426 113.854 365.744C114.129 364.879 114.558 364.844 115.478 364.245C120.383 361.806 126.482 362.105 131.718 363.045C132.161 356.801 132.932 352.007 130.428 346.127Z" fill="#020000"/>
<path d="M127.919 383.491C129.108 383.875 130.101 384.148 131.305 384.454L132.606 384.76C132.011 386.23 130.392 392.019 129.786 392.331L129.66 392.217C129.315 392.763 129.177 393.134 129.017 393.762C128.48 395.879 128.061 398.025 127.612 400.162C127.466 400.838 126.974 401.346 126.763 402.338L126.477 402.169C126.461 399.723 128.665 396.084 128.169 393.476C127.482 393.241 127.192 393.167 126.688 392.597C123.895 396.946 126.129 410.214 121.68 411.261C119.4 411.798 118.787 410.9 115.315 413.281L114.933 413.232L115.209 412.637C115.352 404.809 121.549 392.731 114.589 386.288C118.058 384.812 124.025 382.86 127.804 383.778L127.919 383.491Z" fill="#4A2031"/>
<path d="M127.918 383.491C129.108 383.875 130.101 384.148 131.305 384.454L132.606 384.76C132.011 386.23 130.392 392.019 129.786 392.331L129.66 392.217C129.315 392.763 129.177 393.134 129.017 393.762C128.479 395.879 128.061 398.025 127.611 400.162C127.465 400.838 126.974 401.346 126.763 402.338L126.477 402.169C126.461 399.723 128.665 396.084 128.169 393.476C127.482 393.241 127.192 393.167 126.688 392.597C123.895 396.946 126.129 410.214 121.68 411.261C119.4 411.798 118.787 410.9 115.315 413.281L114.933 413.232L115.209 412.637C117.952 410.611 119.365 410.738 122.67 410.777C123.591 407.944 124.296 401.801 124.753 398.705C125.552 393.29 126.387 389.062 127.804 383.778L127.918 383.491Z" fill="#180404"/>
<path d="M131.305 384.454L132.606 384.76C132.011 386.23 130.392 392.019 129.786 392.331L129.66 392.217C130.152 389.508 130.562 387.111 131.305 384.454Z" fill="#300607"/>
<path d="M132.233 379.364C132.904 378.086 132.635 377.068 133.464 376.177L134.077 376.737C133.748 378.09 133.2 379.42 133.732 380.59C133.862 384.434 144.612 392.688 143.785 395.463C141.817 394.893 137.021 385.989 133.232 385.114C133.189 385.104 132.631 384.773 132.606 384.76L131.305 384.454C130.101 384.148 129.108 383.875 127.918 383.491L127.958 382.994C128.111 382.795 128.26 382.594 128.405 382.389C129.134 381.355 129.109 381.625 128.954 380.656C126.967 379.761 111.35 381.973 108.944 382.799L109.106 382.581C114.731 379.8 125.986 379 132.233 379.364Z" fill="#020000"/>
<path d="M131.59 368.245C133.887 371.254 134.466 372.896 134.077 376.737L133.464 376.177C132.635 377.068 132.904 378.086 132.233 379.364L130.953 378.919C130.863 378.737 130.656 378.343 130.676 378.142C130.913 375.839 130.368 369.891 131.59 368.245Z" fill="#300607"/>
<path d="M139 371.224C141.719 371.823 145.209 381.14 145.811 383.995C144.137 383.192 139.805 373.371 139 371.224Z" fill="#020000"/>
<path d="M145.153 416.257L145.604 416.654C146.44 418.979 145.347 424.485 144.66 426.882C143.927 425.964 144.981 418.032 145.153 416.257Z" fill="#180404"/>
<path d="M348.039 155.858L348.384 157.144C350.231 160.756 351.6 162.667 354.358 165.612C354.718 165.996 357.005 168.29 357.167 168.514C360.93 171.453 361.05 170.702 364.335 172.374C361.105 172.127 357.701 171.814 354.481 171.694L351.61 171.115C348.085 170.172 345.434 169.325 342.803 166.779C344.504 164.065 344.927 162.076 346 159.108C346.634 158.003 347.346 156.929 348.039 155.858Z" fill="#300607"/>
<path d="M348.384 157.144C350.231 160.756 351.6 162.667 354.358 165.612C354.718 165.996 357.005 168.29 357.167 168.514C360.93 171.453 361.05 170.702 364.335 172.374C361.105 172.127 357.701 171.814 354.481 171.694L351.61 171.115C352.507 168.145 347.376 162.21 348.384 157.144Z" fill="#180404"/>
<path d="M357.167 168.514C360.93 171.453 361.05 170.702 364.335 172.374C361.105 172.127 357.701 171.814 354.481 171.694C355.444 171.678 356.159 171.614 357.115 171.511L357.427 171.039C357.053 169.959 356.962 169.641 357.167 168.514Z" fill="#020000"/>
<path d="M92.7357 435.386C92.1077 435.815 90.4469 435.724 89.6339 435.747C90.7315 436.797 146.522 435.656 153.679 436.153C152.794 436.81 152.74 436.872 151.706 437.197H54.8712C56.9434 436.456 61.8886 436.293 64.3354 436.056C69.9326 435.178 84.9508 435.334 91.0342 435.396L92.7357 435.386Z" fill="#180404" fill-opacity="0.984314"/>
<path d="M92.7356 435.386L93.3955 430.586C94.1759 432.046 92.936 434.67 94.2546 435.49L153.598 435.672L153.99 435.955L153.679 436.153C146.522 435.656 90.7314 436.797 89.6339 435.747C90.4469 435.724 92.1077 435.815 92.7356 435.386Z" fill="#2D2325" fill-opacity="0.980392"/>
<path d="M180.9 0C182.008 0.320597 183.833 1.07506 184.97 1.5061C182.925 3.34327 181.945 4.21277 179.511 5.48361C178.525 6.31177 177.825 6.87898 176.761 7.62268C177.975 4.4745 178.918 2.71837 180.9 0Z" fill="#180404"/>
<path d="M389.199 435.685C391.501 435.438 393.053 435.012 395.137 436.043L395.202 436.511C393.901 436.586 390.136 436.518 389.199 435.685Z" fill="#180404" fill-opacity="0.301961"/>
<path d="M123.111 176.064C126.886 175.999 127.983 175.818 131.744 174.978C130.684 175.49 128.139 176.822 127.135 176.983C126.418 175.946 125.459 177.252 123.111 176.064Z" fill="#020000" fill-opacity="0.905882"/>
<path d="M179.511 5.48362L180.012 6.86289C179.035 7.39995 178.003 8.01734 176.968 8.40915L176.761 7.62269C177.825 6.87899 178.525 6.31178 179.511 5.48362Z" fill="#180404" fill-opacity="0.0196078"/>
</svg>
