<svg width="666" height="688" viewBox="0 0 666 688" fill="none" xmlns="http://www.w3.org/2000/svg">
<path d="M339.5 190.5H390L438 155.5V98.5L415.5 57.5L390 3.5H339.5H260.5L216 79.5V98.5V124L260.5 155.5H282.5L339.5 190.5ZM339.5 190.5L343.782 238M355.5 368L311 453.5M355.5 368L415.5 453.5M355.5 368L345.494 257M311 453.5H415.5M311 453.5L241.5 577L194 684.5H282.5L311 615V529.5V453.5ZM415.5 453.5L418.5 592.5L466.5 684.5H586.5L558 615L504.5 529.5L415.5 453.5ZM343.782 238L533 257H662.5V314H504.5L345.494 257M343.782 238L345.494 257M343.782 238L140 257L3.5 288.5V368L140 330H260.5L345.494 257" stroke="#3428E1" stroke-width="7"/>
</svg>
